%
M48
METRIC,000.000
T01C0.20
T02C0.30
T03C0.90
T04C1.30
T05C3.00
T10C0.50
%
T01
X007599Y070599
X030099Y070749
X031849Y070749
X030099Y073949
X028300Y074201
X027548Y073850
X028498Y077299
X026050Y078801
X026050Y082499
X025951Y085199
X023500Y088100
X028600Y088600
X034599Y088600
X031600Y094599
X025600Y094599
X021399Y083500
X020500Y083500
X023401Y081000
X028600Y081300
X034599Y076598
X022550Y075049
X014800Y079649
X015900Y081501
X010599Y076598
X013599Y094599
X007599Y094599
X050599Y070599
X073099Y070749
X074849Y070749
X073099Y073949
X071300Y074201
X070548Y073850
X071498Y077299
X069050Y078801
X069050Y082499
X068951Y085199
X066500Y088100
X071600Y088600
X077599Y088600
X074600Y094599
X068600Y094599
X064399Y083500
X063500Y083500
X066401Y081000
X071600Y081300
X077599Y076598
X065550Y075049
X057800Y079649
X058900Y081501
X053599Y076598
X056599Y094599
X050599Y094599
X007599Y027599
X030099Y027749
X031849Y027749
X030099Y030949
X028300Y031201
X027548Y030850
X028498Y034299
X026050Y035801
X026050Y039499
X025951Y042199
X023500Y045100
X028600Y045600
X034599Y045600
X031600Y051599
X025600Y051599
X021399Y040500
X020500Y040500
X023401Y038000
X028600Y038300
X034599Y033598
X022550Y032049
X014800Y036649
X015900Y038501
X010599Y033598
X013599Y051599
X007599Y051599
X050599Y027599
X073099Y027749
X074849Y027749
X073099Y030949
X071300Y031201
X070548Y030850
X071498Y034299
X069050Y035801
X069050Y039499
X068951Y042199
X066500Y045100
X071600Y045600
X077599Y045600
X074600Y051599
X068600Y051599
X064399Y040500
X063500Y040500
X066401Y038000
X071600Y038300
X077599Y033598
X065550Y032049
X057800Y036649
X058900Y038501
X053599Y033598
X056599Y051599
X050599Y051599
T02
X018900Y078900
X021099Y078900
X021099Y081099
X019999Y079999
X018900Y081099
X061900Y078900
X064099Y078900
X064099Y081099
X062999Y079999
X061900Y081099
X018900Y035900
X021099Y035900
X021099Y038099
X019999Y036999
X018900Y038099
X061900Y035900
X064099Y035900
X064099Y038099
X062999Y036999
X061900Y038099
T03
X008300Y061760
X008300Y064300
X008300Y066840
X011099Y066840
X011099Y064300
X011099Y061760
X013898Y061760
X013898Y064300
X013898Y066840
X001549Y068859
X001549Y071399
X017150Y066840
X017150Y064300
X017150Y061760
X019949Y061760
X019949Y064300
X019949Y066840
X023200Y066840
X023200Y064300
X023200Y061760
X025999Y061760
X025999Y064300
X025999Y066840
X029250Y064300
X029250Y061760
X032049Y061760
X032049Y064300
X038199Y070660
X038199Y073200
X038199Y077459
X038199Y079999
X038199Y082539
X038199Y086758
X038199Y089298
X006690Y088100
X004150Y088100
X001610Y088100
X051300Y061760
X051300Y064300
X051300Y066840
X054099Y066840
X054099Y064300
X054099Y061760
X056898Y061760
X056898Y064300
X056898Y066840
X044549Y068859
X044549Y071399
X060150Y066840
X060150Y064300
X060150Y061760
X062949Y061760
X062949Y064300
X062949Y066840
X066200Y066840
X066200Y064300
X066200Y061760
X068999Y061760
X068999Y064300
X068999Y066840
X072250Y064300
X072250Y061760
X075049Y061760
X075049Y064300
X081199Y070660
X081199Y073200
X081199Y077459
X081199Y079999
X081199Y082539
X081199Y086758
X081199Y089298
X049690Y088100
X047150Y088100
X044610Y088100
X008300Y018760
X008300Y021300
X008300Y023840
X011099Y023840
X011099Y021300
X011099Y018760
X013898Y018760
X013898Y021300
X013898Y023840
X001549Y025859
X001549Y028399
X017150Y023840
X017150Y021300
X017150Y018760
X019949Y018760
X019949Y021300
X019949Y023840
X023200Y023840
X023200Y021300
X023200Y018760
X025999Y018760
X025999Y021300
X025999Y023840
X029250Y021300
X029250Y018760
X032049Y018760
X032049Y021300
X038199Y027660
X038199Y030200
X038199Y034459
X038199Y036999
X038199Y039539
X038199Y043758
X038199Y046298
X006690Y045100
X004150Y045100
X001610Y045100
X051300Y018760
X051300Y021300
X051300Y023840
X054099Y023840
X054099Y021300
X054099Y018760
X056898Y018760
X056898Y021300
X056898Y023840
X044549Y025859
X044549Y028399
X060150Y023840
X060150Y021300
X060150Y018760
X062949Y018760
X062949Y021300
X062949Y023840
X066200Y023840
X066200Y021300
X066200Y018760
X068999Y018760
X068999Y021300
X068999Y023840
X072250Y021300
X072250Y018760
X075049Y018760
X075049Y021300
X081199Y027660
X081199Y030200
X081199Y034459
X081199Y036999
X081199Y039539
X081199Y043758
X081199Y046298
X049690Y045100
X047150Y045100
X044610Y045100
T04
X016499Y095798
X023500Y095798
X028501Y095798
X011501Y095798
X004201Y082499
X004201Y077500
X059499Y095798
X066500Y095798
X071501Y095798
X054501Y095798
X047201Y082499
X047201Y077500
X016499Y052798
X023500Y052798
X028501Y052798
X011501Y052798
X004201Y039499
X004201Y034500
X059499Y052798
X066500Y052798
X071501Y052798
X054501Y052798
X047201Y039499
X047201Y034500
T05
X002999Y062999
X037000Y062999
X037000Y097000
X002999Y097000
X045999Y062999
X080000Y062999
X080000Y097000
X045999Y097000
X002999Y019999
X037000Y019999
X037000Y054000
X002999Y054000
X045999Y019999
X080000Y019999
X080000Y054000
X045999Y054000
T10
X040249Y078607
X040249Y079607
X040249Y080607
X040249Y081607
X040249Y082607
X042750Y083177
X042750Y082177
X042750Y081177
X042750Y080177
X042750Y079177
X042750Y078177
X018429Y059750
X019429Y059750
X020429Y059750
X021429Y059750
X022429Y059750
X022785Y057249
X021785Y057249
X020785Y057249
X019785Y057249
X018785Y057249
X017785Y057249
X061429Y059750
X062429Y059750
X063429Y059750
X064429Y059750
X065429Y059750
X065785Y057249
X064785Y057249
X063785Y057249
X062785Y057249
X061785Y057249
X060785Y057249
X040249Y034607
X040249Y035607
X040249Y036607
X040249Y037607
X040249Y038607
X040249Y039607
X042750Y039177
X042750Y038177
X042750Y037177
X042750Y036177
X042750Y035177
M30