%MOIN*%
%OFA0B0*%
%FSLAX36Y36*%
%IPPOS*%
%LPD*%
%ADD10C,0*%
D10*
X000875435Y002362204D02*
X000875435Y002362204D01*
X001574799Y002362204D01*
X001574799Y003068766D01*
X001574882Y003071324D01*
X001575131Y003073870D01*
X001575545Y003076396D01*
X001576123Y003078889D01*
X001576861Y003081339D01*
X001577756Y003083736D01*
X001578806Y003086070D01*
X001580005Y003088331D01*
X001581348Y003090509D01*
X001582830Y003092595D01*
X001584444Y003094581D01*
X001586184Y003096457D01*
X001588042Y003098217D01*
X001590010Y003099852D01*
X001592081Y003101356D01*
X001594245Y003102722D01*
X001596493Y003103945D01*
X001598815Y003105019D01*
X001601203Y003105940D01*
X001603645Y003106703D01*
X001643019Y003117626D01*
X001646552Y003118432D01*
X001650143Y003118911D01*
X001653764Y003119058D01*
X001657383Y003118870D01*
X001660969Y003118352D01*
X001664492Y003117505D01*
X001667922Y003116338D01*
X001671231Y003114861D01*
X001674390Y003113086D01*
X001677372Y003111028D01*
X001680153Y003108704D01*
X001682708Y003106135D01*
X001685016Y003103341D01*
X001687057Y003100347D01*
X001688814Y003097179D01*
X001690273Y003093862D01*
X001691421Y003090425D01*
X001692247Y003086897D01*
X001692746Y003083308D01*
X001692913Y003079688D01*
X001692913Y002362204D01*
X002392280Y002362204D01*
X002396417Y002361986D01*
X002400509Y002361335D01*
X002404509Y002360257D01*
X002408373Y002358765D01*
X002412060Y002356875D01*
X002415528Y002354608D01*
X002418738Y002351989D01*
X002421655Y002349047D01*
X002424247Y002345816D01*
X002426485Y002342329D01*
X002428344Y002338627D01*
X002429804Y002334750D01*
X002430848Y002330741D01*
X002431466Y002326645D01*
X002431649Y002322506D01*
X002431397Y002318371D01*
X002430711Y002314285D01*
X002429600Y002310294D01*
X002428075Y002306442D01*
X002426155Y002302771D01*
X002402835Y002263398D01*
X002401751Y002261670D01*
X002400578Y002260002D01*
X002399321Y002258396D01*
X002397983Y002256858D01*
X002396566Y002255390D01*
X002395076Y002253999D01*
X002393515Y002252686D01*
X002391888Y002251456D01*
X002390200Y002250311D01*
X002388456Y002249256D01*
X002386658Y002248292D01*
X002384813Y002247423D01*
X002382926Y002246651D01*
X002381001Y002245977D01*
X002379044Y002245404D01*
X002377060Y002244933D01*
X002375054Y002244565D01*
X002373032Y002244302D01*
X002370999Y002244143D01*
X002368960Y002244090D01*
X001692913Y002244090D01*
X001692913Y001544727D01*
X001692695Y001540590D01*
X001692043Y001536498D01*
X001690966Y001532498D01*
X001689473Y001528633D01*
X001687583Y001524947D01*
X001685316Y001521479D01*
X001682698Y001518269D01*
X001679756Y001515352D01*
X001676524Y001512760D01*
X001673038Y001510522D01*
X001669336Y001508663D01*
X001665459Y001507203D01*
X001661450Y001506159D01*
X001657353Y001505541D01*
X001653214Y001505358D01*
X001649079Y001505610D01*
X001644994Y001506296D01*
X001641003Y001507407D01*
X001637151Y001508931D01*
X001633480Y001510852D01*
X001594106Y001534172D01*
X001592379Y001535256D01*
X001590710Y001536429D01*
X001589105Y001537686D01*
X001587566Y001539024D01*
X001586099Y001540441D01*
X001584707Y001541931D01*
X001583395Y001543492D01*
X001582164Y001545118D01*
X001581020Y001546806D01*
X001579965Y001548551D01*
X001579001Y001550349D01*
X001578132Y001552193D01*
X001577359Y001554081D01*
X001576686Y001556005D01*
X001576112Y001557963D01*
X001575641Y001559947D01*
X001575274Y001561953D01*
X001575010Y001563975D01*
X001574852Y001566008D01*
X001574799Y001568047D01*
X001574799Y002244090D01*
X000898755Y002244090D01*
X000896717Y002244143D01*
X000894683Y002244302D01*
X000892661Y002244565D01*
X000890655Y002244933D01*
X000888671Y002245404D01*
X000886714Y002245977D01*
X000884789Y002246651D01*
X000882902Y002247423D01*
X000881057Y002248292D01*
X000879260Y002249256D01*
X000877515Y002250311D01*
X000875827Y002251456D01*
X000874201Y002252686D01*
X000872640Y002253999D01*
X000871149Y002255390D01*
X000869733Y002256858D01*
X000868394Y002258396D01*
X000867137Y002260002D01*
X000865965Y002261670D01*
X000864881Y002263398D01*
X000841561Y002302771D01*
X000839640Y002306442D01*
X000838116Y002310294D01*
X000837005Y002314285D01*
X000836319Y002318371D01*
X000836067Y002322506D01*
X000836250Y002326645D01*
X000836867Y002330741D01*
X000837912Y002334750D01*
X000839372Y002338627D01*
X000841231Y002342329D01*
X000843469Y002345816D01*
X000846061Y002349047D01*
X000848978Y002351989D01*
X000852188Y002354608D01*
X000855656Y002356875D01*
X000859342Y002358765D01*
X000863207Y002360257D01*
X000867207Y002361335D01*
X000871298Y002361986D01*
X000875435Y002362204D01*
X001574799Y003937004D02*
X001574799Y003937004D01*
X000000000Y003937004D01*
X000000000Y002362204D01*
X000699367Y002362204D01*
X000703504Y002361986D01*
X000707595Y002361335D01*
X000711595Y002360257D01*
X000715460Y002358765D01*
X000719147Y002356875D01*
X000722614Y002354608D01*
X000725824Y002351989D01*
X000728741Y002349047D01*
X000731333Y002345816D01*
X000733571Y002342329D01*
X000735431Y002338627D01*
X000736890Y002334750D01*
X000737935Y002330741D01*
X000738552Y002326645D01*
X000738736Y002322506D01*
X000738483Y002318371D01*
X000737798Y002314285D01*
X000736686Y002310294D01*
X000735162Y002306442D01*
X000733241Y002302771D01*
X000709921Y002263398D01*
X000708837Y002261670D01*
X000707665Y002260002D01*
X000706408Y002258396D01*
X000705069Y002256858D01*
X000703653Y002255390D01*
X000702162Y002253999D01*
X000700602Y002252686D01*
X000698975Y002251456D01*
X000697287Y002250311D01*
X000695542Y002249256D01*
X000693745Y002248292D01*
X000691900Y002247423D01*
X000690013Y002246651D01*
X000688088Y002245977D01*
X000686131Y002245404D01*
X000684147Y002244933D01*
X000682141Y002244565D01*
X000680119Y002244302D01*
X000678086Y002244143D01*
X000676047Y002244090D01*
X000000000Y002244090D01*
X000000000Y000669291D01*
X001574799Y000669291D01*
X001574799Y001345338D01*
X001574852Y001347377D01*
X001575010Y001349410D01*
X001575274Y001351432D01*
X001575641Y001353438D01*
X001576112Y001355422D01*
X001576686Y001357379D01*
X001577359Y001359304D01*
X001578132Y001361191D01*
X001579001Y001363036D01*
X001579965Y001364833D01*
X001581020Y001366578D01*
X001582164Y001368266D01*
X001583395Y001369893D01*
X001584707Y001371453D01*
X001586099Y001372944D01*
X001587566Y001374360D01*
X001589105Y001375699D01*
X001590710Y001376956D01*
X001592379Y001378128D01*
X001594106Y001379213D01*
X001633480Y001402533D01*
X001637151Y001404453D01*
X001641003Y001405978D01*
X001644994Y001407089D01*
X001649079Y001407774D01*
X001653214Y001408027D01*
X001657353Y001407843D01*
X001661450Y001407226D01*
X001665459Y001406182D01*
X001669336Y001404722D01*
X001673038Y001402863D01*
X001676524Y001400625D01*
X001679756Y001398033D01*
X001682698Y001395116D01*
X001685316Y001391906D01*
X001687583Y001388438D01*
X001689473Y001384751D01*
X001690966Y001380887D01*
X001692043Y001376887D01*
X001692695Y001372795D01*
X001692913Y001368658D01*
X001692913Y000669291D01*
X003267712Y000669291D01*
X003267712Y002244090D01*
X002591669Y002244090D01*
X002589630Y002244143D01*
X002587597Y002244302D01*
X002585575Y002244565D01*
X002583569Y002244933D01*
X002581585Y002245404D01*
X002579628Y002245977D01*
X002577703Y002246651D01*
X002575815Y002247423D01*
X002573971Y002248292D01*
X002572173Y002249256D01*
X002570428Y002250311D01*
X002568740Y002251456D01*
X002567114Y002252686D01*
X002565553Y002253999D01*
X002564063Y002255390D01*
X002562646Y002256858D01*
X002561308Y002258396D01*
X002560051Y002260002D01*
X002558878Y002261670D01*
X002557794Y002263398D01*
X002534474Y002302771D01*
X002532553Y002306442D01*
X002531029Y002310294D01*
X002529918Y002314285D01*
X002529232Y002318371D01*
X002528980Y002322506D01*
X002529163Y002326645D01*
X002529781Y002330741D01*
X002530825Y002334750D01*
X002532285Y002338627D01*
X002534144Y002342329D01*
X002536382Y002345816D01*
X002538974Y002349047D01*
X002541891Y002351989D01*
X002545101Y002354608D01*
X002548569Y002356875D01*
X002552255Y002358765D01*
X002556120Y002360257D01*
X002560120Y002361335D01*
X002564212Y002361986D01*
X002568349Y002362204D01*
X003267712Y002362204D01*
X003267712Y003937004D01*
X001692913Y003937004D01*
X001692913Y003272177D01*
X001692746Y003268557D01*
X001692247Y003264968D01*
X001691421Y003261441D01*
X001690273Y003258004D01*
X001688814Y003254687D01*
X001687057Y003251518D01*
X001685016Y003248524D01*
X001682708Y003245731D01*
X001680153Y003243161D01*
X001677372Y003240838D01*
X001674390Y003238780D01*
X001671231Y003237004D01*
X001667922Y003235527D01*
X001664492Y003234360D01*
X001660969Y003233514D01*
X001657383Y003232995D01*
X001653764Y003232808D01*
X001650143Y003232954D01*
X001646552Y003233433D01*
X001643019Y003234240D01*
X001603645Y003245162D01*
X001601203Y003245926D01*
X001598815Y003246847D01*
X001596493Y003247921D01*
X001594245Y003249143D01*
X001592081Y003250509D01*
X001590010Y003252013D01*
X001588042Y003253648D01*
X001586184Y003255408D01*
X001584444Y003257284D01*
X001582830Y003259270D01*
X001581348Y003261356D01*
X001580005Y003263534D01*
X001578806Y003265795D01*
X001577756Y003268129D01*
X001576861Y003270526D01*
X001576123Y003272977D01*
X001575545Y003275470D01*
X001575131Y003277995D01*
X001574882Y003280542D01*
X001574799Y003283099D01*
X001574799Y003937004D01*
M02*