%MOIN*%
%OFA0B0*%
%FSLAX25Y25*%
%IPPOS*%
%LPD*%
%ADD10C,0.00984*%
%ADD11C,0.01*%
%ADD12C,0.00787*%
%ADD13C,0.00394*%
%ADD24C,0.00984*%
%ADD25C,0.01*%
%ADD26C,0.00787*%
%ADD27C,0.00394*%
%ADD28C,0.00984*%
%ADD29C,0.01*%
%ADD30C,0.00787*%
%ADD31C,0.00394*%
%ADD32C,0.00984*%
%ADD33C,0.01*%
%ADD34C,0.00787*%
%ADD35C,0.00394*%
G01*
G75*
D10*
X0069980Y0302559D02*
X0069242Y0302985D01*
X0069242Y0302132D01*
X0069980Y0302559D01*
X0054823Y0291436D02*
X0054085Y0291863D01*
X0054085Y0291010D01*
X0054823Y0291436D01*
D11*
X0086221Y0274409D02*
X0107480Y0274409D01*
X0086221Y0287401D02*
X0107480Y0287401D01*
X0107480Y0274409D02*
X0107480Y0287401D01*
X0086221Y0274409D02*
X0086221Y0287401D01*
X0086221Y0268503D02*
X0107480Y0268503D01*
X0086221Y0280708D02*
X0107480Y0280708D01*
X0107480Y0268503D02*
X0107480Y0280708D01*
X0086221Y0268503D02*
X0086221Y0280708D01*
X0062402Y0274409D02*
X0083661Y0274409D01*
X0062402Y0287401D02*
X0083661Y0287401D01*
X0083661Y0274409D02*
X0083661Y0287401D01*
X0062402Y0274409D02*
X0062402Y0287401D01*
X0062402Y0268503D02*
X0083661Y0268503D01*
X0062402Y0280708D02*
X0083661Y0280708D01*
X0083661Y0268503D02*
X0083661Y0280708D01*
X0062402Y0268503D02*
X0062402Y0280708D01*
X0027559Y0268503D02*
X0059841Y0268503D01*
X0027559Y0280708D02*
X0059841Y0280708D01*
X0059841Y0268503D02*
X0059841Y0280708D01*
X0027559Y0268503D02*
X0027559Y0280708D01*
X0110039Y0264173D02*
X0131299Y0264173D01*
X0110039Y0277165D02*
X0131299Y0277165D01*
X0131299Y0264173D02*
X0131299Y0277165D01*
X0110039Y0264173D02*
X0110039Y0277165D01*
X0110039Y0258266D02*
X0131299Y0258266D01*
X0110039Y0270472D02*
X0131299Y0270472D01*
X0131299Y0258266D02*
X0131299Y0270472D01*
X0110039Y0258266D02*
X0110039Y0270472D01*
X0027559Y0274409D02*
X0059841Y0274409D01*
X0027559Y0287401D02*
X0059841Y0287401D01*
X0059841Y0274409D02*
X0059841Y0287401D01*
X0027559Y0274409D02*
X0027559Y0287401D01*
X0006052Y0356773D02*
X0005527Y0357298D01*
X0004478Y0357298D01*
X0003953Y0356773D01*
X0003953Y0356248D01*
X0004478Y0355723D01*
X0005527Y0355723D01*
X0006052Y0355199D01*
X0006052Y0354674D01*
X0005527Y0354149D01*
X0004478Y0354149D01*
X0003953Y0354674D01*
X0007101Y0357298D02*
X0009200Y0357298D01*
X0008151Y0357298D01*
X0008151Y0354149D01*
X0011824Y0357298D02*
X0010775Y0357298D01*
X0010249Y0356773D01*
X0010249Y0354674D01*
X0010775Y0354149D01*
X0011824Y0354149D01*
X0012349Y0354674D01*
X0012349Y0356773D01*
X0011824Y0357298D01*
X0013397Y0354149D02*
X0013397Y0357298D01*
X0015498Y0354149D01*
X0015498Y0357298D01*
X0016547Y0357298D02*
X0016547Y0354149D01*
X0018121Y0354149D01*
X0018646Y0354674D01*
X0018646Y0355199D01*
X0018121Y0355723D01*
X0016547Y0355723D01*
X0018121Y0355723D01*
X0018646Y0356248D01*
X0018646Y0356773D01*
X0018121Y0357298D01*
X0016547Y0357298D01*
X0019695Y0354149D02*
X0019695Y0356248D01*
X0020745Y0357298D01*
X0021795Y0356248D01*
X0021795Y0354149D01*
X0021795Y0355723D01*
X0019695Y0355723D01*
X0022844Y0357298D02*
X0024943Y0357298D01*
X0023894Y0357298D01*
X0023894Y0354149D01*
X0025993Y0357298D02*
X0028092Y0357298D01*
X0027042Y0357298D01*
X0027042Y0354149D01*
X0014516Y0272324D02*
X0013991Y0272848D01*
X0012942Y0272848D01*
X0012417Y0272324D01*
X0012417Y0270225D01*
X0012942Y0269700D01*
X0013991Y0269700D01*
X0014516Y0270225D01*
X0017665Y0272324D02*
X0017140Y0272848D01*
X0016091Y0272848D01*
X0015566Y0272324D01*
X0015566Y0271799D01*
X0016091Y0271275D01*
X0017140Y0271275D01*
X0017665Y0270750D01*
X0017665Y0270225D01*
X0017140Y0269700D01*
X0016091Y0269700D01*
X0015566Y0270225D01*
X0018714Y0272848D02*
X0019764Y0272848D01*
X0019239Y0272848D01*
X0019239Y0269700D01*
X0018714Y0269700D01*
X0019764Y0269700D01*
X0021338Y0269700D02*
X0021338Y0272848D01*
X0023436Y0269700D01*
X0023436Y0272848D01*
X0014516Y0282560D02*
X0013991Y0283085D01*
X0012942Y0283085D01*
X0012417Y0282560D01*
X0012417Y0280460D01*
X0012942Y0279935D01*
X0013991Y0279935D01*
X0014516Y0280460D01*
X0017665Y0282560D02*
X0017140Y0283085D01*
X0016091Y0283085D01*
X0015566Y0282560D01*
X0015566Y0282036D01*
X0016091Y0281511D01*
X0017140Y0281511D01*
X0017665Y0280986D01*
X0017665Y0280460D01*
X0017140Y0279935D01*
X0016091Y0279935D01*
X0015566Y0280460D01*
X0020289Y0283085D02*
X0019239Y0283085D01*
X0018714Y0282560D01*
X0018714Y0280460D01*
X0019239Y0279935D01*
X0020289Y0279935D01*
X0020814Y0280460D01*
X0020814Y0282560D01*
X0020289Y0283085D01*
X0021863Y0283085D02*
X0021863Y0280460D01*
X0022388Y0279935D01*
X0023436Y0279935D01*
X0023962Y0280460D01*
X0023962Y0283085D01*
X0025012Y0283085D02*
X0027111Y0283085D01*
X0026061Y0283085D01*
X0026061Y0279935D01*
X0100016Y0278950D02*
X0100016Y0275803D01*
X0102115Y0275803D01*
X0103163Y0278950D02*
X0103163Y0276852D01*
X0104214Y0275803D01*
X0105263Y0276852D01*
X0105263Y0278950D01*
X0088793Y0278950D02*
X0088793Y0275803D01*
X0088793Y0277377D01*
X0090894Y0277377D01*
X0090894Y0278950D01*
X0090894Y0275803D01*
X0091944Y0278950D02*
X0091944Y0276852D01*
X0092993Y0275803D01*
X0094043Y0276852D01*
X0094043Y0278950D01*
X0096404Y0285643D02*
X0094307Y0285643D01*
X0094307Y0282496D01*
X0096404Y0282496D01*
X0094307Y0284070D02*
X0095357Y0284070D01*
X0097456Y0282496D02*
X0097456Y0285643D01*
X0099555Y0282496D01*
X0099555Y0285643D01*
X0066288Y0285119D02*
X0065763Y0285643D01*
X0064714Y0285643D01*
X0064188Y0285119D01*
X0064188Y0284595D01*
X0064714Y0284070D01*
X0065763Y0284070D01*
X0066288Y0283545D01*
X0066288Y0283020D01*
X0065763Y0282496D01*
X0064714Y0282496D01*
X0064188Y0283020D01*
X0069437Y0285643D02*
X0067338Y0285643D01*
X0067338Y0282496D01*
X0069437Y0282496D01*
X0067338Y0284070D02*
X0068387Y0284070D01*
X0070486Y0285643D02*
X0070486Y0282496D01*
X0072585Y0282496D01*
X0073635Y0282496D02*
X0073635Y0285643D01*
X0074684Y0284595D01*
X0075732Y0285643D01*
X0075732Y0282496D01*
X0076783Y0282496D02*
X0076783Y0285643D01*
X0078358Y0285643D01*
X0078882Y0285119D01*
X0078882Y0284070D01*
X0078358Y0283545D01*
X0076783Y0283545D01*
X0079932Y0282496D02*
X0079932Y0285643D01*
X0081506Y0285643D01*
X0082030Y0285119D01*
X0082030Y0284070D01*
X0081506Y0283545D01*
X0079932Y0283545D01*
X0077969Y0278426D02*
X0078493Y0278950D01*
X0079543Y0278950D01*
X0080068Y0278426D01*
X0080068Y0276328D01*
X0079543Y0275803D01*
X0078493Y0275803D01*
X0077969Y0276328D01*
X0077969Y0278426D01*
X0066551Y0275803D02*
X0067601Y0275803D01*
X0067076Y0275803D01*
X0067076Y0278950D01*
X0066551Y0278426D01*
X0043126Y0275803D02*
X0044175Y0275803D01*
X0043651Y0275803D01*
X0043651Y0278950D01*
X0043126Y0278426D01*
X0033807Y0275803D02*
X0031709Y0275803D01*
X0033807Y0277902D01*
X0033807Y0278426D01*
X0033283Y0278950D01*
X0032233Y0278950D01*
X0031709Y0278426D01*
X0042075Y0285119D02*
X0041551Y0285643D01*
X0040501Y0285643D01*
X0039976Y0285119D01*
X0039976Y0283020D01*
X0040501Y0282496D01*
X0041551Y0282496D01*
X0042075Y0283020D01*
X0045223Y0285643D02*
X0043125Y0285643D01*
X0043125Y0284070D01*
X0044175Y0284070D01*
X0043125Y0284070D01*
X0043125Y0282496D01*
X0048373Y0285119D02*
X0047848Y0285643D01*
X0046798Y0285643D01*
X0046273Y0285119D01*
X0046273Y0283020D01*
X0046798Y0282496D01*
X0047848Y0282496D01*
X0048373Y0283020D01*
X0048373Y0284070D01*
X0047323Y0284070D01*
X0053756Y0278426D02*
X0054281Y0278950D01*
X0055330Y0278950D01*
X0055855Y0278426D01*
X0055855Y0276328D01*
X0055330Y0275803D01*
X0054281Y0275803D01*
X0053756Y0276328D01*
X0053756Y0278426D01*
X0114123Y0275211D02*
X0112023Y0275211D01*
X0112023Y0273636D01*
X0113073Y0273636D01*
X0112023Y0273636D01*
X0112023Y0272062D01*
X0115172Y0275211D02*
X0115172Y0272062D01*
X0116746Y0272062D01*
X0117270Y0272587D01*
X0117270Y0273112D01*
X0116746Y0273636D01*
X0115172Y0273636D01*
X0116746Y0273636D01*
X0117270Y0274162D01*
X0117270Y0274686D01*
X0116746Y0275211D01*
X0115172Y0275211D01*
X0118321Y0272062D02*
X0118321Y0275211D01*
X0119895Y0275211D01*
X0120420Y0274686D01*
X0120420Y0273636D01*
X0119895Y0273112D01*
X0118321Y0273112D01*
X0121469Y0272062D02*
X0121469Y0275211D01*
X0123044Y0275211D01*
X0123567Y0274686D01*
X0123567Y0273636D01*
X0123044Y0273112D01*
X0121469Y0273112D01*
X0122519Y0273112D02*
X0123567Y0272062D01*
X0124618Y0275211D02*
X0125668Y0275211D01*
X0125143Y0275211D01*
X0125143Y0272062D01*
X0124618Y0272062D01*
X0125668Y0272062D01*
X0127242Y0272062D02*
X0127242Y0275211D01*
X0128291Y0274162D01*
X0129341Y0275211D01*
X0129341Y0272062D01*
X0124622Y0268715D02*
X0124622Y0266091D01*
X0125147Y0265565D01*
X0126196Y0265565D01*
X0126721Y0266091D01*
X0126721Y0268715D01*
X0113795Y0268715D02*
X0113795Y0265565D01*
X0115370Y0265565D01*
X0115894Y0266091D01*
X0115894Y0268190D01*
X0115370Y0268715D01*
X0113795Y0268715D01*
X0086827Y0355329D02*
X0086827Y0352181D01*
X0088400Y0352181D01*
X0088926Y0352705D01*
X0088926Y0353230D01*
X0088400Y0353755D01*
X0086827Y0353755D01*
X0088400Y0353755D01*
X0088926Y0354280D01*
X0088926Y0354805D01*
X0088400Y0355329D01*
X0086827Y0355329D01*
X0089975Y0352181D02*
X0089975Y0354280D01*
X0091025Y0355329D01*
X0092074Y0354280D01*
X0092074Y0352181D01*
X0092074Y0353755D01*
X0089975Y0353755D01*
X0093124Y0355329D02*
X0095223Y0355329D01*
X0094174Y0355329D01*
X0094174Y0352181D01*
X0096270Y0355329D02*
X0098372Y0355329D01*
X0097322Y0355329D01*
X0097322Y0352181D01*
X0039189Y0352181D02*
X0039189Y0355329D01*
X0040763Y0355329D01*
X0041288Y0354805D01*
X0041288Y0353755D01*
X0040763Y0353230D01*
X0039189Y0353230D01*
X0042338Y0352181D02*
X0042338Y0355329D01*
X0043912Y0355329D01*
X0044437Y0354805D01*
X0044437Y0353755D01*
X0043912Y0353230D01*
X0042338Y0353230D01*
X0043387Y0353230D02*
X0044437Y0352181D01*
X0045486Y0355329D02*
X0046536Y0355329D01*
X0046010Y0355329D01*
X0046010Y0352181D01*
X0045486Y0352181D01*
X0046536Y0352181D01*
X0048110Y0352181D02*
X0048110Y0355329D01*
X0049160Y0354280D01*
X0050209Y0355329D01*
X0050209Y0352181D01*
X0110184Y0354805D02*
X0109659Y0355329D01*
X0108609Y0355329D01*
X0108085Y0354805D01*
X0108085Y0352705D01*
X0108609Y0352181D01*
X0109659Y0352181D01*
X0110184Y0352705D01*
X0110184Y0353755D01*
X0109134Y0353755D01*
X0111233Y0352181D02*
X0111233Y0355329D01*
X0113332Y0352181D01*
X0113332Y0355329D01*
X0114382Y0355329D02*
X0114382Y0352181D01*
X0115955Y0352181D01*
X0116480Y0352705D01*
X0116480Y0354805D01*
X0115955Y0355329D01*
X0114382Y0355329D01*
X0064121Y0354805D02*
X0063596Y0355329D01*
X0062546Y0355329D01*
X0062022Y0354805D01*
X0062022Y0352705D01*
X0062546Y0352181D01*
X0063596Y0352181D01*
X0064121Y0352705D01*
X0064121Y0353755D01*
X0063071Y0353755D01*
X0065169Y0352181D02*
X0065169Y0355329D01*
X0067269Y0352181D01*
X0067269Y0355329D01*
X0068319Y0355329D02*
X0068319Y0352181D01*
X0069893Y0352181D01*
X0070418Y0352705D01*
X0070418Y0354805D01*
X0069893Y0355329D01*
X0068319Y0355329D01*
X0037612Y0326194D02*
X0038662Y0326194D01*
X0038137Y0326194D01*
X0038137Y0323046D01*
X0037612Y0323046D01*
X0038662Y0323046D01*
X0040236Y0323046D02*
X0040236Y0326194D01*
X0042335Y0323046D01*
X0042335Y0326194D01*
X0039713Y0306772D02*
X0039189Y0307298D01*
X0038139Y0307298D01*
X0037614Y0306772D01*
X0037614Y0304674D01*
X0038139Y0304149D01*
X0039189Y0304149D01*
X0039713Y0304674D01*
X0039713Y0305723D01*
X0038664Y0305723D01*
X0040763Y0304149D02*
X0040763Y0307298D01*
X0042862Y0304149D01*
X0042862Y0307298D01*
X0043911Y0307298D02*
X0043911Y0304149D01*
X0045486Y0304149D01*
X0046010Y0304674D01*
X0046010Y0306772D01*
X0045486Y0307298D01*
X0043911Y0307298D01*
X0124755Y0305986D02*
X0124230Y0306510D01*
X0123180Y0306510D01*
X0122656Y0305986D01*
X0122656Y0305461D01*
X0123180Y0304936D01*
X0124230Y0304936D01*
X0124755Y0304411D01*
X0124755Y0303887D01*
X0124230Y0303362D01*
X0123180Y0303362D01*
X0122656Y0303887D01*
X0125804Y0306510D02*
X0127902Y0306510D01*
X0126854Y0306510D01*
X0126854Y0303362D01*
X0128953Y0303362D02*
X0128953Y0305461D01*
X0130002Y0306510D01*
X0131051Y0305461D01*
X0131051Y0303362D01*
X0131051Y0304936D01*
X0128953Y0304936D01*
X0132101Y0306510D02*
X0134200Y0306510D01*
X0133151Y0306510D01*
X0133151Y0303362D01*
X0135250Y0306510D02*
X0135250Y0303887D01*
X0135775Y0303362D01*
X0136824Y0303362D01*
X0137349Y0303887D01*
X0137349Y0306510D01*
X0140498Y0305986D02*
X0139973Y0306510D01*
X0138922Y0306510D01*
X0138399Y0305986D01*
X0138399Y0305461D01*
X0138922Y0304936D01*
X0139973Y0304936D01*
X0140498Y0304411D01*
X0140498Y0303887D01*
X0139973Y0303362D01*
X0138922Y0303362D01*
X0138399Y0303887D01*
X0141547Y0305986D02*
X0142072Y0306510D01*
X0143121Y0306510D01*
X0143646Y0305986D01*
X0143646Y0303887D01*
X0143121Y0303362D01*
X0142072Y0303362D01*
X0141547Y0303887D01*
X0141547Y0305986D01*
X0125804Y0316222D02*
X0125279Y0316747D01*
X0124230Y0316747D01*
X0123705Y0316222D01*
X0123705Y0315697D01*
X0124230Y0315172D01*
X0125279Y0315172D01*
X0125804Y0314646D01*
X0125804Y0314123D01*
X0125279Y0313598D01*
X0124230Y0313598D01*
X0123705Y0314123D01*
X0126854Y0316747D02*
X0128953Y0316747D01*
X0127902Y0316747D01*
X0127902Y0313598D01*
X0130002Y0313598D02*
X0130002Y0315697D01*
X0131051Y0316747D01*
X0132101Y0315697D01*
X0132101Y0313598D01*
X0132101Y0315172D01*
X0130002Y0315172D01*
X0133151Y0316747D02*
X0135250Y0316747D01*
X0134200Y0316747D01*
X0134200Y0313598D01*
X0136300Y0316747D02*
X0136300Y0314123D01*
X0136824Y0313598D01*
X0137874Y0313598D01*
X0138399Y0314123D01*
X0138399Y0316747D01*
X0141547Y0316222D02*
X0141022Y0316747D01*
X0139973Y0316747D01*
X0139448Y0316222D01*
X0139448Y0315697D01*
X0139973Y0315172D01*
X0141022Y0315172D01*
X0141547Y0314646D01*
X0141547Y0314123D01*
X0141022Y0313598D01*
X0139973Y0313598D01*
X0139448Y0314123D01*
X0142597Y0313598D02*
X0143646Y0313598D01*
X0143121Y0313598D01*
X0143121Y0316747D01*
X0142597Y0316222D01*
X0124755Y0326458D02*
X0124230Y0326983D01*
X0123180Y0326983D01*
X0122656Y0326458D01*
X0122656Y0325933D01*
X0123180Y0325408D01*
X0124230Y0325408D01*
X0124755Y0324884D01*
X0124755Y0324359D01*
X0124230Y0323834D01*
X0123180Y0323834D01*
X0122656Y0324359D01*
X0125804Y0326983D02*
X0127902Y0326983D01*
X0126854Y0326983D01*
X0126854Y0323834D01*
X0128953Y0323834D02*
X0128953Y0325933D01*
X0130002Y0326983D01*
X0131051Y0325933D01*
X0131051Y0323834D01*
X0131051Y0325408D01*
X0128953Y0325408D01*
X0132101Y0326983D02*
X0134200Y0326983D01*
X0133151Y0326983D01*
X0133151Y0323834D01*
X0135250Y0326983D02*
X0135250Y0324359D01*
X0135775Y0323834D01*
X0136824Y0323834D01*
X0137349Y0324359D01*
X0137349Y0326983D01*
X0140498Y0326458D02*
X0139973Y0326983D01*
X0138922Y0326983D01*
X0138399Y0326458D01*
X0138399Y0325933D01*
X0138922Y0325408D01*
X0139973Y0325408D01*
X0140498Y0324884D01*
X0140498Y0324359D01*
X0139973Y0323834D01*
X0138922Y0323834D01*
X0138399Y0324359D01*
X0143646Y0323834D02*
X0141547Y0323834D01*
X0143646Y0325933D01*
X0143646Y0326458D01*
X0143121Y0326983D01*
X0142072Y0326983D01*
X0141547Y0326458D01*
X0128953Y0289581D02*
X0128953Y0286433D01*
X0131051Y0286433D01*
X0132101Y0289581D02*
X0132101Y0287482D01*
X0133151Y0286433D01*
X0134200Y0287482D01*
X0134200Y0289581D01*
X0136824Y0289581D02*
X0135775Y0289581D01*
X0135250Y0289056D01*
X0135250Y0286956D01*
X0135775Y0286433D01*
X0136824Y0286433D01*
X0137349Y0286956D01*
X0137349Y0289056D01*
X0136824Y0289581D01*
X0138399Y0289581D02*
X0138399Y0286956D01*
X0138922Y0286433D01*
X0139973Y0286433D01*
X0140498Y0286956D01*
X0140498Y0289581D01*
X0141547Y0289581D02*
X0143646Y0289581D01*
X0142597Y0289581D01*
X0142597Y0286433D01*
X0137349Y0279214D02*
X0136824Y0279738D01*
X0135775Y0279738D01*
X0135250Y0279214D01*
X0135250Y0277115D01*
X0135775Y0276590D01*
X0136824Y0276590D01*
X0137349Y0277115D01*
X0137349Y0278164D01*
X0136300Y0278164D01*
X0138399Y0276590D02*
X0138399Y0279738D01*
X0140498Y0276590D01*
X0140498Y0279738D01*
X0141547Y0279738D02*
X0141547Y0276590D01*
X0143121Y0276590D01*
X0143646Y0277115D01*
X0143646Y0279214D01*
X0143121Y0279738D01*
X0141547Y0279738D01*
X0137349Y0342206D02*
X0136824Y0342731D01*
X0135775Y0342731D01*
X0135250Y0342206D01*
X0135250Y0340107D01*
X0135775Y0339582D01*
X0136824Y0339582D01*
X0137349Y0340107D01*
X0137349Y0341157D01*
X0136300Y0341157D01*
X0138399Y0339582D02*
X0138399Y0342731D01*
X0140498Y0339582D01*
X0140498Y0342731D01*
X0141547Y0342731D02*
X0141547Y0339582D01*
X0143121Y0339582D01*
X0143646Y0340107D01*
X0143646Y0342206D01*
X0143121Y0342731D01*
X0141547Y0342731D01*
X0128953Y0352573D02*
X0128953Y0349425D01*
X0128953Y0350999D01*
X0131051Y0350999D01*
X0131051Y0352573D01*
X0131051Y0349425D01*
X0132101Y0352573D02*
X0132101Y0350474D01*
X0133151Y0349425D01*
X0134200Y0350474D01*
X0134200Y0352573D01*
X0136824Y0352573D02*
X0135775Y0352573D01*
X0135250Y0352049D01*
X0135250Y0349950D01*
X0135775Y0349425D01*
X0136824Y0349425D01*
X0137349Y0349950D01*
X0137349Y0352049D01*
X0136824Y0352573D01*
X0138399Y0352573D02*
X0138399Y0349950D01*
X0138922Y0349425D01*
X0139973Y0349425D01*
X0140498Y0349950D01*
X0140498Y0352573D01*
X0141547Y0352573D02*
X0143646Y0352573D01*
X0142597Y0352573D01*
X0142597Y0349425D01*
X0033006Y0345276D02*
X0033006Y0348424D01*
X0034580Y0348424D01*
X0035104Y0347899D01*
X0035104Y0346850D01*
X0034580Y0346325D01*
X0033006Y0346325D01*
X0037729Y0345276D02*
X0037729Y0348424D01*
X0036154Y0346850D01*
X0038254Y0346850D01*
X0004003Y0287402D02*
X0004003Y0290550D01*
X0005578Y0290550D01*
X0006102Y0290025D01*
X0006102Y0288976D01*
X0005578Y0288451D01*
X0004003Y0288451D01*
X0007152Y0287402D02*
X0008201Y0287402D01*
X0007677Y0287402D01*
X0007677Y0290550D01*
X0007152Y0290025D01*
X0003608Y0340157D02*
X0002560Y0340157D01*
X0003084Y0340157D01*
X0003084Y0337533D01*
X0002560Y0337008D01*
X0002035Y0337008D01*
X0001510Y0337533D01*
X0004658Y0339632D02*
X0005183Y0340157D01*
X0006233Y0340157D01*
X0006758Y0339632D01*
X0006758Y0339107D01*
X0006233Y0338582D01*
X0005707Y0338582D01*
X0006233Y0338582D01*
X0006758Y0338057D01*
X0006758Y0337533D01*
X0006233Y0337008D01*
X0005183Y0337008D01*
X0004658Y0337533D01*
X0029528Y0391338D02*
X0028477Y0391338D01*
X0029003Y0391338D01*
X0029003Y0388714D01*
X0028477Y0388189D01*
X0027953Y0388189D01*
X0027428Y0388714D01*
X0030577Y0388189D02*
X0031627Y0388189D01*
X0031102Y0388189D01*
X0031102Y0391338D01*
X0030577Y0390813D01*
X0127428Y0391338D02*
X0126379Y0391338D01*
X0126903Y0391338D01*
X0126903Y0388714D01*
X0126379Y0388189D01*
X0125854Y0388189D01*
X0125329Y0388714D01*
X0130577Y0388189D02*
X0128478Y0388189D01*
X0130577Y0390288D01*
X0130577Y0390813D01*
X0130050Y0391338D01*
X0129002Y0391338D01*
X0128478Y0390813D01*
X0064043Y0304330D02*
X0064043Y0301706D01*
X0064567Y0301181D01*
X0065617Y0301181D01*
X0066142Y0301706D01*
X0066142Y0304330D01*
X0067191Y0301181D02*
X0068241Y0301181D01*
X0067716Y0301181D01*
X0067716Y0304330D01*
X0067191Y0303805D01*
X0122859Y0291034D02*
X0122859Y0294183D01*
X0124434Y0294183D01*
X0124959Y0293658D01*
X0124959Y0292608D01*
X0124434Y0292084D01*
X0122859Y0292084D01*
X0123909Y0292084D02*
X0124959Y0291034D01*
X0126007Y0293658D02*
X0126533Y0294183D01*
X0127583Y0294183D01*
X0128108Y0293658D01*
X0128108Y0293133D01*
X0127583Y0292608D01*
X0127058Y0292608D01*
X0127583Y0292608D01*
X0128108Y0292084D01*
X0128108Y0291559D01*
X0127583Y0291034D01*
X0126533Y0291034D01*
X0126007Y0291559D01*
X0115987Y0291034D02*
X0115987Y0294183D01*
X0117562Y0294183D01*
X0118087Y0293658D01*
X0118087Y0292608D01*
X0117562Y0292084D01*
X0115987Y0292084D01*
X0117036Y0292084D02*
X0118087Y0291034D01*
X0121235Y0291034D02*
X0119136Y0291034D01*
X0121235Y0293133D01*
X0121235Y0293658D01*
X0120710Y0294183D01*
X0119661Y0294183D01*
X0119136Y0293658D01*
X0065224Y0326378D02*
X0065224Y0329527D01*
X0066798Y0329527D01*
X0067323Y0329002D01*
X0067323Y0327952D01*
X0066798Y0327427D01*
X0065224Y0327427D01*
X0066273Y0327427D02*
X0067323Y0326378D01*
X0068372Y0326378D02*
X0069422Y0326378D01*
X0068897Y0326378D01*
X0068897Y0329527D01*
X0068372Y0329002D01*
X0088867Y0269552D02*
X0088867Y0272700D01*
X0090443Y0272700D01*
X0090968Y0272175D01*
X0090968Y0271126D01*
X0090443Y0270601D01*
X0088867Y0270601D01*
X0092017Y0272700D02*
X0094116Y0272700D01*
X0094116Y0272175D01*
X0092017Y0270076D01*
X0092017Y0269552D01*
X0050788Y0269552D02*
X0050788Y0272700D01*
X0052363Y0272700D01*
X0052888Y0272175D01*
X0052888Y0271126D01*
X0052363Y0270601D01*
X0050788Y0270601D01*
X0053937Y0269552D02*
X0054987Y0269552D01*
X0054462Y0269552D01*
X0054462Y0272700D01*
X0053937Y0272175D01*
X0056560Y0272175D02*
X0057086Y0272700D01*
X0058135Y0272700D01*
X0058660Y0272175D01*
X0058660Y0271651D01*
X0058135Y0271126D01*
X0057611Y0271126D01*
X0058135Y0271126D01*
X0058660Y0270601D01*
X0058660Y0270076D01*
X0058135Y0269552D01*
X0057086Y0269552D01*
X0056560Y0270076D01*
X0076140Y0269552D02*
X0076140Y0272700D01*
X0077715Y0272700D01*
X0078239Y0272175D01*
X0078239Y0271126D01*
X0077715Y0270601D01*
X0076140Y0270601D01*
X0081388Y0272700D02*
X0080338Y0272175D01*
X0079289Y0271126D01*
X0079289Y0270076D01*
X0079813Y0269552D01*
X0080863Y0269552D01*
X0081388Y0270076D01*
X0081388Y0270601D01*
X0080863Y0271126D01*
X0079289Y0271126D01*
X0030218Y0269552D02*
X0030218Y0272700D01*
X0031791Y0272700D01*
X0032317Y0272175D01*
X0032317Y0271126D01*
X0031791Y0270601D01*
X0030218Y0270601D01*
X0035466Y0272700D02*
X0033367Y0272700D01*
X0033367Y0271126D01*
X0034416Y0271651D01*
X0034941Y0271651D01*
X0035466Y0271126D01*
X0035466Y0270076D01*
X0034941Y0269552D01*
X0033891Y0269552D01*
X0033367Y0270076D01*
X0147770Y0331102D02*
X0147770Y0334251D01*
X0149344Y0334251D01*
X0149869Y0333726D01*
X0149869Y0332677D01*
X0149344Y0332152D01*
X0147770Y0332152D01*
X0150918Y0333726D02*
X0151443Y0334251D01*
X0152493Y0334251D01*
X0153017Y0333726D01*
X0153017Y0333202D01*
X0152493Y0332677D01*
X0153017Y0332152D01*
X0153017Y0331627D01*
X0152493Y0331102D01*
X0151443Y0331102D01*
X0150918Y0331627D01*
X0150918Y0332152D01*
X0151443Y0332677D01*
X0150918Y0333202D01*
X0150918Y0333726D01*
X0151443Y0332677D02*
X0152493Y0332677D01*
X0041318Y0269552D02*
X0041318Y0272700D01*
X0042892Y0272700D01*
X0043417Y0272175D01*
X0043417Y0271126D01*
X0042892Y0270601D01*
X0041318Y0270601D01*
X0044467Y0270076D02*
X0044991Y0269552D01*
X0046041Y0269552D01*
X0046566Y0270076D01*
X0046566Y0272175D01*
X0046041Y0272700D01*
X0044991Y0272700D01*
X0044467Y0272175D01*
X0044467Y0271651D01*
X0044991Y0271126D01*
X0046566Y0271126D01*
X0147770Y0294488D02*
X0147770Y0297637D01*
X0149344Y0297637D01*
X0149869Y0297112D01*
X0149869Y0296062D01*
X0149344Y0295538D01*
X0147770Y0295538D01*
X0153017Y0294488D02*
X0150918Y0294488D01*
X0153017Y0296587D01*
X0153017Y0297112D01*
X0152493Y0297637D01*
X0151443Y0297637D01*
X0150918Y0297112D01*
X0147770Y0357874D02*
X0147770Y0361022D01*
X0149344Y0361022D01*
X0149869Y0360498D01*
X0149869Y0359448D01*
X0149344Y0358924D01*
X0147770Y0358924D01*
X0150918Y0360498D02*
X0151443Y0361022D01*
X0152493Y0361022D01*
X0153017Y0360498D01*
X0153017Y0359973D01*
X0152493Y0359448D01*
X0151968Y0359448D01*
X0152493Y0359448D01*
X0153017Y0358924D01*
X0153017Y0358399D01*
X0152493Y0357874D01*
X0151443Y0357874D01*
X0150918Y0358399D01*
X0099181Y0269552D02*
X0099181Y0272700D01*
X0100756Y0272700D01*
X0101279Y0272175D01*
X0101279Y0271126D01*
X0100756Y0270601D01*
X0099181Y0270601D01*
X0102330Y0269552D02*
X0103379Y0269552D01*
X0102855Y0269552D01*
X0102855Y0272700D01*
X0102330Y0272175D01*
X0104953Y0269552D02*
X0106003Y0269552D01*
X0105478Y0269552D01*
X0105478Y0272700D01*
X0104953Y0272175D01*
X0111222Y0259645D02*
X0111222Y0262794D01*
X0112796Y0262794D01*
X0113321Y0262270D01*
X0113321Y0261220D01*
X0112796Y0260695D01*
X0111222Y0260695D01*
X0114370Y0259645D02*
X0115419Y0259645D01*
X0114894Y0259645D01*
X0114894Y0262794D01*
X0114370Y0262270D01*
X0118568Y0259645D02*
X0118568Y0262794D01*
X0116994Y0261220D01*
X0119093Y0261220D01*
X0063827Y0269552D02*
X0063827Y0272700D01*
X0065402Y0272700D01*
X0065927Y0272175D01*
X0065927Y0271126D01*
X0065402Y0270601D01*
X0063827Y0270601D01*
X0066977Y0269552D02*
X0068026Y0269552D01*
X0067502Y0269552D01*
X0067502Y0272700D01*
X0066977Y0272175D01*
X0069601Y0272175D02*
X0070125Y0272700D01*
X0071175Y0272700D01*
X0071699Y0272175D01*
X0071699Y0270076D01*
X0071175Y0269552D01*
X0070125Y0269552D01*
X0069601Y0270076D01*
X0069601Y0272175D01*
X0122222Y0259645D02*
X0122222Y0262794D01*
X0123796Y0262794D01*
X0124320Y0262270D01*
X0124320Y0261220D01*
X0123796Y0260695D01*
X0122222Y0260695D01*
X0125371Y0259645D02*
X0126418Y0259645D01*
X0125895Y0259645D01*
X0125895Y0262794D01*
X0125371Y0262270D01*
X0130094Y0259645D02*
X0127993Y0259645D01*
X0130094Y0261744D01*
X0130094Y0262270D01*
X0129569Y0262794D01*
X0128519Y0262794D01*
X0127993Y0262270D01*
X0074935Y0301180D02*
X0074935Y0298032D01*
X0077034Y0298032D01*
X0080183Y0298032D02*
X0078084Y0298032D01*
X0080183Y0300131D01*
X0080183Y0300655D01*
X0079658Y0301180D01*
X0078609Y0301180D01*
X0078084Y0300655D01*
X0047507Y0292125D02*
X0047507Y0288976D01*
X0049606Y0288976D01*
X0050656Y0288976D02*
X0051705Y0288976D01*
X0051181Y0288976D01*
X0051181Y0292125D01*
X0050656Y0291599D01*
X0092389Y0294356D02*
X0091864Y0294881D01*
X0090814Y0294881D01*
X0090290Y0294356D01*
X0090290Y0292257D01*
X0090814Y0291732D01*
X0091864Y0291732D01*
X0092389Y0292257D01*
X0095537Y0294881D02*
X0093437Y0294881D01*
X0093437Y0293307D01*
X0094488Y0293831D01*
X0095012Y0293831D01*
X0095537Y0293307D01*
X0095537Y0292257D01*
X0095012Y0291732D01*
X0093963Y0291732D01*
X0093437Y0292257D01*
X0049869Y0334513D02*
X0049344Y0335038D01*
X0048295Y0335038D01*
X0047770Y0334513D01*
X0047770Y0332415D01*
X0048295Y0331890D01*
X0049344Y0331890D01*
X0049869Y0332415D01*
X0052493Y0331890D02*
X0052493Y0335038D01*
X0050919Y0333464D01*
X0053017Y0333464D01*
X0107743Y0334513D02*
X0107217Y0335038D01*
X0106169Y0335038D01*
X0105644Y0334513D01*
X0105644Y0332415D01*
X0106169Y0331890D01*
X0107217Y0331890D01*
X0107743Y0332415D01*
X0108792Y0334513D02*
X0109317Y0335038D01*
X0110367Y0335038D01*
X0110891Y0334513D01*
X0110891Y0333988D01*
X0110367Y0333464D01*
X0109842Y0333464D01*
X0110367Y0333464D01*
X0110891Y0332939D01*
X0110891Y0332415D01*
X0110367Y0331890D01*
X0109317Y0331890D01*
X0108792Y0332415D01*
X0107743Y0297506D02*
X0107217Y0298030D01*
X0106169Y0298030D01*
X0105644Y0297506D01*
X0105644Y0295407D01*
X0106169Y0294882D01*
X0107217Y0294882D01*
X0107743Y0295407D01*
X0110891Y0294882D02*
X0108792Y0294882D01*
X0110891Y0296981D01*
X0110891Y0297506D01*
X0110367Y0298030D01*
X0109317Y0298030D01*
X0108792Y0297506D01*
X0064567Y0294356D02*
X0064042Y0294881D01*
X0062992Y0294881D01*
X0062468Y0294356D01*
X0062468Y0292257D01*
X0062992Y0291732D01*
X0064042Y0291732D01*
X0064567Y0292257D01*
X0065617Y0291732D02*
X0066666Y0291732D01*
X0066141Y0291732D01*
X0066141Y0294881D01*
X0065617Y0294356D01*
D12*
X0053556Y0317901D02*
X0053556Y0327768D01*
X0046444Y0317901D02*
X0046444Y0327768D01*
X0001102Y0286102D02*
X0011102Y0286102D01*
X0011102Y0266102D02*
X0011102Y0286102D01*
X0001102Y0266102D02*
X0011102Y0266102D01*
X0001102Y0266102D02*
X0001102Y0286102D01*
X0001339Y0351849D02*
X0031339Y0351849D01*
X0001339Y0341850D02*
X0001339Y0351849D01*
X0001339Y0341850D02*
X0031339Y0341850D01*
X0031339Y0351849D01*
X0049724Y0238149D02*
X0049724Y0268149D01*
X0049724Y0238149D02*
X0059724Y0238149D01*
X0059724Y0268149D01*
X0049724Y0268149D02*
X0059724Y0268149D01*
X0038701Y0238149D02*
X0038701Y0268149D01*
X0038701Y0238149D02*
X0048701Y0238149D01*
X0048701Y0268149D01*
X0038701Y0268149D02*
X0048701Y0268149D01*
X0027677Y0238149D02*
X0027677Y0268149D01*
X0027677Y0238149D02*
X0037677Y0238149D01*
X0037677Y0268149D01*
X0027677Y0268149D02*
X0037677Y0268149D01*
X0121181Y0238149D02*
X0131181Y0238149D01*
X0121181Y0238149D02*
X0121181Y0258149D01*
X0131181Y0258149D01*
X0131181Y0238149D02*
X0131181Y0258149D01*
X0073543Y0238149D02*
X0073543Y0268149D01*
X0073543Y0238149D02*
X0083543Y0238149D01*
X0083543Y0268149D01*
X0073543Y0268149D02*
X0083543Y0268149D01*
X0110158Y0238149D02*
X0120158Y0238149D01*
X0110158Y0238149D02*
X0110158Y0258149D01*
X0120158Y0258149D01*
X0120158Y0238149D02*
X0120158Y0258149D01*
X0062520Y0238149D02*
X0062520Y0268149D01*
X0062520Y0238149D02*
X0072520Y0238149D01*
X0072520Y0268149D01*
X0062520Y0268149D02*
X0072520Y0268149D01*
X0086339Y0238149D02*
X0086339Y0268149D01*
X0086339Y0238149D02*
X0096339Y0238149D01*
X0096339Y0268149D01*
X0086339Y0268149D02*
X0096339Y0268149D01*
X0097362Y0238149D02*
X0097362Y0268149D01*
X0097362Y0238149D02*
X0107362Y0238149D01*
X0107362Y0268149D01*
X0097362Y0268149D02*
X0107362Y0268149D01*
X0117126Y0283858D02*
X0117126Y0285433D01*
X0119882Y0283858D02*
X0119882Y0285433D01*
X0126770Y0283858D02*
X0126770Y0285433D01*
X0124016Y0283858D02*
X0124016Y0285433D01*
X0058661Y0323425D02*
X0060236Y0323425D01*
X0058661Y0326181D02*
X0060236Y0326181D01*
X0104701Y0301550D02*
X0104701Y0312622D01*
X0111835Y0301550D02*
X0111835Y0312622D01*
X0104701Y0317298D02*
X0104701Y0328370D01*
X0111835Y0317298D02*
X0111835Y0328370D01*
X0067716Y0288767D02*
X0067716Y0297059D01*
X0074803Y0288767D02*
X0074803Y0297059D01*
X0073721Y0288861D02*
X0073721Y0296965D01*
X0080610Y0288861D02*
X0080610Y0296965D01*
X0081866Y0287377D02*
X0081866Y0298449D01*
X0089000Y0287377D02*
X0089000Y0298449D01*
X0145394Y0299960D02*
X0155394Y0299960D01*
X0145394Y0299960D02*
X0145394Y0329960D01*
X0155394Y0329960D01*
X0155394Y0299960D02*
X0155394Y0329960D01*
X0155394Y0273188D02*
X0155394Y0293188D01*
X0145394Y0293188D02*
X0155394Y0293188D01*
X0145394Y0273188D02*
X0145394Y0293188D01*
X0145394Y0273188D02*
X0155394Y0273188D01*
X0155394Y0336574D02*
X0155394Y0356574D01*
X0145394Y0356574D02*
X0155394Y0356574D01*
X0145394Y0336574D02*
X0145394Y0356574D01*
X0145394Y0336574D02*
X0155394Y0336574D01*
X0000787Y0295275D02*
X0029724Y0295275D01*
X0032479Y0295275D02*
X0036220Y0295275D01*
X0036220Y0334645D01*
X0000787Y0295275D02*
X0000787Y0334645D01*
X0009252Y0334645D01*
X0012009Y0334645D02*
X0036220Y0334645D01*
X0008268Y0337008D02*
X0012992Y0337008D01*
X0008268Y0337008D02*
X0009251Y0334645D01*
X0012009Y0334645D02*
X0012992Y0337008D01*
X0032479Y0295275D02*
X0033464Y0292913D01*
X0028738Y0292913D02*
X0033464Y0292913D01*
X0028738Y0292913D02*
X0029723Y0295275D01*
X0082677Y0363976D02*
X0082677Y0392913D01*
X0082677Y0357480D02*
X0082677Y0361219D01*
X0082677Y0357480D02*
X0122047Y0357480D01*
X0082677Y0392913D02*
X0122047Y0392913D01*
X0122047Y0384448D02*
X0122047Y0392913D01*
X0122047Y0357480D02*
X0122047Y0381692D01*
X0124410Y0380708D02*
X0124410Y0385433D01*
X0122047Y0384449D02*
X0124410Y0385433D01*
X0122047Y0381692D02*
X0124410Y0380708D01*
X0080313Y0360237D02*
X0082677Y0361219D01*
X0080313Y0360237D02*
X0080313Y0364961D01*
X0082677Y0363978D01*
X0035432Y0363976D02*
X0035432Y0392913D01*
X0035432Y0357480D02*
X0035432Y0361219D01*
X0035432Y0357480D02*
X0074802Y0357480D01*
X0035432Y0392913D02*
X0074802Y0392913D01*
X0074802Y0384448D02*
X0074802Y0392913D01*
X0074802Y0357480D02*
X0074802Y0381692D01*
X0077165Y0380708D02*
X0077165Y0385433D01*
X0074802Y0384449D02*
X0077165Y0385433D01*
X0074802Y0381692D02*
X0077165Y0380708D01*
X0033070Y0360236D02*
X0035432Y0361219D01*
X0033070Y0360236D02*
X0033070Y0364961D01*
X0035432Y0363978D01*
X0046504Y0300885D02*
X0046504Y0303838D01*
X0062156Y0300885D02*
X0062156Y0303838D01*
D13*
X0088583Y0305118D02*
X0088583Y0307184D01*
X0086516Y0305118D02*
X0088583Y0305118D01*
X0088583Y0322736D02*
X0088583Y0324803D01*
X0086516Y0324803D02*
X0088583Y0324803D01*
X0068898Y0324803D02*
X0070965Y0324803D01*
X0068898Y0322736D02*
X0068898Y0324803D01*
X0068898Y0305118D02*
X0068898Y0307184D01*
X0068898Y0305118D02*
X0070965Y0305118D01*
G04 next file*
G04*
G04 #@! TF.GenerationSoftware,Altium Limited,Altium Designer,21.7.2 (23)*
G04*
G04 Layer_Color=65535*
G04 skipping 70
G04*
G04 #@! TF.SameCoordinates,3D67BF19-0A55-4891-8FEB-F4BE30BF2CF6*
G04*
G04*
G04 #@! TF.FilePolarity,Positive*
G04*
G01*
G75*
D24*
X0239271Y0302559D02*
X0238533Y0302985D01*
X0238533Y0302132D01*
X0239271Y0302559D01*
X0224114Y0291436D02*
X0223376Y0291863D01*
X0223376Y0291010D01*
X0224114Y0291436D01*
D25*
X0255512Y0274409D02*
X0276771Y0274409D01*
X0255512Y0287401D02*
X0276771Y0287401D01*
X0276771Y0274409D02*
X0276771Y0287401D01*
X0255512Y0274409D02*
X0255512Y0287401D01*
X0255512Y0268503D02*
X0276771Y0268503D01*
X0255512Y0280708D02*
X0276771Y0280708D01*
X0276771Y0268503D02*
X0276771Y0280708D01*
X0255512Y0268503D02*
X0255512Y0280708D01*
X0231693Y0274409D02*
X0252952Y0274409D01*
X0231693Y0287401D02*
X0252952Y0287401D01*
X0252952Y0274409D02*
X0252952Y0287401D01*
X0231693Y0274409D02*
X0231693Y0287401D01*
X0231693Y0268503D02*
X0252952Y0268503D01*
X0231693Y0280708D02*
X0252952Y0280708D01*
X0252952Y0268503D02*
X0252952Y0280708D01*
X0231693Y0268503D02*
X0231693Y0280708D01*
X0196850Y0268503D02*
X0229133Y0268503D01*
X0196850Y0280708D02*
X0229133Y0280708D01*
X0229133Y0268503D02*
X0229133Y0280708D01*
X0196850Y0268503D02*
X0196850Y0280708D01*
X0279330Y0264173D02*
X0300590Y0264173D01*
X0279330Y0277165D02*
X0300590Y0277165D01*
X0300590Y0264173D02*
X0300590Y0277165D01*
X0279330Y0264173D02*
X0279330Y0277165D01*
X0279330Y0258266D02*
X0300590Y0258266D01*
X0279330Y0270472D02*
X0300590Y0270472D01*
X0300590Y0258266D02*
X0300590Y0270472D01*
X0279330Y0258266D02*
X0279330Y0270472D01*
X0196850Y0274409D02*
X0229133Y0274409D01*
X0196850Y0287401D02*
X0229133Y0287401D01*
X0229133Y0274409D02*
X0229133Y0287401D01*
X0196850Y0274409D02*
X0196850Y0287401D01*
X0175343Y0356773D02*
X0174818Y0357298D01*
X0173769Y0357298D01*
X0173244Y0356773D01*
X0173244Y0356248D01*
X0173769Y0355723D01*
X0174818Y0355723D01*
X0175343Y0355199D01*
X0175343Y0354674D01*
X0174818Y0354149D01*
X0173769Y0354149D01*
X0173244Y0354674D01*
X0176392Y0357298D02*
X0178491Y0357298D01*
X0177442Y0357298D01*
X0177442Y0354149D01*
X0181115Y0357298D02*
X0180066Y0357298D01*
X0179541Y0356773D01*
X0179541Y0354674D01*
X0180066Y0354149D01*
X0181115Y0354149D01*
X0181640Y0354674D01*
X0181640Y0356773D01*
X0181115Y0357298D01*
X0182689Y0354149D02*
X0182689Y0357298D01*
X0184789Y0354149D01*
X0184789Y0357298D01*
X0185838Y0357298D02*
X0185838Y0354149D01*
X0187412Y0354149D01*
X0187937Y0354674D01*
X0187937Y0355199D01*
X0187412Y0355723D01*
X0185838Y0355723D01*
X0187412Y0355723D01*
X0187937Y0356248D01*
X0187937Y0356773D01*
X0187412Y0357298D01*
X0185838Y0357298D01*
X0188987Y0354149D02*
X0188987Y0356248D01*
X0190036Y0357298D01*
X0191086Y0356248D01*
X0191086Y0354149D01*
X0191086Y0355723D01*
X0188987Y0355723D01*
X0192135Y0357298D02*
X0194234Y0357298D01*
X0193185Y0357298D01*
X0193185Y0354149D01*
X0195284Y0357298D02*
X0197383Y0357298D01*
X0196333Y0357298D01*
X0196333Y0354149D01*
X0183807Y0272324D02*
X0183283Y0272848D01*
X0182232Y0272848D01*
X0181708Y0272324D01*
X0181708Y0270225D01*
X0182232Y0269700D01*
X0183283Y0269700D01*
X0183807Y0270225D01*
X0186956Y0272324D02*
X0186431Y0272848D01*
X0185382Y0272848D01*
X0184857Y0272324D01*
X0184857Y0271799D01*
X0185382Y0271275D01*
X0186431Y0271275D01*
X0186956Y0270750D01*
X0186956Y0270225D01*
X0186431Y0269700D01*
X0185382Y0269700D01*
X0184857Y0270225D01*
X0188005Y0272848D02*
X0189055Y0272848D01*
X0188529Y0272848D01*
X0188529Y0269700D01*
X0188005Y0269700D01*
X0189055Y0269700D01*
X0190629Y0269700D02*
X0190629Y0272848D01*
X0192728Y0269700D01*
X0192728Y0272848D01*
X0183807Y0282560D02*
X0183283Y0283085D01*
X0182232Y0283085D01*
X0181708Y0282560D01*
X0181708Y0280460D01*
X0182232Y0279935D01*
X0183283Y0279935D01*
X0183807Y0280460D01*
X0186956Y0282560D02*
X0186431Y0283085D01*
X0185382Y0283085D01*
X0184857Y0282560D01*
X0184857Y0282036D01*
X0185382Y0281511D01*
X0186431Y0281511D01*
X0186956Y0280986D01*
X0186956Y0280460D01*
X0186431Y0279935D01*
X0185382Y0279935D01*
X0184857Y0280460D01*
X0189580Y0283085D02*
X0188529Y0283085D01*
X0188005Y0282560D01*
X0188005Y0280460D01*
X0188529Y0279935D01*
X0189580Y0279935D01*
X0190105Y0280460D01*
X0190105Y0282560D01*
X0189580Y0283085D01*
X0191154Y0283085D02*
X0191154Y0280460D01*
X0191679Y0279935D01*
X0192728Y0279935D01*
X0193253Y0280460D01*
X0193253Y0283085D01*
X0194303Y0283085D02*
X0196402Y0283085D01*
X0195352Y0283085D01*
X0195352Y0279935D01*
X0269307Y0278950D02*
X0269307Y0275803D01*
X0271406Y0275803D01*
X0272454Y0278950D02*
X0272454Y0276852D01*
X0273505Y0275803D01*
X0274554Y0276852D01*
X0274554Y0278950D01*
X0258086Y0278950D02*
X0258086Y0275803D01*
X0258086Y0277377D01*
X0260185Y0277377D01*
X0260185Y0278950D01*
X0260185Y0275803D01*
X0261235Y0278950D02*
X0261235Y0276852D01*
X0262284Y0275803D01*
X0263334Y0276852D01*
X0263334Y0278950D01*
X0265697Y0285643D02*
X0263598Y0285643D01*
X0263598Y0282496D01*
X0265697Y0282496D01*
X0263598Y0284070D02*
X0264648Y0284070D01*
X0266746Y0282496D02*
X0266746Y0285643D01*
X0268846Y0282496D01*
X0268846Y0285643D01*
X0235578Y0285119D02*
X0235054Y0285643D01*
X0234005Y0285643D01*
X0233480Y0285119D01*
X0233480Y0284595D01*
X0234005Y0284070D01*
X0235054Y0284070D01*
X0235578Y0283545D01*
X0235578Y0283020D01*
X0235054Y0282496D01*
X0234005Y0282496D01*
X0233480Y0283020D01*
X0238728Y0285643D02*
X0236628Y0285643D01*
X0236628Y0282496D01*
X0238728Y0282496D01*
X0236628Y0284070D02*
X0237678Y0284070D01*
X0239777Y0285643D02*
X0239777Y0282496D01*
X0241875Y0282496D01*
X0242926Y0282496D02*
X0242926Y0285643D01*
X0243975Y0284595D01*
X0245025Y0285643D01*
X0245025Y0282496D01*
X0246074Y0282496D02*
X0246074Y0285643D01*
X0247649Y0285643D01*
X0248173Y0285119D01*
X0248173Y0284070D01*
X0247649Y0283545D01*
X0246074Y0283545D01*
X0249223Y0282496D02*
X0249223Y0285643D01*
X0250796Y0285643D01*
X0251322Y0285119D01*
X0251322Y0284070D01*
X0250796Y0283545D01*
X0249223Y0283545D01*
X0247260Y0278426D02*
X0247784Y0278950D01*
X0248834Y0278950D01*
X0249359Y0278426D01*
X0249359Y0276328D01*
X0248834Y0275803D01*
X0247784Y0275803D01*
X0247260Y0276328D01*
X0247260Y0278426D01*
X0235842Y0275803D02*
X0236892Y0275803D01*
X0236367Y0275803D01*
X0236367Y0278950D01*
X0235842Y0278426D01*
X0212417Y0275803D02*
X0213465Y0275803D01*
X0212942Y0275803D01*
X0212942Y0278950D01*
X0212417Y0278426D01*
X0203099Y0275803D02*
X0200999Y0275803D01*
X0203099Y0277902D01*
X0203099Y0278426D01*
X0202574Y0278950D01*
X0201524Y0278950D01*
X0200999Y0278426D01*
X0211366Y0285119D02*
X0210842Y0285643D01*
X0209791Y0285643D01*
X0209267Y0285119D01*
X0209267Y0283020D01*
X0209791Y0282496D01*
X0210842Y0282496D01*
X0211366Y0283020D01*
X0214515Y0285643D02*
X0212415Y0285643D01*
X0212415Y0284070D01*
X0213465Y0284070D01*
X0212415Y0284070D01*
X0212415Y0282496D01*
X0217664Y0285119D02*
X0217139Y0285643D01*
X0216089Y0285643D01*
X0215565Y0285119D01*
X0215565Y0283020D01*
X0216089Y0282496D01*
X0217139Y0282496D01*
X0217664Y0283020D01*
X0217664Y0284070D01*
X0216614Y0284070D01*
X0223047Y0278426D02*
X0223572Y0278950D01*
X0224621Y0278950D01*
X0225145Y0278426D01*
X0225145Y0276328D01*
X0224621Y0275803D01*
X0223572Y0275803D01*
X0223047Y0276328D01*
X0223047Y0278426D01*
X0283414Y0275211D02*
X0281315Y0275211D01*
X0281315Y0273636D01*
X0282364Y0273636D01*
X0281315Y0273636D01*
X0281315Y0272062D01*
X0284463Y0275211D02*
X0284463Y0272062D01*
X0286037Y0272062D01*
X0286562Y0272587D01*
X0286562Y0273112D01*
X0286037Y0273636D01*
X0284463Y0273636D01*
X0286037Y0273636D01*
X0286562Y0274162D01*
X0286562Y0274686D01*
X0286037Y0275211D01*
X0284463Y0275211D01*
X0287612Y0272062D02*
X0287612Y0275211D01*
X0289186Y0275211D01*
X0289710Y0274686D01*
X0289710Y0273636D01*
X0289186Y0273112D01*
X0287612Y0273112D01*
X0290760Y0272062D02*
X0290760Y0275211D01*
X0292335Y0275211D01*
X0292859Y0274686D01*
X0292859Y0273636D01*
X0292335Y0273112D01*
X0290760Y0273112D01*
X0291810Y0273112D02*
X0292859Y0272062D01*
X0293909Y0275211D02*
X0294959Y0275211D01*
X0294433Y0275211D01*
X0294433Y0272062D01*
X0293909Y0272062D01*
X0294959Y0272062D01*
X0296533Y0272062D02*
X0296533Y0275211D01*
X0297581Y0274162D01*
X0298632Y0275211D01*
X0298632Y0272062D01*
X0293913Y0268715D02*
X0293913Y0266091D01*
X0294438Y0265565D01*
X0295487Y0265565D01*
X0296012Y0266091D01*
X0296012Y0268715D01*
X0283086Y0268715D02*
X0283086Y0265565D01*
X0284661Y0265565D01*
X0285185Y0266091D01*
X0285185Y0268190D01*
X0284661Y0268715D01*
X0283086Y0268715D01*
X0256117Y0355329D02*
X0256117Y0352181D01*
X0257692Y0352181D01*
X0258217Y0352705D01*
X0258217Y0353230D01*
X0257692Y0353755D01*
X0256117Y0353755D01*
X0257692Y0353755D01*
X0258217Y0354280D01*
X0258217Y0354805D01*
X0257692Y0355329D01*
X0256117Y0355329D01*
X0259266Y0352181D02*
X0259266Y0354280D01*
X0260316Y0355329D01*
X0261364Y0354280D01*
X0261364Y0352181D01*
X0261364Y0353755D01*
X0259266Y0353755D01*
X0262415Y0355329D02*
X0264514Y0355329D01*
X0263465Y0355329D01*
X0263465Y0352181D01*
X0265563Y0355329D02*
X0267663Y0355329D01*
X0266613Y0355329D01*
X0266613Y0352181D01*
X0208480Y0352181D02*
X0208480Y0355329D01*
X0210054Y0355329D01*
X0210578Y0354805D01*
X0210578Y0353755D01*
X0210054Y0353230D01*
X0208480Y0353230D01*
X0211628Y0352181D02*
X0211628Y0355329D01*
X0213203Y0355329D01*
X0213728Y0354805D01*
X0213728Y0353755D01*
X0213203Y0353230D01*
X0211628Y0353230D01*
X0212678Y0353230D02*
X0213728Y0352181D01*
X0214777Y0355329D02*
X0215827Y0355329D01*
X0215302Y0355329D01*
X0215302Y0352181D01*
X0214777Y0352181D01*
X0215827Y0352181D01*
X0217401Y0352181D02*
X0217401Y0355329D01*
X0218451Y0354280D01*
X0219499Y0355329D01*
X0219499Y0352181D01*
X0279475Y0354805D02*
X0278950Y0355329D01*
X0277900Y0355329D01*
X0277376Y0354805D01*
X0277376Y0352705D01*
X0277900Y0352181D01*
X0278950Y0352181D01*
X0279475Y0352705D01*
X0279475Y0353755D01*
X0278425Y0353755D01*
X0280524Y0352181D02*
X0280524Y0355329D01*
X0282623Y0352181D01*
X0282623Y0355329D01*
X0283673Y0355329D02*
X0283673Y0352181D01*
X0285247Y0352181D01*
X0285772Y0352705D01*
X0285772Y0354805D01*
X0285247Y0355329D01*
X0283673Y0355329D01*
X0233412Y0354805D02*
X0232887Y0355329D01*
X0231836Y0355329D01*
X0231313Y0354805D01*
X0231313Y0352705D01*
X0231836Y0352181D01*
X0232887Y0352181D01*
X0233412Y0352705D01*
X0233412Y0353755D01*
X0232362Y0353755D01*
X0234461Y0352181D02*
X0234461Y0355329D01*
X0236560Y0352181D01*
X0236560Y0355329D01*
X0237610Y0355329D02*
X0237610Y0352181D01*
X0239184Y0352181D01*
X0239709Y0352705D01*
X0239709Y0354805D01*
X0239184Y0355329D01*
X0237610Y0355329D01*
X0206903Y0326194D02*
X0207953Y0326194D01*
X0207428Y0326194D01*
X0207428Y0323046D01*
X0206903Y0323046D01*
X0207953Y0323046D01*
X0209527Y0323046D02*
X0209527Y0326194D01*
X0211626Y0323046D01*
X0211626Y0326194D01*
X0209004Y0306772D02*
X0208480Y0307298D01*
X0207430Y0307298D01*
X0206904Y0306772D01*
X0206904Y0304674D01*
X0207430Y0304149D01*
X0208480Y0304149D01*
X0209004Y0304674D01*
X0209004Y0305723D01*
X0207954Y0305723D01*
X0210054Y0304149D02*
X0210054Y0307298D01*
X0212153Y0304149D01*
X0212153Y0307298D01*
X0213201Y0307298D02*
X0213201Y0304149D01*
X0214777Y0304149D01*
X0215301Y0304674D01*
X0215301Y0306772D01*
X0214777Y0307298D01*
X0213201Y0307298D01*
X0294046Y0305986D02*
X0293521Y0306510D01*
X0292471Y0306510D01*
X0291947Y0305986D01*
X0291947Y0305461D01*
X0292471Y0304936D01*
X0293521Y0304936D01*
X0294046Y0304411D01*
X0294046Y0303887D01*
X0293521Y0303362D01*
X0292471Y0303362D01*
X0291947Y0303887D01*
X0295095Y0306510D02*
X0297194Y0306510D01*
X0296144Y0306510D01*
X0296144Y0303362D01*
X0298244Y0303362D02*
X0298244Y0305461D01*
X0299293Y0306510D01*
X0300343Y0305461D01*
X0300343Y0303362D01*
X0300343Y0304936D01*
X0298244Y0304936D01*
X0301392Y0306510D02*
X0303491Y0306510D01*
X0302442Y0306510D01*
X0302442Y0303362D01*
X0304541Y0306510D02*
X0304541Y0303887D01*
X0305065Y0303362D01*
X0306115Y0303362D01*
X0306640Y0303887D01*
X0306640Y0306510D01*
X0309789Y0305986D02*
X0309264Y0306510D01*
X0308214Y0306510D01*
X0307690Y0305986D01*
X0307690Y0305461D01*
X0308214Y0304936D01*
X0309264Y0304936D01*
X0309789Y0304411D01*
X0309789Y0303887D01*
X0309264Y0303362D01*
X0308214Y0303362D01*
X0307690Y0303887D01*
X0310838Y0305986D02*
X0311363Y0306510D01*
X0312412Y0306510D01*
X0312937Y0305986D01*
X0312937Y0303887D01*
X0312412Y0303362D01*
X0311363Y0303362D01*
X0310838Y0303887D01*
X0310838Y0305986D01*
X0295095Y0316222D02*
X0294570Y0316747D01*
X0293521Y0316747D01*
X0292996Y0316222D01*
X0292996Y0315697D01*
X0293521Y0315172D01*
X0294570Y0315172D01*
X0295095Y0314646D01*
X0295095Y0314123D01*
X0294570Y0313598D01*
X0293521Y0313598D01*
X0292996Y0314123D01*
X0296144Y0316747D02*
X0298244Y0316747D01*
X0297194Y0316747D01*
X0297194Y0313598D01*
X0299293Y0313598D02*
X0299293Y0315697D01*
X0300343Y0316747D01*
X0301392Y0315697D01*
X0301392Y0313598D01*
X0301392Y0315172D01*
X0299293Y0315172D01*
X0302442Y0316747D02*
X0304541Y0316747D01*
X0303491Y0316747D01*
X0303491Y0313598D01*
X0305590Y0316747D02*
X0305590Y0314123D01*
X0306115Y0313598D01*
X0307165Y0313598D01*
X0307690Y0314123D01*
X0307690Y0316747D01*
X0310838Y0316222D02*
X0310313Y0316747D01*
X0309264Y0316747D01*
X0308738Y0316222D01*
X0308738Y0315697D01*
X0309264Y0315172D01*
X0310313Y0315172D01*
X0310838Y0314646D01*
X0310838Y0314123D01*
X0310313Y0313598D01*
X0309264Y0313598D01*
X0308738Y0314123D01*
X0311888Y0313598D02*
X0312937Y0313598D01*
X0312412Y0313598D01*
X0312412Y0316747D01*
X0311888Y0316222D01*
X0294046Y0326458D02*
X0293521Y0326983D01*
X0292471Y0326983D01*
X0291947Y0326458D01*
X0291947Y0325933D01*
X0292471Y0325408D01*
X0293521Y0325408D01*
X0294046Y0324884D01*
X0294046Y0324359D01*
X0293521Y0323834D01*
X0292471Y0323834D01*
X0291947Y0324359D01*
X0295095Y0326983D02*
X0297194Y0326983D01*
X0296144Y0326983D01*
X0296144Y0323834D01*
X0298244Y0323834D02*
X0298244Y0325933D01*
X0299293Y0326983D01*
X0300343Y0325933D01*
X0300343Y0323834D01*
X0300343Y0325408D01*
X0298244Y0325408D01*
X0301392Y0326983D02*
X0303491Y0326983D01*
X0302442Y0326983D01*
X0302442Y0323834D01*
X0304541Y0326983D02*
X0304541Y0324359D01*
X0305065Y0323834D01*
X0306115Y0323834D01*
X0306640Y0324359D01*
X0306640Y0326983D01*
X0309789Y0326458D02*
X0309264Y0326983D01*
X0308214Y0326983D01*
X0307690Y0326458D01*
X0307690Y0325933D01*
X0308214Y0325408D01*
X0309264Y0325408D01*
X0309789Y0324884D01*
X0309789Y0324359D01*
X0309264Y0323834D01*
X0308214Y0323834D01*
X0307690Y0324359D01*
X0312937Y0323834D02*
X0310838Y0323834D01*
X0312937Y0325933D01*
X0312937Y0326458D01*
X0312412Y0326983D01*
X0311363Y0326983D01*
X0310838Y0326458D01*
X0298244Y0289581D02*
X0298244Y0286433D01*
X0300343Y0286433D01*
X0301392Y0289581D02*
X0301392Y0287482D01*
X0302442Y0286433D01*
X0303491Y0287482D01*
X0303491Y0289581D01*
X0306115Y0289581D02*
X0305065Y0289581D01*
X0304541Y0289056D01*
X0304541Y0286956D01*
X0305065Y0286433D01*
X0306115Y0286433D01*
X0306640Y0286956D01*
X0306640Y0289056D01*
X0306115Y0289581D01*
X0307690Y0289581D02*
X0307690Y0286956D01*
X0308214Y0286433D01*
X0309264Y0286433D01*
X0309789Y0286956D01*
X0309789Y0289581D01*
X0310838Y0289581D02*
X0312937Y0289581D01*
X0311888Y0289581D01*
X0311888Y0286433D01*
X0306640Y0279214D02*
X0306115Y0279738D01*
X0305065Y0279738D01*
X0304541Y0279214D01*
X0304541Y0277115D01*
X0305065Y0276590D01*
X0306115Y0276590D01*
X0306640Y0277115D01*
X0306640Y0278164D01*
X0305590Y0278164D01*
X0307690Y0276590D02*
X0307690Y0279738D01*
X0309789Y0276590D01*
X0309789Y0279738D01*
X0310838Y0279738D02*
X0310838Y0276590D01*
X0312412Y0276590D01*
X0312937Y0277115D01*
X0312937Y0279214D01*
X0312412Y0279738D01*
X0310838Y0279738D01*
X0306640Y0342206D02*
X0306115Y0342731D01*
X0305065Y0342731D01*
X0304541Y0342206D01*
X0304541Y0340107D01*
X0305065Y0339582D01*
X0306115Y0339582D01*
X0306640Y0340107D01*
X0306640Y0341157D01*
X0305590Y0341157D01*
X0307690Y0339582D02*
X0307690Y0342731D01*
X0309789Y0339582D01*
X0309789Y0342731D01*
X0310838Y0342731D02*
X0310838Y0339582D01*
X0312412Y0339582D01*
X0312937Y0340107D01*
X0312937Y0342206D01*
X0312412Y0342731D01*
X0310838Y0342731D01*
X0298244Y0352573D02*
X0298244Y0349425D01*
X0298244Y0350999D01*
X0300343Y0350999D01*
X0300343Y0352573D01*
X0300343Y0349425D01*
X0301392Y0352573D02*
X0301392Y0350474D01*
X0302442Y0349425D01*
X0303491Y0350474D01*
X0303491Y0352573D01*
X0306115Y0352573D02*
X0305065Y0352573D01*
X0304541Y0352049D01*
X0304541Y0349950D01*
X0305065Y0349425D01*
X0306115Y0349425D01*
X0306640Y0349950D01*
X0306640Y0352049D01*
X0306115Y0352573D01*
X0307690Y0352573D02*
X0307690Y0349950D01*
X0308214Y0349425D01*
X0309264Y0349425D01*
X0309789Y0349950D01*
X0309789Y0352573D01*
X0310838Y0352573D02*
X0312937Y0352573D01*
X0311888Y0352573D01*
X0311888Y0349425D01*
X0202297Y0345276D02*
X0202297Y0348424D01*
X0203871Y0348424D01*
X0204396Y0347899D01*
X0204396Y0346850D01*
X0203871Y0346325D01*
X0202297Y0346325D01*
X0207019Y0345276D02*
X0207019Y0348424D01*
X0205446Y0346850D01*
X0207545Y0346850D01*
X0173294Y0287402D02*
X0173294Y0290550D01*
X0174869Y0290550D01*
X0175393Y0290025D01*
X0175393Y0288976D01*
X0174869Y0288451D01*
X0173294Y0288451D01*
X0176443Y0287402D02*
X0177492Y0287402D01*
X0176967Y0287402D01*
X0176967Y0290550D01*
X0176443Y0290025D01*
X0172900Y0340157D02*
X0171851Y0340157D01*
X0172375Y0340157D01*
X0172375Y0337533D01*
X0171851Y0337008D01*
X0171326Y0337008D01*
X0170801Y0337533D01*
X0173949Y0339632D02*
X0174474Y0340157D01*
X0175524Y0340157D01*
X0176049Y0339632D01*
X0176049Y0339107D01*
X0175524Y0338582D01*
X0174999Y0338582D01*
X0175524Y0338582D01*
X0176049Y0338057D01*
X0176049Y0337533D01*
X0175524Y0337008D01*
X0174474Y0337008D01*
X0173949Y0337533D01*
X0198818Y0391338D02*
X0197769Y0391338D01*
X0198294Y0391338D01*
X0198294Y0388714D01*
X0197769Y0388189D01*
X0197244Y0388189D01*
X0196719Y0388714D01*
X0199868Y0388189D02*
X0200918Y0388189D01*
X0200393Y0388189D01*
X0200393Y0391338D01*
X0199868Y0390813D01*
X0296719Y0391338D02*
X0295670Y0391338D01*
X0296194Y0391338D01*
X0296194Y0388714D01*
X0295670Y0388189D01*
X0295144Y0388189D01*
X0294620Y0388714D01*
X0299867Y0388189D02*
X0297769Y0388189D01*
X0299867Y0390288D01*
X0299867Y0390813D01*
X0299343Y0391338D01*
X0298292Y0391338D01*
X0297769Y0390813D01*
X0233334Y0304330D02*
X0233334Y0301706D01*
X0233858Y0301181D01*
X0234907Y0301181D01*
X0235433Y0301706D01*
X0235433Y0304330D01*
X0236482Y0301181D02*
X0237532Y0301181D01*
X0237007Y0301181D01*
X0237007Y0304330D01*
X0236482Y0303805D01*
X0292150Y0291034D02*
X0292150Y0294183D01*
X0293725Y0294183D01*
X0294250Y0293658D01*
X0294250Y0292608D01*
X0293725Y0292084D01*
X0292150Y0292084D01*
X0293200Y0292084D02*
X0294250Y0291034D01*
X0295299Y0293658D02*
X0295824Y0294183D01*
X0296873Y0294183D01*
X0297399Y0293658D01*
X0297399Y0293133D01*
X0296873Y0292608D01*
X0296349Y0292608D01*
X0296873Y0292608D01*
X0297399Y0292084D01*
X0297399Y0291559D01*
X0296873Y0291034D01*
X0295824Y0291034D01*
X0295299Y0291559D01*
X0285278Y0291034D02*
X0285278Y0294183D01*
X0286853Y0294183D01*
X0287378Y0293658D01*
X0287378Y0292608D01*
X0286853Y0292084D01*
X0285278Y0292084D01*
X0286328Y0292084D02*
X0287378Y0291034D01*
X0290526Y0291034D02*
X0288427Y0291034D01*
X0290526Y0293133D01*
X0290526Y0293658D01*
X0290001Y0294183D01*
X0288952Y0294183D01*
X0288427Y0293658D01*
X0234514Y0326378D02*
X0234514Y0329527D01*
X0236089Y0329527D01*
X0236614Y0329002D01*
X0236614Y0327952D01*
X0236089Y0327427D01*
X0234514Y0327427D01*
X0235564Y0327427D02*
X0236614Y0326378D01*
X0237663Y0326378D02*
X0238713Y0326378D01*
X0238188Y0326378D01*
X0238188Y0329527D01*
X0237663Y0329002D01*
X0258158Y0269552D02*
X0258158Y0272700D01*
X0259734Y0272700D01*
X0260258Y0272175D01*
X0260258Y0271126D01*
X0259734Y0270601D01*
X0258158Y0270601D01*
X0261308Y0272700D02*
X0263407Y0272700D01*
X0263407Y0272175D01*
X0261308Y0270076D01*
X0261308Y0269552D01*
X0220080Y0269552D02*
X0220080Y0272700D01*
X0221654Y0272700D01*
X0222179Y0272175D01*
X0222179Y0271126D01*
X0221654Y0270601D01*
X0220080Y0270601D01*
X0223227Y0269552D02*
X0224278Y0269552D01*
X0223753Y0269552D01*
X0223753Y0272700D01*
X0223227Y0272175D01*
X0225852Y0272175D02*
X0226377Y0272700D01*
X0227426Y0272700D01*
X0227951Y0272175D01*
X0227951Y0271651D01*
X0227426Y0271126D01*
X0226901Y0271126D01*
X0227426Y0271126D01*
X0227951Y0270601D01*
X0227951Y0270076D01*
X0227426Y0269552D01*
X0226377Y0269552D01*
X0225852Y0270076D01*
X0245431Y0269552D02*
X0245431Y0272700D01*
X0247006Y0272700D01*
X0247529Y0272175D01*
X0247529Y0271126D01*
X0247006Y0270601D01*
X0245431Y0270601D01*
X0250679Y0272700D02*
X0249629Y0272175D01*
X0248579Y0271126D01*
X0248579Y0270076D01*
X0249104Y0269552D01*
X0250154Y0269552D01*
X0250679Y0270076D01*
X0250679Y0270601D01*
X0250154Y0271126D01*
X0248579Y0271126D01*
X0199509Y0269552D02*
X0199509Y0272700D01*
X0201083Y0272700D01*
X0201608Y0272175D01*
X0201608Y0271126D01*
X0201083Y0270601D01*
X0199509Y0270601D01*
X0204757Y0272700D02*
X0202658Y0272700D01*
X0202658Y0271126D01*
X0203707Y0271651D01*
X0204232Y0271651D01*
X0204757Y0271126D01*
X0204757Y0270076D01*
X0204232Y0269552D01*
X0203182Y0269552D01*
X0202658Y0270076D01*
X0317061Y0331102D02*
X0317061Y0334251D01*
X0318635Y0334251D01*
X0319160Y0333726D01*
X0319160Y0332677D01*
X0318635Y0332152D01*
X0317061Y0332152D01*
X0320209Y0333726D02*
X0320734Y0334251D01*
X0321784Y0334251D01*
X0322308Y0333726D01*
X0322308Y0333202D01*
X0321784Y0332677D01*
X0322308Y0332152D01*
X0322308Y0331627D01*
X0321784Y0331102D01*
X0320734Y0331102D01*
X0320209Y0331627D01*
X0320209Y0332152D01*
X0320734Y0332677D01*
X0320209Y0333202D01*
X0320209Y0333726D01*
X0320734Y0332677D02*
X0321784Y0332677D01*
X0210609Y0269552D02*
X0210609Y0272700D01*
X0212183Y0272700D01*
X0212708Y0272175D01*
X0212708Y0271126D01*
X0212183Y0270601D01*
X0210609Y0270601D01*
X0213757Y0270076D02*
X0214282Y0269552D01*
X0215332Y0269552D01*
X0215857Y0270076D01*
X0215857Y0272175D01*
X0215332Y0272700D01*
X0214282Y0272700D01*
X0213757Y0272175D01*
X0213757Y0271651D01*
X0214282Y0271126D01*
X0215857Y0271126D01*
X0317061Y0294488D02*
X0317061Y0297637D01*
X0318635Y0297637D01*
X0319160Y0297112D01*
X0319160Y0296062D01*
X0318635Y0295538D01*
X0317061Y0295538D01*
X0322308Y0294488D02*
X0320209Y0294488D01*
X0322308Y0296587D01*
X0322308Y0297112D01*
X0321784Y0297637D01*
X0320734Y0297637D01*
X0320209Y0297112D01*
X0317061Y0357874D02*
X0317061Y0361022D01*
X0318635Y0361022D01*
X0319160Y0360498D01*
X0319160Y0359448D01*
X0318635Y0358924D01*
X0317061Y0358924D01*
X0320209Y0360498D02*
X0320734Y0361022D01*
X0321784Y0361022D01*
X0322308Y0360498D01*
X0322308Y0359973D01*
X0321784Y0359448D01*
X0321259Y0359448D01*
X0321784Y0359448D01*
X0322308Y0358924D01*
X0322308Y0358399D01*
X0321784Y0357874D01*
X0320734Y0357874D01*
X0320209Y0358399D01*
X0268472Y0269552D02*
X0268472Y0272700D01*
X0270047Y0272700D01*
X0270571Y0272175D01*
X0270571Y0271126D01*
X0270047Y0270601D01*
X0268472Y0270601D01*
X0271621Y0269552D02*
X0272670Y0269552D01*
X0272146Y0269552D01*
X0272146Y0272700D01*
X0271621Y0272175D01*
X0274245Y0269552D02*
X0275294Y0269552D01*
X0274770Y0269552D01*
X0274770Y0272700D01*
X0274245Y0272175D01*
X0280513Y0259645D02*
X0280513Y0262794D01*
X0282087Y0262794D01*
X0282612Y0262270D01*
X0282612Y0261220D01*
X0282087Y0260695D01*
X0280513Y0260695D01*
X0283661Y0259645D02*
X0284711Y0259645D01*
X0284186Y0259645D01*
X0284186Y0262794D01*
X0283661Y0262270D01*
X0287860Y0259645D02*
X0287860Y0262794D01*
X0286285Y0261220D01*
X0288384Y0261220D01*
X0233119Y0269552D02*
X0233119Y0272700D01*
X0234694Y0272700D01*
X0235218Y0272175D01*
X0235218Y0271126D01*
X0234694Y0270601D01*
X0233119Y0270601D01*
X0236268Y0269552D02*
X0237317Y0269552D01*
X0236793Y0269552D01*
X0236793Y0272700D01*
X0236268Y0272175D01*
X0238892Y0272175D02*
X0239415Y0272700D01*
X0240465Y0272700D01*
X0240991Y0272175D01*
X0240991Y0270076D01*
X0240465Y0269552D01*
X0239415Y0269552D01*
X0238892Y0270076D01*
X0238892Y0272175D01*
X0291513Y0259645D02*
X0291513Y0262794D01*
X0293087Y0262794D01*
X0293612Y0262270D01*
X0293612Y0261220D01*
X0293087Y0260695D01*
X0291513Y0260695D01*
X0294662Y0259645D02*
X0295711Y0259645D01*
X0295186Y0259645D01*
X0295186Y0262794D01*
X0294662Y0262270D01*
X0299385Y0259645D02*
X0297285Y0259645D01*
X0299385Y0261744D01*
X0299385Y0262270D01*
X0298860Y0262794D01*
X0297810Y0262794D01*
X0297285Y0262270D01*
X0244226Y0301180D02*
X0244226Y0298032D01*
X0246325Y0298032D01*
X0249474Y0298032D02*
X0247375Y0298032D01*
X0249474Y0300131D01*
X0249474Y0300655D01*
X0248949Y0301180D01*
X0247900Y0301180D01*
X0247375Y0300655D01*
X0216798Y0292125D02*
X0216798Y0288976D01*
X0218897Y0288976D01*
X0219946Y0288976D02*
X0220996Y0288976D01*
X0220472Y0288976D01*
X0220472Y0292125D01*
X0219946Y0291599D01*
X0261680Y0294356D02*
X0261154Y0294881D01*
X0260105Y0294881D01*
X0259581Y0294356D01*
X0259581Y0292257D01*
X0260105Y0291732D01*
X0261154Y0291732D01*
X0261680Y0292257D01*
X0264828Y0294881D02*
X0262729Y0294881D01*
X0262729Y0293307D01*
X0263779Y0293831D01*
X0264303Y0293831D01*
X0264828Y0293307D01*
X0264828Y0292257D01*
X0264303Y0291732D01*
X0263254Y0291732D01*
X0262729Y0292257D01*
X0219160Y0334513D02*
X0218635Y0335038D01*
X0217586Y0335038D01*
X0217061Y0334513D01*
X0217061Y0332415D01*
X0217586Y0331890D01*
X0218635Y0331890D01*
X0219160Y0332415D01*
X0221783Y0331890D02*
X0221783Y0335038D01*
X0220210Y0333464D01*
X0222308Y0333464D01*
X0277034Y0334513D02*
X0276509Y0335038D01*
X0275460Y0335038D01*
X0274935Y0334513D01*
X0274935Y0332415D01*
X0275460Y0331890D01*
X0276509Y0331890D01*
X0277034Y0332415D01*
X0278082Y0334513D02*
X0278608Y0335038D01*
X0279658Y0335038D01*
X0280183Y0334513D01*
X0280183Y0333988D01*
X0279658Y0333464D01*
X0279133Y0333464D01*
X0279658Y0333464D01*
X0280183Y0332939D01*
X0280183Y0332415D01*
X0279658Y0331890D01*
X0278608Y0331890D01*
X0278082Y0332415D01*
X0277034Y0297506D02*
X0276509Y0298030D01*
X0275460Y0298030D01*
X0274935Y0297506D01*
X0274935Y0295407D01*
X0275460Y0294882D01*
X0276509Y0294882D01*
X0277034Y0295407D01*
X0280183Y0294882D02*
X0278082Y0294882D01*
X0280183Y0296981D01*
X0280183Y0297506D01*
X0279658Y0298030D01*
X0278608Y0298030D01*
X0278082Y0297506D01*
X0233858Y0294356D02*
X0233333Y0294881D01*
X0232283Y0294881D01*
X0231759Y0294356D01*
X0231759Y0292257D01*
X0232283Y0291732D01*
X0233333Y0291732D01*
X0233858Y0292257D01*
X0234907Y0291732D02*
X0235957Y0291732D01*
X0235432Y0291732D01*
X0235432Y0294881D01*
X0234907Y0294356D01*
D26*
X0222847Y0317901D02*
X0222847Y0327768D01*
X0215735Y0317901D02*
X0215735Y0327768D01*
X0170393Y0286102D02*
X0180392Y0286102D01*
X0180392Y0266102D02*
X0180392Y0286102D01*
X0170393Y0266102D02*
X0180392Y0266102D01*
X0170393Y0266102D02*
X0170393Y0286102D01*
X0170630Y0351849D02*
X0200630Y0351849D01*
X0170630Y0341850D02*
X0170630Y0351849D01*
X0170630Y0341850D02*
X0200630Y0341850D01*
X0200630Y0351849D01*
X0219015Y0238149D02*
X0219015Y0268149D01*
X0219015Y0238149D02*
X0229015Y0238149D01*
X0229015Y0268149D01*
X0219015Y0268149D02*
X0229015Y0268149D01*
X0207992Y0238149D02*
X0207992Y0268149D01*
X0207992Y0238149D02*
X0217992Y0238149D01*
X0217992Y0268149D01*
X0207992Y0268149D02*
X0217992Y0268149D01*
X0196968Y0238149D02*
X0196968Y0268149D01*
X0196968Y0238149D02*
X0206968Y0238149D01*
X0206968Y0268149D01*
X0196968Y0268149D02*
X0206968Y0268149D01*
X0290472Y0238149D02*
X0300472Y0238149D01*
X0290472Y0238149D02*
X0290472Y0258149D01*
X0300472Y0258149D01*
X0300472Y0238149D02*
X0300472Y0258149D01*
X0242834Y0238149D02*
X0242834Y0268149D01*
X0242834Y0238149D02*
X0252834Y0238149D01*
X0252834Y0268149D01*
X0242834Y0268149D02*
X0252834Y0268149D01*
X0279449Y0238149D02*
X0289449Y0238149D01*
X0279449Y0238149D02*
X0279449Y0258149D01*
X0289449Y0258149D01*
X0289449Y0238149D02*
X0289449Y0258149D01*
X0231811Y0238149D02*
X0231811Y0268149D01*
X0231811Y0238149D02*
X0241811Y0238149D01*
X0241811Y0268149D01*
X0231811Y0268149D02*
X0241811Y0268149D01*
X0255629Y0238149D02*
X0255629Y0268149D01*
X0255629Y0238149D02*
X0265630Y0238149D01*
X0265630Y0268149D01*
X0255629Y0268149D02*
X0265630Y0268149D01*
X0266653Y0238149D02*
X0266653Y0268149D01*
X0266653Y0238149D02*
X0276653Y0238149D01*
X0276653Y0268149D01*
X0266653Y0268149D02*
X0276653Y0268149D01*
X0286417Y0283858D02*
X0286417Y0285433D01*
X0289173Y0283858D02*
X0289173Y0285433D01*
X0296063Y0283858D02*
X0296063Y0285433D01*
X0293307Y0283858D02*
X0293307Y0285433D01*
X0227952Y0323425D02*
X0229527Y0323425D01*
X0227952Y0326181D02*
X0229527Y0326181D01*
X0273992Y0301550D02*
X0273992Y0312622D01*
X0281126Y0301550D02*
X0281126Y0312622D01*
X0273992Y0317298D02*
X0273992Y0328370D01*
X0281126Y0317298D02*
X0281126Y0328370D01*
X0237007Y0288767D02*
X0237007Y0297059D01*
X0244094Y0288767D02*
X0244094Y0297059D01*
X0243012Y0288861D02*
X0243012Y0296965D01*
X0249901Y0288861D02*
X0249901Y0296965D01*
X0251157Y0287377D02*
X0251157Y0298449D01*
X0258291Y0287377D02*
X0258291Y0298449D01*
X0314685Y0299960D02*
X0324685Y0299960D01*
X0314685Y0299960D02*
X0314685Y0329960D01*
X0324685Y0329960D01*
X0324685Y0299960D02*
X0324685Y0329960D01*
X0324685Y0273188D02*
X0324685Y0293188D01*
X0314685Y0293188D02*
X0324685Y0293188D01*
X0314685Y0273188D02*
X0314685Y0293188D01*
X0314685Y0273188D02*
X0324685Y0273188D01*
X0324685Y0336574D02*
X0324685Y0356574D01*
X0314685Y0356574D02*
X0324685Y0356574D01*
X0314685Y0336574D02*
X0314685Y0356574D01*
X0314685Y0336574D02*
X0324685Y0336574D01*
X0170078Y0295275D02*
X0199015Y0295275D01*
X0201771Y0295275D02*
X0205511Y0295275D01*
X0205511Y0334645D01*
X0170078Y0295275D02*
X0170078Y0334645D01*
X0178543Y0334645D01*
X0181300Y0334645D02*
X0205511Y0334645D01*
X0177558Y0337008D02*
X0182283Y0337008D01*
X0177558Y0337008D02*
X0178541Y0334645D01*
X0181300Y0334645D02*
X0182283Y0337008D01*
X0201771Y0295275D02*
X0202755Y0292913D01*
X0198030Y0292913D02*
X0202755Y0292913D01*
X0198030Y0292913D02*
X0199014Y0295275D01*
X0251968Y0363976D02*
X0251968Y0392913D01*
X0251968Y0357480D02*
X0251968Y0361219D01*
X0251968Y0357480D02*
X0291338Y0357480D01*
X0251968Y0392913D02*
X0291338Y0392913D01*
X0291338Y0384448D02*
X0291338Y0392913D01*
X0291338Y0357480D02*
X0291338Y0381692D01*
X0293701Y0380708D02*
X0293701Y0385433D01*
X0291338Y0384449D02*
X0293701Y0385433D01*
X0291338Y0381692D02*
X0293701Y0380708D01*
X0249606Y0360237D02*
X0251968Y0361219D01*
X0249606Y0360237D02*
X0249606Y0364961D01*
X0251968Y0363978D01*
X0204723Y0363976D02*
X0204723Y0392913D01*
X0204723Y0357480D02*
X0204723Y0361219D01*
X0204723Y0357480D02*
X0244092Y0357480D01*
X0204723Y0392913D02*
X0244092Y0392913D01*
X0244092Y0384448D02*
X0244092Y0392913D01*
X0244092Y0357480D02*
X0244092Y0381692D01*
X0246456Y0380708D02*
X0246456Y0385433D01*
X0244092Y0384449D02*
X0246456Y0385433D01*
X0244092Y0381692D02*
X0246456Y0380708D01*
X0202361Y0360236D02*
X0204723Y0361219D01*
X0202361Y0360236D02*
X0202361Y0364961D01*
X0204723Y0363978D01*
X0215795Y0300885D02*
X0215795Y0303838D01*
X0231448Y0300885D02*
X0231448Y0303838D01*
D27*
X0257873Y0305118D02*
X0257873Y0307184D01*
X0255806Y0305118D02*
X0257873Y0305118D01*
X0257873Y0322736D02*
X0257873Y0324803D01*
X0255806Y0324803D02*
X0257873Y0324803D01*
X0238188Y0324803D02*
X0240255Y0324803D01*
X0238188Y0322736D02*
X0238188Y0324803D01*
X0238188Y0305118D02*
X0238188Y0307184D01*
X0238188Y0305118D02*
X0240255Y0305118D01*
G04 next file*
G04*
G04 #@! TF.GenerationSoftware,Altium Limited,Altium Designer,21.7.2 (23)*
G04*
G04 Layer_Color=65535*
G04 skipping 70
G04*
G04 #@! TF.SameCoordinates,3D67BF19-0A55-4891-8FEB-F4BE30BF2CF6*
G04*
G04*
G04 #@! TF.FilePolarity,Positive*
G04*
G01*
G75*
D28*
X0069980Y0133268D02*
X0069242Y0133694D01*
X0069242Y0132841D01*
X0069980Y0133268D01*
X0054823Y0122144D02*
X0054085Y0122571D01*
X0054085Y0121719D01*
X0054823Y0122144D01*
D29*
X0086221Y0105118D02*
X0107480Y0105118D01*
X0086221Y0118110D02*
X0107480Y0118110D01*
X0107480Y0105118D02*
X0107480Y0118110D01*
X0086221Y0105118D02*
X0086221Y0118110D01*
X0086221Y0099212D02*
X0107480Y0099212D01*
X0086221Y0111417D02*
X0107480Y0111417D01*
X0107480Y0099212D02*
X0107480Y0111417D01*
X0086221Y0099212D02*
X0086221Y0111417D01*
X0062402Y0105118D02*
X0083661Y0105118D01*
X0062402Y0118110D02*
X0083661Y0118110D01*
X0083661Y0105118D02*
X0083661Y0118110D01*
X0062402Y0105118D02*
X0062402Y0118110D01*
X0062402Y0099212D02*
X0083661Y0099212D01*
X0062402Y0111417D02*
X0083661Y0111417D01*
X0083661Y0099212D02*
X0083661Y0111417D01*
X0062402Y0099212D02*
X0062402Y0111417D01*
X0027559Y0099212D02*
X0059841Y0099212D01*
X0027559Y0111417D02*
X0059841Y0111417D01*
X0059841Y0099212D02*
X0059841Y0111417D01*
X0027559Y0099212D02*
X0027559Y0111417D01*
X0110039Y0094882D02*
X0131299Y0094882D01*
X0110039Y0107874D02*
X0131299Y0107874D01*
X0131299Y0094882D02*
X0131299Y0107874D01*
X0110039Y0094882D02*
X0110039Y0107874D01*
X0110039Y0088976D02*
X0131299Y0088976D01*
X0110039Y0101181D02*
X0131299Y0101181D01*
X0131299Y0088976D02*
X0131299Y0101181D01*
X0110039Y0088976D02*
X0110039Y0101181D01*
X0027559Y0105118D02*
X0059841Y0105118D01*
X0027559Y0118110D02*
X0059841Y0118110D01*
X0059841Y0105118D02*
X0059841Y0118110D01*
X0027559Y0105118D02*
X0027559Y0118110D01*
X0006052Y0187482D02*
X0005527Y0188007D01*
X0004478Y0188007D01*
X0003953Y0187482D01*
X0003953Y0186957D01*
X0004478Y0186432D01*
X0005527Y0186432D01*
X0006052Y0185908D01*
X0006052Y0185383D01*
X0005527Y0184858D01*
X0004478Y0184858D01*
X0003953Y0185383D01*
X0007101Y0188007D02*
X0009200Y0188007D01*
X0008151Y0188007D01*
X0008151Y0184858D01*
X0011824Y0188007D02*
X0010775Y0188007D01*
X0010249Y0187482D01*
X0010249Y0185383D01*
X0010775Y0184858D01*
X0011824Y0184858D01*
X0012349Y0185383D01*
X0012349Y0187482D01*
X0011824Y0188007D01*
X0013397Y0184858D02*
X0013397Y0188007D01*
X0015498Y0184858D01*
X0015498Y0188007D01*
X0016547Y0188007D02*
X0016547Y0184858D01*
X0018121Y0184858D01*
X0018646Y0185383D01*
X0018646Y0185908D01*
X0018121Y0186432D01*
X0016547Y0186432D01*
X0018121Y0186432D01*
X0018646Y0186957D01*
X0018646Y0187482D01*
X0018121Y0188007D01*
X0016547Y0188007D01*
X0019695Y0184858D02*
X0019695Y0186957D01*
X0020745Y0188007D01*
X0021795Y0186957D01*
X0021795Y0184858D01*
X0021795Y0186432D01*
X0019695Y0186432D01*
X0022844Y0188007D02*
X0024943Y0188007D01*
X0023894Y0188007D01*
X0023894Y0184858D01*
X0025993Y0188007D02*
X0028092Y0188007D01*
X0027042Y0188007D01*
X0027042Y0184858D01*
X0014516Y0103033D02*
X0013991Y0103558D01*
X0012942Y0103558D01*
X0012417Y0103033D01*
X0012417Y0100933D01*
X0012942Y0100408D01*
X0013991Y0100408D01*
X0014516Y0100933D01*
X0017665Y0103033D02*
X0017140Y0103558D01*
X0016091Y0103558D01*
X0015566Y0103033D01*
X0015566Y0102508D01*
X0016091Y0101984D01*
X0017140Y0101984D01*
X0017665Y0101459D01*
X0017665Y0100933D01*
X0017140Y0100408D01*
X0016091Y0100408D01*
X0015566Y0100933D01*
X0018714Y0103558D02*
X0019764Y0103558D01*
X0019239Y0103558D01*
X0019239Y0100408D01*
X0018714Y0100408D01*
X0019764Y0100408D01*
X0021338Y0100408D02*
X0021338Y0103558D01*
X0023436Y0100408D01*
X0023436Y0103558D01*
X0014516Y0113269D02*
X0013991Y0113794D01*
X0012942Y0113794D01*
X0012417Y0113269D01*
X0012417Y0111169D01*
X0012942Y0110645D01*
X0013991Y0110645D01*
X0014516Y0111169D01*
X0017665Y0113269D02*
X0017140Y0113794D01*
X0016091Y0113794D01*
X0015566Y0113269D01*
X0015566Y0112745D01*
X0016091Y0112220D01*
X0017140Y0112220D01*
X0017665Y0111695D01*
X0017665Y0111169D01*
X0017140Y0110645D01*
X0016091Y0110645D01*
X0015566Y0111169D01*
X0020289Y0113794D02*
X0019239Y0113794D01*
X0018714Y0113269D01*
X0018714Y0111169D01*
X0019239Y0110645D01*
X0020289Y0110645D01*
X0020814Y0111169D01*
X0020814Y0113269D01*
X0020289Y0113794D01*
X0021863Y0113794D02*
X0021863Y0111169D01*
X0022388Y0110645D01*
X0023436Y0110645D01*
X0023962Y0111169D01*
X0023962Y0113794D01*
X0025012Y0113794D02*
X0027111Y0113794D01*
X0026061Y0113794D01*
X0026061Y0110645D01*
X0100016Y0109660D02*
X0100016Y0106512D01*
X0102115Y0106512D01*
X0103163Y0109660D02*
X0103163Y0107561D01*
X0104214Y0106512D01*
X0105263Y0107561D01*
X0105263Y0109660D01*
X0088793Y0109660D02*
X0088793Y0106512D01*
X0088793Y0108086D01*
X0090894Y0108086D01*
X0090894Y0109660D01*
X0090894Y0106512D01*
X0091944Y0109660D02*
X0091944Y0107561D01*
X0092993Y0106512D01*
X0094043Y0107561D01*
X0094043Y0109660D01*
X0096404Y0116353D02*
X0094307Y0116353D01*
X0094307Y0113205D01*
X0096404Y0113205D01*
X0094307Y0114779D02*
X0095357Y0114779D01*
X0097456Y0113205D02*
X0097456Y0116353D01*
X0099555Y0113205D01*
X0099555Y0116353D01*
X0066288Y0115828D02*
X0065763Y0116353D01*
X0064714Y0116353D01*
X0064188Y0115828D01*
X0064188Y0115304D01*
X0064714Y0114779D01*
X0065763Y0114779D01*
X0066288Y0114253D01*
X0066288Y0113728D01*
X0065763Y0113205D01*
X0064714Y0113205D01*
X0064188Y0113728D01*
X0069437Y0116353D02*
X0067338Y0116353D01*
X0067338Y0113205D01*
X0069437Y0113205D01*
X0067338Y0114779D02*
X0068387Y0114779D01*
X0070486Y0116353D02*
X0070486Y0113205D01*
X0072585Y0113205D01*
X0073635Y0113205D02*
X0073635Y0116353D01*
X0074684Y0115304D01*
X0075732Y0116353D01*
X0075732Y0113205D01*
X0076783Y0113205D02*
X0076783Y0116353D01*
X0078358Y0116353D01*
X0078882Y0115828D01*
X0078882Y0114779D01*
X0078358Y0114253D01*
X0076783Y0114253D01*
X0079932Y0113205D02*
X0079932Y0116353D01*
X0081506Y0116353D01*
X0082030Y0115828D01*
X0082030Y0114779D01*
X0081506Y0114253D01*
X0079932Y0114253D01*
X0077969Y0109135D02*
X0078493Y0109660D01*
X0079543Y0109660D01*
X0080068Y0109135D01*
X0080068Y0107037D01*
X0079543Y0106512D01*
X0078493Y0106512D01*
X0077969Y0107037D01*
X0077969Y0109135D01*
X0066551Y0106512D02*
X0067601Y0106512D01*
X0067076Y0106512D01*
X0067076Y0109660D01*
X0066551Y0109135D01*
X0043126Y0106512D02*
X0044175Y0106512D01*
X0043651Y0106512D01*
X0043651Y0109660D01*
X0043126Y0109135D01*
X0033807Y0106512D02*
X0031709Y0106512D01*
X0033807Y0108610D01*
X0033807Y0109135D01*
X0033283Y0109660D01*
X0032233Y0109660D01*
X0031709Y0109135D01*
X0042075Y0115828D02*
X0041551Y0116353D01*
X0040501Y0116353D01*
X0039976Y0115828D01*
X0039976Y0113728D01*
X0040501Y0113205D01*
X0041551Y0113205D01*
X0042075Y0113728D01*
X0045223Y0116353D02*
X0043125Y0116353D01*
X0043125Y0114779D01*
X0044175Y0114779D01*
X0043125Y0114779D01*
X0043125Y0113205D01*
X0048373Y0115828D02*
X0047848Y0116353D01*
X0046798Y0116353D01*
X0046273Y0115828D01*
X0046273Y0113728D01*
X0046798Y0113205D01*
X0047848Y0113205D01*
X0048373Y0113728D01*
X0048373Y0114779D01*
X0047323Y0114779D01*
X0053756Y0109135D02*
X0054281Y0109660D01*
X0055330Y0109660D01*
X0055855Y0109135D01*
X0055855Y0107037D01*
X0055330Y0106512D01*
X0054281Y0106512D01*
X0053756Y0107037D01*
X0053756Y0109135D01*
X0114123Y0105919D02*
X0112023Y0105919D01*
X0112023Y0104346D01*
X0113073Y0104346D01*
X0112023Y0104346D01*
X0112023Y0102770D01*
X0115172Y0105919D02*
X0115172Y0102770D01*
X0116746Y0102770D01*
X0117270Y0103296D01*
X0117270Y0103821D01*
X0116746Y0104346D01*
X0115172Y0104346D01*
X0116746Y0104346D01*
X0117270Y0104871D01*
X0117270Y0105395D01*
X0116746Y0105919D01*
X0115172Y0105919D01*
X0118321Y0102770D02*
X0118321Y0105919D01*
X0119895Y0105919D01*
X0120420Y0105395D01*
X0120420Y0104346D01*
X0119895Y0103821D01*
X0118321Y0103821D01*
X0121469Y0102770D02*
X0121469Y0105919D01*
X0123044Y0105919D01*
X0123567Y0105395D01*
X0123567Y0104346D01*
X0123044Y0103821D01*
X0121469Y0103821D01*
X0122519Y0103821D02*
X0123567Y0102770D01*
X0124618Y0105919D02*
X0125668Y0105919D01*
X0125143Y0105919D01*
X0125143Y0102770D01*
X0124618Y0102770D01*
X0125668Y0102770D01*
X0127242Y0102770D02*
X0127242Y0105919D01*
X0128291Y0104871D01*
X0129341Y0105919D01*
X0129341Y0102770D01*
X0124622Y0099424D02*
X0124622Y0096800D01*
X0125147Y0096275D01*
X0126196Y0096275D01*
X0126721Y0096800D01*
X0126721Y0099424D01*
X0113795Y0099424D02*
X0113795Y0096275D01*
X0115370Y0096275D01*
X0115894Y0096800D01*
X0115894Y0098898D01*
X0115370Y0099424D01*
X0113795Y0099424D01*
X0086827Y0186038D02*
X0086827Y0182890D01*
X0088400Y0182890D01*
X0088926Y0183414D01*
X0088926Y0183939D01*
X0088400Y0184464D01*
X0086827Y0184464D01*
X0088400Y0184464D01*
X0088926Y0184989D01*
X0088926Y0185514D01*
X0088400Y0186038D01*
X0086827Y0186038D01*
X0089975Y0182890D02*
X0089975Y0184989D01*
X0091025Y0186038D01*
X0092074Y0184989D01*
X0092074Y0182890D01*
X0092074Y0184464D01*
X0089975Y0184464D01*
X0093124Y0186038D02*
X0095223Y0186038D01*
X0094174Y0186038D01*
X0094174Y0182890D01*
X0096270Y0186038D02*
X0098372Y0186038D01*
X0097322Y0186038D01*
X0097322Y0182890D01*
X0039189Y0182890D02*
X0039189Y0186038D01*
X0040763Y0186038D01*
X0041288Y0185514D01*
X0041288Y0184464D01*
X0040763Y0183939D01*
X0039189Y0183939D01*
X0042338Y0182890D02*
X0042338Y0186038D01*
X0043912Y0186038D01*
X0044437Y0185514D01*
X0044437Y0184464D01*
X0043912Y0183939D01*
X0042338Y0183939D01*
X0043387Y0183939D02*
X0044437Y0182890D01*
X0045486Y0186038D02*
X0046536Y0186038D01*
X0046010Y0186038D01*
X0046010Y0182890D01*
X0045486Y0182890D01*
X0046536Y0182890D01*
X0048110Y0182890D02*
X0048110Y0186038D01*
X0049160Y0184989D01*
X0050209Y0186038D01*
X0050209Y0182890D01*
X0110184Y0185514D02*
X0109659Y0186038D01*
X0108609Y0186038D01*
X0108085Y0185514D01*
X0108085Y0183414D01*
X0108609Y0182890D01*
X0109659Y0182890D01*
X0110184Y0183414D01*
X0110184Y0184464D01*
X0109134Y0184464D01*
X0111233Y0182890D02*
X0111233Y0186038D01*
X0113332Y0182890D01*
X0113332Y0186038D01*
X0114382Y0186038D02*
X0114382Y0182890D01*
X0115955Y0182890D01*
X0116480Y0183414D01*
X0116480Y0185514D01*
X0115955Y0186038D01*
X0114382Y0186038D01*
X0064121Y0185514D02*
X0063596Y0186038D01*
X0062546Y0186038D01*
X0062022Y0185514D01*
X0062022Y0183414D01*
X0062546Y0182890D01*
X0063596Y0182890D01*
X0064121Y0183414D01*
X0064121Y0184464D01*
X0063071Y0184464D01*
X0065169Y0182890D02*
X0065169Y0186038D01*
X0067269Y0182890D01*
X0067269Y0186038D01*
X0068319Y0186038D02*
X0068319Y0182890D01*
X0069893Y0182890D01*
X0070418Y0183414D01*
X0070418Y0185514D01*
X0069893Y0186038D01*
X0068319Y0186038D01*
X0037612Y0156904D02*
X0038662Y0156904D01*
X0038137Y0156904D01*
X0038137Y0153756D01*
X0037612Y0153756D01*
X0038662Y0153756D01*
X0040236Y0153756D02*
X0040236Y0156904D01*
X0042335Y0153756D01*
X0042335Y0156904D01*
X0039713Y0137482D02*
X0039189Y0138007D01*
X0038139Y0138007D01*
X0037614Y0137482D01*
X0037614Y0135383D01*
X0038139Y0134857D01*
X0039189Y0134857D01*
X0039713Y0135383D01*
X0039713Y0136432D01*
X0038664Y0136432D01*
X0040763Y0134857D02*
X0040763Y0138007D01*
X0042862Y0134857D01*
X0042862Y0138007D01*
X0043911Y0138007D02*
X0043911Y0134857D01*
X0045486Y0134857D01*
X0046010Y0135383D01*
X0046010Y0137482D01*
X0045486Y0138007D01*
X0043911Y0138007D01*
X0124755Y0136695D02*
X0124230Y0137219D01*
X0123180Y0137219D01*
X0122656Y0136695D01*
X0122656Y0136170D01*
X0123180Y0135645D01*
X0124230Y0135645D01*
X0124755Y0135120D01*
X0124755Y0134596D01*
X0124230Y0134071D01*
X0123180Y0134071D01*
X0122656Y0134596D01*
X0125804Y0137219D02*
X0127902Y0137219D01*
X0126854Y0137219D01*
X0126854Y0134071D01*
X0128953Y0134071D02*
X0128953Y0136170D01*
X0130002Y0137219D01*
X0131051Y0136170D01*
X0131051Y0134071D01*
X0131051Y0135645D01*
X0128953Y0135645D01*
X0132101Y0137219D02*
X0134200Y0137219D01*
X0133151Y0137219D01*
X0133151Y0134071D01*
X0135250Y0137219D02*
X0135250Y0134596D01*
X0135775Y0134071D01*
X0136824Y0134071D01*
X0137349Y0134596D01*
X0137349Y0137219D01*
X0140498Y0136695D02*
X0139973Y0137219D01*
X0138922Y0137219D01*
X0138399Y0136695D01*
X0138399Y0136170D01*
X0138922Y0135645D01*
X0139973Y0135645D01*
X0140498Y0135120D01*
X0140498Y0134596D01*
X0139973Y0134071D01*
X0138922Y0134071D01*
X0138399Y0134596D01*
X0141547Y0136695D02*
X0142072Y0137219D01*
X0143121Y0137219D01*
X0143646Y0136695D01*
X0143646Y0134596D01*
X0143121Y0134071D01*
X0142072Y0134071D01*
X0141547Y0134596D01*
X0141547Y0136695D01*
X0125804Y0146931D02*
X0125279Y0147456D01*
X0124230Y0147456D01*
X0123705Y0146931D01*
X0123705Y0146406D01*
X0124230Y0145881D01*
X0125279Y0145881D01*
X0125804Y0145356D01*
X0125804Y0144832D01*
X0125279Y0144307D01*
X0124230Y0144307D01*
X0123705Y0144832D01*
X0126854Y0147456D02*
X0128953Y0147456D01*
X0127902Y0147456D01*
X0127902Y0144307D01*
X0130002Y0144307D02*
X0130002Y0146406D01*
X0131051Y0147456D01*
X0132101Y0146406D01*
X0132101Y0144307D01*
X0132101Y0145881D01*
X0130002Y0145881D01*
X0133151Y0147456D02*
X0135250Y0147456D01*
X0134200Y0147456D01*
X0134200Y0144307D01*
X0136300Y0147456D02*
X0136300Y0144832D01*
X0136824Y0144307D01*
X0137874Y0144307D01*
X0138399Y0144832D01*
X0138399Y0147456D01*
X0141547Y0146931D02*
X0141022Y0147456D01*
X0139973Y0147456D01*
X0139448Y0146931D01*
X0139448Y0146406D01*
X0139973Y0145881D01*
X0141022Y0145881D01*
X0141547Y0145356D01*
X0141547Y0144832D01*
X0141022Y0144307D01*
X0139973Y0144307D01*
X0139448Y0144832D01*
X0142597Y0144307D02*
X0143646Y0144307D01*
X0143121Y0144307D01*
X0143121Y0147456D01*
X0142597Y0146931D01*
X0124755Y0157167D02*
X0124230Y0157692D01*
X0123180Y0157692D01*
X0122656Y0157167D01*
X0122656Y0156642D01*
X0123180Y0156117D01*
X0124230Y0156117D01*
X0124755Y0155593D01*
X0124755Y0155067D01*
X0124230Y0154543D01*
X0123180Y0154543D01*
X0122656Y0155067D01*
X0125804Y0157692D02*
X0127902Y0157692D01*
X0126854Y0157692D01*
X0126854Y0154543D01*
X0128953Y0154543D02*
X0128953Y0156642D01*
X0130002Y0157692D01*
X0131051Y0156642D01*
X0131051Y0154543D01*
X0131051Y0156117D01*
X0128953Y0156117D01*
X0132101Y0157692D02*
X0134200Y0157692D01*
X0133151Y0157692D01*
X0133151Y0154543D01*
X0135250Y0157692D02*
X0135250Y0155067D01*
X0135775Y0154543D01*
X0136824Y0154543D01*
X0137349Y0155067D01*
X0137349Y0157692D01*
X0140498Y0157167D02*
X0139973Y0157692D01*
X0138922Y0157692D01*
X0138399Y0157167D01*
X0138399Y0156642D01*
X0138922Y0156117D01*
X0139973Y0156117D01*
X0140498Y0155593D01*
X0140498Y0155067D01*
X0139973Y0154543D01*
X0138922Y0154543D01*
X0138399Y0155067D01*
X0143646Y0154543D02*
X0141547Y0154543D01*
X0143646Y0156642D01*
X0143646Y0157167D01*
X0143121Y0157692D01*
X0142072Y0157692D01*
X0141547Y0157167D01*
X0128953Y0120290D02*
X0128953Y0117141D01*
X0131051Y0117141D01*
X0132101Y0120290D02*
X0132101Y0118191D01*
X0133151Y0117141D01*
X0134200Y0118191D01*
X0134200Y0120290D01*
X0136824Y0120290D02*
X0135775Y0120290D01*
X0135250Y0119765D01*
X0135250Y0117666D01*
X0135775Y0117141D01*
X0136824Y0117141D01*
X0137349Y0117666D01*
X0137349Y0119765D01*
X0136824Y0120290D01*
X0138399Y0120290D02*
X0138399Y0117666D01*
X0138922Y0117141D01*
X0139973Y0117141D01*
X0140498Y0117666D01*
X0140498Y0120290D01*
X0141547Y0120290D02*
X0143646Y0120290D01*
X0142597Y0120290D01*
X0142597Y0117141D01*
X0137349Y0109923D02*
X0136824Y0110447D01*
X0135775Y0110447D01*
X0135250Y0109923D01*
X0135250Y0107824D01*
X0135775Y0107299D01*
X0136824Y0107299D01*
X0137349Y0107824D01*
X0137349Y0108873D01*
X0136300Y0108873D01*
X0138399Y0107299D02*
X0138399Y0110447D01*
X0140498Y0107299D01*
X0140498Y0110447D01*
X0141547Y0110447D02*
X0141547Y0107299D01*
X0143121Y0107299D01*
X0143646Y0107824D01*
X0143646Y0109923D01*
X0143121Y0110447D01*
X0141547Y0110447D01*
X0137349Y0172915D02*
X0136824Y0173440D01*
X0135775Y0173440D01*
X0135250Y0172915D01*
X0135250Y0170816D01*
X0135775Y0170291D01*
X0136824Y0170291D01*
X0137349Y0170816D01*
X0137349Y0171866D01*
X0136300Y0171866D01*
X0138399Y0170291D02*
X0138399Y0173440D01*
X0140498Y0170291D01*
X0140498Y0173440D01*
X0141547Y0173440D02*
X0141547Y0170291D01*
X0143121Y0170291D01*
X0143646Y0170816D01*
X0143646Y0172915D01*
X0143121Y0173440D01*
X0141547Y0173440D01*
X0128953Y0183282D02*
X0128953Y0180134D01*
X0128953Y0181708D01*
X0131051Y0181708D01*
X0131051Y0183282D01*
X0131051Y0180134D01*
X0132101Y0183282D02*
X0132101Y0181183D01*
X0133151Y0180134D01*
X0134200Y0181183D01*
X0134200Y0183282D01*
X0136824Y0183282D02*
X0135775Y0183282D01*
X0135250Y0182758D01*
X0135250Y0180658D01*
X0135775Y0180134D01*
X0136824Y0180134D01*
X0137349Y0180658D01*
X0137349Y0182758D01*
X0136824Y0183282D01*
X0138399Y0183282D02*
X0138399Y0180658D01*
X0138922Y0180134D01*
X0139973Y0180134D01*
X0140498Y0180658D01*
X0140498Y0183282D01*
X0141547Y0183282D02*
X0143646Y0183282D01*
X0142597Y0183282D01*
X0142597Y0180134D01*
X0033006Y0175984D02*
X0033006Y0179133D01*
X0034580Y0179133D01*
X0035104Y0178608D01*
X0035104Y0177558D01*
X0034580Y0177034D01*
X0033006Y0177034D01*
X0037729Y0175984D02*
X0037729Y0179133D01*
X0036154Y0177558D01*
X0038254Y0177558D01*
X0004003Y0118111D02*
X0004003Y0121259D01*
X0005578Y0121259D01*
X0006102Y0120734D01*
X0006102Y0119685D01*
X0005578Y0119160D01*
X0004003Y0119160D01*
X0007152Y0118111D02*
X0008201Y0118111D01*
X0007677Y0118111D01*
X0007677Y0121259D01*
X0007152Y0120734D01*
X0003608Y0170866D02*
X0002560Y0170866D01*
X0003084Y0170866D01*
X0003084Y0168241D01*
X0002560Y0167717D01*
X0002035Y0167717D01*
X0001510Y0168241D01*
X0004658Y0170341D02*
X0005183Y0170866D01*
X0006233Y0170866D01*
X0006758Y0170341D01*
X0006758Y0169816D01*
X0006233Y0169291D01*
X0005707Y0169291D01*
X0006233Y0169291D01*
X0006758Y0168766D01*
X0006758Y0168241D01*
X0006233Y0167717D01*
X0005183Y0167717D01*
X0004658Y0168241D01*
X0029528Y0222047D02*
X0028477Y0222047D01*
X0029003Y0222047D01*
X0029003Y0219423D01*
X0028477Y0218898D01*
X0027953Y0218898D01*
X0027428Y0219423D01*
X0030577Y0218898D02*
X0031627Y0218898D01*
X0031102Y0218898D01*
X0031102Y0222047D01*
X0030577Y0221522D01*
X0127428Y0222047D02*
X0126379Y0222047D01*
X0126903Y0222047D01*
X0126903Y0219423D01*
X0126379Y0218898D01*
X0125854Y0218898D01*
X0125329Y0219423D01*
X0130577Y0218898D02*
X0128478Y0218898D01*
X0130577Y0220997D01*
X0130577Y0221522D01*
X0130050Y0222047D01*
X0129002Y0222047D01*
X0128478Y0221522D01*
X0064043Y0135039D02*
X0064043Y0132415D01*
X0064567Y0131890D01*
X0065617Y0131890D01*
X0066142Y0132415D01*
X0066142Y0135039D01*
X0067191Y0131890D02*
X0068241Y0131890D01*
X0067716Y0131890D01*
X0067716Y0135039D01*
X0067191Y0134514D01*
X0122859Y0121743D02*
X0122859Y0124892D01*
X0124434Y0124892D01*
X0124959Y0124367D01*
X0124959Y0123317D01*
X0124434Y0122793D01*
X0122859Y0122793D01*
X0123909Y0122793D02*
X0124959Y0121743D01*
X0126007Y0124367D02*
X0126533Y0124892D01*
X0127583Y0124892D01*
X0128108Y0124367D01*
X0128108Y0123842D01*
X0127583Y0123317D01*
X0127058Y0123317D01*
X0127583Y0123317D01*
X0128108Y0122793D01*
X0128108Y0122268D01*
X0127583Y0121743D01*
X0126533Y0121743D01*
X0126007Y0122268D01*
X0115987Y0121743D02*
X0115987Y0124892D01*
X0117562Y0124892D01*
X0118087Y0124367D01*
X0118087Y0123317D01*
X0117562Y0122793D01*
X0115987Y0122793D01*
X0117036Y0122793D02*
X0118087Y0121743D01*
X0121235Y0121743D02*
X0119136Y0121743D01*
X0121235Y0123842D01*
X0121235Y0124367D01*
X0120710Y0124892D01*
X0119661Y0124892D01*
X0119136Y0124367D01*
X0065224Y0157087D02*
X0065224Y0160235D01*
X0066798Y0160235D01*
X0067323Y0159710D01*
X0067323Y0158661D01*
X0066798Y0158136D01*
X0065224Y0158136D01*
X0066273Y0158136D02*
X0067323Y0157087D01*
X0068372Y0157087D02*
X0069422Y0157087D01*
X0068897Y0157087D01*
X0068897Y0160235D01*
X0068372Y0159710D01*
X0088867Y0100261D02*
X0088867Y0103409D01*
X0090443Y0103409D01*
X0090968Y0102884D01*
X0090968Y0101835D01*
X0090443Y0101309D01*
X0088867Y0101309D01*
X0092017Y0103409D02*
X0094116Y0103409D01*
X0094116Y0102884D01*
X0092017Y0100784D01*
X0092017Y0100261D01*
X0050788Y0100261D02*
X0050788Y0103409D01*
X0052363Y0103409D01*
X0052888Y0102884D01*
X0052888Y0101835D01*
X0052363Y0101309D01*
X0050788Y0101309D01*
X0053937Y0100261D02*
X0054987Y0100261D01*
X0054462Y0100261D01*
X0054462Y0103409D01*
X0053937Y0102884D01*
X0056560Y0102884D02*
X0057086Y0103409D01*
X0058135Y0103409D01*
X0058660Y0102884D01*
X0058660Y0102360D01*
X0058135Y0101835D01*
X0057611Y0101835D01*
X0058135Y0101835D01*
X0058660Y0101309D01*
X0058660Y0100784D01*
X0058135Y0100261D01*
X0057086Y0100261D01*
X0056560Y0100784D01*
X0076140Y0100261D02*
X0076140Y0103409D01*
X0077715Y0103409D01*
X0078239Y0102884D01*
X0078239Y0101835D01*
X0077715Y0101309D01*
X0076140Y0101309D01*
X0081388Y0103409D02*
X0080338Y0102884D01*
X0079289Y0101835D01*
X0079289Y0100784D01*
X0079813Y0100261D01*
X0080863Y0100261D01*
X0081388Y0100784D01*
X0081388Y0101309D01*
X0080863Y0101835D01*
X0079289Y0101835D01*
X0030218Y0100261D02*
X0030218Y0103409D01*
X0031791Y0103409D01*
X0032317Y0102884D01*
X0032317Y0101835D01*
X0031791Y0101309D01*
X0030218Y0101309D01*
X0035466Y0103409D02*
X0033367Y0103409D01*
X0033367Y0101835D01*
X0034416Y0102360D01*
X0034941Y0102360D01*
X0035466Y0101835D01*
X0035466Y0100784D01*
X0034941Y0100261D01*
X0033891Y0100261D01*
X0033367Y0100784D01*
X0147770Y0161811D02*
X0147770Y0164960D01*
X0149344Y0164960D01*
X0149869Y0164435D01*
X0149869Y0163386D01*
X0149344Y0162861D01*
X0147770Y0162861D01*
X0150918Y0164435D02*
X0151443Y0164960D01*
X0152493Y0164960D01*
X0153017Y0164435D01*
X0153017Y0163911D01*
X0152493Y0163386D01*
X0153017Y0162861D01*
X0153017Y0162336D01*
X0152493Y0161811D01*
X0151443Y0161811D01*
X0150918Y0162336D01*
X0150918Y0162861D01*
X0151443Y0163386D01*
X0150918Y0163911D01*
X0150918Y0164435D01*
X0151443Y0163386D02*
X0152493Y0163386D01*
X0041318Y0100261D02*
X0041318Y0103409D01*
X0042892Y0103409D01*
X0043417Y0102884D01*
X0043417Y0101835D01*
X0042892Y0101309D01*
X0041318Y0101309D01*
X0044467Y0100784D02*
X0044991Y0100261D01*
X0046041Y0100261D01*
X0046566Y0100784D01*
X0046566Y0102884D01*
X0046041Y0103409D01*
X0044991Y0103409D01*
X0044467Y0102884D01*
X0044467Y0102360D01*
X0044991Y0101835D01*
X0046566Y0101835D01*
X0147770Y0125197D02*
X0147770Y0128345D01*
X0149344Y0128345D01*
X0149869Y0127821D01*
X0149869Y0126770D01*
X0149344Y0126247D01*
X0147770Y0126247D01*
X0153017Y0125197D02*
X0150918Y0125197D01*
X0153017Y0127296D01*
X0153017Y0127821D01*
X0152493Y0128345D01*
X0151443Y0128345D01*
X0150918Y0127821D01*
X0147770Y0188583D02*
X0147770Y0191732D01*
X0149344Y0191732D01*
X0149869Y0191206D01*
X0149869Y0190157D01*
X0149344Y0189633D01*
X0147770Y0189633D01*
X0150918Y0191206D02*
X0151443Y0191732D01*
X0152493Y0191732D01*
X0153017Y0191206D01*
X0153017Y0190682D01*
X0152493Y0190157D01*
X0151968Y0190157D01*
X0152493Y0190157D01*
X0153017Y0189633D01*
X0153017Y0189108D01*
X0152493Y0188583D01*
X0151443Y0188583D01*
X0150918Y0189108D01*
X0099181Y0100261D02*
X0099181Y0103409D01*
X0100756Y0103409D01*
X0101279Y0102884D01*
X0101279Y0101835D01*
X0100756Y0101309D01*
X0099181Y0101309D01*
X0102330Y0100261D02*
X0103379Y0100261D01*
X0102855Y0100261D01*
X0102855Y0103409D01*
X0102330Y0102884D01*
X0104953Y0100261D02*
X0106003Y0100261D01*
X0105478Y0100261D01*
X0105478Y0103409D01*
X0104953Y0102884D01*
X0111222Y0090355D02*
X0111222Y0093503D01*
X0112796Y0093503D01*
X0113321Y0092979D01*
X0113321Y0091929D01*
X0112796Y0091404D01*
X0111222Y0091404D01*
X0114370Y0090355D02*
X0115419Y0090355D01*
X0114894Y0090355D01*
X0114894Y0093503D01*
X0114370Y0092979D01*
X0118568Y0090355D02*
X0118568Y0093503D01*
X0116994Y0091929D01*
X0119093Y0091929D01*
X0063827Y0100261D02*
X0063827Y0103409D01*
X0065402Y0103409D01*
X0065927Y0102884D01*
X0065927Y0101835D01*
X0065402Y0101309D01*
X0063827Y0101309D01*
X0066977Y0100261D02*
X0068026Y0100261D01*
X0067502Y0100261D01*
X0067502Y0103409D01*
X0066977Y0102884D01*
X0069601Y0102884D02*
X0070125Y0103409D01*
X0071175Y0103409D01*
X0071699Y0102884D01*
X0071699Y0100784D01*
X0071175Y0100261D01*
X0070125Y0100261D01*
X0069601Y0100784D01*
X0069601Y0102884D01*
X0122222Y0090355D02*
X0122222Y0093503D01*
X0123796Y0093503D01*
X0124320Y0092979D01*
X0124320Y0091929D01*
X0123796Y0091404D01*
X0122222Y0091404D01*
X0125371Y0090355D02*
X0126418Y0090355D01*
X0125895Y0090355D01*
X0125895Y0093503D01*
X0125371Y0092979D01*
X0130094Y0090355D02*
X0127993Y0090355D01*
X0130094Y0092454D01*
X0130094Y0092979D01*
X0129569Y0093503D01*
X0128519Y0093503D01*
X0127993Y0092979D01*
X0074935Y0131888D02*
X0074935Y0128741D01*
X0077034Y0128741D01*
X0080183Y0128741D02*
X0078084Y0128741D01*
X0080183Y0130840D01*
X0080183Y0131364D01*
X0079658Y0131888D01*
X0078609Y0131888D01*
X0078084Y0131364D01*
X0047507Y0122834D02*
X0047507Y0119685D01*
X0049606Y0119685D01*
X0050656Y0119685D02*
X0051705Y0119685D01*
X0051181Y0119685D01*
X0051181Y0122834D01*
X0050656Y0122309D01*
X0092389Y0125065D02*
X0091864Y0125590D01*
X0090814Y0125590D01*
X0090290Y0125065D01*
X0090290Y0122966D01*
X0090814Y0122441D01*
X0091864Y0122441D01*
X0092389Y0122966D01*
X0095537Y0125590D02*
X0093437Y0125590D01*
X0093437Y0124016D01*
X0094488Y0124540D01*
X0095012Y0124540D01*
X0095537Y0124016D01*
X0095537Y0122966D01*
X0095012Y0122441D01*
X0093963Y0122441D01*
X0093437Y0122966D01*
X0049869Y0165223D02*
X0049344Y0165747D01*
X0048295Y0165747D01*
X0047770Y0165223D01*
X0047770Y0163124D01*
X0048295Y0162599D01*
X0049344Y0162599D01*
X0049869Y0163124D01*
X0052493Y0162599D02*
X0052493Y0165747D01*
X0050919Y0164173D01*
X0053017Y0164173D01*
X0107743Y0165223D02*
X0107217Y0165747D01*
X0106169Y0165747D01*
X0105644Y0165223D01*
X0105644Y0163124D01*
X0106169Y0162599D01*
X0107217Y0162599D01*
X0107743Y0163124D01*
X0108792Y0165223D02*
X0109317Y0165747D01*
X0110367Y0165747D01*
X0110891Y0165223D01*
X0110891Y0164698D01*
X0110367Y0164173D01*
X0109842Y0164173D01*
X0110367Y0164173D01*
X0110891Y0163647D01*
X0110891Y0163124D01*
X0110367Y0162599D01*
X0109317Y0162599D01*
X0108792Y0163124D01*
X0107743Y0128214D02*
X0107217Y0128739D01*
X0106169Y0128739D01*
X0105644Y0128214D01*
X0105644Y0126116D01*
X0106169Y0125591D01*
X0107217Y0125591D01*
X0107743Y0126116D01*
X0110891Y0125591D02*
X0108792Y0125591D01*
X0110891Y0127689D01*
X0110891Y0128214D01*
X0110367Y0128739D01*
X0109317Y0128739D01*
X0108792Y0128214D01*
X0064567Y0125065D02*
X0064042Y0125590D01*
X0062992Y0125590D01*
X0062468Y0125065D01*
X0062468Y0122966D01*
X0062992Y0122441D01*
X0064042Y0122441D01*
X0064567Y0122966D01*
X0065617Y0122441D02*
X0066666Y0122441D01*
X0066141Y0122441D01*
X0066141Y0125590D01*
X0065617Y0125065D01*
D30*
X0053556Y0148610D02*
X0053556Y0158477D01*
X0046444Y0148610D02*
X0046444Y0158477D01*
X0001102Y0116811D02*
X0011102Y0116811D01*
X0011102Y0096811D02*
X0011102Y0116811D01*
X0001102Y0096811D02*
X0011102Y0096811D01*
X0001102Y0096811D02*
X0001102Y0116811D01*
X0001339Y0182559D02*
X0031339Y0182559D01*
X0001339Y0172559D02*
X0001339Y0182559D01*
X0001339Y0172559D02*
X0031339Y0172559D01*
X0031339Y0182559D01*
X0049724Y0068858D02*
X0049724Y0098858D01*
X0049724Y0068858D02*
X0059724Y0068858D01*
X0059724Y0098858D01*
X0049724Y0098858D02*
X0059724Y0098858D01*
X0038701Y0068858D02*
X0038701Y0098858D01*
X0038701Y0068858D02*
X0048701Y0068858D01*
X0048701Y0098858D01*
X0038701Y0098858D02*
X0048701Y0098858D01*
X0027677Y0068858D02*
X0027677Y0098858D01*
X0027677Y0068858D02*
X0037677Y0068858D01*
X0037677Y0098858D01*
X0027677Y0098858D02*
X0037677Y0098858D01*
X0121181Y0068858D02*
X0131181Y0068858D01*
X0121181Y0068858D02*
X0121181Y0088858D01*
X0131181Y0088858D01*
X0131181Y0068858D02*
X0131181Y0088858D01*
X0073543Y0068858D02*
X0073543Y0098858D01*
X0073543Y0068858D02*
X0083543Y0068858D01*
X0083543Y0098858D01*
X0073543Y0098858D02*
X0083543Y0098858D01*
X0110158Y0068858D02*
X0120158Y0068858D01*
X0110158Y0068858D02*
X0110158Y0088858D01*
X0120158Y0088858D01*
X0120158Y0068858D02*
X0120158Y0088858D01*
X0062520Y0068858D02*
X0062520Y0098858D01*
X0062520Y0068858D02*
X0072520Y0068858D01*
X0072520Y0098858D01*
X0062520Y0098858D02*
X0072520Y0098858D01*
X0086339Y0068858D02*
X0086339Y0098858D01*
X0086339Y0068858D02*
X0096339Y0068858D01*
X0096339Y0098858D01*
X0086339Y0098858D02*
X0096339Y0098858D01*
X0097362Y0068858D02*
X0097362Y0098858D01*
X0097362Y0068858D02*
X0107362Y0068858D01*
X0107362Y0098858D01*
X0097362Y0098858D02*
X0107362Y0098858D01*
X0117126Y0114567D02*
X0117126Y0116141D01*
X0119882Y0114567D02*
X0119882Y0116141D01*
X0126770Y0114567D02*
X0126770Y0116141D01*
X0124016Y0114567D02*
X0124016Y0116141D01*
X0058661Y0154133D02*
X0060236Y0154133D01*
X0058661Y0156890D02*
X0060236Y0156890D01*
X0104701Y0132259D02*
X0104701Y0143331D01*
X0111835Y0132259D02*
X0111835Y0143331D01*
X0104701Y0148007D02*
X0104701Y0159079D01*
X0111835Y0148007D02*
X0111835Y0159079D01*
X0067716Y0119476D02*
X0067716Y0127767D01*
X0074803Y0119476D02*
X0074803Y0127767D01*
X0073721Y0119570D02*
X0073721Y0127674D01*
X0080610Y0119570D02*
X0080610Y0127674D01*
X0081866Y0118086D02*
X0081866Y0129158D01*
X0089000Y0118086D02*
X0089000Y0129158D01*
X0145394Y0130668D02*
X0155394Y0130668D01*
X0145394Y0130668D02*
X0145394Y0160669D01*
X0155394Y0160669D01*
X0155394Y0130668D02*
X0155394Y0160669D01*
X0155394Y0103897D02*
X0155394Y0123896D01*
X0145394Y0123896D02*
X0155394Y0123896D01*
X0145394Y0103897D02*
X0145394Y0123896D01*
X0145394Y0103897D02*
X0155394Y0103897D01*
X0155394Y0167283D02*
X0155394Y0187283D01*
X0145394Y0187283D02*
X0155394Y0187283D01*
X0145394Y0167283D02*
X0145394Y0187283D01*
X0145394Y0167283D02*
X0155394Y0167283D01*
X0000787Y0125984D02*
X0029724Y0125984D01*
X0032479Y0125984D02*
X0036220Y0125984D01*
X0036220Y0165354D01*
X0000787Y0125984D02*
X0000787Y0165354D01*
X0009252Y0165354D01*
X0012009Y0165354D02*
X0036220Y0165354D01*
X0008268Y0167717D02*
X0012992Y0167717D01*
X0008268Y0167717D02*
X0009251Y0165354D01*
X0012009Y0165354D02*
X0012992Y0167717D01*
X0032479Y0125984D02*
X0033464Y0123622D01*
X0028738Y0123622D02*
X0033464Y0123622D01*
X0028738Y0123622D02*
X0029723Y0125984D01*
X0082677Y0194685D02*
X0082677Y0223622D01*
X0082677Y0188189D02*
X0082677Y0191929D01*
X0082677Y0188189D02*
X0122047Y0188189D01*
X0082677Y0223622D02*
X0122047Y0223622D01*
X0122047Y0215157D02*
X0122047Y0223622D01*
X0122047Y0188189D02*
X0122047Y0212401D01*
X0124410Y0211417D02*
X0124410Y0216142D01*
X0122047Y0215158D02*
X0124410Y0216142D01*
X0122047Y0212401D02*
X0124410Y0211417D01*
X0080313Y0190946D02*
X0082677Y0191929D01*
X0080313Y0190946D02*
X0080313Y0195670D01*
X0082677Y0194687D01*
X0035432Y0194685D02*
X0035432Y0223622D01*
X0035432Y0188189D02*
X0035432Y0191929D01*
X0035432Y0188189D02*
X0074802Y0188189D01*
X0035432Y0223622D02*
X0074802Y0223622D01*
X0074802Y0215157D02*
X0074802Y0223622D01*
X0074802Y0188189D02*
X0074802Y0212401D01*
X0077165Y0211417D02*
X0077165Y0216142D01*
X0074802Y0215158D02*
X0077165Y0216142D01*
X0074802Y0212401D02*
X0077165Y0211417D01*
X0033070Y0190945D02*
X0035432Y0191929D01*
X0033070Y0190945D02*
X0033070Y0195670D01*
X0035432Y0194687D01*
X0046504Y0131594D02*
X0046504Y0134547D01*
X0062156Y0131594D02*
X0062156Y0134547D01*
D31*
X0088583Y0135827D02*
X0088583Y0137894D01*
X0086516Y0135827D02*
X0088583Y0135827D01*
X0088583Y0153445D02*
X0088583Y0155512D01*
X0086516Y0155512D02*
X0088583Y0155512D01*
X0068898Y0155512D02*
X0070965Y0155512D01*
X0068898Y0153445D02*
X0068898Y0155512D01*
X0068898Y0135827D02*
X0068898Y0137894D01*
X0068898Y0135827D02*
X0070965Y0135827D01*
G04 next file*
G04*
G04 #@! TF.GenerationSoftware,Altium Limited,Altium Designer,21.7.2 (23)*
G04*
G04 Layer_Color=65535*
G04 skipping 70
G04*
G04 #@! TF.SameCoordinates,3D67BF19-0A55-4891-8FEB-F4BE30BF2CF6*
G04*
G04*
G04 #@! TF.FilePolarity,Positive*
G04*
G01*
G75*
D32*
X0239271Y0133268D02*
X0238533Y0133694D01*
X0238533Y0132841D01*
X0239271Y0133268D01*
X0224114Y0122144D02*
X0223376Y0122571D01*
X0223376Y0121719D01*
X0224114Y0122144D01*
D33*
X0255512Y0105118D02*
X0276771Y0105118D01*
X0255512Y0118110D02*
X0276771Y0118110D01*
X0276771Y0105118D02*
X0276771Y0118110D01*
X0255512Y0105118D02*
X0255512Y0118110D01*
X0255512Y0099212D02*
X0276771Y0099212D01*
X0255512Y0111417D02*
X0276771Y0111417D01*
X0276771Y0099212D02*
X0276771Y0111417D01*
X0255512Y0099212D02*
X0255512Y0111417D01*
X0231693Y0105118D02*
X0252952Y0105118D01*
X0231693Y0118110D02*
X0252952Y0118110D01*
X0252952Y0105118D02*
X0252952Y0118110D01*
X0231693Y0105118D02*
X0231693Y0118110D01*
X0231693Y0099212D02*
X0252952Y0099212D01*
X0231693Y0111417D02*
X0252952Y0111417D01*
X0252952Y0099212D02*
X0252952Y0111417D01*
X0231693Y0099212D02*
X0231693Y0111417D01*
X0196850Y0099212D02*
X0229133Y0099212D01*
X0196850Y0111417D02*
X0229133Y0111417D01*
X0229133Y0099212D02*
X0229133Y0111417D01*
X0196850Y0099212D02*
X0196850Y0111417D01*
X0279330Y0094882D02*
X0300590Y0094882D01*
X0279330Y0107874D02*
X0300590Y0107874D01*
X0300590Y0094882D02*
X0300590Y0107874D01*
X0279330Y0094882D02*
X0279330Y0107874D01*
X0279330Y0088976D02*
X0300590Y0088976D01*
X0279330Y0101181D02*
X0300590Y0101181D01*
X0300590Y0088976D02*
X0300590Y0101181D01*
X0279330Y0088976D02*
X0279330Y0101181D01*
X0196850Y0105118D02*
X0229133Y0105118D01*
X0196850Y0118110D02*
X0229133Y0118110D01*
X0229133Y0105118D02*
X0229133Y0118110D01*
X0196850Y0105118D02*
X0196850Y0118110D01*
X0175343Y0187482D02*
X0174818Y0188007D01*
X0173769Y0188007D01*
X0173244Y0187482D01*
X0173244Y0186957D01*
X0173769Y0186432D01*
X0174818Y0186432D01*
X0175343Y0185908D01*
X0175343Y0185383D01*
X0174818Y0184858D01*
X0173769Y0184858D01*
X0173244Y0185383D01*
X0176392Y0188007D02*
X0178491Y0188007D01*
X0177442Y0188007D01*
X0177442Y0184858D01*
X0181115Y0188007D02*
X0180066Y0188007D01*
X0179541Y0187482D01*
X0179541Y0185383D01*
X0180066Y0184858D01*
X0181115Y0184858D01*
X0181640Y0185383D01*
X0181640Y0187482D01*
X0181115Y0188007D01*
X0182689Y0184858D02*
X0182689Y0188007D01*
X0184789Y0184858D01*
X0184789Y0188007D01*
X0185838Y0188007D02*
X0185838Y0184858D01*
X0187412Y0184858D01*
X0187937Y0185383D01*
X0187937Y0185908D01*
X0187412Y0186432D01*
X0185838Y0186432D01*
X0187412Y0186432D01*
X0187937Y0186957D01*
X0187937Y0187482D01*
X0187412Y0188007D01*
X0185838Y0188007D01*
X0188987Y0184858D02*
X0188987Y0186957D01*
X0190036Y0188007D01*
X0191086Y0186957D01*
X0191086Y0184858D01*
X0191086Y0186432D01*
X0188987Y0186432D01*
X0192135Y0188007D02*
X0194234Y0188007D01*
X0193185Y0188007D01*
X0193185Y0184858D01*
X0195284Y0188007D02*
X0197383Y0188007D01*
X0196333Y0188007D01*
X0196333Y0184858D01*
X0183807Y0103033D02*
X0183283Y0103558D01*
X0182232Y0103558D01*
X0181708Y0103033D01*
X0181708Y0100933D01*
X0182232Y0100408D01*
X0183283Y0100408D01*
X0183807Y0100933D01*
X0186956Y0103033D02*
X0186431Y0103558D01*
X0185382Y0103558D01*
X0184857Y0103033D01*
X0184857Y0102508D01*
X0185382Y0101984D01*
X0186431Y0101984D01*
X0186956Y0101459D01*
X0186956Y0100933D01*
X0186431Y0100408D01*
X0185382Y0100408D01*
X0184857Y0100933D01*
X0188005Y0103558D02*
X0189055Y0103558D01*
X0188529Y0103558D01*
X0188529Y0100408D01*
X0188005Y0100408D01*
X0189055Y0100408D01*
X0190629Y0100408D02*
X0190629Y0103558D01*
X0192728Y0100408D01*
X0192728Y0103558D01*
X0183807Y0113269D02*
X0183283Y0113794D01*
X0182232Y0113794D01*
X0181708Y0113269D01*
X0181708Y0111169D01*
X0182232Y0110645D01*
X0183283Y0110645D01*
X0183807Y0111169D01*
X0186956Y0113269D02*
X0186431Y0113794D01*
X0185382Y0113794D01*
X0184857Y0113269D01*
X0184857Y0112745D01*
X0185382Y0112220D01*
X0186431Y0112220D01*
X0186956Y0111695D01*
X0186956Y0111169D01*
X0186431Y0110645D01*
X0185382Y0110645D01*
X0184857Y0111169D01*
X0189580Y0113794D02*
X0188529Y0113794D01*
X0188005Y0113269D01*
X0188005Y0111169D01*
X0188529Y0110645D01*
X0189580Y0110645D01*
X0190105Y0111169D01*
X0190105Y0113269D01*
X0189580Y0113794D01*
X0191154Y0113794D02*
X0191154Y0111169D01*
X0191679Y0110645D01*
X0192728Y0110645D01*
X0193253Y0111169D01*
X0193253Y0113794D01*
X0194303Y0113794D02*
X0196402Y0113794D01*
X0195352Y0113794D01*
X0195352Y0110645D01*
X0269307Y0109660D02*
X0269307Y0106512D01*
X0271406Y0106512D01*
X0272454Y0109660D02*
X0272454Y0107561D01*
X0273505Y0106512D01*
X0274554Y0107561D01*
X0274554Y0109660D01*
X0258086Y0109660D02*
X0258086Y0106512D01*
X0258086Y0108086D01*
X0260185Y0108086D01*
X0260185Y0109660D01*
X0260185Y0106512D01*
X0261235Y0109660D02*
X0261235Y0107561D01*
X0262284Y0106512D01*
X0263334Y0107561D01*
X0263334Y0109660D01*
X0265697Y0116353D02*
X0263598Y0116353D01*
X0263598Y0113205D01*
X0265697Y0113205D01*
X0263598Y0114779D02*
X0264648Y0114779D01*
X0266746Y0113205D02*
X0266746Y0116353D01*
X0268846Y0113205D01*
X0268846Y0116353D01*
X0235578Y0115828D02*
X0235054Y0116353D01*
X0234005Y0116353D01*
X0233480Y0115828D01*
X0233480Y0115304D01*
X0234005Y0114779D01*
X0235054Y0114779D01*
X0235578Y0114253D01*
X0235578Y0113728D01*
X0235054Y0113205D01*
X0234005Y0113205D01*
X0233480Y0113728D01*
X0238728Y0116353D02*
X0236628Y0116353D01*
X0236628Y0113205D01*
X0238728Y0113205D01*
X0236628Y0114779D02*
X0237678Y0114779D01*
X0239777Y0116353D02*
X0239777Y0113205D01*
X0241875Y0113205D01*
X0242926Y0113205D02*
X0242926Y0116353D01*
X0243975Y0115304D01*
X0245025Y0116353D01*
X0245025Y0113205D01*
X0246074Y0113205D02*
X0246074Y0116353D01*
X0247649Y0116353D01*
X0248173Y0115828D01*
X0248173Y0114779D01*
X0247649Y0114253D01*
X0246074Y0114253D01*
X0249223Y0113205D02*
X0249223Y0116353D01*
X0250796Y0116353D01*
X0251322Y0115828D01*
X0251322Y0114779D01*
X0250796Y0114253D01*
X0249223Y0114253D01*
X0247260Y0109135D02*
X0247784Y0109660D01*
X0248834Y0109660D01*
X0249359Y0109135D01*
X0249359Y0107037D01*
X0248834Y0106512D01*
X0247784Y0106512D01*
X0247260Y0107037D01*
X0247260Y0109135D01*
X0235842Y0106512D02*
X0236892Y0106512D01*
X0236367Y0106512D01*
X0236367Y0109660D01*
X0235842Y0109135D01*
X0212417Y0106512D02*
X0213465Y0106512D01*
X0212942Y0106512D01*
X0212942Y0109660D01*
X0212417Y0109135D01*
X0203099Y0106512D02*
X0200999Y0106512D01*
X0203099Y0108610D01*
X0203099Y0109135D01*
X0202574Y0109660D01*
X0201524Y0109660D01*
X0200999Y0109135D01*
X0211366Y0115828D02*
X0210842Y0116353D01*
X0209791Y0116353D01*
X0209267Y0115828D01*
X0209267Y0113728D01*
X0209791Y0113205D01*
X0210842Y0113205D01*
X0211366Y0113728D01*
X0214515Y0116353D02*
X0212415Y0116353D01*
X0212415Y0114779D01*
X0213465Y0114779D01*
X0212415Y0114779D01*
X0212415Y0113205D01*
X0217664Y0115828D02*
X0217139Y0116353D01*
X0216089Y0116353D01*
X0215565Y0115828D01*
X0215565Y0113728D01*
X0216089Y0113205D01*
X0217139Y0113205D01*
X0217664Y0113728D01*
X0217664Y0114779D01*
X0216614Y0114779D01*
X0223047Y0109135D02*
X0223572Y0109660D01*
X0224621Y0109660D01*
X0225145Y0109135D01*
X0225145Y0107037D01*
X0224621Y0106512D01*
X0223572Y0106512D01*
X0223047Y0107037D01*
X0223047Y0109135D01*
X0283414Y0105919D02*
X0281315Y0105919D01*
X0281315Y0104346D01*
X0282364Y0104346D01*
X0281315Y0104346D01*
X0281315Y0102770D01*
X0284463Y0105919D02*
X0284463Y0102770D01*
X0286037Y0102770D01*
X0286562Y0103296D01*
X0286562Y0103821D01*
X0286037Y0104346D01*
X0284463Y0104346D01*
X0286037Y0104346D01*
X0286562Y0104871D01*
X0286562Y0105395D01*
X0286037Y0105919D01*
X0284463Y0105919D01*
X0287612Y0102770D02*
X0287612Y0105919D01*
X0289186Y0105919D01*
X0289710Y0105395D01*
X0289710Y0104346D01*
X0289186Y0103821D01*
X0287612Y0103821D01*
X0290760Y0102770D02*
X0290760Y0105919D01*
X0292335Y0105919D01*
X0292859Y0105395D01*
X0292859Y0104346D01*
X0292335Y0103821D01*
X0290760Y0103821D01*
X0291810Y0103821D02*
X0292859Y0102770D01*
X0293909Y0105919D02*
X0294959Y0105919D01*
X0294433Y0105919D01*
X0294433Y0102770D01*
X0293909Y0102770D01*
X0294959Y0102770D01*
X0296533Y0102770D02*
X0296533Y0105919D01*
X0297581Y0104871D01*
X0298632Y0105919D01*
X0298632Y0102770D01*
X0293913Y0099424D02*
X0293913Y0096800D01*
X0294438Y0096275D01*
X0295487Y0096275D01*
X0296012Y0096800D01*
X0296012Y0099424D01*
X0283086Y0099424D02*
X0283086Y0096275D01*
X0284661Y0096275D01*
X0285185Y0096800D01*
X0285185Y0098898D01*
X0284661Y0099424D01*
X0283086Y0099424D01*
X0256117Y0186038D02*
X0256117Y0182890D01*
X0257692Y0182890D01*
X0258217Y0183414D01*
X0258217Y0183939D01*
X0257692Y0184464D01*
X0256117Y0184464D01*
X0257692Y0184464D01*
X0258217Y0184989D01*
X0258217Y0185514D01*
X0257692Y0186038D01*
X0256117Y0186038D01*
X0259266Y0182890D02*
X0259266Y0184989D01*
X0260316Y0186038D01*
X0261364Y0184989D01*
X0261364Y0182890D01*
X0261364Y0184464D01*
X0259266Y0184464D01*
X0262415Y0186038D02*
X0264514Y0186038D01*
X0263465Y0186038D01*
X0263465Y0182890D01*
X0265563Y0186038D02*
X0267663Y0186038D01*
X0266613Y0186038D01*
X0266613Y0182890D01*
X0208480Y0182890D02*
X0208480Y0186038D01*
X0210054Y0186038D01*
X0210578Y0185514D01*
X0210578Y0184464D01*
X0210054Y0183939D01*
X0208480Y0183939D01*
X0211628Y0182890D02*
X0211628Y0186038D01*
X0213203Y0186038D01*
X0213728Y0185514D01*
X0213728Y0184464D01*
X0213203Y0183939D01*
X0211628Y0183939D01*
X0212678Y0183939D02*
X0213728Y0182890D01*
X0214777Y0186038D02*
X0215827Y0186038D01*
X0215302Y0186038D01*
X0215302Y0182890D01*
X0214777Y0182890D01*
X0215827Y0182890D01*
X0217401Y0182890D02*
X0217401Y0186038D01*
X0218451Y0184989D01*
X0219499Y0186038D01*
X0219499Y0182890D01*
X0279475Y0185514D02*
X0278950Y0186038D01*
X0277900Y0186038D01*
X0277376Y0185514D01*
X0277376Y0183414D01*
X0277900Y0182890D01*
X0278950Y0182890D01*
X0279475Y0183414D01*
X0279475Y0184464D01*
X0278425Y0184464D01*
X0280524Y0182890D02*
X0280524Y0186038D01*
X0282623Y0182890D01*
X0282623Y0186038D01*
X0283673Y0186038D02*
X0283673Y0182890D01*
X0285247Y0182890D01*
X0285772Y0183414D01*
X0285772Y0185514D01*
X0285247Y0186038D01*
X0283673Y0186038D01*
X0233412Y0185514D02*
X0232887Y0186038D01*
X0231836Y0186038D01*
X0231313Y0185514D01*
X0231313Y0183414D01*
X0231836Y0182890D01*
X0232887Y0182890D01*
X0233412Y0183414D01*
X0233412Y0184464D01*
X0232362Y0184464D01*
X0234461Y0182890D02*
X0234461Y0186038D01*
X0236560Y0182890D01*
X0236560Y0186038D01*
X0237610Y0186038D02*
X0237610Y0182890D01*
X0239184Y0182890D01*
X0239709Y0183414D01*
X0239709Y0185514D01*
X0239184Y0186038D01*
X0237610Y0186038D01*
X0206903Y0156904D02*
X0207953Y0156904D01*
X0207428Y0156904D01*
X0207428Y0153756D01*
X0206903Y0153756D01*
X0207953Y0153756D01*
X0209527Y0153756D02*
X0209527Y0156904D01*
X0211626Y0153756D01*
X0211626Y0156904D01*
X0209004Y0137482D02*
X0208480Y0138007D01*
X0207430Y0138007D01*
X0206904Y0137482D01*
X0206904Y0135383D01*
X0207430Y0134857D01*
X0208480Y0134857D01*
X0209004Y0135383D01*
X0209004Y0136432D01*
X0207954Y0136432D01*
X0210054Y0134857D02*
X0210054Y0138007D01*
X0212153Y0134857D01*
X0212153Y0138007D01*
X0213201Y0138007D02*
X0213201Y0134857D01*
X0214777Y0134857D01*
X0215301Y0135383D01*
X0215301Y0137482D01*
X0214777Y0138007D01*
X0213201Y0138007D01*
X0294046Y0136695D02*
X0293521Y0137219D01*
X0292471Y0137219D01*
X0291947Y0136695D01*
X0291947Y0136170D01*
X0292471Y0135645D01*
X0293521Y0135645D01*
X0294046Y0135120D01*
X0294046Y0134596D01*
X0293521Y0134071D01*
X0292471Y0134071D01*
X0291947Y0134596D01*
X0295095Y0137219D02*
X0297194Y0137219D01*
X0296144Y0137219D01*
X0296144Y0134071D01*
X0298244Y0134071D02*
X0298244Y0136170D01*
X0299293Y0137219D01*
X0300343Y0136170D01*
X0300343Y0134071D01*
X0300343Y0135645D01*
X0298244Y0135645D01*
X0301392Y0137219D02*
X0303491Y0137219D01*
X0302442Y0137219D01*
X0302442Y0134071D01*
X0304541Y0137219D02*
X0304541Y0134596D01*
X0305065Y0134071D01*
X0306115Y0134071D01*
X0306640Y0134596D01*
X0306640Y0137219D01*
X0309789Y0136695D02*
X0309264Y0137219D01*
X0308214Y0137219D01*
X0307690Y0136695D01*
X0307690Y0136170D01*
X0308214Y0135645D01*
X0309264Y0135645D01*
X0309789Y0135120D01*
X0309789Y0134596D01*
X0309264Y0134071D01*
X0308214Y0134071D01*
X0307690Y0134596D01*
X0310838Y0136695D02*
X0311363Y0137219D01*
X0312412Y0137219D01*
X0312937Y0136695D01*
X0312937Y0134596D01*
X0312412Y0134071D01*
X0311363Y0134071D01*
X0310838Y0134596D01*
X0310838Y0136695D01*
X0295095Y0146931D02*
X0294570Y0147456D01*
X0293521Y0147456D01*
X0292996Y0146931D01*
X0292996Y0146406D01*
X0293521Y0145881D01*
X0294570Y0145881D01*
X0295095Y0145356D01*
X0295095Y0144832D01*
X0294570Y0144307D01*
X0293521Y0144307D01*
X0292996Y0144832D01*
X0296144Y0147456D02*
X0298244Y0147456D01*
X0297194Y0147456D01*
X0297194Y0144307D01*
X0299293Y0144307D02*
X0299293Y0146406D01*
X0300343Y0147456D01*
X0301392Y0146406D01*
X0301392Y0144307D01*
X0301392Y0145881D01*
X0299293Y0145881D01*
X0302442Y0147456D02*
X0304541Y0147456D01*
X0303491Y0147456D01*
X0303491Y0144307D01*
X0305590Y0147456D02*
X0305590Y0144832D01*
X0306115Y0144307D01*
X0307165Y0144307D01*
X0307690Y0144832D01*
X0307690Y0147456D01*
X0310838Y0146931D02*
X0310313Y0147456D01*
X0309264Y0147456D01*
X0308738Y0146931D01*
X0308738Y0146406D01*
X0309264Y0145881D01*
X0310313Y0145881D01*
X0310838Y0145356D01*
X0310838Y0144832D01*
X0310313Y0144307D01*
X0309264Y0144307D01*
X0308738Y0144832D01*
X0311888Y0144307D02*
X0312937Y0144307D01*
X0312412Y0144307D01*
X0312412Y0147456D01*
X0311888Y0146931D01*
X0294046Y0157167D02*
X0293521Y0157692D01*
X0292471Y0157692D01*
X0291947Y0157167D01*
X0291947Y0156642D01*
X0292471Y0156117D01*
X0293521Y0156117D01*
X0294046Y0155593D01*
X0294046Y0155067D01*
X0293521Y0154543D01*
X0292471Y0154543D01*
X0291947Y0155067D01*
X0295095Y0157692D02*
X0297194Y0157692D01*
X0296144Y0157692D01*
X0296144Y0154543D01*
X0298244Y0154543D02*
X0298244Y0156642D01*
X0299293Y0157692D01*
X0300343Y0156642D01*
X0300343Y0154543D01*
X0300343Y0156117D01*
X0298244Y0156117D01*
X0301392Y0157692D02*
X0303491Y0157692D01*
X0302442Y0157692D01*
X0302442Y0154543D01*
X0304541Y0157692D02*
X0304541Y0155067D01*
X0305065Y0154543D01*
X0306115Y0154543D01*
X0306640Y0155067D01*
X0306640Y0157692D01*
X0309789Y0157167D02*
X0309264Y0157692D01*
X0308214Y0157692D01*
X0307690Y0157167D01*
X0307690Y0156642D01*
X0308214Y0156117D01*
X0309264Y0156117D01*
X0309789Y0155593D01*
X0309789Y0155067D01*
X0309264Y0154543D01*
X0308214Y0154543D01*
X0307690Y0155067D01*
X0312937Y0154543D02*
X0310838Y0154543D01*
X0312937Y0156642D01*
X0312937Y0157167D01*
X0312412Y0157692D01*
X0311363Y0157692D01*
X0310838Y0157167D01*
X0298244Y0120290D02*
X0298244Y0117141D01*
X0300343Y0117141D01*
X0301392Y0120290D02*
X0301392Y0118191D01*
X0302442Y0117141D01*
X0303491Y0118191D01*
X0303491Y0120290D01*
X0306115Y0120290D02*
X0305065Y0120290D01*
X0304541Y0119765D01*
X0304541Y0117666D01*
X0305065Y0117141D01*
X0306115Y0117141D01*
X0306640Y0117666D01*
X0306640Y0119765D01*
X0306115Y0120290D01*
X0307690Y0120290D02*
X0307690Y0117666D01*
X0308214Y0117141D01*
X0309264Y0117141D01*
X0309789Y0117666D01*
X0309789Y0120290D01*
X0310838Y0120290D02*
X0312937Y0120290D01*
X0311888Y0120290D01*
X0311888Y0117141D01*
X0306640Y0109923D02*
X0306115Y0110447D01*
X0305065Y0110447D01*
X0304541Y0109923D01*
X0304541Y0107824D01*
X0305065Y0107299D01*
X0306115Y0107299D01*
X0306640Y0107824D01*
X0306640Y0108873D01*
X0305590Y0108873D01*
X0307690Y0107299D02*
X0307690Y0110447D01*
X0309789Y0107299D01*
X0309789Y0110447D01*
X0310838Y0110447D02*
X0310838Y0107299D01*
X0312412Y0107299D01*
X0312937Y0107824D01*
X0312937Y0109923D01*
X0312412Y0110447D01*
X0310838Y0110447D01*
X0306640Y0172915D02*
X0306115Y0173440D01*
X0305065Y0173440D01*
X0304541Y0172915D01*
X0304541Y0170816D01*
X0305065Y0170291D01*
X0306115Y0170291D01*
X0306640Y0170816D01*
X0306640Y0171866D01*
X0305590Y0171866D01*
X0307690Y0170291D02*
X0307690Y0173440D01*
X0309789Y0170291D01*
X0309789Y0173440D01*
X0310838Y0173440D02*
X0310838Y0170291D01*
X0312412Y0170291D01*
X0312937Y0170816D01*
X0312937Y0172915D01*
X0312412Y0173440D01*
X0310838Y0173440D01*
X0298244Y0183282D02*
X0298244Y0180134D01*
X0298244Y0181708D01*
X0300343Y0181708D01*
X0300343Y0183282D01*
X0300343Y0180134D01*
X0301392Y0183282D02*
X0301392Y0181183D01*
X0302442Y0180134D01*
X0303491Y0181183D01*
X0303491Y0183282D01*
X0306115Y0183282D02*
X0305065Y0183282D01*
X0304541Y0182758D01*
X0304541Y0180658D01*
X0305065Y0180134D01*
X0306115Y0180134D01*
X0306640Y0180658D01*
X0306640Y0182758D01*
X0306115Y0183282D01*
X0307690Y0183282D02*
X0307690Y0180658D01*
X0308214Y0180134D01*
X0309264Y0180134D01*
X0309789Y0180658D01*
X0309789Y0183282D01*
X0310838Y0183282D02*
X0312937Y0183282D01*
X0311888Y0183282D01*
X0311888Y0180134D01*
X0202297Y0175984D02*
X0202297Y0179133D01*
X0203871Y0179133D01*
X0204396Y0178608D01*
X0204396Y0177558D01*
X0203871Y0177034D01*
X0202297Y0177034D01*
X0207019Y0175984D02*
X0207019Y0179133D01*
X0205446Y0177558D01*
X0207545Y0177558D01*
X0173294Y0118111D02*
X0173294Y0121259D01*
X0174869Y0121259D01*
X0175393Y0120734D01*
X0175393Y0119685D01*
X0174869Y0119160D01*
X0173294Y0119160D01*
X0176443Y0118111D02*
X0177492Y0118111D01*
X0176967Y0118111D01*
X0176967Y0121259D01*
X0176443Y0120734D01*
X0172900Y0170866D02*
X0171851Y0170866D01*
X0172375Y0170866D01*
X0172375Y0168241D01*
X0171851Y0167717D01*
X0171326Y0167717D01*
X0170801Y0168241D01*
X0173949Y0170341D02*
X0174474Y0170866D01*
X0175524Y0170866D01*
X0176049Y0170341D01*
X0176049Y0169816D01*
X0175524Y0169291D01*
X0174999Y0169291D01*
X0175524Y0169291D01*
X0176049Y0168766D01*
X0176049Y0168241D01*
X0175524Y0167717D01*
X0174474Y0167717D01*
X0173949Y0168241D01*
X0198818Y0222047D02*
X0197769Y0222047D01*
X0198294Y0222047D01*
X0198294Y0219423D01*
X0197769Y0218898D01*
X0197244Y0218898D01*
X0196719Y0219423D01*
X0199868Y0218898D02*
X0200918Y0218898D01*
X0200393Y0218898D01*
X0200393Y0222047D01*
X0199868Y0221522D01*
X0296719Y0222047D02*
X0295670Y0222047D01*
X0296194Y0222047D01*
X0296194Y0219423D01*
X0295670Y0218898D01*
X0295144Y0218898D01*
X0294620Y0219423D01*
X0299867Y0218898D02*
X0297769Y0218898D01*
X0299867Y0220997D01*
X0299867Y0221522D01*
X0299343Y0222047D01*
X0298292Y0222047D01*
X0297769Y0221522D01*
X0233334Y0135039D02*
X0233334Y0132415D01*
X0233858Y0131890D01*
X0234907Y0131890D01*
X0235433Y0132415D01*
X0235433Y0135039D01*
X0236482Y0131890D02*
X0237532Y0131890D01*
X0237007Y0131890D01*
X0237007Y0135039D01*
X0236482Y0134514D01*
X0292150Y0121743D02*
X0292150Y0124892D01*
X0293725Y0124892D01*
X0294250Y0124367D01*
X0294250Y0123317D01*
X0293725Y0122793D01*
X0292150Y0122793D01*
X0293200Y0122793D02*
X0294250Y0121743D01*
X0295299Y0124367D02*
X0295824Y0124892D01*
X0296873Y0124892D01*
X0297399Y0124367D01*
X0297399Y0123842D01*
X0296873Y0123317D01*
X0296349Y0123317D01*
X0296873Y0123317D01*
X0297399Y0122793D01*
X0297399Y0122268D01*
X0296873Y0121743D01*
X0295824Y0121743D01*
X0295299Y0122268D01*
X0285278Y0121743D02*
X0285278Y0124892D01*
X0286853Y0124892D01*
X0287378Y0124367D01*
X0287378Y0123317D01*
X0286853Y0122793D01*
X0285278Y0122793D01*
X0286328Y0122793D02*
X0287378Y0121743D01*
X0290526Y0121743D02*
X0288427Y0121743D01*
X0290526Y0123842D01*
X0290526Y0124367D01*
X0290001Y0124892D01*
X0288952Y0124892D01*
X0288427Y0124367D01*
X0234514Y0157087D02*
X0234514Y0160235D01*
X0236089Y0160235D01*
X0236614Y0159710D01*
X0236614Y0158661D01*
X0236089Y0158136D01*
X0234514Y0158136D01*
X0235564Y0158136D02*
X0236614Y0157087D01*
X0237663Y0157087D02*
X0238713Y0157087D01*
X0238188Y0157087D01*
X0238188Y0160235D01*
X0237663Y0159710D01*
X0258158Y0100261D02*
X0258158Y0103409D01*
X0259734Y0103409D01*
X0260258Y0102884D01*
X0260258Y0101835D01*
X0259734Y0101309D01*
X0258158Y0101309D01*
X0261308Y0103409D02*
X0263407Y0103409D01*
X0263407Y0102884D01*
X0261308Y0100784D01*
X0261308Y0100261D01*
X0220080Y0100261D02*
X0220080Y0103409D01*
X0221654Y0103409D01*
X0222179Y0102884D01*
X0222179Y0101835D01*
X0221654Y0101309D01*
X0220080Y0101309D01*
X0223227Y0100261D02*
X0224278Y0100261D01*
X0223753Y0100261D01*
X0223753Y0103409D01*
X0223227Y0102884D01*
X0225852Y0102884D02*
X0226377Y0103409D01*
X0227426Y0103409D01*
X0227951Y0102884D01*
X0227951Y0102360D01*
X0227426Y0101835D01*
X0226901Y0101835D01*
X0227426Y0101835D01*
X0227951Y0101309D01*
X0227951Y0100784D01*
X0227426Y0100261D01*
X0226377Y0100261D01*
X0225852Y0100784D01*
X0245431Y0100261D02*
X0245431Y0103409D01*
X0247006Y0103409D01*
X0247529Y0102884D01*
X0247529Y0101835D01*
X0247006Y0101309D01*
X0245431Y0101309D01*
X0250679Y0103409D02*
X0249629Y0102884D01*
X0248579Y0101835D01*
X0248579Y0100784D01*
X0249104Y0100261D01*
X0250154Y0100261D01*
X0250679Y0100784D01*
X0250679Y0101309D01*
X0250154Y0101835D01*
X0248579Y0101835D01*
X0199509Y0100261D02*
X0199509Y0103409D01*
X0201083Y0103409D01*
X0201608Y0102884D01*
X0201608Y0101835D01*
X0201083Y0101309D01*
X0199509Y0101309D01*
X0204757Y0103409D02*
X0202658Y0103409D01*
X0202658Y0101835D01*
X0203707Y0102360D01*
X0204232Y0102360D01*
X0204757Y0101835D01*
X0204757Y0100784D01*
X0204232Y0100261D01*
X0203182Y0100261D01*
X0202658Y0100784D01*
X0317061Y0161811D02*
X0317061Y0164960D01*
X0318635Y0164960D01*
X0319160Y0164435D01*
X0319160Y0163386D01*
X0318635Y0162861D01*
X0317061Y0162861D01*
X0320209Y0164435D02*
X0320734Y0164960D01*
X0321784Y0164960D01*
X0322308Y0164435D01*
X0322308Y0163911D01*
X0321784Y0163386D01*
X0322308Y0162861D01*
X0322308Y0162336D01*
X0321784Y0161811D01*
X0320734Y0161811D01*
X0320209Y0162336D01*
X0320209Y0162861D01*
X0320734Y0163386D01*
X0320209Y0163911D01*
X0320209Y0164435D01*
X0320734Y0163386D02*
X0321784Y0163386D01*
X0210609Y0100261D02*
X0210609Y0103409D01*
X0212183Y0103409D01*
X0212708Y0102884D01*
X0212708Y0101835D01*
X0212183Y0101309D01*
X0210609Y0101309D01*
X0213757Y0100784D02*
X0214282Y0100261D01*
X0215332Y0100261D01*
X0215857Y0100784D01*
X0215857Y0102884D01*
X0215332Y0103409D01*
X0214282Y0103409D01*
X0213757Y0102884D01*
X0213757Y0102360D01*
X0214282Y0101835D01*
X0215857Y0101835D01*
X0317061Y0125197D02*
X0317061Y0128345D01*
X0318635Y0128345D01*
X0319160Y0127821D01*
X0319160Y0126770D01*
X0318635Y0126247D01*
X0317061Y0126247D01*
X0322308Y0125197D02*
X0320209Y0125197D01*
X0322308Y0127296D01*
X0322308Y0127821D01*
X0321784Y0128345D01*
X0320734Y0128345D01*
X0320209Y0127821D01*
X0317061Y0188583D02*
X0317061Y0191732D01*
X0318635Y0191732D01*
X0319160Y0191206D01*
X0319160Y0190157D01*
X0318635Y0189633D01*
X0317061Y0189633D01*
X0320209Y0191206D02*
X0320734Y0191732D01*
X0321784Y0191732D01*
X0322308Y0191206D01*
X0322308Y0190682D01*
X0321784Y0190157D01*
X0321259Y0190157D01*
X0321784Y0190157D01*
X0322308Y0189633D01*
X0322308Y0189108D01*
X0321784Y0188583D01*
X0320734Y0188583D01*
X0320209Y0189108D01*
X0268472Y0100261D02*
X0268472Y0103409D01*
X0270047Y0103409D01*
X0270571Y0102884D01*
X0270571Y0101835D01*
X0270047Y0101309D01*
X0268472Y0101309D01*
X0271621Y0100261D02*
X0272670Y0100261D01*
X0272146Y0100261D01*
X0272146Y0103409D01*
X0271621Y0102884D01*
X0274245Y0100261D02*
X0275294Y0100261D01*
X0274770Y0100261D01*
X0274770Y0103409D01*
X0274245Y0102884D01*
X0280513Y0090355D02*
X0280513Y0093503D01*
X0282087Y0093503D01*
X0282612Y0092979D01*
X0282612Y0091929D01*
X0282087Y0091404D01*
X0280513Y0091404D01*
X0283661Y0090355D02*
X0284711Y0090355D01*
X0284186Y0090355D01*
X0284186Y0093503D01*
X0283661Y0092979D01*
X0287860Y0090355D02*
X0287860Y0093503D01*
X0286285Y0091929D01*
X0288384Y0091929D01*
X0233119Y0100261D02*
X0233119Y0103409D01*
X0234694Y0103409D01*
X0235218Y0102884D01*
X0235218Y0101835D01*
X0234694Y0101309D01*
X0233119Y0101309D01*
X0236268Y0100261D02*
X0237317Y0100261D01*
X0236793Y0100261D01*
X0236793Y0103409D01*
X0236268Y0102884D01*
X0238892Y0102884D02*
X0239415Y0103409D01*
X0240465Y0103409D01*
X0240991Y0102884D01*
X0240991Y0100784D01*
X0240465Y0100261D01*
X0239415Y0100261D01*
X0238892Y0100784D01*
X0238892Y0102884D01*
X0291513Y0090355D02*
X0291513Y0093503D01*
X0293087Y0093503D01*
X0293612Y0092979D01*
X0293612Y0091929D01*
X0293087Y0091404D01*
X0291513Y0091404D01*
X0294662Y0090355D02*
X0295711Y0090355D01*
X0295186Y0090355D01*
X0295186Y0093503D01*
X0294662Y0092979D01*
X0299385Y0090355D02*
X0297285Y0090355D01*
X0299385Y0092454D01*
X0299385Y0092979D01*
X0298860Y0093503D01*
X0297810Y0093503D01*
X0297285Y0092979D01*
X0244226Y0131888D02*
X0244226Y0128741D01*
X0246325Y0128741D01*
X0249474Y0128741D02*
X0247375Y0128741D01*
X0249474Y0130840D01*
X0249474Y0131364D01*
X0248949Y0131888D01*
X0247900Y0131888D01*
X0247375Y0131364D01*
X0216798Y0122834D02*
X0216798Y0119685D01*
X0218897Y0119685D01*
X0219946Y0119685D02*
X0220996Y0119685D01*
X0220472Y0119685D01*
X0220472Y0122834D01*
X0219946Y0122309D01*
X0261680Y0125065D02*
X0261154Y0125590D01*
X0260105Y0125590D01*
X0259581Y0125065D01*
X0259581Y0122966D01*
X0260105Y0122441D01*
X0261154Y0122441D01*
X0261680Y0122966D01*
X0264828Y0125590D02*
X0262729Y0125590D01*
X0262729Y0124016D01*
X0263779Y0124540D01*
X0264303Y0124540D01*
X0264828Y0124016D01*
X0264828Y0122966D01*
X0264303Y0122441D01*
X0263254Y0122441D01*
X0262729Y0122966D01*
X0219160Y0165223D02*
X0218635Y0165747D01*
X0217586Y0165747D01*
X0217061Y0165223D01*
X0217061Y0163124D01*
X0217586Y0162599D01*
X0218635Y0162599D01*
X0219160Y0163124D01*
X0221783Y0162599D02*
X0221783Y0165747D01*
X0220210Y0164173D01*
X0222308Y0164173D01*
X0277034Y0165223D02*
X0276509Y0165747D01*
X0275460Y0165747D01*
X0274935Y0165223D01*
X0274935Y0163124D01*
X0275460Y0162599D01*
X0276509Y0162599D01*
X0277034Y0163124D01*
X0278082Y0165223D02*
X0278608Y0165747D01*
X0279658Y0165747D01*
X0280183Y0165223D01*
X0280183Y0164698D01*
X0279658Y0164173D01*
X0279133Y0164173D01*
X0279658Y0164173D01*
X0280183Y0163647D01*
X0280183Y0163124D01*
X0279658Y0162599D01*
X0278608Y0162599D01*
X0278082Y0163124D01*
X0277034Y0128214D02*
X0276509Y0128739D01*
X0275460Y0128739D01*
X0274935Y0128214D01*
X0274935Y0126116D01*
X0275460Y0125591D01*
X0276509Y0125591D01*
X0277034Y0126116D01*
X0280183Y0125591D02*
X0278082Y0125591D01*
X0280183Y0127689D01*
X0280183Y0128214D01*
X0279658Y0128739D01*
X0278608Y0128739D01*
X0278082Y0128214D01*
X0233858Y0125065D02*
X0233333Y0125590D01*
X0232283Y0125590D01*
X0231759Y0125065D01*
X0231759Y0122966D01*
X0232283Y0122441D01*
X0233333Y0122441D01*
X0233858Y0122966D01*
X0234907Y0122441D02*
X0235957Y0122441D01*
X0235432Y0122441D01*
X0235432Y0125590D01*
X0234907Y0125065D01*
D34*
X0222847Y0148610D02*
X0222847Y0158477D01*
X0215735Y0148610D02*
X0215735Y0158477D01*
X0170393Y0116811D02*
X0180392Y0116811D01*
X0180392Y0096811D02*
X0180392Y0116811D01*
X0170393Y0096811D02*
X0180392Y0096811D01*
X0170393Y0096811D02*
X0170393Y0116811D01*
X0170630Y0182559D02*
X0200630Y0182559D01*
X0170630Y0172559D02*
X0170630Y0182559D01*
X0170630Y0172559D02*
X0200630Y0172559D01*
X0200630Y0182559D01*
X0219015Y0068858D02*
X0219015Y0098858D01*
X0219015Y0068858D02*
X0229015Y0068858D01*
X0229015Y0098858D01*
X0219015Y0098858D02*
X0229015Y0098858D01*
X0207992Y0068858D02*
X0207992Y0098858D01*
X0207992Y0068858D02*
X0217992Y0068858D01*
X0217992Y0098858D01*
X0207992Y0098858D02*
X0217992Y0098858D01*
X0196968Y0068858D02*
X0196968Y0098858D01*
X0196968Y0068858D02*
X0206968Y0068858D01*
X0206968Y0098858D01*
X0196968Y0098858D02*
X0206968Y0098858D01*
X0290472Y0068858D02*
X0300472Y0068858D01*
X0290472Y0068858D02*
X0290472Y0088858D01*
X0300472Y0088858D01*
X0300472Y0068858D02*
X0300472Y0088858D01*
X0242834Y0068858D02*
X0242834Y0098858D01*
X0242834Y0068858D02*
X0252834Y0068858D01*
X0252834Y0098858D01*
X0242834Y0098858D02*
X0252834Y0098858D01*
X0279449Y0068858D02*
X0289449Y0068858D01*
X0279449Y0068858D02*
X0279449Y0088858D01*
X0289449Y0088858D01*
X0289449Y0068858D02*
X0289449Y0088858D01*
X0231811Y0068858D02*
X0231811Y0098858D01*
X0231811Y0068858D02*
X0241811Y0068858D01*
X0241811Y0098858D01*
X0231811Y0098858D02*
X0241811Y0098858D01*
X0255629Y0068858D02*
X0255629Y0098858D01*
X0255629Y0068858D02*
X0265630Y0068858D01*
X0265630Y0098858D01*
X0255629Y0098858D02*
X0265630Y0098858D01*
X0266653Y0068858D02*
X0266653Y0098858D01*
X0266653Y0068858D02*
X0276653Y0068858D01*
X0276653Y0098858D01*
X0266653Y0098858D02*
X0276653Y0098858D01*
X0286417Y0114567D02*
X0286417Y0116141D01*
X0289173Y0114567D02*
X0289173Y0116141D01*
X0296063Y0114567D02*
X0296063Y0116141D01*
X0293307Y0114567D02*
X0293307Y0116141D01*
X0227952Y0154133D02*
X0229527Y0154133D01*
X0227952Y0156890D02*
X0229527Y0156890D01*
X0273992Y0132259D02*
X0273992Y0143331D01*
X0281126Y0132259D02*
X0281126Y0143331D01*
X0273992Y0148007D02*
X0273992Y0159079D01*
X0281126Y0148007D02*
X0281126Y0159079D01*
X0237007Y0119476D02*
X0237007Y0127767D01*
X0244094Y0119476D02*
X0244094Y0127767D01*
X0243012Y0119570D02*
X0243012Y0127674D01*
X0249901Y0119570D02*
X0249901Y0127674D01*
X0251157Y0118086D02*
X0251157Y0129158D01*
X0258291Y0118086D02*
X0258291Y0129158D01*
X0314685Y0130668D02*
X0324685Y0130668D01*
X0314685Y0130668D02*
X0314685Y0160669D01*
X0324685Y0160669D01*
X0324685Y0130668D02*
X0324685Y0160669D01*
X0324685Y0103897D02*
X0324685Y0123896D01*
X0314685Y0123896D02*
X0324685Y0123896D01*
X0314685Y0103897D02*
X0314685Y0123896D01*
X0314685Y0103897D02*
X0324685Y0103897D01*
X0324685Y0167283D02*
X0324685Y0187283D01*
X0314685Y0187283D02*
X0324685Y0187283D01*
X0314685Y0167283D02*
X0314685Y0187283D01*
X0314685Y0167283D02*
X0324685Y0167283D01*
X0170078Y0125984D02*
X0199015Y0125984D01*
X0201771Y0125984D02*
X0205511Y0125984D01*
X0205511Y0165354D01*
X0170078Y0125984D02*
X0170078Y0165354D01*
X0178543Y0165354D01*
X0181300Y0165354D02*
X0205511Y0165354D01*
X0177558Y0167717D02*
X0182283Y0167717D01*
X0177558Y0167717D02*
X0178541Y0165354D01*
X0181300Y0165354D02*
X0182283Y0167717D01*
X0201771Y0125984D02*
X0202755Y0123622D01*
X0198030Y0123622D02*
X0202755Y0123622D01*
X0198030Y0123622D02*
X0199014Y0125984D01*
X0251968Y0194685D02*
X0251968Y0223622D01*
X0251968Y0188189D02*
X0251968Y0191929D01*
X0251968Y0188189D02*
X0291338Y0188189D01*
X0251968Y0223622D02*
X0291338Y0223622D01*
X0291338Y0215157D02*
X0291338Y0223622D01*
X0291338Y0188189D02*
X0291338Y0212401D01*
X0293701Y0211417D02*
X0293701Y0216142D01*
X0291338Y0215158D02*
X0293701Y0216142D01*
X0291338Y0212401D02*
X0293701Y0211417D01*
X0249606Y0190946D02*
X0251968Y0191929D01*
X0249606Y0190946D02*
X0249606Y0195670D01*
X0251968Y0194687D01*
X0204723Y0194685D02*
X0204723Y0223622D01*
X0204723Y0188189D02*
X0204723Y0191929D01*
X0204723Y0188189D02*
X0244092Y0188189D01*
X0204723Y0223622D02*
X0244092Y0223622D01*
X0244092Y0215157D02*
X0244092Y0223622D01*
X0244092Y0188189D02*
X0244092Y0212401D01*
X0246456Y0211417D02*
X0246456Y0216142D01*
X0244092Y0215158D02*
X0246456Y0216142D01*
X0244092Y0212401D02*
X0246456Y0211417D01*
X0202361Y0190945D02*
X0204723Y0191929D01*
X0202361Y0190945D02*
X0202361Y0195670D01*
X0204723Y0194687D01*
X0215795Y0131594D02*
X0215795Y0134547D01*
X0231448Y0131594D02*
X0231448Y0134547D01*
D35*
X0257873Y0135827D02*
X0257873Y0137894D01*
X0255806Y0135827D02*
X0257873Y0135827D01*
X0257873Y0153445D02*
X0257873Y0155512D01*
X0255806Y0155512D02*
X0257873Y0155512D01*
X0238188Y0155512D02*
X0240255Y0155512D01*
X0238188Y0153445D02*
X0238188Y0155512D01*
X0238188Y0135827D02*
X0238188Y0137894D01*
X0238188Y0135827D02*
X0240255Y0135827D01*
M02*