%MOIN*%
%OFA0B0*%
%FSLAX25Y25*%
%IPPOS*%
%LPD*%
%ADD24R,0.06706X0.06706*%
%ADD25C,0.06706*%
%ADD26R,0.06706X0.06706*%
%ADD27C,0.08477*%
%ADD28R,0.08477X0.08477*%
%ADD29R,0.08477X0.08477*%
%ADD30C,0.20485000000000003*%
%ADD31C,0.02375*%
%ADD32C,0.03556*%
%ADD43R,0.06706X0.06706*%
%ADD44C,0.06706*%
%ADD45R,0.06706X0.06706*%
%ADD46C,0.08477*%
%ADD47R,0.08477X0.08477*%
%ADD48R,0.08477X0.08477*%
%ADD49C,0.20485000000000003*%
%ADD50C,0.02375*%
%ADD51C,0.03556*%
%ADD52R,0.06706X0.06706*%
%ADD53C,0.06706*%
%ADD54R,0.06706X0.06706*%
%ADD55C,0.08477*%
%ADD56R,0.08477X0.08477*%
%ADD57R,0.08477X0.08477*%
%ADD58C,0.20485000000000003*%
%ADD59C,0.02375*%
%ADD60C,0.03556*%
%ADD61R,0.06706X0.06706*%
%ADD62C,0.06706*%
%ADD63R,0.06706X0.06706*%
%ADD64C,0.08477*%
%ADD65R,0.08477X0.08477*%
%ADD66R,0.08477X0.08477*%
%ADD67C,0.20485000000000003*%
%ADD68C,0.02375*%
%ADD69C,0.03556*%
G01*
G75*
D24*
X0006102Y0271101D02*
D03*
X0054723Y0263149D02*
D03*
X0043701Y0263149D02*
D03*
X0032677Y0263149D02*
D03*
X0126181Y0253148D02*
D03*
X0078543Y0263149D02*
D03*
X0115157Y0253148D02*
D03*
X0067520Y0263149D02*
D03*
X0091337Y0263149D02*
D03*
X0102362Y0263149D02*
D03*
X0150393Y0304959D02*
D03*
X0150393Y0288188D02*
D03*
X0150393Y0351574D02*
D03*
D25*
X0006102Y0281102D02*
D03*
X0016339Y0346850D02*
D03*
X0006339Y0346850D02*
D03*
X0054723Y0253148D02*
D03*
X0054723Y0243149D02*
D03*
X0043701Y0253148D02*
D03*
X0043701Y0243149D02*
D03*
X0032677Y0253148D02*
D03*
X0032677Y0243149D02*
D03*
X0126181Y0243149D02*
D03*
X0078543Y0253148D02*
D03*
X0078543Y0243149D02*
D03*
X0115157Y0243149D02*
D03*
X0067520Y0253148D02*
D03*
X0067520Y0243149D02*
D03*
X0091337Y0253148D02*
D03*
X0091337Y0243149D02*
D03*
X0102362Y0253148D02*
D03*
X0102362Y0243149D02*
D03*
X0150393Y0324960D02*
D03*
X0150393Y0314960D02*
D03*
X0150393Y0278189D02*
D03*
X0150393Y0341574D02*
D03*
D26*
X0026339Y0346850D02*
D03*
D27*
X0016535Y0305119D02*
D03*
X0092521Y0377165D02*
D03*
X0045276Y0377165D02*
D03*
D28*
X0016535Y0324804D02*
D03*
D29*
X0112206Y0377165D02*
D03*
X0064961Y0377165D02*
D03*
D30*
X0011811Y0248030D02*
D03*
X0145669Y0381889D02*
D03*
X0011811Y0381889D02*
D03*
X0145669Y0248030D02*
D03*
D31*
X0136221Y0348818D02*
D03*
X0136221Y0301574D02*
D03*
X0124408Y0372441D02*
D03*
X0112599Y0348818D02*
D03*
X0100787Y0372441D02*
D03*
X0053542Y0372441D02*
D03*
X0041732Y0301574D02*
D03*
X0029920Y0372441D02*
D03*
X0029920Y0277952D02*
D03*
X0062598Y0320865D02*
D03*
X0088779Y0295472D02*
D03*
X0102559Y0324803D02*
D03*
X0102559Y0310236D02*
D03*
X0112205Y0304330D02*
D03*
X0092126Y0318897D02*
D03*
X0102165Y0335433D02*
D03*
X0092520Y0346850D02*
D03*
X0118504Y0278543D02*
D03*
X0125394Y0278543D02*
D03*
X0084252Y0328740D02*
D03*
X0080709Y0328740D02*
D03*
X0058268Y0313581D02*
D03*
X0118504Y0291141D02*
D03*
X0108464Y0290748D02*
D03*
X0111417Y0292125D02*
D03*
X0112598Y0320077D02*
D03*
D32*
X0083071Y0319291D02*
D03*
X0083071Y0310630D02*
D03*
X0078740Y0314960D02*
D03*
X0074409Y0319291D02*
D03*
X0074409Y0310630D02*
D03*
G04 next file*
G04*
G04 #@! TF.GenerationSoftware,Altium Limited,Altium Designer,21.7.2 (23)*
G04*
G04 Layer_Color=16711935*
G04 skipping 70
G04*
G04 #@! TF.SameCoordinates,3D67BF19-0A55-4891-8FEB-F4BE30BF2CF6*
G04*
G04*
G04 #@! TF.FilePolarity,Negative*
G04*
G01*
G75*
D43*
X0175393Y0271101D02*
D03*
X0224015Y0263149D02*
D03*
X0212991Y0263149D02*
D03*
X0201968Y0263149D02*
D03*
X0295472Y0253148D02*
D03*
X0247834Y0263149D02*
D03*
X0284448Y0253148D02*
D03*
X0236811Y0263149D02*
D03*
X0260630Y0263149D02*
D03*
X0271652Y0263149D02*
D03*
X0319685Y0304959D02*
D03*
X0319685Y0288188D02*
D03*
X0319685Y0351574D02*
D03*
D44*
X0175393Y0281102D02*
D03*
X0185630Y0346850D02*
D03*
X0175630Y0346850D02*
D03*
X0224015Y0253148D02*
D03*
X0224015Y0243149D02*
D03*
X0212991Y0253148D02*
D03*
X0212991Y0243149D02*
D03*
X0201968Y0253148D02*
D03*
X0201968Y0243149D02*
D03*
X0295472Y0243149D02*
D03*
X0247834Y0253148D02*
D03*
X0247834Y0243149D02*
D03*
X0284448Y0243149D02*
D03*
X0236811Y0253148D02*
D03*
X0236811Y0243149D02*
D03*
X0260630Y0253148D02*
D03*
X0260630Y0243149D02*
D03*
X0271652Y0253148D02*
D03*
X0271652Y0243149D02*
D03*
X0319685Y0324960D02*
D03*
X0319685Y0314960D02*
D03*
X0319685Y0278189D02*
D03*
X0319685Y0341574D02*
D03*
D45*
X0195630Y0346850D02*
D03*
D46*
X0185826Y0305119D02*
D03*
X0261811Y0377165D02*
D03*
X0214567Y0377165D02*
D03*
D47*
X0185826Y0324804D02*
D03*
D48*
X0281497Y0377165D02*
D03*
X0234252Y0377165D02*
D03*
D49*
X0181102Y0248030D02*
D03*
X0314960Y0381889D02*
D03*
X0181102Y0381889D02*
D03*
X0314960Y0248030D02*
D03*
D50*
X0305512Y0348818D02*
D03*
X0305512Y0301574D02*
D03*
X0293700Y0372441D02*
D03*
X0281890Y0348818D02*
D03*
X0270078Y0372441D02*
D03*
X0222834Y0372441D02*
D03*
X0211023Y0301574D02*
D03*
X0199212Y0372441D02*
D03*
X0199212Y0277952D02*
D03*
X0231889Y0320865D02*
D03*
X0258070Y0295472D02*
D03*
X0271849Y0324803D02*
D03*
X0271849Y0310236D02*
D03*
X0281496Y0304330D02*
D03*
X0261417Y0318897D02*
D03*
X0271455Y0335433D02*
D03*
X0261811Y0346850D02*
D03*
X0287795Y0278543D02*
D03*
X0294685Y0278543D02*
D03*
X0253542Y0328740D02*
D03*
X0250000Y0328740D02*
D03*
X0227558Y0313581D02*
D03*
X0287795Y0291141D02*
D03*
X0277756Y0290748D02*
D03*
X0280708Y0292125D02*
D03*
X0281889Y0320077D02*
D03*
D51*
X0252362Y0319291D02*
D03*
X0252362Y0310630D02*
D03*
X0248030Y0314960D02*
D03*
X0243701Y0319291D02*
D03*
X0243701Y0310630D02*
D03*
G04 next file*
G04*
G04 #@! TF.GenerationSoftware,Altium Limited,Altium Designer,21.7.2 (23)*
G04*
G04 Layer_Color=16711935*
G04 skipping 70
G04*
G04 #@! TF.SameCoordinates,3D67BF19-0A55-4891-8FEB-F4BE30BF2CF6*
G04*
G04*
G04 #@! TF.FilePolarity,Negative*
G04*
G01*
G75*
D52*
X0006102Y0101811D02*
D03*
X0054723Y0093858D02*
D03*
X0043701Y0093858D02*
D03*
X0032677Y0093858D02*
D03*
X0126181Y0083858D02*
D03*
X0078543Y0093858D02*
D03*
X0115157Y0083858D02*
D03*
X0067520Y0093858D02*
D03*
X0091337Y0093858D02*
D03*
X0102362Y0093858D02*
D03*
X0150393Y0135669D02*
D03*
X0150393Y0118897D02*
D03*
X0150393Y0182283D02*
D03*
D53*
X0006102Y0111811D02*
D03*
X0016339Y0177558D02*
D03*
X0006339Y0177558D02*
D03*
X0054723Y0083858D02*
D03*
X0054723Y0073858D02*
D03*
X0043701Y0083858D02*
D03*
X0043701Y0073858D02*
D03*
X0032677Y0083858D02*
D03*
X0032677Y0073858D02*
D03*
X0126181Y0073858D02*
D03*
X0078543Y0083858D02*
D03*
X0078543Y0073858D02*
D03*
X0115157Y0073858D02*
D03*
X0067520Y0083858D02*
D03*
X0067520Y0073858D02*
D03*
X0091337Y0083858D02*
D03*
X0091337Y0073858D02*
D03*
X0102362Y0083858D02*
D03*
X0102362Y0073858D02*
D03*
X0150393Y0155669D02*
D03*
X0150393Y0145669D02*
D03*
X0150393Y0108898D02*
D03*
X0150393Y0172283D02*
D03*
D54*
X0026339Y0177558D02*
D03*
D55*
X0016535Y0135828D02*
D03*
X0092521Y0207873D02*
D03*
X0045276Y0207873D02*
D03*
D56*
X0016535Y0155513D02*
D03*
D57*
X0112206Y0207873D02*
D03*
X0064961Y0207873D02*
D03*
D58*
X0011811Y0078740D02*
D03*
X0145669Y0212598D02*
D03*
X0011811Y0212598D02*
D03*
X0145669Y0078740D02*
D03*
D59*
X0136221Y0179528D02*
D03*
X0136221Y0132282D02*
D03*
X0124408Y0203150D02*
D03*
X0112599Y0179528D02*
D03*
X0100787Y0203150D02*
D03*
X0053542Y0203150D02*
D03*
X0041732Y0132282D02*
D03*
X0029920Y0203150D02*
D03*
X0029920Y0108661D02*
D03*
X0062598Y0151575D02*
D03*
X0088779Y0126181D02*
D03*
X0102559Y0155512D02*
D03*
X0102559Y0140945D02*
D03*
X0112205Y0135039D02*
D03*
X0092126Y0149606D02*
D03*
X0102165Y0166142D02*
D03*
X0092520Y0177558D02*
D03*
X0118504Y0109252D02*
D03*
X0125394Y0109252D02*
D03*
X0084252Y0159449D02*
D03*
X0080709Y0159449D02*
D03*
X0058268Y0144291D02*
D03*
X0118504Y0121849D02*
D03*
X0108464Y0121457D02*
D03*
X0111417Y0122834D02*
D03*
X0112598Y0150787D02*
D03*
D60*
X0083071Y0149999D02*
D03*
X0083071Y0141339D02*
D03*
X0078740Y0145669D02*
D03*
X0074409Y0149999D02*
D03*
X0074409Y0141339D02*
D03*
G04 next file*
G04*
G04 #@! TF.GenerationSoftware,Altium Limited,Altium Designer,21.7.2 (23)*
G04*
G04 Layer_Color=16711935*
G04 skipping 70
G04*
G04 #@! TF.SameCoordinates,3D67BF19-0A55-4891-8FEB-F4BE30BF2CF6*
G04*
G04*
G04 #@! TF.FilePolarity,Negative*
G04*
G01*
G75*
D61*
X0175393Y0101811D02*
D03*
X0224015Y0093858D02*
D03*
X0212991Y0093858D02*
D03*
X0201968Y0093858D02*
D03*
X0295472Y0083858D02*
D03*
X0247834Y0093858D02*
D03*
X0284448Y0083858D02*
D03*
X0236811Y0093858D02*
D03*
X0260630Y0093858D02*
D03*
X0271652Y0093858D02*
D03*
X0319685Y0135669D02*
D03*
X0319685Y0118897D02*
D03*
X0319685Y0182283D02*
D03*
D62*
X0175393Y0111811D02*
D03*
X0185630Y0177558D02*
D03*
X0175630Y0177558D02*
D03*
X0224015Y0083858D02*
D03*
X0224015Y0073858D02*
D03*
X0212991Y0083858D02*
D03*
X0212991Y0073858D02*
D03*
X0201968Y0083858D02*
D03*
X0201968Y0073858D02*
D03*
X0295472Y0073858D02*
D03*
X0247834Y0083858D02*
D03*
X0247834Y0073858D02*
D03*
X0284448Y0073858D02*
D03*
X0236811Y0083858D02*
D03*
X0236811Y0073858D02*
D03*
X0260630Y0083858D02*
D03*
X0260630Y0073858D02*
D03*
X0271652Y0083858D02*
D03*
X0271652Y0073858D02*
D03*
X0319685Y0155669D02*
D03*
X0319685Y0145669D02*
D03*
X0319685Y0108898D02*
D03*
X0319685Y0172283D02*
D03*
D63*
X0195630Y0177558D02*
D03*
D64*
X0185826Y0135828D02*
D03*
X0261811Y0207873D02*
D03*
X0214567Y0207873D02*
D03*
D65*
X0185826Y0155513D02*
D03*
D66*
X0281497Y0207873D02*
D03*
X0234252Y0207873D02*
D03*
D67*
X0181102Y0078740D02*
D03*
X0314960Y0212598D02*
D03*
X0181102Y0212598D02*
D03*
X0314960Y0078740D02*
D03*
D68*
X0305512Y0179528D02*
D03*
X0305512Y0132282D02*
D03*
X0293700Y0203150D02*
D03*
X0281890Y0179528D02*
D03*
X0270078Y0203150D02*
D03*
X0222834Y0203150D02*
D03*
X0211023Y0132282D02*
D03*
X0199212Y0203150D02*
D03*
X0199212Y0108661D02*
D03*
X0231889Y0151575D02*
D03*
X0258070Y0126181D02*
D03*
X0271849Y0155512D02*
D03*
X0271849Y0140945D02*
D03*
X0281496Y0135039D02*
D03*
X0261417Y0149606D02*
D03*
X0271455Y0166142D02*
D03*
X0261811Y0177558D02*
D03*
X0287795Y0109252D02*
D03*
X0294685Y0109252D02*
D03*
X0253542Y0159449D02*
D03*
X0250000Y0159449D02*
D03*
X0227558Y0144291D02*
D03*
X0287795Y0121849D02*
D03*
X0277756Y0121457D02*
D03*
X0280708Y0122834D02*
D03*
X0281889Y0150787D02*
D03*
D69*
X0252362Y0149999D02*
D03*
X0252362Y0141339D02*
D03*
X0248030Y0145669D02*
D03*
X0243701Y0149999D02*
D03*
X0243701Y0141339D02*
D03*
M02*