%MOIN*%
%OFA0B0*%
%FSLAX25Y25*%
%IPPOS*%
%LPD*%
%ADD11C,0.01*%
%ADD38C,0.01181*%
%ADD39R,0.05906X0.05906*%
%ADD40C,0.05906*%
%ADD41R,0.05906X0.05906*%
%ADD42C,0.07677*%
%ADD43R,0.07677X0.07677*%
%ADD44R,0.07677X0.07677*%
%ADD45C,0.19685*%
%ADD46C,0.01575*%
%ADD47C,0.02756*%
%ADD58C,0.01*%
%ADD59C,0.01181*%
%ADD60R,0.05906X0.05906*%
%ADD61C,0.05906*%
%ADD62R,0.05906X0.05906*%
%ADD63C,0.07677*%
%ADD64R,0.07677X0.07677*%
%ADD65R,0.07677X0.07677*%
%ADD66C,0.19685*%
%ADD67C,0.01575*%
%ADD68C,0.02756*%
%ADD69C,0.01*%
%ADD70C,0.01181*%
%ADD71R,0.05906X0.05906*%
%ADD72C,0.05906*%
%ADD73R,0.05906X0.05906*%
%ADD74C,0.07677*%
%ADD75R,0.07677X0.07677*%
%ADD76R,0.07677X0.07677*%
%ADD77C,0.19685*%
%ADD78C,0.01575*%
%ADD79C,0.02756*%
%ADD80C,0.01*%
%ADD81C,0.01181*%
%ADD82R,0.05906X0.05906*%
%ADD83C,0.05906*%
%ADD84R,0.05906X0.05906*%
%ADD85C,0.07677*%
%ADD86R,0.07677X0.07677*%
%ADD87R,0.07677X0.07677*%
%ADD88C,0.19685*%
%ADD89C,0.01575*%
%ADD90C,0.02756*%
G01*
G75*
G36*
X0157480Y0236220D02*
X0000000Y0236220D01*
X0000000Y0393700D01*
X0157480Y0393700D01*
X0157480Y0236220D01*
D02*
G37*
%LPC*%
G36*
X0117043Y0382003D02*
X0112706Y0382003D01*
X0112706Y0377665D01*
X0117043Y0377665D01*
X0117043Y0382003D01*
D02*
G37*
G36*
X0111706Y0382003D02*
X0107366Y0382003D01*
X0107366Y0377665D01*
X0111706Y0377665D01*
X0111706Y0382003D01*
D02*
G37*
G36*
X0069799Y0382003D02*
X0065461Y0382003D01*
X0065461Y0377665D01*
X0069799Y0377665D01*
X0069799Y0382003D01*
D02*
G37*
G36*
X0064461Y0382003D02*
X0060122Y0382003D01*
X0060122Y0377665D01*
X0064461Y0377665D01*
X0064461Y0382003D01*
D02*
G37*
G36*
X0124909Y0374163D02*
X0124909Y0372941D01*
X0126131Y0372941D01*
X0126093Y0373138D01*
X0125698Y0373729D01*
X0125106Y0374123D01*
X0124909Y0374163D01*
D02*
G37*
G36*
X0123909Y0374163D02*
X0123712Y0374123D01*
X0123120Y0373729D01*
X0122726Y0373138D01*
X0122686Y0372941D01*
X0123909Y0372941D01*
X0123909Y0374163D01*
D02*
G37*
G36*
X0101287Y0374163D02*
X0101287Y0372941D01*
X0102509Y0372941D01*
X0102471Y0373138D01*
X0102075Y0373729D01*
X0101485Y0374123D01*
X0101287Y0374163D01*
D02*
G37*
G36*
X0100287Y0374163D02*
X0100089Y0374123D01*
X0099499Y0373729D01*
X0099104Y0373138D01*
X0099064Y0372941D01*
X0100287Y0372941D01*
X0100287Y0374163D01*
D02*
G37*
G36*
X0054043Y0374163D02*
X0054043Y0372941D01*
X0055266Y0372941D01*
X0055227Y0373138D01*
X0054832Y0373729D01*
X0054240Y0374123D01*
X0054043Y0374163D01*
D02*
G37*
G36*
X0030420Y0374163D02*
X0030420Y0372941D01*
X0031644Y0372941D01*
X0031604Y0373138D01*
X0031210Y0373729D01*
X0030619Y0374123D01*
X0030420Y0374163D01*
D02*
G37*
G36*
X0029421Y0374163D02*
X0029224Y0374123D01*
X0028632Y0373729D01*
X0028238Y0373138D01*
X0028198Y0372941D01*
X0029421Y0372941D01*
X0029421Y0374163D01*
D02*
G37*
G36*
X0117043Y0376665D02*
X0112706Y0376665D01*
X0112706Y0372326D01*
X0117043Y0372326D01*
X0117043Y0376665D01*
D02*
G37*
G36*
X0111706Y0376665D02*
X0107366Y0376665D01*
X0107366Y0372326D01*
X0111706Y0372326D01*
X0111706Y0376665D01*
D02*
G37*
G36*
X0069799Y0376665D02*
X0065461Y0376665D01*
X0065461Y0372326D01*
X0069799Y0372326D01*
X0069799Y0376665D01*
D02*
G37*
G36*
X0064461Y0376665D02*
X0060122Y0376665D01*
X0060122Y0372326D01*
X0064461Y0372326D01*
X0064461Y0376665D01*
D02*
G37*
G36*
X0145669Y0392355D02*
X0144032Y0392226D01*
X0142435Y0391842D01*
X0140918Y0391214D01*
X0139518Y0390356D01*
X0138269Y0389289D01*
X0137203Y0388041D01*
X0136345Y0386640D01*
X0135716Y0385123D01*
X0135333Y0383526D01*
X0135204Y0381889D01*
X0135333Y0380252D01*
X0135716Y0378655D01*
X0136345Y0377138D01*
X0137203Y0375738D01*
X0138269Y0374489D01*
X0139518Y0373423D01*
X0140918Y0372565D01*
X0142435Y0371936D01*
X0144032Y0371553D01*
X0145669Y0371424D01*
X0147306Y0371553D01*
X0148903Y0371936D01*
X0150420Y0372565D01*
X0151821Y0373423D01*
X0153069Y0374489D01*
X0154135Y0375738D01*
X0154994Y0377138D01*
X0155622Y0378655D01*
X0156006Y0380252D01*
X0156135Y0381889D01*
X0156006Y0383526D01*
X0155622Y0385123D01*
X0154994Y0386640D01*
X0154135Y0388041D01*
X0153069Y0389289D01*
X0151821Y0390356D01*
X0150420Y0391214D01*
X0148903Y0391842D01*
X0147306Y0392226D01*
X0145669Y0392355D01*
D02*
G37*
G36*
X0011811Y0392355D02*
X0010174Y0392226D01*
X0008577Y0391842D01*
X0007060Y0391214D01*
X0005660Y0390356D01*
X0004411Y0389289D01*
X0003343Y0388041D01*
X0002486Y0386640D01*
X0001858Y0385123D01*
X0001474Y0383526D01*
X0001346Y0381889D01*
X0001474Y0380252D01*
X0001858Y0378655D01*
X0002486Y0377138D01*
X0003343Y0375738D01*
X0004411Y0374489D01*
X0005660Y0373423D01*
X0007060Y0372565D01*
X0008577Y0371936D01*
X0010174Y0371553D01*
X0011811Y0371424D01*
X0013447Y0371553D01*
X0015045Y0371936D01*
X0016562Y0372565D01*
X0017962Y0373423D01*
X0019211Y0374489D01*
X0020278Y0375738D01*
X0021135Y0377138D01*
X0021764Y0378655D01*
X0022148Y0380252D01*
X0022276Y0381889D01*
X0022148Y0383526D01*
X0021764Y0385123D01*
X0021135Y0386640D01*
X0020278Y0388041D01*
X0019211Y0389289D01*
X0017962Y0390356D01*
X0016562Y0391214D01*
X0015045Y0391842D01*
X0013447Y0392226D01*
X0011811Y0392355D01*
D02*
G37*
G36*
X0126131Y0371941D02*
X0124909Y0371941D01*
X0124909Y0370717D01*
X0125106Y0370757D01*
X0125698Y0371152D01*
X0126093Y0371743D01*
X0126131Y0371941D01*
D02*
G37*
G36*
X0123909Y0371941D02*
X0122686Y0371941D01*
X0122726Y0371743D01*
X0123120Y0371152D01*
X0123712Y0370757D01*
X0123909Y0370717D01*
X0123909Y0371941D01*
D02*
G37*
G36*
X0102509Y0371941D02*
X0101287Y0371941D01*
X0101287Y0370717D01*
X0101485Y0370757D01*
X0102075Y0371152D01*
X0102471Y0371743D01*
X0102509Y0371941D01*
D02*
G37*
G36*
X0100287Y0371941D02*
X0099064Y0371941D01*
X0099104Y0371743D01*
X0099499Y0371152D01*
X0100089Y0370757D01*
X0100287Y0370717D01*
X0100287Y0371941D01*
D02*
G37*
G36*
X0031644Y0371941D02*
X0030420Y0371941D01*
X0030420Y0370717D01*
X0030619Y0370757D01*
X0031210Y0371152D01*
X0031604Y0371743D01*
X0031644Y0371941D01*
D02*
G37*
G36*
X0029421Y0371941D02*
X0028198Y0371941D01*
X0028238Y0371743D01*
X0028632Y0371152D01*
X0029224Y0370757D01*
X0029421Y0370717D01*
X0029421Y0371941D01*
D02*
G37*
G36*
X0136721Y0350541D02*
X0136721Y0349319D01*
X0137943Y0349319D01*
X0137904Y0349516D01*
X0137509Y0350107D01*
X0136918Y0350502D01*
X0136721Y0350541D01*
D02*
G37*
G36*
X0135721Y0350541D02*
X0135523Y0350502D01*
X0134932Y0350107D01*
X0134536Y0349516D01*
X0134496Y0349319D01*
X0135721Y0349319D01*
X0135721Y0350541D01*
D02*
G37*
G36*
X0113099Y0350541D02*
X0113099Y0349319D01*
X0114321Y0349319D01*
X0114282Y0349516D01*
X0113887Y0350107D01*
X0113296Y0350502D01*
X0113099Y0350541D01*
D02*
G37*
G36*
X0112099Y0350541D02*
X0111901Y0350502D01*
X0111310Y0350107D01*
X0110915Y0349516D01*
X0110874Y0349319D01*
X0112099Y0349319D01*
X0112099Y0350541D01*
D02*
G37*
G36*
X0006839Y0350771D02*
X0006839Y0347350D01*
X0010260Y0347350D01*
X0010190Y0347882D01*
X0009791Y0348843D01*
X0009158Y0349668D01*
X0008332Y0350303D01*
X0007371Y0350701D01*
X0006839Y0350771D01*
D02*
G37*
G36*
X0005839Y0350771D02*
X0005307Y0350701D01*
X0004345Y0350303D01*
X0003519Y0349668D01*
X0002885Y0348843D01*
X0002488Y0347882D01*
X0002417Y0347350D01*
X0005839Y0347350D01*
X0005839Y0350771D01*
D02*
G37*
G36*
X0137943Y0348319D02*
X0136721Y0348319D01*
X0136721Y0347095D01*
X0136918Y0347135D01*
X0137509Y0347530D01*
X0137904Y0348121D01*
X0137943Y0348319D01*
D02*
G37*
G36*
X0135721Y0348319D02*
X0134496Y0348319D01*
X0134536Y0348121D01*
X0134932Y0347530D01*
X0135523Y0347135D01*
X0135721Y0347095D01*
X0135721Y0348319D01*
D02*
G37*
G36*
X0114321Y0348319D02*
X0113099Y0348319D01*
X0113099Y0347095D01*
X0113296Y0347135D01*
X0113887Y0347530D01*
X0114282Y0348121D01*
X0114321Y0348319D01*
D02*
G37*
G36*
X0112099Y0348319D02*
X0110874Y0348319D01*
X0110915Y0348121D01*
X0111310Y0347530D01*
X0111901Y0347135D01*
X0112099Y0347095D01*
X0112099Y0348319D01*
D02*
G37*
G36*
X0029881Y0350393D02*
X0022795Y0350393D01*
X0022795Y0343307D01*
X0029881Y0343307D01*
X0029881Y0350393D01*
D02*
G37*
G36*
X0010260Y0346350D02*
X0006839Y0346350D01*
X0006839Y0342929D01*
X0007371Y0342999D01*
X0008332Y0343397D01*
X0009158Y0344031D01*
X0009791Y0344856D01*
X0010190Y0345818D01*
X0010260Y0346350D01*
D02*
G37*
G36*
X0005839Y0346350D02*
X0002417Y0346350D01*
X0002488Y0345818D01*
X0002885Y0344856D01*
X0003519Y0344031D01*
X0004345Y0343397D01*
X0005307Y0342999D01*
X0005839Y0342929D01*
X0005839Y0346350D01*
D02*
G37*
G36*
X0150894Y0345495D02*
X0150894Y0342074D01*
X0154315Y0342074D01*
X0154245Y0342606D01*
X0153846Y0343568D01*
X0153213Y0344394D01*
X0152387Y0345027D01*
X0151426Y0345425D01*
X0150894Y0345495D01*
D02*
G37*
G36*
X0149893Y0345495D02*
X0149362Y0345425D01*
X0148400Y0345027D01*
X0147575Y0344394D01*
X0146941Y0343568D01*
X0146543Y0342606D01*
X0146473Y0342074D01*
X0149893Y0342074D01*
X0149893Y0345495D01*
D02*
G37*
G36*
X0154315Y0341074D02*
X0150894Y0341074D01*
X0150894Y0337653D01*
X0151426Y0337723D01*
X0152387Y0338122D01*
X0153213Y0338755D01*
X0153846Y0339581D01*
X0154245Y0340542D01*
X0154315Y0341074D01*
D02*
G37*
G36*
X0149893Y0341074D02*
X0146473Y0341074D01*
X0146543Y0340542D01*
X0146941Y0339581D01*
X0147575Y0338755D01*
X0148400Y0338122D01*
X0149362Y0337723D01*
X0149893Y0337653D01*
X0149893Y0341074D01*
D02*
G37*
G36*
X0092521Y0381632D02*
X0091364Y0381480D01*
X0090287Y0381034D01*
X0089362Y0380324D01*
X0088652Y0379399D01*
X0088204Y0378321D01*
X0088053Y0377165D01*
X0088204Y0376009D01*
X0088652Y0374931D01*
X0089362Y0374006D01*
X0090287Y0373296D01*
X0091316Y0372870D01*
X0091316Y0347529D01*
X0091222Y0347388D01*
X0091115Y0346850D01*
X0091222Y0346312D01*
X0091316Y0346170D01*
X0091316Y0337507D01*
X0083880Y0330071D01*
X0083714Y0330038D01*
X0083258Y0329733D01*
X0082954Y0329277D01*
X0082847Y0328740D01*
X0082954Y0328202D01*
X0083258Y0327746D01*
X0083714Y0327442D01*
X0084252Y0327335D01*
X0084790Y0327442D01*
X0085245Y0327746D01*
X0085550Y0328202D01*
X0085583Y0328367D01*
X0093372Y0336157D01*
X0093633Y0336548D01*
X0093725Y0337008D01*
X0093725Y0337008D01*
X0093725Y0346173D01*
X0093818Y0346312D01*
X0093924Y0346850D01*
X0093818Y0347388D01*
X0093725Y0347526D01*
X0093725Y0372870D01*
X0094754Y0373296D01*
X0095679Y0374006D01*
X0096390Y0374931D01*
X0096836Y0376009D01*
X0096988Y0377165D01*
X0096836Y0378321D01*
X0096390Y0379399D01*
X0095679Y0380324D01*
X0094754Y0381034D01*
X0093677Y0381480D01*
X0092521Y0381632D01*
D02*
G37*
G36*
X0045276Y0381632D02*
X0044119Y0381480D01*
X0043042Y0381034D01*
X0042116Y0380324D01*
X0041407Y0379399D01*
X0040960Y0378321D01*
X0040808Y0377165D01*
X0040960Y0376009D01*
X0041407Y0374931D01*
X0042116Y0374006D01*
X0043042Y0373296D01*
X0044119Y0372850D01*
X0045276Y0372697D01*
X0046432Y0372850D01*
X0047461Y0373276D01*
X0079504Y0341233D01*
X0079504Y0329418D01*
X0079411Y0329277D01*
X0079304Y0328740D01*
X0079411Y0328202D01*
X0079715Y0327746D01*
X0080169Y0327442D01*
X0080709Y0327335D01*
X0081246Y0327442D01*
X0081702Y0327746D01*
X0082007Y0328202D01*
X0082113Y0328740D01*
X0082007Y0329277D01*
X0081913Y0329418D01*
X0081913Y0341732D01*
X0081821Y0342193D01*
X0081560Y0342583D01*
X0053954Y0370190D01*
X0054118Y0370732D01*
X0054240Y0370757D01*
X0054832Y0371152D01*
X0055227Y0371743D01*
X0055266Y0371941D01*
X0053542Y0371941D01*
X0053542Y0372441D01*
X0053042Y0372441D01*
X0053042Y0374163D01*
X0052846Y0374123D01*
X0052254Y0373729D01*
X0051859Y0373138D01*
X0051835Y0373015D01*
X0051293Y0372850D01*
X0049164Y0374979D01*
X0049591Y0376009D01*
X0049743Y0377165D01*
X0049591Y0378321D01*
X0049145Y0379399D01*
X0048434Y0380324D01*
X0047509Y0381034D01*
X0046432Y0381480D01*
X0045276Y0381632D01*
D02*
G37*
G36*
X0103058Y0326526D02*
X0103058Y0325303D01*
X0104282Y0325303D01*
X0104243Y0325500D01*
X0103848Y0326091D01*
X0103255Y0326486D01*
X0103058Y0326526D01*
D02*
G37*
G36*
X0102059Y0326526D02*
X0101862Y0326486D01*
X0101270Y0326091D01*
X0100875Y0325500D01*
X0100835Y0325303D01*
X0102059Y0325303D01*
X0102059Y0326526D01*
D02*
G37*
G36*
X0104282Y0324303D02*
X0103058Y0324303D01*
X0103058Y0323080D01*
X0103255Y0323119D01*
X0103848Y0323513D01*
X0104243Y0324104D01*
X0104282Y0324303D01*
D02*
G37*
G36*
X0102059Y0324303D02*
X0100835Y0324303D01*
X0100875Y0324104D01*
X0101270Y0323513D01*
X0101862Y0323119D01*
X0102059Y0323080D01*
X0102059Y0324303D01*
D02*
G37*
G36*
X0150393Y0328534D02*
X0149469Y0328412D01*
X0148607Y0328055D01*
X0147867Y0327487D01*
X0147299Y0326747D01*
X0146942Y0325885D01*
X0146820Y0324960D01*
X0146942Y0324035D01*
X0147299Y0323173D01*
X0147867Y0322433D01*
X0148607Y0321864D01*
X0149469Y0321507D01*
X0150393Y0321386D01*
X0151319Y0321507D01*
X0152181Y0321864D01*
X0152921Y0322433D01*
X0153489Y0323173D01*
X0153846Y0324035D01*
X0153967Y0324960D01*
X0153846Y0325885D01*
X0153489Y0326747D01*
X0152921Y0327487D01*
X0152181Y0328055D01*
X0151319Y0328412D01*
X0150393Y0328534D01*
D02*
G37*
G36*
X0063098Y0322589D02*
X0063098Y0321366D01*
X0064320Y0321366D01*
X0064281Y0321563D01*
X0063887Y0322154D01*
X0063296Y0322549D01*
X0063098Y0322589D01*
D02*
G37*
G36*
X0062098Y0322589D02*
X0061900Y0322549D01*
X0061310Y0322154D01*
X0060915Y0321563D01*
X0060875Y0321366D01*
X0062098Y0321366D01*
X0062098Y0322589D01*
D02*
G37*
G36*
X0153936Y0355117D02*
X0146850Y0355117D01*
X0146850Y0349734D01*
X0118399Y0321282D01*
X0113276Y0321282D01*
X0113135Y0321376D01*
X0112598Y0321483D01*
X0112061Y0321376D01*
X0111605Y0321072D01*
X0111300Y0320616D01*
X0111257Y0320401D01*
X0110758Y0320449D01*
X0110758Y0327952D01*
X0110758Y0327952D01*
X0110673Y0328378D01*
X0110432Y0328739D01*
X0103529Y0335642D01*
X0103463Y0335970D01*
X0103159Y0336426D01*
X0102703Y0336731D01*
X0102165Y0336837D01*
X0101628Y0336731D01*
X0101172Y0336426D01*
X0100867Y0335970D01*
X0100760Y0335433D01*
X0100867Y0334895D01*
X0101172Y0334439D01*
X0101628Y0334135D01*
X0101956Y0334068D01*
X0108534Y0327492D01*
X0108534Y0317126D01*
X0108534Y0317125D01*
X0108617Y0316700D01*
X0108859Y0316339D01*
X0121025Y0304174D01*
X0121025Y0304174D01*
X0121386Y0303933D01*
X0121811Y0303848D01*
X0121811Y0303848D01*
X0135792Y0303848D01*
X0135969Y0303422D01*
X0135974Y0303374D01*
X0135523Y0303258D01*
X0134932Y0302863D01*
X0134536Y0302272D01*
X0134496Y0302074D01*
X0137943Y0302074D01*
X0137904Y0302272D01*
X0137509Y0302863D01*
X0136918Y0303258D01*
X0136467Y0303374D01*
X0136471Y0303422D01*
X0136648Y0303848D01*
X0146850Y0303848D01*
X0146850Y0301417D01*
X0153936Y0301417D01*
X0153936Y0308504D01*
X0146850Y0308504D01*
X0146850Y0306072D01*
X0122272Y0306072D01*
X0110758Y0317586D01*
X0110758Y0319707D01*
X0111257Y0319756D01*
X0111300Y0319541D01*
X0111605Y0319085D01*
X0112061Y0318780D01*
X0112598Y0318673D01*
X0113135Y0318780D01*
X0113276Y0318874D01*
X0118897Y0318874D01*
X0118897Y0318874D01*
X0119359Y0318966D01*
X0119749Y0319227D01*
X0148553Y0348030D01*
X0153936Y0348030D01*
X0153936Y0355117D01*
D02*
G37*
G36*
X0083570Y0321616D02*
X0083570Y0319791D01*
X0085396Y0319791D01*
X0085311Y0320219D01*
X0084785Y0321005D01*
X0083999Y0321531D01*
X0083570Y0321616D01*
D02*
G37*
G36*
X0082571Y0321616D02*
X0082143Y0321531D01*
X0081357Y0321005D01*
X0080830Y0320219D01*
X0080746Y0319791D01*
X0082571Y0319791D01*
X0082571Y0321616D01*
D02*
G37*
G36*
X0074910Y0321616D02*
X0074910Y0319791D01*
X0076735Y0319791D01*
X0076649Y0320219D01*
X0076124Y0321005D01*
X0075337Y0321531D01*
X0074910Y0321616D01*
D02*
G37*
G36*
X0073909Y0321616D02*
X0073482Y0321531D01*
X0072695Y0321005D01*
X0072170Y0320219D01*
X0072082Y0319791D01*
X0073909Y0319791D01*
X0073909Y0321616D01*
D02*
G37*
G36*
X0064320Y0320366D02*
X0063098Y0320366D01*
X0063098Y0319143D01*
X0063296Y0319182D01*
X0063887Y0319577D01*
X0064281Y0320168D01*
X0064320Y0320366D01*
D02*
G37*
G36*
X0062098Y0320366D02*
X0060875Y0320366D01*
X0060915Y0320168D01*
X0061310Y0319577D01*
X0061900Y0319182D01*
X0062098Y0319143D01*
X0062098Y0320366D01*
D02*
G37*
G36*
X0016339Y0350424D02*
X0015414Y0350302D01*
X0014552Y0349945D01*
X0013812Y0349376D01*
X0013243Y0348637D01*
X0012887Y0347775D01*
X0012765Y0346850D01*
X0012887Y0345925D01*
X0013243Y0345063D01*
X0013812Y0344323D01*
X0014552Y0343755D01*
X0015414Y0343398D01*
X0016339Y0343276D01*
X0017264Y0343398D01*
X0017846Y0343639D01*
X0025330Y0336156D01*
X0025720Y0335895D01*
X0026181Y0335803D01*
X0057572Y0335803D01*
X0069424Y0323951D01*
X0069815Y0323690D01*
X0070276Y0323597D01*
X0085722Y0323597D01*
X0090795Y0318525D01*
X0090828Y0318359D01*
X0091130Y0317904D01*
X0091588Y0317599D01*
X0092126Y0317492D01*
X0092664Y0317599D01*
X0093119Y0317904D01*
X0093424Y0318359D01*
X0093530Y0318897D01*
X0093424Y0319435D01*
X0093119Y0319891D01*
X0092664Y0320194D01*
X0092498Y0320228D01*
X0087072Y0325654D01*
X0086681Y0325915D01*
X0086221Y0326007D01*
X0086220Y0326007D01*
X0070774Y0326007D01*
X0058922Y0337858D01*
X0058531Y0338120D01*
X0058070Y0338212D01*
X0058070Y0338212D01*
X0026679Y0338212D01*
X0019549Y0345342D01*
X0019791Y0345925D01*
X0019913Y0346850D01*
X0019791Y0347775D01*
X0019434Y0348637D01*
X0018865Y0349376D01*
X0018125Y0349945D01*
X0017264Y0350302D01*
X0016339Y0350424D01*
D02*
G37*
G36*
X0085396Y0318791D02*
X0083570Y0318791D01*
X0083570Y0316966D01*
X0083999Y0317051D01*
X0084785Y0317577D01*
X0085311Y0318363D01*
X0085396Y0318791D01*
D02*
G37*
G36*
X0082571Y0318791D02*
X0080746Y0318791D01*
X0080830Y0318363D01*
X0081357Y0317577D01*
X0082143Y0317051D01*
X0082571Y0316966D01*
X0082571Y0318791D01*
D02*
G37*
G36*
X0076735Y0318791D02*
X0074910Y0318791D01*
X0074910Y0316966D01*
X0075337Y0317051D01*
X0076124Y0317577D01*
X0076649Y0318363D01*
X0076735Y0318791D01*
D02*
G37*
G36*
X0073909Y0318791D02*
X0072082Y0318791D01*
X0072170Y0318363D01*
X0072695Y0317577D01*
X0073482Y0317051D01*
X0073909Y0316966D01*
X0073909Y0318791D01*
D02*
G37*
G36*
X0079240Y0317285D02*
X0079240Y0315460D01*
X0081065Y0315460D01*
X0080980Y0315888D01*
X0080455Y0316675D01*
X0079668Y0317200D01*
X0079240Y0317285D01*
D02*
G37*
G36*
X0078240Y0317285D02*
X0077812Y0317200D01*
X0077026Y0316675D01*
X0076500Y0315888D01*
X0076415Y0315460D01*
X0078240Y0315460D01*
X0078240Y0317285D01*
D02*
G37*
G36*
X0081065Y0314460D02*
X0079240Y0314460D01*
X0079240Y0312635D01*
X0079668Y0312720D01*
X0080455Y0313246D01*
X0080980Y0314032D01*
X0081065Y0314460D01*
D02*
G37*
G36*
X0078240Y0314460D02*
X0076415Y0314460D01*
X0076500Y0314032D01*
X0077026Y0313246D01*
X0077812Y0312720D01*
X0078240Y0312635D01*
X0078240Y0314460D01*
D02*
G37*
G36*
X0020965Y0329233D02*
X0012106Y0329233D01*
X0012106Y0320374D01*
X0020965Y0320374D01*
X0020965Y0323599D01*
X0046547Y0323599D01*
X0056937Y0313209D01*
X0056970Y0313044D01*
X0057274Y0312589D01*
X0057730Y0312283D01*
X0058268Y0312177D01*
X0058804Y0312283D01*
X0059261Y0312589D01*
X0059566Y0313044D01*
X0059673Y0313581D01*
X0059566Y0314120D01*
X0059261Y0314576D01*
X0058804Y0314880D01*
X0058640Y0314913D01*
X0047897Y0325655D01*
X0047507Y0325916D01*
X0047046Y0326008D01*
X0047046Y0326008D01*
X0020965Y0326008D01*
X0020965Y0329233D01*
D02*
G37*
G36*
X0150393Y0318534D02*
X0149469Y0318412D01*
X0148607Y0318055D01*
X0147867Y0317487D01*
X0147299Y0316747D01*
X0146942Y0315885D01*
X0146820Y0314960D01*
X0146942Y0314035D01*
X0147299Y0313173D01*
X0147867Y0312433D01*
X0148607Y0311865D01*
X0149469Y0311508D01*
X0150393Y0311386D01*
X0151319Y0311508D01*
X0152181Y0311865D01*
X0152921Y0312433D01*
X0153489Y0313173D01*
X0153846Y0314035D01*
X0153967Y0314960D01*
X0153846Y0315885D01*
X0153489Y0316747D01*
X0152921Y0317487D01*
X0152181Y0318055D01*
X0151319Y0318412D01*
X0150393Y0318534D01*
D02*
G37*
G36*
X0083570Y0312954D02*
X0083570Y0311130D01*
X0085396Y0311130D01*
X0085311Y0311557D01*
X0084785Y0312344D01*
X0083999Y0312869D01*
X0083570Y0312954D01*
D02*
G37*
G36*
X0082571Y0312954D02*
X0082143Y0312869D01*
X0081357Y0312344D01*
X0080830Y0311557D01*
X0080746Y0311130D01*
X0082571Y0311130D01*
X0082571Y0312954D01*
D02*
G37*
G36*
X0074910Y0312954D02*
X0074910Y0311130D01*
X0076735Y0311130D01*
X0076649Y0311557D01*
X0076124Y0312344D01*
X0075337Y0312869D01*
X0074910Y0312954D01*
D02*
G37*
G36*
X0073909Y0312954D02*
X0073482Y0312869D01*
X0072695Y0312344D01*
X0072170Y0311557D01*
X0072082Y0311130D01*
X0073909Y0311130D01*
X0073909Y0312954D01*
D02*
G37*
G36*
X0103058Y0311959D02*
X0103058Y0310736D01*
X0104282Y0310736D01*
X0104243Y0310933D01*
X0103848Y0311524D01*
X0103255Y0311920D01*
X0103058Y0311959D01*
D02*
G37*
G36*
X0102059Y0311959D02*
X0101862Y0311920D01*
X0101270Y0311524D01*
X0100875Y0310933D01*
X0100835Y0310736D01*
X0102059Y0310736D01*
X0102059Y0311959D01*
D02*
G37*
G36*
X0104282Y0309736D02*
X0103058Y0309736D01*
X0103058Y0308513D01*
X0103255Y0308552D01*
X0103848Y0308947D01*
X0104243Y0309538D01*
X0104282Y0309736D01*
D02*
G37*
G36*
X0102059Y0309736D02*
X0100835Y0309736D01*
X0100875Y0309538D01*
X0101270Y0308947D01*
X0101862Y0308552D01*
X0102059Y0308513D01*
X0102059Y0309736D01*
D02*
G37*
G36*
X0085396Y0310129D02*
X0083570Y0310129D01*
X0083570Y0308304D01*
X0083999Y0308390D01*
X0084785Y0308915D01*
X0085311Y0309701D01*
X0085396Y0310129D01*
D02*
G37*
G36*
X0082571Y0310129D02*
X0080746Y0310129D01*
X0080830Y0309701D01*
X0081357Y0308915D01*
X0082143Y0308390D01*
X0082571Y0308304D01*
X0082571Y0310129D01*
D02*
G37*
G36*
X0076735Y0310129D02*
X0074910Y0310129D01*
X0074910Y0308304D01*
X0075337Y0308390D01*
X0076124Y0308915D01*
X0076649Y0309701D01*
X0076735Y0310129D01*
D02*
G37*
G36*
X0073909Y0310129D02*
X0072082Y0310129D01*
X0072170Y0309701D01*
X0072695Y0308915D01*
X0073482Y0308390D01*
X0073909Y0308304D01*
X0073909Y0310129D01*
D02*
G37*
G36*
X0017035Y0309933D02*
X0017035Y0305619D01*
X0021350Y0305619D01*
X0021249Y0306382D01*
X0020762Y0307559D01*
X0019986Y0308570D01*
X0018976Y0309345D01*
X0017798Y0309833D01*
X0017035Y0309933D01*
D02*
G37*
G36*
X0016035Y0309933D02*
X0015272Y0309833D01*
X0014095Y0309345D01*
X0013084Y0308570D01*
X0012309Y0307559D01*
X0011821Y0306382D01*
X0011720Y0305619D01*
X0016035Y0305619D01*
X0016035Y0309933D01*
D02*
G37*
G36*
X0042232Y0303297D02*
X0042232Y0302074D01*
X0043455Y0302074D01*
X0043416Y0302272D01*
X0043021Y0302863D01*
X0042430Y0303258D01*
X0042232Y0303297D01*
D02*
G37*
G36*
X0041232Y0303297D02*
X0041035Y0303258D01*
X0040444Y0302863D01*
X0040048Y0302272D01*
X0040009Y0302074D01*
X0041232Y0302074D01*
X0041232Y0303297D01*
D02*
G37*
G36*
X0021350Y0304619D02*
X0017035Y0304619D01*
X0017035Y0300304D01*
X0017798Y0300405D01*
X0018976Y0300892D01*
X0019986Y0301668D01*
X0020762Y0302678D01*
X0021249Y0303856D01*
X0021350Y0304619D01*
D02*
G37*
G36*
X0016035Y0304619D02*
X0011720Y0304619D01*
X0011821Y0303856D01*
X0012309Y0302678D01*
X0013084Y0301668D01*
X0014095Y0300892D01*
X0015272Y0300405D01*
X0016035Y0300304D01*
X0016035Y0304619D01*
D02*
G37*
G36*
X0137943Y0301074D02*
X0136721Y0301074D01*
X0136721Y0299851D01*
X0136918Y0299891D01*
X0137509Y0300286D01*
X0137904Y0300877D01*
X0137943Y0301074D01*
D02*
G37*
G36*
X0135721Y0301074D02*
X0134496Y0301074D01*
X0134536Y0300877D01*
X0134932Y0300286D01*
X0135523Y0299891D01*
X0135721Y0299851D01*
X0135721Y0301074D01*
D02*
G37*
G36*
X0043455Y0301074D02*
X0042232Y0301074D01*
X0042232Y0299851D01*
X0042430Y0299891D01*
X0043021Y0300286D01*
X0043416Y0300877D01*
X0043455Y0301074D01*
D02*
G37*
G36*
X0041232Y0301074D02*
X0040009Y0301074D01*
X0040048Y0300877D01*
X0040444Y0300286D01*
X0041035Y0299891D01*
X0041232Y0299851D01*
X0041232Y0301074D01*
D02*
G37*
G36*
X0089280Y0297195D02*
X0089280Y0295972D01*
X0090503Y0295972D01*
X0090463Y0296169D01*
X0090068Y0296760D01*
X0089477Y0297156D01*
X0089280Y0297195D01*
D02*
G37*
G36*
X0088279Y0297195D02*
X0088082Y0297156D01*
X0087490Y0296760D01*
X0087096Y0296169D01*
X0087056Y0295972D01*
X0088279Y0295972D01*
X0088279Y0297195D01*
D02*
G37*
G36*
X0090503Y0294972D02*
X0089280Y0294972D01*
X0089280Y0293749D01*
X0089477Y0293787D01*
X0090068Y0294183D01*
X0090463Y0294775D01*
X0090503Y0294972D01*
D02*
G37*
G36*
X0088279Y0294972D02*
X0087056Y0294972D01*
X0087096Y0294775D01*
X0087490Y0294183D01*
X0088082Y0293787D01*
X0088279Y0293749D01*
X0088279Y0294972D01*
D02*
G37*
G36*
X0111417Y0293530D02*
X0110880Y0293424D01*
X0110424Y0293119D01*
X0110118Y0292663D01*
X0110012Y0292125D01*
X0110118Y0291588D01*
X0109686Y0291400D01*
X0109458Y0291741D01*
X0109002Y0292046D01*
X0108464Y0292152D01*
X0107927Y0292046D01*
X0107471Y0291741D01*
X0107166Y0291285D01*
X0107060Y0290748D01*
X0107166Y0290210D01*
X0107471Y0289753D01*
X0107927Y0289450D01*
X0108092Y0289417D01*
X0109778Y0287731D01*
X0110169Y0287470D01*
X0110630Y0287378D01*
X0114856Y0287378D01*
X0124062Y0278171D01*
X0124096Y0278005D01*
X0124400Y0277549D01*
X0124855Y0277245D01*
X0125394Y0277138D01*
X0125931Y0277245D01*
X0126387Y0277549D01*
X0126692Y0278005D01*
X0126799Y0278543D01*
X0126692Y0279080D01*
X0126387Y0279536D01*
X0125931Y0279841D01*
X0125766Y0279873D01*
X0116206Y0289434D01*
X0115815Y0289695D01*
X0115354Y0289786D01*
X0115354Y0289786D01*
X0111128Y0289786D01*
X0110305Y0290610D01*
X0110623Y0290998D01*
X0110880Y0290827D01*
X0111417Y0290721D01*
X0111955Y0290827D01*
X0112094Y0290921D01*
X0116914Y0290921D01*
X0117200Y0290636D01*
X0117206Y0290604D01*
X0117510Y0290147D01*
X0117966Y0289843D01*
X0118504Y0289735D01*
X0119042Y0289843D01*
X0119497Y0290147D01*
X0119802Y0290604D01*
X0119909Y0291141D01*
X0119802Y0291679D01*
X0119497Y0292135D01*
X0119042Y0292439D01*
X0118743Y0292499D01*
X0118265Y0292977D01*
X0117873Y0293238D01*
X0117412Y0293330D01*
X0117412Y0293330D01*
X0112094Y0293330D01*
X0111955Y0293424D01*
X0111417Y0293530D01*
D02*
G37*
G36*
X0112205Y0305735D02*
X0111667Y0305628D01*
X0111211Y0305324D01*
X0110907Y0304868D01*
X0110800Y0304330D01*
X0110907Y0303793D01*
X0111211Y0303337D01*
X0111667Y0303032D01*
X0111833Y0302999D01*
X0127495Y0287337D01*
X0127495Y0287337D01*
X0127886Y0287076D01*
X0128347Y0286984D01*
X0128347Y0286984D01*
X0146850Y0286984D01*
X0146850Y0284645D01*
X0153936Y0284645D01*
X0153936Y0291732D01*
X0146850Y0291732D01*
X0146850Y0289393D01*
X0128845Y0289393D01*
X0113535Y0304702D01*
X0113503Y0304868D01*
X0113198Y0305324D01*
X0112742Y0305628D01*
X0112205Y0305735D01*
D02*
G37*
G36*
X0150894Y0282109D02*
X0150894Y0278689D01*
X0154315Y0278689D01*
X0154245Y0279220D01*
X0153846Y0280182D01*
X0153213Y0281008D01*
X0152387Y0281641D01*
X0151426Y0282039D01*
X0150894Y0282109D01*
D02*
G37*
G36*
X0149893Y0282109D02*
X0149362Y0282039D01*
X0148400Y0281641D01*
X0147575Y0281008D01*
X0146941Y0280182D01*
X0146543Y0279220D01*
X0146473Y0278689D01*
X0149893Y0278689D01*
X0149893Y0282109D01*
D02*
G37*
G36*
X0030420Y0279675D02*
X0030420Y0278452D01*
X0031644Y0278452D01*
X0031604Y0278650D01*
X0031210Y0279241D01*
X0030619Y0279636D01*
X0030420Y0279675D01*
D02*
G37*
G36*
X0029421Y0279675D02*
X0029224Y0279636D01*
X0028632Y0279241D01*
X0028238Y0278650D01*
X0028198Y0278452D01*
X0029421Y0278452D01*
X0029421Y0279675D01*
D02*
G37*
G36*
X0006102Y0284676D02*
X0005177Y0284554D01*
X0004315Y0284197D01*
X0003574Y0283629D01*
X0003007Y0282889D01*
X0002650Y0282027D01*
X0002528Y0281102D01*
X0002650Y0280177D01*
X0003007Y0279315D01*
X0003574Y0278575D01*
X0004315Y0278007D01*
X0005177Y0277650D01*
X0006102Y0277528D01*
X0007027Y0277650D01*
X0007889Y0278007D01*
X0008630Y0278575D01*
X0009197Y0279315D01*
X0009554Y0280177D01*
X0009676Y0281102D01*
X0009554Y0282027D01*
X0009197Y0282889D01*
X0008630Y0283629D01*
X0007889Y0284197D01*
X0007027Y0284554D01*
X0006102Y0284676D01*
D02*
G37*
G36*
X0031644Y0277451D02*
X0030420Y0277451D01*
X0030420Y0276229D01*
X0030619Y0276269D01*
X0031210Y0276664D01*
X0031604Y0277254D01*
X0031644Y0277451D01*
D02*
G37*
G36*
X0029421Y0277451D02*
X0028198Y0277451D01*
X0028238Y0277254D01*
X0028632Y0276664D01*
X0029224Y0276269D01*
X0029421Y0276229D01*
X0029421Y0277451D01*
D02*
G37*
G36*
X0154315Y0277688D02*
X0150894Y0277688D01*
X0150894Y0274267D01*
X0151426Y0274338D01*
X0152387Y0274736D01*
X0153213Y0275369D01*
X0153846Y0276195D01*
X0154245Y0277156D01*
X0154315Y0277688D01*
D02*
G37*
G36*
X0149893Y0277688D02*
X0146473Y0277688D01*
X0146543Y0277156D01*
X0146941Y0276195D01*
X0147575Y0275369D01*
X0148400Y0274736D01*
X0149362Y0274338D01*
X0149893Y0274267D01*
X0149893Y0277688D01*
D02*
G37*
G36*
X0009646Y0274645D02*
X0002559Y0274645D01*
X0002559Y0267559D01*
X0009646Y0267559D01*
X0009646Y0274645D01*
D02*
G37*
G36*
X0118504Y0279948D02*
X0117966Y0279841D01*
X0117510Y0279536D01*
X0117206Y0279080D01*
X0117099Y0278543D01*
X0117206Y0278005D01*
X0117300Y0277865D01*
X0117300Y0267269D01*
X0114384Y0264353D01*
X0105905Y0264353D01*
X0105905Y0266692D01*
X0098819Y0266692D01*
X0098819Y0264353D01*
X0094882Y0264353D01*
X0094882Y0266692D01*
X0087795Y0266692D01*
X0087795Y0264353D01*
X0082087Y0264353D01*
X0082087Y0266692D01*
X0074999Y0266692D01*
X0074999Y0264353D01*
X0071063Y0264353D01*
X0071063Y0266692D01*
X0063975Y0266692D01*
X0063975Y0264353D01*
X0058268Y0264353D01*
X0058268Y0266692D01*
X0051181Y0266692D01*
X0051181Y0264353D01*
X0047244Y0264353D01*
X0047244Y0266692D01*
X0040156Y0266692D01*
X0040156Y0264353D01*
X0036220Y0264353D01*
X0036220Y0266692D01*
X0029134Y0266692D01*
X0029134Y0259605D01*
X0036220Y0259605D01*
X0036220Y0261945D01*
X0040156Y0261945D01*
X0040156Y0259605D01*
X0047244Y0259605D01*
X0047244Y0261945D01*
X0051181Y0261945D01*
X0051181Y0259605D01*
X0058268Y0259605D01*
X0058268Y0261945D01*
X0063975Y0261945D01*
X0063975Y0259605D01*
X0071063Y0259605D01*
X0071063Y0261945D01*
X0074999Y0261945D01*
X0074999Y0259605D01*
X0082087Y0259605D01*
X0082087Y0261945D01*
X0087795Y0261945D01*
X0087795Y0259605D01*
X0094882Y0259605D01*
X0094882Y0261945D01*
X0098819Y0261945D01*
X0098819Y0259605D01*
X0105905Y0259605D01*
X0105905Y0261945D01*
X0114883Y0261945D01*
X0114883Y0261945D01*
X0115344Y0262037D01*
X0115735Y0262298D01*
X0119355Y0265918D01*
X0119355Y0265918D01*
X0119615Y0266309D01*
X0119707Y0266770D01*
X0119707Y0277865D01*
X0119802Y0278005D01*
X0119909Y0278543D01*
X0119802Y0279080D01*
X0119497Y0279536D01*
X0119042Y0279841D01*
X0118504Y0279948D01*
D02*
G37*
G36*
X0129724Y0256691D02*
X0122638Y0256691D01*
X0122638Y0249606D01*
X0129724Y0249606D01*
X0129724Y0256691D01*
D02*
G37*
G36*
X0118700Y0256691D02*
X0111613Y0256691D01*
X0111613Y0249606D01*
X0118700Y0249606D01*
X0118700Y0256691D01*
D02*
G37*
G36*
X0102362Y0256723D02*
X0101437Y0256601D01*
X0100574Y0256244D01*
X0099835Y0255676D01*
X0099267Y0254936D01*
X0098910Y0254074D01*
X0098788Y0253148D01*
X0098910Y0252223D01*
X0099267Y0251362D01*
X0099835Y0250622D01*
X0100574Y0250054D01*
X0101437Y0249697D01*
X0102362Y0249575D01*
X0103287Y0249697D01*
X0104149Y0250054D01*
X0104889Y0250622D01*
X0105457Y0251362D01*
X0105814Y0252223D01*
X0105936Y0253148D01*
X0105814Y0254074D01*
X0105457Y0254936D01*
X0104889Y0255676D01*
X0104149Y0256244D01*
X0103287Y0256601D01*
X0102362Y0256723D01*
D02*
G37*
G36*
X0091337Y0256723D02*
X0090414Y0256601D01*
X0089552Y0256244D01*
X0088811Y0255676D01*
X0088244Y0254936D01*
X0087887Y0254074D01*
X0087765Y0253148D01*
X0087887Y0252223D01*
X0088244Y0251362D01*
X0088811Y0250622D01*
X0089552Y0250054D01*
X0090414Y0249697D01*
X0091337Y0249575D01*
X0092264Y0249697D01*
X0093125Y0250054D01*
X0093866Y0250622D01*
X0094434Y0251362D01*
X0094791Y0252223D01*
X0094912Y0253148D01*
X0094791Y0254074D01*
X0094434Y0254936D01*
X0093866Y0255676D01*
X0093125Y0256244D01*
X0092264Y0256601D01*
X0091337Y0256723D01*
D02*
G37*
G36*
X0078543Y0256723D02*
X0077618Y0256601D01*
X0076756Y0256244D01*
X0076016Y0255676D01*
X0075448Y0254936D01*
X0075091Y0254074D01*
X0074969Y0253148D01*
X0075091Y0252223D01*
X0075448Y0251362D01*
X0076016Y0250622D01*
X0076756Y0250054D01*
X0077618Y0249697D01*
X0078543Y0249575D01*
X0079468Y0249697D01*
X0080330Y0250054D01*
X0081070Y0250622D01*
X0081637Y0251362D01*
X0081995Y0252223D01*
X0082117Y0253148D01*
X0081995Y0254074D01*
X0081637Y0254936D01*
X0081070Y0255676D01*
X0080330Y0256244D01*
X0079468Y0256601D01*
X0078543Y0256723D01*
D02*
G37*
G36*
X0067520Y0256723D02*
X0066595Y0256601D01*
X0065732Y0256244D01*
X0064993Y0255676D01*
X0064425Y0254936D01*
X0064068Y0254074D01*
X0063946Y0253148D01*
X0064068Y0252223D01*
X0064425Y0251362D01*
X0064993Y0250622D01*
X0065732Y0250054D01*
X0066595Y0249697D01*
X0067520Y0249575D01*
X0068445Y0249697D01*
X0069307Y0250054D01*
X0070046Y0250622D01*
X0070615Y0251362D01*
X0070972Y0252223D01*
X0071094Y0253148D01*
X0070972Y0254074D01*
X0070615Y0254936D01*
X0070046Y0255676D01*
X0069307Y0256244D01*
X0068445Y0256601D01*
X0067520Y0256723D01*
D02*
G37*
G36*
X0054723Y0256723D02*
X0053799Y0256601D01*
X0052937Y0256244D01*
X0052197Y0255676D01*
X0051629Y0254936D01*
X0051271Y0254074D01*
X0051151Y0253148D01*
X0051271Y0252223D01*
X0051629Y0251362D01*
X0052197Y0250622D01*
X0052937Y0250054D01*
X0053799Y0249697D01*
X0054723Y0249575D01*
X0055649Y0249697D01*
X0056511Y0250054D01*
X0057252Y0250622D01*
X0057819Y0251362D01*
X0058176Y0252223D01*
X0058298Y0253148D01*
X0058176Y0254074D01*
X0057819Y0254936D01*
X0057252Y0255676D01*
X0056511Y0256244D01*
X0055649Y0256601D01*
X0054723Y0256723D01*
D02*
G37*
G36*
X0043701Y0256723D02*
X0042776Y0256601D01*
X0041914Y0256244D01*
X0041174Y0255676D01*
X0040606Y0254936D01*
X0040249Y0254074D01*
X0040127Y0253148D01*
X0040249Y0252223D01*
X0040606Y0251362D01*
X0041174Y0250622D01*
X0041914Y0250054D01*
X0042776Y0249697D01*
X0043701Y0249575D01*
X0044626Y0249697D01*
X0045488Y0250054D01*
X0046228Y0250622D01*
X0046796Y0251362D01*
X0047153Y0252223D01*
X0047275Y0253148D01*
X0047153Y0254074D01*
X0046796Y0254936D01*
X0046228Y0255676D01*
X0045488Y0256244D01*
X0044626Y0256601D01*
X0043701Y0256723D01*
D02*
G37*
G36*
X0032677Y0256723D02*
X0031752Y0256601D01*
X0030890Y0256244D01*
X0030150Y0255676D01*
X0029582Y0254936D01*
X0029225Y0254074D01*
X0029103Y0253148D01*
X0029225Y0252223D01*
X0029582Y0251362D01*
X0030150Y0250622D01*
X0030890Y0250054D01*
X0031752Y0249697D01*
X0032677Y0249575D01*
X0033602Y0249697D01*
X0034464Y0250054D01*
X0035204Y0250622D01*
X0035772Y0251362D01*
X0036129Y0252223D01*
X0036251Y0253148D01*
X0036129Y0254074D01*
X0035772Y0254936D01*
X0035204Y0255676D01*
X0034464Y0256244D01*
X0033602Y0256601D01*
X0032677Y0256723D01*
D02*
G37*
G36*
X0091839Y0247070D02*
X0091839Y0243649D01*
X0095260Y0243649D01*
X0095190Y0244180D01*
X0094791Y0245143D01*
X0094158Y0245968D01*
X0093332Y0246602D01*
X0092370Y0247000D01*
X0091839Y0247070D01*
D02*
G37*
G36*
X0079043Y0247070D02*
X0079043Y0243649D01*
X0082464Y0243649D01*
X0082393Y0244180D01*
X0081996Y0245143D01*
X0081362Y0245968D01*
X0080537Y0246602D01*
X0079575Y0247000D01*
X0079043Y0247070D01*
D02*
G37*
G36*
X0078043Y0247070D02*
X0077511Y0247000D01*
X0076549Y0246602D01*
X0075722Y0245968D01*
X0075091Y0245143D01*
X0074692Y0244180D01*
X0074622Y0243649D01*
X0078043Y0243649D01*
X0078043Y0247070D01*
D02*
G37*
G36*
X0090839Y0247070D02*
X0090307Y0247000D01*
X0089345Y0246602D01*
X0088519Y0245968D01*
X0087886Y0245143D01*
X0087488Y0244180D01*
X0087417Y0243649D01*
X0090839Y0243649D01*
X0090839Y0247070D01*
D02*
G37*
G36*
X0068019Y0247070D02*
X0068019Y0243649D01*
X0071441Y0243649D01*
X0071371Y0244180D01*
X0070972Y0245143D01*
X0070339Y0245968D01*
X0069513Y0246602D01*
X0068552Y0247000D01*
X0068019Y0247070D01*
D02*
G37*
G36*
X0055223Y0247070D02*
X0055223Y0243649D01*
X0058645Y0243649D01*
X0058575Y0244180D01*
X0058177Y0245143D01*
X0057543Y0245968D01*
X0056718Y0246602D01*
X0055755Y0247000D01*
X0055223Y0247070D01*
D02*
G37*
G36*
X0044200Y0247070D02*
X0044200Y0243649D01*
X0047622Y0243649D01*
X0047552Y0244180D01*
X0047153Y0245143D01*
X0046520Y0245968D01*
X0045694Y0246602D01*
X0044733Y0247000D01*
X0044200Y0247070D01*
D02*
G37*
G36*
X0033176Y0247070D02*
X0033176Y0243649D01*
X0036598Y0243649D01*
X0036528Y0244180D01*
X0036130Y0245143D01*
X0035496Y0245968D01*
X0034671Y0246602D01*
X0033709Y0247000D01*
X0033176Y0247070D01*
D02*
G37*
G36*
X0126681Y0247070D02*
X0126681Y0243649D01*
X0130102Y0243649D01*
X0130030Y0244180D01*
X0129634Y0245143D01*
X0129000Y0245968D01*
X0128174Y0246602D01*
X0127213Y0247000D01*
X0126681Y0247070D01*
D02*
G37*
G36*
X0115657Y0247070D02*
X0115657Y0243649D01*
X0119079Y0243649D01*
X0119009Y0244180D01*
X0118610Y0245143D01*
X0117977Y0245968D01*
X0117151Y0246602D01*
X0116189Y0247000D01*
X0115657Y0247070D01*
D02*
G37*
G36*
X0102862Y0247070D02*
X0102862Y0243649D01*
X0106283Y0243649D01*
X0106213Y0244180D01*
X0105814Y0245143D01*
X0105180Y0245968D01*
X0104356Y0246602D01*
X0103394Y0247000D01*
X0102862Y0247070D01*
D02*
G37*
G36*
X0067020Y0247070D02*
X0066488Y0247000D01*
X0065525Y0246602D01*
X0064701Y0245968D01*
X0064066Y0245143D01*
X0063669Y0244180D01*
X0063599Y0243649D01*
X0067020Y0243649D01*
X0067020Y0247070D01*
D02*
G37*
G36*
X0054224Y0247070D02*
X0053693Y0247000D01*
X0052730Y0246602D01*
X0051905Y0245968D01*
X0051271Y0245143D01*
X0050873Y0244180D01*
X0050803Y0243649D01*
X0054224Y0243649D01*
X0054224Y0247070D01*
D02*
G37*
G36*
X0043201Y0247070D02*
X0042669Y0247000D01*
X0041707Y0246602D01*
X0040882Y0245968D01*
X0040248Y0245143D01*
X0039850Y0244180D01*
X0039780Y0243649D01*
X0043201Y0243649D01*
X0043201Y0247070D01*
D02*
G37*
G36*
X0032177Y0247070D02*
X0031645Y0247000D01*
X0030684Y0246602D01*
X0029858Y0245968D01*
X0029225Y0245143D01*
X0028826Y0244180D01*
X0028756Y0243649D01*
X0032177Y0243649D01*
X0032177Y0247070D01*
D02*
G37*
G36*
X0125681Y0247070D02*
X0125149Y0247000D01*
X0124188Y0246602D01*
X0123362Y0245968D01*
X0122727Y0245143D01*
X0122330Y0244180D01*
X0122259Y0243649D01*
X0125681Y0243649D01*
X0125681Y0247070D01*
D02*
G37*
G36*
X0114657Y0247070D02*
X0114126Y0247000D01*
X0113164Y0246602D01*
X0112338Y0245968D01*
X0111705Y0245143D01*
X0111307Y0244180D01*
X0111236Y0243649D01*
X0114657Y0243649D01*
X0114657Y0247070D01*
D02*
G37*
G36*
X0101862Y0247070D02*
X0101330Y0247000D01*
X0100369Y0246602D01*
X0099543Y0245968D01*
X0098907Y0245143D01*
X0098511Y0244180D01*
X0098441Y0243649D01*
X0101862Y0243649D01*
X0101862Y0247070D01*
D02*
G37*
G36*
X0095260Y0242648D02*
X0091839Y0242648D01*
X0091839Y0239228D01*
X0092370Y0239298D01*
X0093332Y0239696D01*
X0094158Y0240330D01*
X0094791Y0241156D01*
X0095190Y0242117D01*
X0095260Y0242648D01*
D02*
G37*
G36*
X0082464Y0242648D02*
X0079043Y0242648D01*
X0079043Y0239228D01*
X0079575Y0239298D01*
X0080537Y0239696D01*
X0081362Y0240330D01*
X0081996Y0241156D01*
X0082393Y0242117D01*
X0082464Y0242648D01*
D02*
G37*
G36*
X0058645Y0242648D02*
X0055223Y0242648D01*
X0055223Y0239228D01*
X0055755Y0239298D01*
X0056718Y0239696D01*
X0057543Y0240330D01*
X0058177Y0241156D01*
X0058575Y0242117D01*
X0058645Y0242648D01*
D02*
G37*
G36*
X0036598Y0242648D02*
X0033176Y0242648D01*
X0033176Y0239228D01*
X0033709Y0239298D01*
X0034671Y0239696D01*
X0035496Y0240330D01*
X0036130Y0241156D01*
X0036528Y0242117D01*
X0036598Y0242648D01*
D02*
G37*
G36*
X0130102Y0242648D02*
X0126681Y0242648D01*
X0126681Y0239228D01*
X0127213Y0239298D01*
X0128174Y0239696D01*
X0129000Y0240330D01*
X0129634Y0241156D01*
X0130030Y0242117D01*
X0130102Y0242648D01*
D02*
G37*
G36*
X0119079Y0242648D02*
X0115657Y0242648D01*
X0115657Y0239228D01*
X0116189Y0239298D01*
X0117151Y0239696D01*
X0117977Y0240330D01*
X0118610Y0241156D01*
X0119009Y0242117D01*
X0119079Y0242648D01*
D02*
G37*
G36*
X0106283Y0242648D02*
X0102862Y0242648D01*
X0102862Y0239228D01*
X0103394Y0239298D01*
X0104356Y0239696D01*
X0105180Y0240330D01*
X0105814Y0241156D01*
X0106213Y0242117D01*
X0106283Y0242648D01*
D02*
G37*
G36*
X0071441Y0242648D02*
X0068019Y0242648D01*
X0068019Y0239228D01*
X0068552Y0239298D01*
X0069513Y0239696D01*
X0070339Y0240330D01*
X0070972Y0241156D01*
X0071371Y0242117D01*
X0071441Y0242648D01*
D02*
G37*
G36*
X0047622Y0242648D02*
X0044200Y0242648D01*
X0044200Y0239228D01*
X0044733Y0239298D01*
X0045694Y0239696D01*
X0046520Y0240330D01*
X0047153Y0241156D01*
X0047552Y0242117D01*
X0047622Y0242648D01*
D02*
G37*
G36*
X0067020Y0242648D02*
X0063599Y0242648D01*
X0063669Y0242117D01*
X0064066Y0241156D01*
X0064701Y0240330D01*
X0065525Y0239696D01*
X0066488Y0239298D01*
X0067020Y0239228D01*
X0067020Y0242648D01*
D02*
G37*
G36*
X0043201Y0242648D02*
X0039780Y0242648D01*
X0039850Y0242117D01*
X0040248Y0241156D01*
X0040882Y0240330D01*
X0041707Y0239696D01*
X0042669Y0239298D01*
X0043201Y0239228D01*
X0043201Y0242648D01*
D02*
G37*
G36*
X0125681Y0242648D02*
X0122259Y0242648D01*
X0122330Y0242117D01*
X0122727Y0241156D01*
X0123362Y0240330D01*
X0124188Y0239696D01*
X0125149Y0239298D01*
X0125681Y0239228D01*
X0125681Y0242648D01*
D02*
G37*
G36*
X0114657Y0242648D02*
X0111236Y0242648D01*
X0111307Y0242117D01*
X0111705Y0241156D01*
X0112338Y0240330D01*
X0113164Y0239696D01*
X0114126Y0239298D01*
X0114657Y0239228D01*
X0114657Y0242648D01*
D02*
G37*
G36*
X0101862Y0242648D02*
X0098441Y0242648D01*
X0098511Y0242117D01*
X0098907Y0241156D01*
X0099543Y0240330D01*
X0100369Y0239696D01*
X0101330Y0239298D01*
X0101862Y0239228D01*
X0101862Y0242648D01*
D02*
G37*
G36*
X0054224Y0242648D02*
X0050803Y0242648D01*
X0050873Y0242117D01*
X0051271Y0241156D01*
X0051905Y0240330D01*
X0052730Y0239696D01*
X0053693Y0239298D01*
X0054224Y0239228D01*
X0054224Y0242648D01*
D02*
G37*
G36*
X0032177Y0242648D02*
X0028756Y0242648D01*
X0028826Y0242117D01*
X0029225Y0241156D01*
X0029858Y0240330D01*
X0030684Y0239696D01*
X0031645Y0239298D01*
X0032177Y0239228D01*
X0032177Y0242648D01*
D02*
G37*
G36*
X0090839Y0242648D02*
X0087417Y0242648D01*
X0087488Y0242117D01*
X0087886Y0241156D01*
X0088519Y0240330D01*
X0089345Y0239696D01*
X0090307Y0239298D01*
X0090839Y0239228D01*
X0090839Y0242648D01*
D02*
G37*
G36*
X0078043Y0242648D02*
X0074622Y0242648D01*
X0074692Y0242117D01*
X0075091Y0241156D01*
X0075722Y0240330D01*
X0076549Y0239696D01*
X0077511Y0239298D01*
X0078043Y0239228D01*
X0078043Y0242648D01*
D02*
G37*
G36*
X0145669Y0258496D02*
X0144032Y0258368D01*
X0142435Y0257984D01*
X0140918Y0257356D01*
X0139518Y0256497D01*
X0138269Y0255431D01*
X0137203Y0254182D01*
X0136345Y0252781D01*
X0135716Y0251264D01*
X0135333Y0249668D01*
X0135204Y0248030D01*
X0135333Y0246394D01*
X0135716Y0244797D01*
X0136345Y0243279D01*
X0137203Y0241880D01*
X0138269Y0240631D01*
X0139518Y0239564D01*
X0140918Y0238706D01*
X0142435Y0238078D01*
X0144032Y0237693D01*
X0145669Y0237566D01*
X0147306Y0237693D01*
X0148903Y0238078D01*
X0150420Y0238706D01*
X0151821Y0239564D01*
X0153069Y0240631D01*
X0154135Y0241880D01*
X0154994Y0243279D01*
X0155622Y0244797D01*
X0156006Y0246394D01*
X0156135Y0248030D01*
X0156006Y0249668D01*
X0155622Y0251264D01*
X0154994Y0252781D01*
X0154135Y0254182D01*
X0153069Y0255431D01*
X0151821Y0256497D01*
X0150420Y0257356D01*
X0148903Y0257984D01*
X0147306Y0258368D01*
X0145669Y0258496D01*
D02*
G37*
G36*
X0011811Y0258496D02*
X0010174Y0258368D01*
X0008577Y0257984D01*
X0007060Y0257356D01*
X0005660Y0256497D01*
X0004411Y0255431D01*
X0003343Y0254182D01*
X0002486Y0252781D01*
X0001858Y0251264D01*
X0001474Y0249668D01*
X0001346Y0248030D01*
X0001474Y0246394D01*
X0001858Y0244797D01*
X0002486Y0243279D01*
X0003343Y0241880D01*
X0004411Y0240631D01*
X0005660Y0239564D01*
X0007060Y0238706D01*
X0008577Y0238078D01*
X0010174Y0237693D01*
X0011811Y0237566D01*
X0013447Y0237693D01*
X0015045Y0238078D01*
X0016562Y0238706D01*
X0017962Y0239564D01*
X0019211Y0240631D01*
X0020278Y0241880D01*
X0021135Y0243279D01*
X0021764Y0244797D01*
X0022148Y0246394D01*
X0022276Y0248030D01*
X0022148Y0249668D01*
X0021764Y0251264D01*
X0021135Y0252781D01*
X0020278Y0254182D01*
X0019211Y0255431D01*
X0017962Y0256497D01*
X0016562Y0257356D01*
X0015045Y0257984D01*
X0013447Y0258368D01*
X0011811Y0258496D01*
D02*
G37*
%LPD*%
D11*
X0109646Y0317125D02*
X0121811Y0304959D01*
X0109646Y0317125D02*
X0109646Y0327952D01*
X0102165Y0335433D02*
X0109646Y0327952D01*
X0121811Y0304959D02*
X0150393Y0304959D01*
D38*
X0062598Y0320865D02*
X0064172Y0319291D01*
X0074409Y0319291D01*
X0102484Y0309175D02*
X0102484Y0310160D01*
X0102559Y0310236D01*
X0088779Y0295472D02*
X0102484Y0309175D01*
X0102559Y0310236D02*
X0102559Y0324803D01*
X0128347Y0288188D02*
X0150393Y0288188D01*
X0112205Y0304330D02*
X0128347Y0288188D01*
X0070276Y0324803D02*
X0086221Y0324803D01*
X0092126Y0318897D01*
X0058070Y0337007D02*
X0070276Y0324803D01*
X0016339Y0346850D02*
X0026181Y0337007D01*
X0058070Y0337007D01*
X0092521Y0337008D02*
X0092521Y0377165D01*
X0114883Y0263149D02*
X0118504Y0266770D01*
X0118504Y0278543D01*
X0102362Y0263149D02*
X0114883Y0263149D01*
X0078543Y0263149D02*
X0091337Y0263149D01*
X0067520Y0263149D02*
X0078543Y0263149D01*
X0054723Y0263149D02*
X0067520Y0263149D01*
X0043701Y0263149D02*
X0054723Y0263149D01*
X0032677Y0263149D02*
X0043701Y0263149D01*
X0091337Y0263149D02*
X0102362Y0263149D01*
X0115354Y0288582D02*
X0125394Y0278543D01*
X0110630Y0288582D02*
X0115354Y0288582D01*
X0084252Y0328740D02*
X0084252Y0328740D01*
X0092521Y0337008D01*
X0080709Y0328740D02*
X0080709Y0341732D01*
X0045276Y0377165D02*
X0080709Y0341732D01*
X0047046Y0324804D02*
X0058268Y0313581D01*
X0016535Y0324804D02*
X0047046Y0324804D01*
X0108464Y0290748D02*
X0110630Y0288582D01*
X0111417Y0292125D02*
X0117412Y0292125D01*
X0118397Y0291141D01*
X0118504Y0291141D01*
X0118897Y0320077D02*
X0150393Y0351574D01*
X0112598Y0320077D02*
X0118897Y0320077D01*
D39*
X0006102Y0271101D02*
D03*
X0054723Y0263149D02*
D03*
X0043701Y0263149D02*
D03*
X0032677Y0263149D02*
D03*
X0126181Y0253148D02*
D03*
X0078543Y0263149D02*
D03*
X0115157Y0253148D02*
D03*
X0067520Y0263149D02*
D03*
X0091337Y0263149D02*
D03*
X0102362Y0263149D02*
D03*
X0150393Y0304959D02*
D03*
X0150393Y0288188D02*
D03*
X0150393Y0351574D02*
D03*
D40*
X0006102Y0281102D02*
D03*
X0016339Y0346850D02*
D03*
X0006339Y0346850D02*
D03*
X0054723Y0253148D02*
D03*
X0054723Y0243149D02*
D03*
X0043701Y0253148D02*
D03*
X0043701Y0243149D02*
D03*
X0032677Y0253148D02*
D03*
X0032677Y0243149D02*
D03*
X0126181Y0243149D02*
D03*
X0078543Y0253148D02*
D03*
X0078543Y0243149D02*
D03*
X0115157Y0243149D02*
D03*
X0067520Y0253148D02*
D03*
X0067520Y0243149D02*
D03*
X0091337Y0253148D02*
D03*
X0091337Y0243149D02*
D03*
X0102362Y0253148D02*
D03*
X0102362Y0243149D02*
D03*
X0150393Y0324960D02*
D03*
X0150393Y0314960D02*
D03*
X0150393Y0278189D02*
D03*
X0150393Y0341574D02*
D03*
D41*
X0026339Y0346850D02*
D03*
D42*
X0016535Y0305119D02*
D03*
X0092521Y0377165D02*
D03*
X0045276Y0377165D02*
D03*
D43*
X0016535Y0324804D02*
D03*
D44*
X0112206Y0377165D02*
D03*
X0064961Y0377165D02*
D03*
D45*
X0011811Y0248030D02*
D03*
X0145669Y0381889D02*
D03*
X0011811Y0381889D02*
D03*
X0145669Y0248030D02*
D03*
D46*
X0136221Y0348818D02*
D03*
X0136221Y0301574D02*
D03*
X0124408Y0372441D02*
D03*
X0112599Y0348818D02*
D03*
X0100787Y0372441D02*
D03*
X0053542Y0372441D02*
D03*
X0041732Y0301574D02*
D03*
X0029920Y0372441D02*
D03*
X0029920Y0277952D02*
D03*
X0062598Y0320865D02*
D03*
X0088779Y0295472D02*
D03*
X0102559Y0324803D02*
D03*
X0102559Y0310236D02*
D03*
X0112205Y0304330D02*
D03*
X0092126Y0318897D02*
D03*
X0102165Y0335433D02*
D03*
X0092520Y0346850D02*
D03*
X0118504Y0278543D02*
D03*
X0125394Y0278543D02*
D03*
X0084252Y0328740D02*
D03*
X0080709Y0328740D02*
D03*
X0058268Y0313581D02*
D03*
X0118504Y0291141D02*
D03*
X0108464Y0290748D02*
D03*
X0111417Y0292125D02*
D03*
X0112598Y0320077D02*
D03*
D47*
X0083071Y0319291D02*
D03*
X0083071Y0310630D02*
D03*
X0078740Y0314960D02*
D03*
X0074409Y0319291D02*
D03*
X0074409Y0310630D02*
D03*
G04 next file*
G04*
G04 #@! TF.GenerationSoftware,Altium Limited,Altium Designer,21.7.2 (23)*
G04*
G04 Layer_Physical_Order=2*
G04 Layer_Color=16711680*
G04 skipping 70
G04*
G04 #@! TF.SameCoordinates,3D67BF19-0A55-4891-8FEB-F4BE30BF2CF6*
G04*
G04*
G04 #@! TF.FilePolarity,Positive*
G04*
G01*
G75*
G36*
X0326771Y0236220D02*
X0169291Y0236220D01*
X0169291Y0393700D01*
X0326771Y0393700D01*
X0326771Y0236220D01*
D02*
G37*
%LPC*%
G36*
X0286335Y0382003D02*
X0281996Y0382003D01*
X0281996Y0377665D01*
X0286335Y0377665D01*
X0286335Y0382003D01*
D02*
G37*
G36*
X0280996Y0382003D02*
X0276658Y0382003D01*
X0276658Y0377665D01*
X0280996Y0377665D01*
X0280996Y0382003D01*
D02*
G37*
G36*
X0239089Y0382003D02*
X0234751Y0382003D01*
X0234751Y0377665D01*
X0239089Y0377665D01*
X0239089Y0382003D01*
D02*
G37*
G36*
X0233752Y0382003D02*
X0229413Y0382003D01*
X0229413Y0377665D01*
X0233752Y0377665D01*
X0233752Y0382003D01*
D02*
G37*
G36*
X0294200Y0374163D02*
X0294200Y0372941D01*
X0295423Y0372941D01*
X0295384Y0373138D01*
X0294989Y0373729D01*
X0294398Y0374123D01*
X0294200Y0374163D01*
D02*
G37*
G36*
X0293200Y0374163D02*
X0293003Y0374123D01*
X0292412Y0373729D01*
X0292017Y0373138D01*
X0291978Y0372941D01*
X0293200Y0372941D01*
X0293200Y0374163D01*
D02*
G37*
G36*
X0270578Y0374163D02*
X0270578Y0372941D01*
X0271801Y0372941D01*
X0271762Y0373138D01*
X0271367Y0373729D01*
X0270776Y0374123D01*
X0270578Y0374163D01*
D02*
G37*
G36*
X0269578Y0374163D02*
X0269381Y0374123D01*
X0268790Y0373729D01*
X0268395Y0373138D01*
X0268355Y0372941D01*
X0269578Y0372941D01*
X0269578Y0374163D01*
D02*
G37*
G36*
X0223334Y0374163D02*
X0223334Y0372941D01*
X0224556Y0372941D01*
X0224518Y0373138D01*
X0224122Y0373729D01*
X0223532Y0374123D01*
X0223334Y0374163D01*
D02*
G37*
G36*
X0199712Y0374163D02*
X0199712Y0372941D01*
X0200935Y0372941D01*
X0200896Y0373138D01*
X0200501Y0373729D01*
X0199910Y0374123D01*
X0199712Y0374163D01*
D02*
G37*
G36*
X0198712Y0374163D02*
X0198515Y0374123D01*
X0197924Y0373729D01*
X0197529Y0373138D01*
X0197489Y0372941D01*
X0198712Y0372941D01*
X0198712Y0374163D01*
D02*
G37*
G36*
X0286335Y0376665D02*
X0281996Y0376665D01*
X0281996Y0372326D01*
X0286335Y0372326D01*
X0286335Y0376665D01*
D02*
G37*
G36*
X0280996Y0376665D02*
X0276658Y0376665D01*
X0276658Y0372326D01*
X0280996Y0372326D01*
X0280996Y0376665D01*
D02*
G37*
G36*
X0239089Y0376665D02*
X0234751Y0376665D01*
X0234751Y0372326D01*
X0239089Y0372326D01*
X0239089Y0376665D01*
D02*
G37*
G36*
X0233752Y0376665D02*
X0229413Y0376665D01*
X0229413Y0372326D01*
X0233752Y0372326D01*
X0233752Y0376665D01*
D02*
G37*
G36*
X0314960Y0392355D02*
X0313323Y0392226D01*
X0311726Y0391842D01*
X0310209Y0391214D01*
X0308809Y0390356D01*
X0307560Y0389289D01*
X0306494Y0388041D01*
X0305636Y0386640D01*
X0305007Y0385123D01*
X0304624Y0383526D01*
X0304495Y0381889D01*
X0304624Y0380252D01*
X0305007Y0378655D01*
X0305636Y0377138D01*
X0306494Y0375738D01*
X0307560Y0374489D01*
X0308809Y0373423D01*
X0310209Y0372565D01*
X0311726Y0371936D01*
X0313323Y0371553D01*
X0314960Y0371424D01*
X0316597Y0371553D01*
X0318194Y0371936D01*
X0319711Y0372565D01*
X0321112Y0373423D01*
X0322360Y0374489D01*
X0323427Y0375738D01*
X0324285Y0377138D01*
X0324913Y0378655D01*
X0325297Y0380252D01*
X0325426Y0381889D01*
X0325297Y0383526D01*
X0324913Y0385123D01*
X0324285Y0386640D01*
X0323427Y0388041D01*
X0322360Y0389289D01*
X0321112Y0390356D01*
X0319711Y0391214D01*
X0318194Y0391842D01*
X0316597Y0392226D01*
X0314960Y0392355D01*
D02*
G37*
G36*
X0181102Y0392355D02*
X0179465Y0392226D01*
X0177868Y0391842D01*
X0176351Y0391214D01*
X0174950Y0390356D01*
X0173701Y0389289D01*
X0172635Y0388041D01*
X0171777Y0386640D01*
X0171149Y0385123D01*
X0170765Y0383526D01*
X0170637Y0381889D01*
X0170765Y0380252D01*
X0171149Y0378655D01*
X0171777Y0377138D01*
X0172635Y0375738D01*
X0173701Y0374489D01*
X0174950Y0373423D01*
X0176351Y0372565D01*
X0177868Y0371936D01*
X0179465Y0371553D01*
X0181102Y0371424D01*
X0182739Y0371553D01*
X0184336Y0371936D01*
X0185852Y0372565D01*
X0187253Y0373423D01*
X0188502Y0374489D01*
X0189569Y0375738D01*
X0190427Y0377138D01*
X0191055Y0378655D01*
X0191439Y0380252D01*
X0191567Y0381889D01*
X0191439Y0383526D01*
X0191055Y0385123D01*
X0190427Y0386640D01*
X0189569Y0388041D01*
X0188502Y0389289D01*
X0187253Y0390356D01*
X0185852Y0391214D01*
X0184336Y0391842D01*
X0182739Y0392226D01*
X0181102Y0392355D01*
D02*
G37*
G36*
X0295423Y0371941D02*
X0294200Y0371941D01*
X0294200Y0370717D01*
X0294398Y0370757D01*
X0294989Y0371152D01*
X0295384Y0371743D01*
X0295423Y0371941D01*
D02*
G37*
G36*
X0293200Y0371941D02*
X0291978Y0371941D01*
X0292017Y0371743D01*
X0292412Y0371152D01*
X0293003Y0370757D01*
X0293200Y0370717D01*
X0293200Y0371941D01*
D02*
G37*
G36*
X0271801Y0371941D02*
X0270578Y0371941D01*
X0270578Y0370717D01*
X0270776Y0370757D01*
X0271367Y0371152D01*
X0271762Y0371743D01*
X0271801Y0371941D01*
D02*
G37*
G36*
X0269578Y0371941D02*
X0268355Y0371941D01*
X0268395Y0371743D01*
X0268790Y0371152D01*
X0269381Y0370757D01*
X0269578Y0370717D01*
X0269578Y0371941D01*
D02*
G37*
G36*
X0200935Y0371941D02*
X0199712Y0371941D01*
X0199712Y0370717D01*
X0199910Y0370757D01*
X0200501Y0371152D01*
X0200896Y0371743D01*
X0200935Y0371941D01*
D02*
G37*
G36*
X0198712Y0371941D02*
X0197489Y0371941D01*
X0197529Y0371743D01*
X0197924Y0371152D01*
X0198515Y0370757D01*
X0198712Y0370717D01*
X0198712Y0371941D01*
D02*
G37*
G36*
X0306012Y0350541D02*
X0306012Y0349319D01*
X0307234Y0349319D01*
X0307195Y0349516D01*
X0306800Y0350107D01*
X0306209Y0350502D01*
X0306012Y0350541D01*
D02*
G37*
G36*
X0305012Y0350541D02*
X0304814Y0350502D01*
X0304223Y0350107D01*
X0303828Y0349516D01*
X0303788Y0349319D01*
X0305012Y0349319D01*
X0305012Y0350541D01*
D02*
G37*
G36*
X0282390Y0350541D02*
X0282390Y0349319D01*
X0283612Y0349319D01*
X0283573Y0349516D01*
X0283178Y0350107D01*
X0282587Y0350502D01*
X0282390Y0350541D01*
D02*
G37*
G36*
X0281390Y0350541D02*
X0281192Y0350502D01*
X0280601Y0350107D01*
X0280205Y0349516D01*
X0280165Y0349319D01*
X0281390Y0349319D01*
X0281390Y0350541D01*
D02*
G37*
G36*
X0176130Y0350771D02*
X0176130Y0347350D01*
X0179551Y0347350D01*
X0179481Y0347882D01*
X0179082Y0348843D01*
X0178449Y0349668D01*
X0177623Y0350303D01*
X0176662Y0350701D01*
X0176130Y0350771D01*
D02*
G37*
G36*
X0175130Y0350771D02*
X0174598Y0350701D01*
X0173636Y0350303D01*
X0172810Y0349668D01*
X0172177Y0348843D01*
X0171779Y0347882D01*
X0171708Y0347350D01*
X0175130Y0347350D01*
X0175130Y0350771D01*
D02*
G37*
G36*
X0307234Y0348319D02*
X0306012Y0348319D01*
X0306012Y0347095D01*
X0306209Y0347135D01*
X0306800Y0347530D01*
X0307195Y0348121D01*
X0307234Y0348319D01*
D02*
G37*
G36*
X0305012Y0348319D02*
X0303788Y0348319D01*
X0303828Y0348121D01*
X0304223Y0347530D01*
X0304814Y0347135D01*
X0305012Y0347095D01*
X0305012Y0348319D01*
D02*
G37*
G36*
X0283612Y0348319D02*
X0282390Y0348319D01*
X0282390Y0347095D01*
X0282587Y0347135D01*
X0283178Y0347530D01*
X0283573Y0348121D01*
X0283612Y0348319D01*
D02*
G37*
G36*
X0281390Y0348319D02*
X0280165Y0348319D01*
X0280205Y0348121D01*
X0280601Y0347530D01*
X0281192Y0347135D01*
X0281390Y0347095D01*
X0281390Y0348319D01*
D02*
G37*
G36*
X0199173Y0350393D02*
X0192086Y0350393D01*
X0192086Y0343307D01*
X0199173Y0343307D01*
X0199173Y0350393D01*
D02*
G37*
G36*
X0179551Y0346350D02*
X0176130Y0346350D01*
X0176130Y0342929D01*
X0176662Y0342999D01*
X0177623Y0343397D01*
X0178449Y0344031D01*
X0179082Y0344856D01*
X0179481Y0345818D01*
X0179551Y0346350D01*
D02*
G37*
G36*
X0175130Y0346350D02*
X0171708Y0346350D01*
X0171779Y0345818D01*
X0172177Y0344856D01*
X0172810Y0344031D01*
X0173636Y0343397D01*
X0174598Y0342999D01*
X0175130Y0342929D01*
X0175130Y0346350D01*
D02*
G37*
G36*
X0320185Y0345495D02*
X0320185Y0342074D01*
X0323606Y0342074D01*
X0323535Y0342606D01*
X0323137Y0343568D01*
X0322504Y0344394D01*
X0321678Y0345027D01*
X0320717Y0345425D01*
X0320185Y0345495D01*
D02*
G37*
G36*
X0319185Y0345495D02*
X0318653Y0345425D01*
X0317691Y0345027D01*
X0316866Y0344394D01*
X0316232Y0343568D01*
X0315834Y0342606D01*
X0315764Y0342074D01*
X0319185Y0342074D01*
X0319185Y0345495D01*
D02*
G37*
G36*
X0323606Y0341074D02*
X0320185Y0341074D01*
X0320185Y0337653D01*
X0320717Y0337723D01*
X0321678Y0338122D01*
X0322504Y0338755D01*
X0323137Y0339581D01*
X0323535Y0340542D01*
X0323606Y0341074D01*
D02*
G37*
G36*
X0319185Y0341074D02*
X0315764Y0341074D01*
X0315834Y0340542D01*
X0316232Y0339581D01*
X0316866Y0338755D01*
X0317691Y0338122D01*
X0318653Y0337723D01*
X0319185Y0337653D01*
X0319185Y0341074D01*
D02*
G37*
G36*
X0261811Y0381632D02*
X0260655Y0381480D01*
X0259578Y0381034D01*
X0258653Y0380324D01*
X0257943Y0379399D01*
X0257496Y0378321D01*
X0257344Y0377165D01*
X0257496Y0376009D01*
X0257943Y0374931D01*
X0258653Y0374006D01*
X0259578Y0373296D01*
X0260607Y0372870D01*
X0260607Y0347529D01*
X0260513Y0347388D01*
X0260406Y0346850D01*
X0260513Y0346312D01*
X0260607Y0346170D01*
X0260607Y0337507D01*
X0253171Y0330071D01*
X0253005Y0330038D01*
X0252549Y0329733D01*
X0252245Y0329277D01*
X0252138Y0328740D01*
X0252245Y0328202D01*
X0252549Y0327746D01*
X0253005Y0327442D01*
X0253542Y0327335D01*
X0254081Y0327442D01*
X0254536Y0327746D01*
X0254841Y0328202D01*
X0254874Y0328367D01*
X0262663Y0336157D01*
X0262924Y0336548D01*
X0263016Y0337008D01*
X0263016Y0337008D01*
X0263016Y0346173D01*
X0263109Y0346312D01*
X0263216Y0346850D01*
X0263109Y0347388D01*
X0263016Y0347526D01*
X0263016Y0372870D01*
X0264045Y0373296D01*
X0264970Y0374006D01*
X0265681Y0374931D01*
X0266127Y0376009D01*
X0266279Y0377165D01*
X0266127Y0378321D01*
X0265681Y0379399D01*
X0264970Y0380324D01*
X0264045Y0381034D01*
X0262968Y0381480D01*
X0261811Y0381632D01*
D02*
G37*
G36*
X0214567Y0381632D02*
X0213410Y0381480D01*
X0212333Y0381034D01*
X0211408Y0380324D01*
X0210698Y0379399D01*
X0210251Y0378321D01*
X0210099Y0377165D01*
X0210251Y0376009D01*
X0210698Y0374931D01*
X0211408Y0374006D01*
X0212333Y0373296D01*
X0213410Y0372850D01*
X0214567Y0372697D01*
X0215723Y0372850D01*
X0216752Y0373276D01*
X0248795Y0341233D01*
X0248795Y0329418D01*
X0248701Y0329277D01*
X0248595Y0328740D01*
X0248701Y0328202D01*
X0249006Y0327746D01*
X0249461Y0327442D01*
X0250000Y0327335D01*
X0250537Y0327442D01*
X0250993Y0327746D01*
X0251298Y0328202D01*
X0251405Y0328740D01*
X0251298Y0329277D01*
X0251203Y0329418D01*
X0251203Y0341732D01*
X0251112Y0342193D01*
X0250850Y0342583D01*
X0223245Y0370190D01*
X0223409Y0370732D01*
X0223532Y0370757D01*
X0224122Y0371152D01*
X0224518Y0371743D01*
X0224556Y0371941D01*
X0222834Y0371941D01*
X0222834Y0372441D01*
X0222334Y0372441D01*
X0222334Y0374163D01*
X0222136Y0374123D01*
X0221546Y0373729D01*
X0221151Y0373138D01*
X0221125Y0373015D01*
X0220583Y0372850D01*
X0218455Y0374979D01*
X0218882Y0376009D01*
X0219034Y0377165D01*
X0218882Y0378321D01*
X0218436Y0379399D01*
X0217725Y0380324D01*
X0216800Y0381034D01*
X0215723Y0381480D01*
X0214567Y0381632D01*
D02*
G37*
G36*
X0272350Y0326526D02*
X0272350Y0325303D01*
X0273573Y0325303D01*
X0273534Y0325500D01*
X0273139Y0326091D01*
X0272547Y0326486D01*
X0272350Y0326526D01*
D02*
G37*
G36*
X0271349Y0326526D02*
X0271153Y0326486D01*
X0270561Y0326091D01*
X0270166Y0325500D01*
X0270127Y0325303D01*
X0271349Y0325303D01*
X0271349Y0326526D01*
D02*
G37*
G36*
X0273573Y0324303D02*
X0272350Y0324303D01*
X0272350Y0323080D01*
X0272547Y0323119D01*
X0273139Y0323513D01*
X0273534Y0324104D01*
X0273573Y0324303D01*
D02*
G37*
G36*
X0271349Y0324303D02*
X0270127Y0324303D01*
X0270166Y0324104D01*
X0270561Y0323513D01*
X0271153Y0323119D01*
X0271349Y0323080D01*
X0271349Y0324303D01*
D02*
G37*
G36*
X0319685Y0328534D02*
X0318760Y0328412D01*
X0317898Y0328055D01*
X0317158Y0327487D01*
X0316590Y0326747D01*
X0316233Y0325885D01*
X0316111Y0324960D01*
X0316233Y0324035D01*
X0316590Y0323173D01*
X0317158Y0322433D01*
X0317898Y0321864D01*
X0318760Y0321507D01*
X0319685Y0321386D01*
X0320610Y0321507D01*
X0321472Y0321864D01*
X0322212Y0322433D01*
X0322780Y0323173D01*
X0323137Y0324035D01*
X0323259Y0324960D01*
X0323137Y0325885D01*
X0322780Y0326747D01*
X0322212Y0327487D01*
X0321472Y0328055D01*
X0320610Y0328412D01*
X0319685Y0328534D01*
D02*
G37*
G36*
X0232389Y0322589D02*
X0232389Y0321366D01*
X0233612Y0321366D01*
X0233573Y0321563D01*
X0233178Y0322154D01*
X0232587Y0322549D01*
X0232389Y0322589D01*
D02*
G37*
G36*
X0231388Y0322589D02*
X0231192Y0322549D01*
X0230601Y0322154D01*
X0230206Y0321563D01*
X0230166Y0321366D01*
X0231388Y0321366D01*
X0231388Y0322589D01*
D02*
G37*
G36*
X0323228Y0355117D02*
X0316141Y0355117D01*
X0316141Y0349734D01*
X0287689Y0321282D01*
X0282567Y0321282D01*
X0282426Y0321376D01*
X0281889Y0321483D01*
X0281352Y0321376D01*
X0280896Y0321072D01*
X0280591Y0320616D01*
X0280549Y0320401D01*
X0280048Y0320449D01*
X0280048Y0327952D01*
X0280048Y0327952D01*
X0279964Y0328378D01*
X0279723Y0328739D01*
X0272820Y0335642D01*
X0272754Y0335970D01*
X0272450Y0336426D01*
X0271994Y0336731D01*
X0271455Y0336837D01*
X0270919Y0336731D01*
X0270463Y0336426D01*
X0270158Y0335970D01*
X0270051Y0335433D01*
X0270158Y0334895D01*
X0270463Y0334439D01*
X0270919Y0334135D01*
X0271247Y0334068D01*
X0277825Y0327492D01*
X0277825Y0317126D01*
X0277825Y0317125D01*
X0277909Y0316700D01*
X0278150Y0316339D01*
X0290316Y0304174D01*
X0290316Y0304174D01*
X0290676Y0303933D01*
X0291102Y0303848D01*
X0291102Y0303848D01*
X0305083Y0303848D01*
X0305260Y0303422D01*
X0305265Y0303374D01*
X0304814Y0303258D01*
X0304223Y0302863D01*
X0303828Y0302272D01*
X0303788Y0302074D01*
X0307234Y0302074D01*
X0307195Y0302272D01*
X0306800Y0302863D01*
X0306209Y0303258D01*
X0305758Y0303374D01*
X0305763Y0303422D01*
X0305940Y0303848D01*
X0316141Y0303848D01*
X0316141Y0301417D01*
X0323228Y0301417D01*
X0323228Y0308504D01*
X0316141Y0308504D01*
X0316141Y0306072D01*
X0291563Y0306072D01*
X0280048Y0317586D01*
X0280048Y0319707D01*
X0280549Y0319756D01*
X0280591Y0319541D01*
X0280896Y0319085D01*
X0281352Y0318780D01*
X0281889Y0318673D01*
X0282426Y0318780D01*
X0282567Y0318874D01*
X0288189Y0318874D01*
X0288189Y0318874D01*
X0288650Y0318966D01*
X0289040Y0319227D01*
X0317844Y0348030D01*
X0323228Y0348030D01*
X0323228Y0355117D01*
D02*
G37*
G36*
X0252861Y0321616D02*
X0252861Y0319791D01*
X0254687Y0319791D01*
X0254602Y0320219D01*
X0254076Y0321005D01*
X0253290Y0321531D01*
X0252861Y0321616D01*
D02*
G37*
G36*
X0251862Y0321616D02*
X0251433Y0321531D01*
X0250647Y0321005D01*
X0250122Y0320219D01*
X0250037Y0319791D01*
X0251862Y0319791D01*
X0251862Y0321616D01*
D02*
G37*
G36*
X0244200Y0321616D02*
X0244200Y0319791D01*
X0246026Y0319791D01*
X0245940Y0320219D01*
X0245414Y0321005D01*
X0244627Y0321531D01*
X0244200Y0321616D01*
D02*
G37*
G36*
X0243200Y0321616D02*
X0242773Y0321531D01*
X0241986Y0321005D01*
X0241461Y0320219D01*
X0241374Y0319791D01*
X0243200Y0319791D01*
X0243200Y0321616D01*
D02*
G37*
G36*
X0233612Y0320366D02*
X0232389Y0320366D01*
X0232389Y0319143D01*
X0232587Y0319182D01*
X0233178Y0319577D01*
X0233573Y0320168D01*
X0233612Y0320366D01*
D02*
G37*
G36*
X0231388Y0320366D02*
X0230166Y0320366D01*
X0230206Y0320168D01*
X0230601Y0319577D01*
X0231192Y0319182D01*
X0231388Y0319143D01*
X0231388Y0320366D01*
D02*
G37*
G36*
X0185630Y0350424D02*
X0184705Y0350302D01*
X0183843Y0349945D01*
X0183103Y0349376D01*
X0182534Y0348637D01*
X0182178Y0347775D01*
X0182055Y0346850D01*
X0182178Y0345925D01*
X0182534Y0345063D01*
X0183103Y0344323D01*
X0183843Y0343755D01*
X0184705Y0343398D01*
X0185630Y0343276D01*
X0186555Y0343398D01*
X0187137Y0343639D01*
X0194620Y0336156D01*
X0195011Y0335895D01*
X0195472Y0335803D01*
X0226863Y0335803D01*
X0238715Y0323951D01*
X0239106Y0323690D01*
X0239567Y0323597D01*
X0255012Y0323597D01*
X0260086Y0318525D01*
X0260119Y0318359D01*
X0260423Y0317904D01*
X0260879Y0317599D01*
X0261417Y0317492D01*
X0261955Y0317599D01*
X0262410Y0317904D01*
X0262715Y0318359D01*
X0262822Y0318897D01*
X0262715Y0319435D01*
X0262410Y0319891D01*
X0261955Y0320194D01*
X0261789Y0320228D01*
X0256362Y0325654D01*
X0255972Y0325915D01*
X0255512Y0326007D01*
X0255511Y0326007D01*
X0240065Y0326007D01*
X0228213Y0337858D01*
X0227823Y0338120D01*
X0227362Y0338212D01*
X0227362Y0338212D01*
X0195971Y0338212D01*
X0188840Y0345342D01*
X0189082Y0345925D01*
X0189204Y0346850D01*
X0189082Y0347775D01*
X0188725Y0348637D01*
X0188157Y0349376D01*
X0187416Y0349945D01*
X0186555Y0350302D01*
X0185630Y0350424D01*
D02*
G37*
G36*
X0254687Y0318791D02*
X0252861Y0318791D01*
X0252861Y0316966D01*
X0253290Y0317051D01*
X0254076Y0317577D01*
X0254602Y0318363D01*
X0254687Y0318791D01*
D02*
G37*
G36*
X0251862Y0318791D02*
X0250037Y0318791D01*
X0250122Y0318363D01*
X0250647Y0317577D01*
X0251433Y0317051D01*
X0251862Y0316966D01*
X0251862Y0318791D01*
D02*
G37*
G36*
X0246026Y0318791D02*
X0244200Y0318791D01*
X0244200Y0316966D01*
X0244627Y0317051D01*
X0245414Y0317577D01*
X0245940Y0318363D01*
X0246026Y0318791D01*
D02*
G37*
G36*
X0243200Y0318791D02*
X0241374Y0318791D01*
X0241461Y0318363D01*
X0241986Y0317577D01*
X0242773Y0317051D01*
X0243200Y0316966D01*
X0243200Y0318791D01*
D02*
G37*
G36*
X0248531Y0317285D02*
X0248531Y0315460D01*
X0250355Y0315460D01*
X0250271Y0315888D01*
X0249745Y0316675D01*
X0248959Y0317200D01*
X0248531Y0317285D01*
D02*
G37*
G36*
X0247531Y0317285D02*
X0247102Y0317200D01*
X0246317Y0316675D01*
X0245791Y0315888D01*
X0245705Y0315460D01*
X0247531Y0315460D01*
X0247531Y0317285D01*
D02*
G37*
G36*
X0250355Y0314460D02*
X0248531Y0314460D01*
X0248531Y0312635D01*
X0248959Y0312720D01*
X0249745Y0313246D01*
X0250271Y0314032D01*
X0250355Y0314460D01*
D02*
G37*
G36*
X0247531Y0314460D02*
X0245705Y0314460D01*
X0245791Y0314032D01*
X0246317Y0313246D01*
X0247102Y0312720D01*
X0247531Y0312635D01*
X0247531Y0314460D01*
D02*
G37*
G36*
X0190256Y0329233D02*
X0181397Y0329233D01*
X0181397Y0320374D01*
X0190256Y0320374D01*
X0190256Y0323599D01*
X0215838Y0323599D01*
X0226228Y0313209D01*
X0226261Y0313044D01*
X0226565Y0312589D01*
X0227021Y0312283D01*
X0227558Y0312177D01*
X0228096Y0312283D01*
X0228552Y0312589D01*
X0228857Y0313044D01*
X0228964Y0313581D01*
X0228857Y0314120D01*
X0228552Y0314576D01*
X0228096Y0314880D01*
X0227931Y0314913D01*
X0217189Y0325655D01*
X0216798Y0325916D01*
X0216337Y0326008D01*
X0216337Y0326008D01*
X0190256Y0326008D01*
X0190256Y0329233D01*
D02*
G37*
G36*
X0319685Y0318534D02*
X0318760Y0318412D01*
X0317898Y0318055D01*
X0317158Y0317487D01*
X0316590Y0316747D01*
X0316233Y0315885D01*
X0316111Y0314960D01*
X0316233Y0314035D01*
X0316590Y0313173D01*
X0317158Y0312433D01*
X0317898Y0311865D01*
X0318760Y0311508D01*
X0319685Y0311386D01*
X0320610Y0311508D01*
X0321472Y0311865D01*
X0322212Y0312433D01*
X0322780Y0313173D01*
X0323137Y0314035D01*
X0323259Y0314960D01*
X0323137Y0315885D01*
X0322780Y0316747D01*
X0322212Y0317487D01*
X0321472Y0318055D01*
X0320610Y0318412D01*
X0319685Y0318534D01*
D02*
G37*
G36*
X0252861Y0312954D02*
X0252861Y0311130D01*
X0254687Y0311130D01*
X0254602Y0311557D01*
X0254076Y0312344D01*
X0253290Y0312869D01*
X0252861Y0312954D01*
D02*
G37*
G36*
X0251862Y0312954D02*
X0251433Y0312869D01*
X0250647Y0312344D01*
X0250122Y0311557D01*
X0250037Y0311130D01*
X0251862Y0311130D01*
X0251862Y0312954D01*
D02*
G37*
G36*
X0244200Y0312954D02*
X0244200Y0311130D01*
X0246026Y0311130D01*
X0245940Y0311557D01*
X0245414Y0312344D01*
X0244627Y0312869D01*
X0244200Y0312954D01*
D02*
G37*
G36*
X0243200Y0312954D02*
X0242773Y0312869D01*
X0241986Y0312344D01*
X0241461Y0311557D01*
X0241374Y0311130D01*
X0243200Y0311130D01*
X0243200Y0312954D01*
D02*
G37*
G36*
X0272350Y0311959D02*
X0272350Y0310736D01*
X0273573Y0310736D01*
X0273534Y0310933D01*
X0273139Y0311524D01*
X0272547Y0311920D01*
X0272350Y0311959D01*
D02*
G37*
G36*
X0271349Y0311959D02*
X0271153Y0311920D01*
X0270561Y0311524D01*
X0270166Y0310933D01*
X0270127Y0310736D01*
X0271349Y0310736D01*
X0271349Y0311959D01*
D02*
G37*
G36*
X0273573Y0309736D02*
X0272350Y0309736D01*
X0272350Y0308513D01*
X0272547Y0308552D01*
X0273139Y0308947D01*
X0273534Y0309538D01*
X0273573Y0309736D01*
D02*
G37*
G36*
X0271349Y0309736D02*
X0270127Y0309736D01*
X0270166Y0309538D01*
X0270561Y0308947D01*
X0271153Y0308552D01*
X0271349Y0308513D01*
X0271349Y0309736D01*
D02*
G37*
G36*
X0254687Y0310129D02*
X0252861Y0310129D01*
X0252861Y0308304D01*
X0253290Y0308390D01*
X0254076Y0308915D01*
X0254602Y0309701D01*
X0254687Y0310129D01*
D02*
G37*
G36*
X0251862Y0310129D02*
X0250037Y0310129D01*
X0250122Y0309701D01*
X0250647Y0308915D01*
X0251433Y0308390D01*
X0251862Y0308304D01*
X0251862Y0310129D01*
D02*
G37*
G36*
X0246026Y0310129D02*
X0244200Y0310129D01*
X0244200Y0308304D01*
X0244627Y0308390D01*
X0245414Y0308915D01*
X0245940Y0309701D01*
X0246026Y0310129D01*
D02*
G37*
G36*
X0243200Y0310129D02*
X0241374Y0310129D01*
X0241461Y0309701D01*
X0241986Y0308915D01*
X0242773Y0308390D01*
X0243200Y0308304D01*
X0243200Y0310129D01*
D02*
G37*
G36*
X0186326Y0309933D02*
X0186326Y0305619D01*
X0190641Y0305619D01*
X0190540Y0306382D01*
X0190053Y0307559D01*
X0189277Y0308570D01*
X0188267Y0309345D01*
X0187089Y0309833D01*
X0186326Y0309933D01*
D02*
G37*
G36*
X0185326Y0309933D02*
X0184563Y0309833D01*
X0183386Y0309345D01*
X0182375Y0308570D01*
X0181600Y0307559D01*
X0181112Y0306382D01*
X0181012Y0305619D01*
X0185326Y0305619D01*
X0185326Y0309933D01*
D02*
G37*
G36*
X0211523Y0303297D02*
X0211523Y0302074D01*
X0212746Y0302074D01*
X0212706Y0302272D01*
X0212312Y0302863D01*
X0211721Y0303258D01*
X0211523Y0303297D01*
D02*
G37*
G36*
X0210523Y0303297D02*
X0210326Y0303258D01*
X0209735Y0302863D01*
X0209340Y0302272D01*
X0209300Y0302074D01*
X0210523Y0302074D01*
X0210523Y0303297D01*
D02*
G37*
G36*
X0190641Y0304619D02*
X0186326Y0304619D01*
X0186326Y0300304D01*
X0187089Y0300405D01*
X0188267Y0300892D01*
X0189277Y0301668D01*
X0190053Y0302678D01*
X0190540Y0303856D01*
X0190641Y0304619D01*
D02*
G37*
G36*
X0185326Y0304619D02*
X0181012Y0304619D01*
X0181112Y0303856D01*
X0181600Y0302678D01*
X0182375Y0301668D01*
X0183386Y0300892D01*
X0184563Y0300405D01*
X0185326Y0300304D01*
X0185326Y0304619D01*
D02*
G37*
G36*
X0307234Y0301074D02*
X0306012Y0301074D01*
X0306012Y0299851D01*
X0306209Y0299891D01*
X0306800Y0300286D01*
X0307195Y0300877D01*
X0307234Y0301074D01*
D02*
G37*
G36*
X0305012Y0301074D02*
X0303788Y0301074D01*
X0303828Y0300877D01*
X0304223Y0300286D01*
X0304814Y0299891D01*
X0305012Y0299851D01*
X0305012Y0301074D01*
D02*
G37*
G36*
X0212746Y0301074D02*
X0211523Y0301074D01*
X0211523Y0299851D01*
X0211721Y0299891D01*
X0212312Y0300286D01*
X0212706Y0300877D01*
X0212746Y0301074D01*
D02*
G37*
G36*
X0210523Y0301074D02*
X0209300Y0301074D01*
X0209340Y0300877D01*
X0209735Y0300286D01*
X0210326Y0299891D01*
X0210523Y0299851D01*
X0210523Y0301074D01*
D02*
G37*
G36*
X0258571Y0297195D02*
X0258571Y0295972D01*
X0259794Y0295972D01*
X0259754Y0296169D01*
X0259358Y0296760D01*
X0258768Y0297156D01*
X0258571Y0297195D01*
D02*
G37*
G36*
X0257570Y0297195D02*
X0257372Y0297156D01*
X0256782Y0296760D01*
X0256387Y0296169D01*
X0256348Y0295972D01*
X0257570Y0295972D01*
X0257570Y0297195D01*
D02*
G37*
G36*
X0259794Y0294972D02*
X0258571Y0294972D01*
X0258571Y0293749D01*
X0258768Y0293787D01*
X0259358Y0294183D01*
X0259754Y0294775D01*
X0259794Y0294972D01*
D02*
G37*
G36*
X0257570Y0294972D02*
X0256348Y0294972D01*
X0256387Y0294775D01*
X0256782Y0294183D01*
X0257372Y0293787D01*
X0257570Y0293749D01*
X0257570Y0294972D01*
D02*
G37*
G36*
X0280708Y0293530D02*
X0280171Y0293424D01*
X0279715Y0293119D01*
X0279410Y0292663D01*
X0279303Y0292125D01*
X0279410Y0291588D01*
X0278977Y0291400D01*
X0278749Y0291741D01*
X0278293Y0292046D01*
X0277756Y0292152D01*
X0277218Y0292046D01*
X0276762Y0291741D01*
X0276458Y0291285D01*
X0276350Y0290748D01*
X0276458Y0290210D01*
X0276762Y0289753D01*
X0277218Y0289450D01*
X0277383Y0289417D01*
X0279069Y0287731D01*
X0279460Y0287470D01*
X0279921Y0287378D01*
X0284147Y0287378D01*
X0293353Y0278171D01*
X0293387Y0278005D01*
X0293691Y0277549D01*
X0294147Y0277245D01*
X0294685Y0277138D01*
X0295221Y0277245D01*
X0295678Y0277549D01*
X0295983Y0278005D01*
X0296089Y0278543D01*
X0295983Y0279080D01*
X0295678Y0279536D01*
X0295221Y0279841D01*
X0295057Y0279873D01*
X0285497Y0289434D01*
X0285106Y0289695D01*
X0284645Y0289786D01*
X0284645Y0289786D01*
X0280420Y0289786D01*
X0279596Y0290610D01*
X0279915Y0290998D01*
X0280171Y0290827D01*
X0280708Y0290721D01*
X0281246Y0290827D01*
X0281386Y0290921D01*
X0286205Y0290921D01*
X0286491Y0290636D01*
X0286497Y0290604D01*
X0286801Y0290147D01*
X0287257Y0289843D01*
X0287795Y0289735D01*
X0288333Y0289843D01*
X0288787Y0290147D01*
X0289093Y0290604D01*
X0289199Y0291141D01*
X0289093Y0291679D01*
X0288787Y0292135D01*
X0288333Y0292439D01*
X0288034Y0292499D01*
X0287556Y0292977D01*
X0287165Y0293238D01*
X0286704Y0293330D01*
X0286704Y0293330D01*
X0281386Y0293330D01*
X0281246Y0293424D01*
X0280708Y0293530D01*
D02*
G37*
G36*
X0281496Y0305735D02*
X0280958Y0305628D01*
X0280502Y0305324D01*
X0280198Y0304868D01*
X0280091Y0304330D01*
X0280198Y0303793D01*
X0280502Y0303337D01*
X0280958Y0303032D01*
X0281124Y0302999D01*
X0296786Y0287337D01*
X0296786Y0287337D01*
X0297177Y0287076D01*
X0297638Y0286984D01*
X0297638Y0286984D01*
X0316141Y0286984D01*
X0316141Y0284645D01*
X0323228Y0284645D01*
X0323228Y0291732D01*
X0316141Y0291732D01*
X0316141Y0289393D01*
X0298135Y0289393D01*
X0282827Y0304702D01*
X0282794Y0304868D01*
X0282488Y0305324D01*
X0282032Y0305628D01*
X0281496Y0305735D01*
D02*
G37*
G36*
X0320185Y0282109D02*
X0320185Y0278689D01*
X0323606Y0278689D01*
X0323535Y0279220D01*
X0323137Y0280182D01*
X0322504Y0281008D01*
X0321678Y0281641D01*
X0320717Y0282039D01*
X0320185Y0282109D01*
D02*
G37*
G36*
X0319185Y0282109D02*
X0318653Y0282039D01*
X0317691Y0281641D01*
X0316866Y0281008D01*
X0316232Y0280182D01*
X0315834Y0279220D01*
X0315764Y0278689D01*
X0319185Y0278689D01*
X0319185Y0282109D01*
D02*
G37*
G36*
X0199712Y0279675D02*
X0199712Y0278452D01*
X0200935Y0278452D01*
X0200896Y0278650D01*
X0200501Y0279241D01*
X0199910Y0279636D01*
X0199712Y0279675D01*
D02*
G37*
G36*
X0198712Y0279675D02*
X0198515Y0279636D01*
X0197924Y0279241D01*
X0197529Y0278650D01*
X0197489Y0278452D01*
X0198712Y0278452D01*
X0198712Y0279675D01*
D02*
G37*
G36*
X0175393Y0284676D02*
X0174468Y0284554D01*
X0173606Y0284197D01*
X0172866Y0283629D01*
X0172298Y0282889D01*
X0171941Y0282027D01*
X0171819Y0281102D01*
X0171941Y0280177D01*
X0172298Y0279315D01*
X0172866Y0278575D01*
X0173606Y0278007D01*
X0174468Y0277650D01*
X0175393Y0277528D01*
X0176318Y0277650D01*
X0177180Y0278007D01*
X0177921Y0278575D01*
X0178488Y0279315D01*
X0178845Y0280177D01*
X0178967Y0281102D01*
X0178845Y0282027D01*
X0178488Y0282889D01*
X0177921Y0283629D01*
X0177180Y0284197D01*
X0176318Y0284554D01*
X0175393Y0284676D01*
D02*
G37*
G36*
X0200935Y0277451D02*
X0199712Y0277451D01*
X0199712Y0276229D01*
X0199910Y0276269D01*
X0200501Y0276664D01*
X0200896Y0277254D01*
X0200935Y0277451D01*
D02*
G37*
G36*
X0198712Y0277451D02*
X0197489Y0277451D01*
X0197529Y0277254D01*
X0197924Y0276664D01*
X0198515Y0276269D01*
X0198712Y0276229D01*
X0198712Y0277451D01*
D02*
G37*
G36*
X0323606Y0277688D02*
X0320185Y0277688D01*
X0320185Y0274267D01*
X0320717Y0274338D01*
X0321678Y0274736D01*
X0322504Y0275369D01*
X0323137Y0276195D01*
X0323535Y0277156D01*
X0323606Y0277688D01*
D02*
G37*
G36*
X0319185Y0277688D02*
X0315764Y0277688D01*
X0315834Y0277156D01*
X0316232Y0276195D01*
X0316866Y0275369D01*
X0317691Y0274736D01*
X0318653Y0274338D01*
X0319185Y0274267D01*
X0319185Y0277688D01*
D02*
G37*
G36*
X0178937Y0274645D02*
X0171850Y0274645D01*
X0171850Y0267559D01*
X0178937Y0267559D01*
X0178937Y0274645D01*
D02*
G37*
G36*
X0287795Y0279948D02*
X0287257Y0279841D01*
X0286801Y0279536D01*
X0286497Y0279080D01*
X0286390Y0278543D01*
X0286497Y0278005D01*
X0286591Y0277865D01*
X0286591Y0267269D01*
X0283675Y0264353D01*
X0275196Y0264353D01*
X0275196Y0266692D01*
X0268110Y0266692D01*
X0268110Y0264353D01*
X0264173Y0264353D01*
X0264173Y0266692D01*
X0257085Y0266692D01*
X0257085Y0264353D01*
X0251378Y0264353D01*
X0251378Y0266692D01*
X0244291Y0266692D01*
X0244291Y0264353D01*
X0240354Y0264353D01*
X0240354Y0266692D01*
X0233266Y0266692D01*
X0233266Y0264353D01*
X0227558Y0264353D01*
X0227558Y0266692D01*
X0220472Y0266692D01*
X0220472Y0264353D01*
X0216535Y0264353D01*
X0216535Y0266692D01*
X0209448Y0266692D01*
X0209448Y0264353D01*
X0205511Y0264353D01*
X0205511Y0266692D01*
X0198425Y0266692D01*
X0198425Y0259605D01*
X0205511Y0259605D01*
X0205511Y0261945D01*
X0209448Y0261945D01*
X0209448Y0259605D01*
X0216535Y0259605D01*
X0216535Y0261945D01*
X0220472Y0261945D01*
X0220472Y0259605D01*
X0227558Y0259605D01*
X0227558Y0261945D01*
X0233266Y0261945D01*
X0233266Y0259605D01*
X0240354Y0259605D01*
X0240354Y0261945D01*
X0244291Y0261945D01*
X0244291Y0259605D01*
X0251378Y0259605D01*
X0251378Y0261945D01*
X0257085Y0261945D01*
X0257085Y0259605D01*
X0264173Y0259605D01*
X0264173Y0261945D01*
X0268110Y0261945D01*
X0268110Y0259605D01*
X0275196Y0259605D01*
X0275196Y0261945D01*
X0284174Y0261945D01*
X0284174Y0261945D01*
X0284635Y0262037D01*
X0285026Y0262298D01*
X0288646Y0265918D01*
X0288646Y0265918D01*
X0288907Y0266309D01*
X0288999Y0266770D01*
X0288999Y0277865D01*
X0289093Y0278005D01*
X0289199Y0278543D01*
X0289093Y0279080D01*
X0288787Y0279536D01*
X0288333Y0279841D01*
X0287795Y0279948D01*
D02*
G37*
G36*
X0299015Y0256691D02*
X0291929Y0256691D01*
X0291929Y0249606D01*
X0299015Y0249606D01*
X0299015Y0256691D01*
D02*
G37*
G36*
X0287992Y0256691D02*
X0280905Y0256691D01*
X0280905Y0249606D01*
X0287992Y0249606D01*
X0287992Y0256691D01*
D02*
G37*
G36*
X0271652Y0256723D02*
X0270728Y0256601D01*
X0269866Y0256244D01*
X0269126Y0255676D01*
X0268558Y0254936D01*
X0268201Y0254074D01*
X0268079Y0253148D01*
X0268201Y0252223D01*
X0268558Y0251362D01*
X0269126Y0250622D01*
X0269866Y0250054D01*
X0270728Y0249697D01*
X0271652Y0249575D01*
X0272578Y0249697D01*
X0273439Y0250054D01*
X0274180Y0250622D01*
X0274748Y0251362D01*
X0275105Y0252223D01*
X0275227Y0253148D01*
X0275105Y0254074D01*
X0274748Y0254936D01*
X0274180Y0255676D01*
X0273439Y0256244D01*
X0272578Y0256601D01*
X0271652Y0256723D01*
D02*
G37*
G36*
X0260630Y0256723D02*
X0259705Y0256601D01*
X0258842Y0256244D01*
X0258102Y0255676D01*
X0257534Y0254936D01*
X0257178Y0254074D01*
X0257056Y0253148D01*
X0257178Y0252223D01*
X0257534Y0251362D01*
X0258102Y0250622D01*
X0258842Y0250054D01*
X0259705Y0249697D01*
X0260630Y0249575D01*
X0261554Y0249697D01*
X0262416Y0250054D01*
X0263157Y0250622D01*
X0263725Y0251362D01*
X0264082Y0252223D01*
X0264203Y0253148D01*
X0264082Y0254074D01*
X0263725Y0254936D01*
X0263157Y0255676D01*
X0262416Y0256244D01*
X0261554Y0256601D01*
X0260630Y0256723D01*
D02*
G37*
G36*
X0247834Y0256723D02*
X0246909Y0256601D01*
X0246047Y0256244D01*
X0245307Y0255676D01*
X0244739Y0254936D01*
X0244382Y0254074D01*
X0244260Y0253148D01*
X0244382Y0252223D01*
X0244739Y0251362D01*
X0245307Y0250622D01*
X0246047Y0250054D01*
X0246909Y0249697D01*
X0247834Y0249575D01*
X0248759Y0249697D01*
X0249621Y0250054D01*
X0250361Y0250622D01*
X0250929Y0251362D01*
X0251286Y0252223D01*
X0251408Y0253148D01*
X0251286Y0254074D01*
X0250929Y0254936D01*
X0250361Y0255676D01*
X0249621Y0256244D01*
X0248759Y0256601D01*
X0247834Y0256723D01*
D02*
G37*
G36*
X0236811Y0256723D02*
X0235886Y0256601D01*
X0235024Y0256244D01*
X0234283Y0255676D01*
X0233716Y0254936D01*
X0233359Y0254074D01*
X0233237Y0253148D01*
X0233359Y0252223D01*
X0233716Y0251362D01*
X0234283Y0250622D01*
X0235024Y0250054D01*
X0235886Y0249697D01*
X0236811Y0249575D01*
X0237736Y0249697D01*
X0238598Y0250054D01*
X0239338Y0250622D01*
X0239906Y0251362D01*
X0240262Y0252223D01*
X0240384Y0253148D01*
X0240262Y0254074D01*
X0239906Y0254936D01*
X0239338Y0255676D01*
X0238598Y0256244D01*
X0237736Y0256601D01*
X0236811Y0256723D01*
D02*
G37*
G36*
X0224015Y0256723D02*
X0223090Y0256601D01*
X0222229Y0256244D01*
X0221488Y0255676D01*
X0220920Y0254936D01*
X0220563Y0254074D01*
X0220441Y0253148D01*
X0220563Y0252223D01*
X0220920Y0251362D01*
X0221488Y0250622D01*
X0222229Y0250054D01*
X0223090Y0249697D01*
X0224015Y0249575D01*
X0224940Y0249697D01*
X0225802Y0250054D01*
X0226542Y0250622D01*
X0227110Y0251362D01*
X0227467Y0252223D01*
X0227589Y0253148D01*
X0227467Y0254074D01*
X0227110Y0254936D01*
X0226542Y0255676D01*
X0225802Y0256244D01*
X0224940Y0256601D01*
X0224015Y0256723D01*
D02*
G37*
G36*
X0212991Y0256723D02*
X0212067Y0256601D01*
X0211205Y0256244D01*
X0210465Y0255676D01*
X0209897Y0254936D01*
X0209540Y0254074D01*
X0209418Y0253148D01*
X0209540Y0252223D01*
X0209897Y0251362D01*
X0210465Y0250622D01*
X0211205Y0250054D01*
X0212067Y0249697D01*
X0212991Y0249575D01*
X0213917Y0249697D01*
X0214779Y0250054D01*
X0215519Y0250622D01*
X0216087Y0251362D01*
X0216444Y0252223D01*
X0216566Y0253148D01*
X0216444Y0254074D01*
X0216087Y0254936D01*
X0215519Y0255676D01*
X0214779Y0256244D01*
X0213917Y0256601D01*
X0212991Y0256723D01*
D02*
G37*
G36*
X0201968Y0256723D02*
X0201043Y0256601D01*
X0200181Y0256244D01*
X0199440Y0255676D01*
X0198873Y0254936D01*
X0198516Y0254074D01*
X0198394Y0253148D01*
X0198516Y0252223D01*
X0198873Y0251362D01*
X0199440Y0250622D01*
X0200181Y0250054D01*
X0201043Y0249697D01*
X0201968Y0249575D01*
X0202893Y0249697D01*
X0203755Y0250054D01*
X0204495Y0250622D01*
X0205063Y0251362D01*
X0205419Y0252223D01*
X0205541Y0253148D01*
X0205419Y0254074D01*
X0205063Y0254936D01*
X0204495Y0255676D01*
X0203755Y0256244D01*
X0202893Y0256601D01*
X0201968Y0256723D01*
D02*
G37*
G36*
X0261130Y0247070D02*
X0261130Y0243649D01*
X0264551Y0243649D01*
X0264481Y0244180D01*
X0264082Y0245143D01*
X0263449Y0245968D01*
X0262623Y0246602D01*
X0261661Y0247000D01*
X0261130Y0247070D01*
D02*
G37*
G36*
X0248334Y0247070D02*
X0248334Y0243649D01*
X0251755Y0243649D01*
X0251684Y0244180D01*
X0251287Y0245143D01*
X0250653Y0245968D01*
X0249827Y0246602D01*
X0248866Y0247000D01*
X0248334Y0247070D01*
D02*
G37*
G36*
X0247334Y0247070D02*
X0246802Y0247000D01*
X0245841Y0246602D01*
X0245014Y0245968D01*
X0244382Y0245143D01*
X0243983Y0244180D01*
X0243913Y0243649D01*
X0247334Y0243649D01*
X0247334Y0247070D01*
D02*
G37*
G36*
X0260130Y0247070D02*
X0259598Y0247000D01*
X0258636Y0246602D01*
X0257810Y0245968D01*
X0257177Y0245143D01*
X0256779Y0244180D01*
X0256709Y0243649D01*
X0260130Y0243649D01*
X0260130Y0247070D01*
D02*
G37*
G36*
X0237311Y0247070D02*
X0237311Y0243649D01*
X0240732Y0243649D01*
X0240662Y0244180D01*
X0240262Y0245143D01*
X0239630Y0245968D01*
X0238804Y0246602D01*
X0237842Y0247000D01*
X0237311Y0247070D01*
D02*
G37*
G36*
X0224515Y0247070D02*
X0224515Y0243649D01*
X0227936Y0243649D01*
X0227866Y0244180D01*
X0227468Y0245143D01*
X0226835Y0245968D01*
X0226009Y0246602D01*
X0225047Y0247000D01*
X0224515Y0247070D01*
D02*
G37*
G36*
X0213492Y0247070D02*
X0213492Y0243649D01*
X0216913Y0243649D01*
X0216843Y0244180D01*
X0216444Y0245143D01*
X0215811Y0245968D01*
X0214984Y0246602D01*
X0214024Y0247000D01*
X0213492Y0247070D01*
D02*
G37*
G36*
X0202468Y0247070D02*
X0202468Y0243649D01*
X0205889Y0243649D01*
X0205819Y0244180D01*
X0205421Y0245143D01*
X0204787Y0245968D01*
X0203962Y0246602D01*
X0202999Y0247000D01*
X0202468Y0247070D01*
D02*
G37*
G36*
X0295972Y0247070D02*
X0295972Y0243649D01*
X0299393Y0243649D01*
X0299323Y0244180D01*
X0298925Y0245143D01*
X0298291Y0245968D01*
X0297464Y0246602D01*
X0296504Y0247000D01*
X0295972Y0247070D01*
D02*
G37*
G36*
X0284948Y0247070D02*
X0284948Y0243649D01*
X0288370Y0243649D01*
X0288300Y0244180D01*
X0287901Y0245143D01*
X0287268Y0245968D01*
X0286442Y0246602D01*
X0285479Y0247000D01*
X0284948Y0247070D01*
D02*
G37*
G36*
X0272153Y0247070D02*
X0272153Y0243649D01*
X0275574Y0243649D01*
X0275504Y0244180D01*
X0275106Y0245143D01*
X0274472Y0245968D01*
X0273647Y0246602D01*
X0272685Y0247000D01*
X0272153Y0247070D01*
D02*
G37*
G36*
X0236310Y0247070D02*
X0235779Y0247000D01*
X0234817Y0246602D01*
X0233992Y0245968D01*
X0233358Y0245143D01*
X0232960Y0244180D01*
X0232890Y0243649D01*
X0236310Y0243649D01*
X0236310Y0247070D01*
D02*
G37*
G36*
X0223515Y0247070D02*
X0222983Y0247000D01*
X0222022Y0246602D01*
X0221196Y0245968D01*
X0220563Y0245143D01*
X0220163Y0244180D01*
X0220094Y0243649D01*
X0223515Y0243649D01*
X0223515Y0247070D01*
D02*
G37*
G36*
X0212492Y0247070D02*
X0211960Y0247000D01*
X0210998Y0246602D01*
X0210173Y0245968D01*
X0209539Y0245143D01*
X0209141Y0244180D01*
X0209071Y0243649D01*
X0212492Y0243649D01*
X0212492Y0247070D01*
D02*
G37*
G36*
X0201467Y0247070D02*
X0200936Y0247000D01*
X0199975Y0246602D01*
X0199149Y0245968D01*
X0198516Y0245143D01*
X0198117Y0244180D01*
X0198047Y0243649D01*
X0201467Y0243649D01*
X0201467Y0247070D01*
D02*
G37*
G36*
X0294972Y0247070D02*
X0294440Y0247000D01*
X0293479Y0246602D01*
X0292653Y0245968D01*
X0292019Y0245143D01*
X0291621Y0244180D01*
X0291551Y0243649D01*
X0294972Y0243649D01*
X0294972Y0247070D01*
D02*
G37*
G36*
X0283947Y0247070D02*
X0283417Y0247000D01*
X0282455Y0246602D01*
X0281629Y0245968D01*
X0280996Y0245143D01*
X0280598Y0244180D01*
X0280526Y0243649D01*
X0283947Y0243649D01*
X0283947Y0247070D01*
D02*
G37*
G36*
X0271153Y0247070D02*
X0270621Y0247000D01*
X0269660Y0246602D01*
X0268834Y0245968D01*
X0268200Y0245143D01*
X0267802Y0244180D01*
X0267731Y0243649D01*
X0271153Y0243649D01*
X0271153Y0247070D01*
D02*
G37*
G36*
X0264551Y0242648D02*
X0261130Y0242648D01*
X0261130Y0239228D01*
X0261661Y0239298D01*
X0262623Y0239696D01*
X0263449Y0240330D01*
X0264082Y0241156D01*
X0264481Y0242117D01*
X0264551Y0242648D01*
D02*
G37*
G36*
X0251755Y0242648D02*
X0248334Y0242648D01*
X0248334Y0239228D01*
X0248866Y0239298D01*
X0249827Y0239696D01*
X0250653Y0240330D01*
X0251287Y0241156D01*
X0251684Y0242117D01*
X0251755Y0242648D01*
D02*
G37*
G36*
X0227936Y0242648D02*
X0224515Y0242648D01*
X0224515Y0239228D01*
X0225047Y0239298D01*
X0226009Y0239696D01*
X0226835Y0240330D01*
X0227468Y0241156D01*
X0227866Y0242117D01*
X0227936Y0242648D01*
D02*
G37*
G36*
X0205889Y0242648D02*
X0202468Y0242648D01*
X0202468Y0239228D01*
X0202999Y0239298D01*
X0203962Y0239696D01*
X0204787Y0240330D01*
X0205421Y0241156D01*
X0205819Y0242117D01*
X0205889Y0242648D01*
D02*
G37*
G36*
X0299393Y0242648D02*
X0295972Y0242648D01*
X0295972Y0239228D01*
X0296504Y0239298D01*
X0297464Y0239696D01*
X0298291Y0240330D01*
X0298925Y0241156D01*
X0299323Y0242117D01*
X0299393Y0242648D01*
D02*
G37*
G36*
X0288370Y0242648D02*
X0284948Y0242648D01*
X0284948Y0239228D01*
X0285479Y0239298D01*
X0286442Y0239696D01*
X0287268Y0240330D01*
X0287901Y0241156D01*
X0288300Y0242117D01*
X0288370Y0242648D01*
D02*
G37*
G36*
X0275574Y0242648D02*
X0272153Y0242648D01*
X0272153Y0239228D01*
X0272685Y0239298D01*
X0273647Y0239696D01*
X0274472Y0240330D01*
X0275106Y0241156D01*
X0275504Y0242117D01*
X0275574Y0242648D01*
D02*
G37*
G36*
X0240732Y0242648D02*
X0237311Y0242648D01*
X0237311Y0239228D01*
X0237842Y0239298D01*
X0238804Y0239696D01*
X0239630Y0240330D01*
X0240262Y0241156D01*
X0240662Y0242117D01*
X0240732Y0242648D01*
D02*
G37*
G36*
X0216913Y0242648D02*
X0213492Y0242648D01*
X0213492Y0239228D01*
X0214024Y0239298D01*
X0214984Y0239696D01*
X0215811Y0240330D01*
X0216444Y0241156D01*
X0216843Y0242117D01*
X0216913Y0242648D01*
D02*
G37*
G36*
X0236310Y0242648D02*
X0232890Y0242648D01*
X0232960Y0242117D01*
X0233358Y0241156D01*
X0233992Y0240330D01*
X0234817Y0239696D01*
X0235779Y0239298D01*
X0236310Y0239228D01*
X0236310Y0242648D01*
D02*
G37*
G36*
X0212492Y0242648D02*
X0209071Y0242648D01*
X0209141Y0242117D01*
X0209539Y0241156D01*
X0210173Y0240330D01*
X0210998Y0239696D01*
X0211960Y0239298D01*
X0212492Y0239228D01*
X0212492Y0242648D01*
D02*
G37*
G36*
X0294972Y0242648D02*
X0291551Y0242648D01*
X0291621Y0242117D01*
X0292019Y0241156D01*
X0292653Y0240330D01*
X0293479Y0239696D01*
X0294440Y0239298D01*
X0294972Y0239228D01*
X0294972Y0242648D01*
D02*
G37*
G36*
X0283947Y0242648D02*
X0280526Y0242648D01*
X0280598Y0242117D01*
X0280996Y0241156D01*
X0281629Y0240330D01*
X0282455Y0239696D01*
X0283417Y0239298D01*
X0283947Y0239228D01*
X0283947Y0242648D01*
D02*
G37*
G36*
X0271153Y0242648D02*
X0267731Y0242648D01*
X0267802Y0242117D01*
X0268200Y0241156D01*
X0268834Y0240330D01*
X0269660Y0239696D01*
X0270621Y0239298D01*
X0271153Y0239228D01*
X0271153Y0242648D01*
D02*
G37*
G36*
X0223515Y0242648D02*
X0220094Y0242648D01*
X0220163Y0242117D01*
X0220563Y0241156D01*
X0221196Y0240330D01*
X0222022Y0239696D01*
X0222983Y0239298D01*
X0223515Y0239228D01*
X0223515Y0242648D01*
D02*
G37*
G36*
X0201467Y0242648D02*
X0198047Y0242648D01*
X0198117Y0242117D01*
X0198516Y0241156D01*
X0199149Y0240330D01*
X0199975Y0239696D01*
X0200936Y0239298D01*
X0201467Y0239228D01*
X0201467Y0242648D01*
D02*
G37*
G36*
X0260130Y0242648D02*
X0256709Y0242648D01*
X0256779Y0242117D01*
X0257177Y0241156D01*
X0257810Y0240330D01*
X0258636Y0239696D01*
X0259598Y0239298D01*
X0260130Y0239228D01*
X0260130Y0242648D01*
D02*
G37*
G36*
X0247334Y0242648D02*
X0243913Y0242648D01*
X0243983Y0242117D01*
X0244382Y0241156D01*
X0245014Y0240330D01*
X0245841Y0239696D01*
X0246802Y0239298D01*
X0247334Y0239228D01*
X0247334Y0242648D01*
D02*
G37*
G36*
X0314960Y0258496D02*
X0313323Y0258368D01*
X0311726Y0257984D01*
X0310209Y0257356D01*
X0308809Y0256497D01*
X0307560Y0255431D01*
X0306494Y0254182D01*
X0305636Y0252781D01*
X0305007Y0251264D01*
X0304624Y0249668D01*
X0304495Y0248030D01*
X0304624Y0246394D01*
X0305007Y0244797D01*
X0305636Y0243279D01*
X0306494Y0241880D01*
X0307560Y0240631D01*
X0308809Y0239564D01*
X0310209Y0238706D01*
X0311726Y0238078D01*
X0313323Y0237693D01*
X0314960Y0237566D01*
X0316597Y0237693D01*
X0318194Y0238078D01*
X0319711Y0238706D01*
X0321112Y0239564D01*
X0322360Y0240631D01*
X0323427Y0241880D01*
X0324285Y0243279D01*
X0324913Y0244797D01*
X0325297Y0246394D01*
X0325426Y0248030D01*
X0325297Y0249668D01*
X0324913Y0251264D01*
X0324285Y0252781D01*
X0323427Y0254182D01*
X0322360Y0255431D01*
X0321112Y0256497D01*
X0319711Y0257356D01*
X0318194Y0257984D01*
X0316597Y0258368D01*
X0314960Y0258496D01*
D02*
G37*
G36*
X0181102Y0258496D02*
X0179465Y0258368D01*
X0177868Y0257984D01*
X0176351Y0257356D01*
X0174950Y0256497D01*
X0173701Y0255431D01*
X0172635Y0254182D01*
X0171777Y0252781D01*
X0171149Y0251264D01*
X0170765Y0249668D01*
X0170637Y0248030D01*
X0170765Y0246394D01*
X0171149Y0244797D01*
X0171777Y0243279D01*
X0172635Y0241880D01*
X0173701Y0240631D01*
X0174950Y0239564D01*
X0176351Y0238706D01*
X0177868Y0238078D01*
X0179465Y0237693D01*
X0181102Y0237566D01*
X0182739Y0237693D01*
X0184336Y0238078D01*
X0185852Y0238706D01*
X0187253Y0239564D01*
X0188502Y0240631D01*
X0189569Y0241880D01*
X0190427Y0243279D01*
X0191055Y0244797D01*
X0191439Y0246394D01*
X0191567Y0248030D01*
X0191439Y0249668D01*
X0191055Y0251264D01*
X0190427Y0252781D01*
X0189569Y0254182D01*
X0188502Y0255431D01*
X0187253Y0256497D01*
X0185852Y0257356D01*
X0184336Y0257984D01*
X0182739Y0258368D01*
X0181102Y0258496D01*
D02*
G37*
%LPD*%
D58*
X0278937Y0317125D02*
X0291102Y0304959D01*
X0278937Y0317125D02*
X0278937Y0327952D01*
X0271455Y0335433D02*
X0278937Y0327952D01*
X0291102Y0304959D02*
X0319685Y0304959D01*
D59*
X0231889Y0320865D02*
X0233463Y0319291D01*
X0243701Y0319291D01*
X0271775Y0309175D02*
X0271775Y0310160D01*
X0271849Y0310236D01*
X0258070Y0295472D02*
X0271775Y0309175D01*
X0271849Y0310236D02*
X0271849Y0324803D01*
X0297638Y0288188D02*
X0319685Y0288188D01*
X0281496Y0304330D02*
X0297638Y0288188D01*
X0239567Y0324803D02*
X0255512Y0324803D01*
X0261417Y0318897D01*
X0227362Y0337007D02*
X0239567Y0324803D01*
X0185630Y0346850D02*
X0195472Y0337007D01*
X0227362Y0337007D01*
X0261811Y0337008D02*
X0261811Y0377165D01*
X0284174Y0263149D02*
X0287795Y0266770D01*
X0287795Y0278543D01*
X0271652Y0263149D02*
X0284174Y0263149D01*
X0247834Y0263149D02*
X0260630Y0263149D01*
X0236811Y0263149D02*
X0247834Y0263149D01*
X0224015Y0263149D02*
X0236811Y0263149D01*
X0212991Y0263149D02*
X0224015Y0263149D01*
X0201968Y0263149D02*
X0212991Y0263149D01*
X0260630Y0263149D02*
X0271652Y0263149D01*
X0284645Y0288582D02*
X0294685Y0278543D01*
X0279921Y0288582D02*
X0284645Y0288582D01*
X0253542Y0328740D02*
X0253542Y0328740D01*
X0261811Y0337008D01*
X0250000Y0328740D02*
X0250000Y0341732D01*
X0214567Y0377165D02*
X0250000Y0341732D01*
X0216337Y0324804D02*
X0227558Y0313581D01*
X0185826Y0324804D02*
X0216337Y0324804D01*
X0277756Y0290748D02*
X0279921Y0288582D01*
X0280708Y0292125D02*
X0286704Y0292125D01*
X0287688Y0291141D01*
X0287795Y0291141D01*
X0288189Y0320077D02*
X0319685Y0351574D01*
X0281889Y0320077D02*
X0288189Y0320077D01*
D60*
X0175393Y0271101D02*
D03*
X0224015Y0263149D02*
D03*
X0212991Y0263149D02*
D03*
X0201968Y0263149D02*
D03*
X0295472Y0253148D02*
D03*
X0247834Y0263149D02*
D03*
X0284448Y0253148D02*
D03*
X0236811Y0263149D02*
D03*
X0260630Y0263149D02*
D03*
X0271652Y0263149D02*
D03*
X0319685Y0304959D02*
D03*
X0319685Y0288188D02*
D03*
X0319685Y0351574D02*
D03*
D61*
X0175393Y0281102D02*
D03*
X0185630Y0346850D02*
D03*
X0175630Y0346850D02*
D03*
X0224015Y0253148D02*
D03*
X0224015Y0243149D02*
D03*
X0212991Y0253148D02*
D03*
X0212991Y0243149D02*
D03*
X0201968Y0253148D02*
D03*
X0201968Y0243149D02*
D03*
X0295472Y0243149D02*
D03*
X0247834Y0253148D02*
D03*
X0247834Y0243149D02*
D03*
X0284448Y0243149D02*
D03*
X0236811Y0253148D02*
D03*
X0236811Y0243149D02*
D03*
X0260630Y0253148D02*
D03*
X0260630Y0243149D02*
D03*
X0271652Y0253148D02*
D03*
X0271652Y0243149D02*
D03*
X0319685Y0324960D02*
D03*
X0319685Y0314960D02*
D03*
X0319685Y0278189D02*
D03*
X0319685Y0341574D02*
D03*
D62*
X0195630Y0346850D02*
D03*
D63*
X0185826Y0305119D02*
D03*
X0261811Y0377165D02*
D03*
X0214567Y0377165D02*
D03*
D64*
X0185826Y0324804D02*
D03*
D65*
X0281497Y0377165D02*
D03*
X0234252Y0377165D02*
D03*
D66*
X0181102Y0248030D02*
D03*
X0314960Y0381889D02*
D03*
X0181102Y0381889D02*
D03*
X0314960Y0248030D02*
D03*
D67*
X0305512Y0348818D02*
D03*
X0305512Y0301574D02*
D03*
X0293700Y0372441D02*
D03*
X0281890Y0348818D02*
D03*
X0270078Y0372441D02*
D03*
X0222834Y0372441D02*
D03*
X0211023Y0301574D02*
D03*
X0199212Y0372441D02*
D03*
X0199212Y0277952D02*
D03*
X0231889Y0320865D02*
D03*
X0258070Y0295472D02*
D03*
X0271849Y0324803D02*
D03*
X0271849Y0310236D02*
D03*
X0281496Y0304330D02*
D03*
X0261417Y0318897D02*
D03*
X0271455Y0335433D02*
D03*
X0261811Y0346850D02*
D03*
X0287795Y0278543D02*
D03*
X0294685Y0278543D02*
D03*
X0253542Y0328740D02*
D03*
X0250000Y0328740D02*
D03*
X0227558Y0313581D02*
D03*
X0287795Y0291141D02*
D03*
X0277756Y0290748D02*
D03*
X0280708Y0292125D02*
D03*
X0281889Y0320077D02*
D03*
D68*
X0252362Y0319291D02*
D03*
X0252362Y0310630D02*
D03*
X0248030Y0314960D02*
D03*
X0243701Y0319291D02*
D03*
X0243701Y0310630D02*
D03*
G04 next file*
G04*
G04 #@! TF.GenerationSoftware,Altium Limited,Altium Designer,21.7.2 (23)*
G04*
G04 Layer_Physical_Order=2*
G04 Layer_Color=16711680*
G04 skipping 70
G04*
G04 #@! TF.SameCoordinates,3D67BF19-0A55-4891-8FEB-F4BE30BF2CF6*
G04*
G04*
G04 #@! TF.FilePolarity,Positive*
G04*
G01*
G75*
G36*
X0157480Y0066929D02*
X0000000Y0066929D01*
X0000000Y0224409D01*
X0157480Y0224409D01*
X0157480Y0066929D01*
D02*
G37*
%LPC*%
G36*
X0117043Y0212712D02*
X0112706Y0212712D01*
X0112706Y0208374D01*
X0117043Y0208374D01*
X0117043Y0212712D01*
D02*
G37*
G36*
X0111706Y0212712D02*
X0107366Y0212712D01*
X0107366Y0208374D01*
X0111706Y0208374D01*
X0111706Y0212712D01*
D02*
G37*
G36*
X0069799Y0212712D02*
X0065461Y0212712D01*
X0065461Y0208374D01*
X0069799Y0208374D01*
X0069799Y0212712D01*
D02*
G37*
G36*
X0064461Y0212712D02*
X0060122Y0212712D01*
X0060122Y0208374D01*
X0064461Y0208374D01*
X0064461Y0212712D01*
D02*
G37*
G36*
X0124909Y0204872D02*
X0124909Y0203650D01*
X0126131Y0203650D01*
X0126093Y0203846D01*
X0125698Y0204438D01*
X0125106Y0204833D01*
X0124909Y0204872D01*
D02*
G37*
G36*
X0123909Y0204872D02*
X0123712Y0204833D01*
X0123120Y0204438D01*
X0122726Y0203846D01*
X0122686Y0203650D01*
X0123909Y0203650D01*
X0123909Y0204872D01*
D02*
G37*
G36*
X0101287Y0204872D02*
X0101287Y0203650D01*
X0102509Y0203650D01*
X0102471Y0203846D01*
X0102075Y0204438D01*
X0101485Y0204833D01*
X0101287Y0204872D01*
D02*
G37*
G36*
X0100287Y0204872D02*
X0100089Y0204833D01*
X0099499Y0204438D01*
X0099104Y0203846D01*
X0099064Y0203650D01*
X0100287Y0203650D01*
X0100287Y0204872D01*
D02*
G37*
G36*
X0054043Y0204872D02*
X0054043Y0203650D01*
X0055266Y0203650D01*
X0055227Y0203846D01*
X0054832Y0204438D01*
X0054240Y0204833D01*
X0054043Y0204872D01*
D02*
G37*
G36*
X0030420Y0204872D02*
X0030420Y0203650D01*
X0031644Y0203650D01*
X0031604Y0203846D01*
X0031210Y0204438D01*
X0030619Y0204833D01*
X0030420Y0204872D01*
D02*
G37*
G36*
X0029421Y0204872D02*
X0029224Y0204833D01*
X0028632Y0204438D01*
X0028238Y0203846D01*
X0028198Y0203650D01*
X0029421Y0203650D01*
X0029421Y0204872D01*
D02*
G37*
G36*
X0117043Y0207374D02*
X0112706Y0207374D01*
X0112706Y0203035D01*
X0117043Y0203035D01*
X0117043Y0207374D01*
D02*
G37*
G36*
X0111706Y0207374D02*
X0107366Y0207374D01*
X0107366Y0203035D01*
X0111706Y0203035D01*
X0111706Y0207374D01*
D02*
G37*
G36*
X0069799Y0207374D02*
X0065461Y0207374D01*
X0065461Y0203035D01*
X0069799Y0203035D01*
X0069799Y0207374D01*
D02*
G37*
G36*
X0064461Y0207374D02*
X0060122Y0207374D01*
X0060122Y0203035D01*
X0064461Y0203035D01*
X0064461Y0207374D01*
D02*
G37*
G36*
X0145669Y0223064D02*
X0144032Y0222935D01*
X0142435Y0222551D01*
X0140918Y0221923D01*
X0139518Y0221064D01*
X0138269Y0219998D01*
X0137203Y0218750D01*
X0136345Y0217349D01*
X0135716Y0215831D01*
X0135333Y0214235D01*
X0135204Y0212598D01*
X0135333Y0210961D01*
X0135716Y0209364D01*
X0136345Y0207846D01*
X0137203Y0206447D01*
X0138269Y0205198D01*
X0139518Y0204131D01*
X0140918Y0203274D01*
X0142435Y0202645D01*
X0144032Y0202262D01*
X0145669Y0202132D01*
X0147306Y0202262D01*
X0148903Y0202645D01*
X0150420Y0203274D01*
X0151821Y0204131D01*
X0153069Y0205198D01*
X0154135Y0206447D01*
X0154994Y0207846D01*
X0155622Y0209364D01*
X0156006Y0210961D01*
X0156135Y0212598D01*
X0156006Y0214235D01*
X0155622Y0215831D01*
X0154994Y0217349D01*
X0154135Y0218750D01*
X0153069Y0219998D01*
X0151821Y0221064D01*
X0150420Y0221923D01*
X0148903Y0222551D01*
X0147306Y0222935D01*
X0145669Y0223064D01*
D02*
G37*
G36*
X0011811Y0223064D02*
X0010174Y0222935D01*
X0008577Y0222551D01*
X0007060Y0221923D01*
X0005660Y0221064D01*
X0004411Y0219998D01*
X0003343Y0218750D01*
X0002486Y0217349D01*
X0001858Y0215831D01*
X0001474Y0214235D01*
X0001346Y0212598D01*
X0001474Y0210961D01*
X0001858Y0209364D01*
X0002486Y0207846D01*
X0003343Y0206447D01*
X0004411Y0205198D01*
X0005660Y0204131D01*
X0007060Y0203274D01*
X0008577Y0202645D01*
X0010174Y0202262D01*
X0011811Y0202132D01*
X0013447Y0202262D01*
X0015045Y0202645D01*
X0016562Y0203274D01*
X0017962Y0204131D01*
X0019211Y0205198D01*
X0020278Y0206447D01*
X0021135Y0207846D01*
X0021764Y0209364D01*
X0022148Y0210961D01*
X0022276Y0212598D01*
X0022148Y0214235D01*
X0021764Y0215831D01*
X0021135Y0217349D01*
X0020278Y0218750D01*
X0019211Y0219998D01*
X0017962Y0221064D01*
X0016562Y0221923D01*
X0015045Y0222551D01*
X0013447Y0222935D01*
X0011811Y0223064D01*
D02*
G37*
G36*
X0126131Y0202650D02*
X0124909Y0202650D01*
X0124909Y0201426D01*
X0125106Y0201466D01*
X0125698Y0201860D01*
X0126093Y0202452D01*
X0126131Y0202650D01*
D02*
G37*
G36*
X0123909Y0202650D02*
X0122686Y0202650D01*
X0122726Y0202452D01*
X0123120Y0201860D01*
X0123712Y0201466D01*
X0123909Y0201426D01*
X0123909Y0202650D01*
D02*
G37*
G36*
X0102509Y0202650D02*
X0101287Y0202650D01*
X0101287Y0201426D01*
X0101485Y0201466D01*
X0102075Y0201860D01*
X0102471Y0202452D01*
X0102509Y0202650D01*
D02*
G37*
G36*
X0100287Y0202650D02*
X0099064Y0202650D01*
X0099104Y0202452D01*
X0099499Y0201860D01*
X0100089Y0201466D01*
X0100287Y0201426D01*
X0100287Y0202650D01*
D02*
G37*
G36*
X0031644Y0202650D02*
X0030420Y0202650D01*
X0030420Y0201426D01*
X0030619Y0201466D01*
X0031210Y0201860D01*
X0031604Y0202452D01*
X0031644Y0202650D01*
D02*
G37*
G36*
X0029421Y0202650D02*
X0028198Y0202650D01*
X0028238Y0202452D01*
X0028632Y0201860D01*
X0029224Y0201466D01*
X0029421Y0201426D01*
X0029421Y0202650D01*
D02*
G37*
G36*
X0136721Y0181249D02*
X0136721Y0180028D01*
X0137943Y0180028D01*
X0137904Y0180224D01*
X0137509Y0180815D01*
X0136918Y0181211D01*
X0136721Y0181249D01*
D02*
G37*
G36*
X0135721Y0181249D02*
X0135523Y0181211D01*
X0134932Y0180815D01*
X0134536Y0180224D01*
X0134496Y0180028D01*
X0135721Y0180028D01*
X0135721Y0181249D01*
D02*
G37*
G36*
X0113099Y0181249D02*
X0113099Y0180028D01*
X0114321Y0180028D01*
X0114282Y0180224D01*
X0113887Y0180815D01*
X0113296Y0181211D01*
X0113099Y0181249D01*
D02*
G37*
G36*
X0112099Y0181249D02*
X0111901Y0181211D01*
X0111310Y0180815D01*
X0110915Y0180224D01*
X0110874Y0180028D01*
X0112099Y0180028D01*
X0112099Y0181249D01*
D02*
G37*
G36*
X0006839Y0181480D02*
X0006839Y0178059D01*
X0010260Y0178059D01*
X0010190Y0178591D01*
X0009791Y0179552D01*
X0009158Y0180378D01*
X0008332Y0181012D01*
X0007371Y0181410D01*
X0006839Y0181480D01*
D02*
G37*
G36*
X0005839Y0181480D02*
X0005307Y0181410D01*
X0004345Y0181012D01*
X0003519Y0180378D01*
X0002885Y0179552D01*
X0002488Y0178591D01*
X0002417Y0178059D01*
X0005839Y0178059D01*
X0005839Y0181480D01*
D02*
G37*
G36*
X0137943Y0179028D02*
X0136721Y0179028D01*
X0136721Y0177804D01*
X0136918Y0177844D01*
X0137509Y0178238D01*
X0137904Y0178829D01*
X0137943Y0179028D01*
D02*
G37*
G36*
X0135721Y0179028D02*
X0134496Y0179028D01*
X0134536Y0178829D01*
X0134932Y0178238D01*
X0135523Y0177844D01*
X0135721Y0177804D01*
X0135721Y0179028D01*
D02*
G37*
G36*
X0114321Y0179028D02*
X0113099Y0179028D01*
X0113099Y0177804D01*
X0113296Y0177844D01*
X0113887Y0178238D01*
X0114282Y0178829D01*
X0114321Y0179028D01*
D02*
G37*
G36*
X0112099Y0179028D02*
X0110874Y0179028D01*
X0110915Y0178829D01*
X0111310Y0178238D01*
X0111901Y0177844D01*
X0112099Y0177804D01*
X0112099Y0179028D01*
D02*
G37*
G36*
X0029881Y0181102D02*
X0022795Y0181102D01*
X0022795Y0174016D01*
X0029881Y0174016D01*
X0029881Y0181102D01*
D02*
G37*
G36*
X0010260Y0177059D02*
X0006839Y0177059D01*
X0006839Y0173638D01*
X0007371Y0173708D01*
X0008332Y0174106D01*
X0009158Y0174740D01*
X0009791Y0175565D01*
X0010190Y0176527D01*
X0010260Y0177059D01*
D02*
G37*
G36*
X0005839Y0177059D02*
X0002417Y0177059D01*
X0002488Y0176527D01*
X0002885Y0175565D01*
X0003519Y0174740D01*
X0004345Y0174106D01*
X0005307Y0173708D01*
X0005839Y0173638D01*
X0005839Y0177059D01*
D02*
G37*
G36*
X0150894Y0176203D02*
X0150894Y0172783D01*
X0154315Y0172783D01*
X0154245Y0173315D01*
X0153846Y0174277D01*
X0153213Y0175103D01*
X0152387Y0175736D01*
X0151426Y0176134D01*
X0150894Y0176203D01*
D02*
G37*
G36*
X0149893Y0176203D02*
X0149362Y0176134D01*
X0148400Y0175736D01*
X0147575Y0175103D01*
X0146941Y0174277D01*
X0146543Y0173315D01*
X0146473Y0172783D01*
X0149893Y0172783D01*
X0149893Y0176203D01*
D02*
G37*
G36*
X0154315Y0171783D02*
X0150894Y0171783D01*
X0150894Y0168361D01*
X0151426Y0168432D01*
X0152387Y0168830D01*
X0153213Y0169464D01*
X0153846Y0170290D01*
X0154245Y0171252D01*
X0154315Y0171783D01*
D02*
G37*
G36*
X0149893Y0171783D02*
X0146473Y0171783D01*
X0146543Y0171252D01*
X0146941Y0170290D01*
X0147575Y0169464D01*
X0148400Y0168830D01*
X0149362Y0168432D01*
X0149893Y0168361D01*
X0149893Y0171783D01*
D02*
G37*
G36*
X0092521Y0212340D02*
X0091364Y0212189D01*
X0090287Y0211743D01*
X0089362Y0211032D01*
X0088652Y0210108D01*
X0088204Y0209030D01*
X0088053Y0207873D01*
X0088204Y0206718D01*
X0088652Y0205640D01*
X0089362Y0204714D01*
X0090287Y0204005D01*
X0091316Y0203579D01*
X0091316Y0178238D01*
X0091222Y0178097D01*
X0091115Y0177558D01*
X0091222Y0177020D01*
X0091316Y0176879D01*
X0091316Y0168216D01*
X0083880Y0160780D01*
X0083714Y0160747D01*
X0083258Y0160441D01*
X0082954Y0159986D01*
X0082847Y0159449D01*
X0082954Y0158911D01*
X0083258Y0158455D01*
X0083714Y0158151D01*
X0084252Y0158044D01*
X0084790Y0158151D01*
X0085245Y0158455D01*
X0085550Y0158911D01*
X0085583Y0159076D01*
X0093372Y0166866D01*
X0093633Y0167256D01*
X0093725Y0167717D01*
X0093725Y0167717D01*
X0093725Y0176882D01*
X0093818Y0177020D01*
X0093924Y0177558D01*
X0093818Y0178097D01*
X0093725Y0178235D01*
X0093725Y0203579D01*
X0094754Y0204005D01*
X0095679Y0204714D01*
X0096390Y0205640D01*
X0096836Y0206718D01*
X0096988Y0207873D01*
X0096836Y0209030D01*
X0096390Y0210108D01*
X0095679Y0211032D01*
X0094754Y0211743D01*
X0093677Y0212189D01*
X0092521Y0212340D01*
D02*
G37*
G36*
X0045276Y0212340D02*
X0044119Y0212189D01*
X0043042Y0211743D01*
X0042116Y0211032D01*
X0041407Y0210108D01*
X0040960Y0209030D01*
X0040808Y0207873D01*
X0040960Y0206718D01*
X0041407Y0205640D01*
X0042116Y0204714D01*
X0043042Y0204005D01*
X0044119Y0203559D01*
X0045276Y0203406D01*
X0046432Y0203559D01*
X0047461Y0203985D01*
X0079504Y0171941D01*
X0079504Y0160127D01*
X0079411Y0159986D01*
X0079304Y0159449D01*
X0079411Y0158911D01*
X0079715Y0158455D01*
X0080169Y0158151D01*
X0080709Y0158044D01*
X0081246Y0158151D01*
X0081702Y0158455D01*
X0082007Y0158911D01*
X0082113Y0159449D01*
X0082007Y0159986D01*
X0081913Y0160127D01*
X0081913Y0172441D01*
X0081821Y0172902D01*
X0081560Y0173292D01*
X0053954Y0200898D01*
X0054118Y0201440D01*
X0054240Y0201466D01*
X0054832Y0201860D01*
X0055227Y0202452D01*
X0055266Y0202650D01*
X0053542Y0202650D01*
X0053542Y0203150D01*
X0053042Y0203150D01*
X0053042Y0204872D01*
X0052846Y0204833D01*
X0052254Y0204438D01*
X0051859Y0203846D01*
X0051835Y0203724D01*
X0051293Y0203560D01*
X0049164Y0205688D01*
X0049591Y0206718D01*
X0049743Y0207873D01*
X0049591Y0209030D01*
X0049145Y0210108D01*
X0048434Y0211032D01*
X0047509Y0211743D01*
X0046432Y0212189D01*
X0045276Y0212340D01*
D02*
G37*
G36*
X0103058Y0157235D02*
X0103058Y0156012D01*
X0104282Y0156012D01*
X0104243Y0156209D01*
X0103848Y0156800D01*
X0103255Y0157195D01*
X0103058Y0157235D01*
D02*
G37*
G36*
X0102059Y0157235D02*
X0101862Y0157195D01*
X0101270Y0156800D01*
X0100875Y0156209D01*
X0100835Y0156012D01*
X0102059Y0156012D01*
X0102059Y0157235D01*
D02*
G37*
G36*
X0104282Y0155012D02*
X0103058Y0155012D01*
X0103058Y0153789D01*
X0103255Y0153828D01*
X0103848Y0154223D01*
X0104243Y0154814D01*
X0104282Y0155012D01*
D02*
G37*
G36*
X0102059Y0155012D02*
X0100835Y0155012D01*
X0100875Y0154814D01*
X0101270Y0154223D01*
X0101862Y0153828D01*
X0102059Y0153789D01*
X0102059Y0155012D01*
D02*
G37*
G36*
X0150393Y0159243D02*
X0149469Y0159121D01*
X0148607Y0158764D01*
X0147867Y0158196D01*
X0147299Y0157456D01*
X0146942Y0156594D01*
X0146820Y0155669D01*
X0146942Y0154744D01*
X0147299Y0153882D01*
X0147867Y0153141D01*
X0148607Y0152574D01*
X0149469Y0152217D01*
X0150393Y0152095D01*
X0151319Y0152217D01*
X0152181Y0152574D01*
X0152921Y0153141D01*
X0153489Y0153882D01*
X0153846Y0154744D01*
X0153967Y0155669D01*
X0153846Y0156594D01*
X0153489Y0157456D01*
X0152921Y0158196D01*
X0152181Y0158764D01*
X0151319Y0159121D01*
X0150393Y0159243D01*
D02*
G37*
G36*
X0063098Y0153298D02*
X0063098Y0152075D01*
X0064320Y0152075D01*
X0064281Y0152272D01*
X0063887Y0152862D01*
X0063296Y0153258D01*
X0063098Y0153298D01*
D02*
G37*
G36*
X0062098Y0153298D02*
X0061900Y0153258D01*
X0061310Y0152862D01*
X0060915Y0152272D01*
X0060875Y0152075D01*
X0062098Y0152075D01*
X0062098Y0153298D01*
D02*
G37*
G36*
X0153936Y0185827D02*
X0146850Y0185827D01*
X0146850Y0180443D01*
X0118399Y0151991D01*
X0113276Y0151991D01*
X0113135Y0152085D01*
X0112598Y0152192D01*
X0112061Y0152085D01*
X0111605Y0151781D01*
X0111300Y0151325D01*
X0111257Y0151110D01*
X0110758Y0151159D01*
X0110758Y0158661D01*
X0110758Y0158661D01*
X0110673Y0159087D01*
X0110432Y0159447D01*
X0103529Y0166351D01*
X0103463Y0166678D01*
X0103159Y0167135D01*
X0102703Y0167440D01*
X0102165Y0167547D01*
X0101628Y0167440D01*
X0101172Y0167135D01*
X0100867Y0166678D01*
X0100760Y0166142D01*
X0100867Y0165604D01*
X0101172Y0165148D01*
X0101628Y0164844D01*
X0101956Y0164778D01*
X0108534Y0158201D01*
X0108534Y0147835D01*
X0108534Y0147834D01*
X0108617Y0147409D01*
X0108859Y0147048D01*
X0121025Y0134883D01*
X0121025Y0134883D01*
X0121386Y0134642D01*
X0121811Y0134557D01*
X0121811Y0134557D01*
X0135792Y0134557D01*
X0135969Y0134131D01*
X0135974Y0134082D01*
X0135523Y0133967D01*
X0134932Y0133572D01*
X0134536Y0132981D01*
X0134496Y0132782D01*
X0137943Y0132782D01*
X0137904Y0132981D01*
X0137509Y0133572D01*
X0136918Y0133967D01*
X0136467Y0134082D01*
X0136471Y0134131D01*
X0136648Y0134557D01*
X0146850Y0134557D01*
X0146850Y0132126D01*
X0153936Y0132126D01*
X0153936Y0139213D01*
X0146850Y0139213D01*
X0146850Y0136781D01*
X0122272Y0136781D01*
X0110758Y0148295D01*
X0110758Y0150416D01*
X0111257Y0150464D01*
X0111300Y0150250D01*
X0111605Y0149793D01*
X0112061Y0149489D01*
X0112598Y0149382D01*
X0113135Y0149489D01*
X0113276Y0149583D01*
X0118897Y0149583D01*
X0118897Y0149583D01*
X0119359Y0149675D01*
X0119749Y0149936D01*
X0148553Y0178740D01*
X0153936Y0178740D01*
X0153936Y0185827D01*
D02*
G37*
G36*
X0083570Y0152324D02*
X0083570Y0150500D01*
X0085396Y0150500D01*
X0085311Y0150927D01*
X0084785Y0151713D01*
X0083999Y0152240D01*
X0083570Y0152324D01*
D02*
G37*
G36*
X0082571Y0152324D02*
X0082143Y0152240D01*
X0081357Y0151713D01*
X0080830Y0150927D01*
X0080746Y0150500D01*
X0082571Y0150500D01*
X0082571Y0152324D01*
D02*
G37*
G36*
X0074910Y0152324D02*
X0074910Y0150500D01*
X0076735Y0150500D01*
X0076649Y0150927D01*
X0076124Y0151713D01*
X0075337Y0152240D01*
X0074910Y0152324D01*
D02*
G37*
G36*
X0073909Y0152324D02*
X0073482Y0152240D01*
X0072695Y0151713D01*
X0072170Y0150927D01*
X0072082Y0150500D01*
X0073909Y0150500D01*
X0073909Y0152324D01*
D02*
G37*
G36*
X0064320Y0151075D02*
X0063098Y0151075D01*
X0063098Y0149852D01*
X0063296Y0149891D01*
X0063887Y0150286D01*
X0064281Y0150876D01*
X0064320Y0151075D01*
D02*
G37*
G36*
X0062098Y0151075D02*
X0060875Y0151075D01*
X0060915Y0150876D01*
X0061310Y0150286D01*
X0061900Y0149891D01*
X0062098Y0149852D01*
X0062098Y0151075D01*
D02*
G37*
G36*
X0016339Y0181133D02*
X0015414Y0181011D01*
X0014552Y0180654D01*
X0013812Y0180086D01*
X0013243Y0179346D01*
X0012887Y0178484D01*
X0012765Y0177558D01*
X0012887Y0176634D01*
X0013243Y0175772D01*
X0013812Y0175032D01*
X0014552Y0174464D01*
X0015414Y0174107D01*
X0016339Y0173985D01*
X0017264Y0174107D01*
X0017846Y0174348D01*
X0025330Y0166864D01*
X0025720Y0166604D01*
X0026181Y0166512D01*
X0057572Y0166512D01*
X0069424Y0154660D01*
X0069815Y0154399D01*
X0070276Y0154307D01*
X0085722Y0154307D01*
X0090795Y0149233D01*
X0090828Y0149067D01*
X0091130Y0148613D01*
X0091588Y0148308D01*
X0092126Y0148201D01*
X0092664Y0148308D01*
X0093119Y0148613D01*
X0093424Y0149067D01*
X0093530Y0149606D01*
X0093424Y0150144D01*
X0093119Y0150600D01*
X0092664Y0150904D01*
X0092498Y0150937D01*
X0087072Y0156363D01*
X0086681Y0156624D01*
X0086221Y0156716D01*
X0086220Y0156716D01*
X0070774Y0156716D01*
X0058922Y0168568D01*
X0058531Y0168829D01*
X0058070Y0168921D01*
X0058070Y0168921D01*
X0026679Y0168921D01*
X0019549Y0176051D01*
X0019791Y0176634D01*
X0019913Y0177558D01*
X0019791Y0178484D01*
X0019434Y0179346D01*
X0018865Y0180086D01*
X0018125Y0180654D01*
X0017264Y0181011D01*
X0016339Y0181133D01*
D02*
G37*
G36*
X0085396Y0149500D02*
X0083570Y0149500D01*
X0083570Y0147675D01*
X0083999Y0147760D01*
X0084785Y0148286D01*
X0085311Y0149072D01*
X0085396Y0149500D01*
D02*
G37*
G36*
X0082571Y0149500D02*
X0080746Y0149500D01*
X0080830Y0149072D01*
X0081357Y0148286D01*
X0082143Y0147760D01*
X0082571Y0147675D01*
X0082571Y0149500D01*
D02*
G37*
G36*
X0076735Y0149500D02*
X0074910Y0149500D01*
X0074910Y0147675D01*
X0075337Y0147760D01*
X0076124Y0148286D01*
X0076649Y0149072D01*
X0076735Y0149500D01*
D02*
G37*
G36*
X0073909Y0149500D02*
X0072082Y0149500D01*
X0072170Y0149072D01*
X0072695Y0148286D01*
X0073482Y0147760D01*
X0073909Y0147675D01*
X0073909Y0149500D01*
D02*
G37*
G36*
X0079240Y0147993D02*
X0079240Y0146169D01*
X0081065Y0146169D01*
X0080980Y0146596D01*
X0080455Y0147384D01*
X0079668Y0147909D01*
X0079240Y0147993D01*
D02*
G37*
G36*
X0078240Y0147993D02*
X0077812Y0147909D01*
X0077026Y0147384D01*
X0076500Y0146596D01*
X0076415Y0146169D01*
X0078240Y0146169D01*
X0078240Y0147993D01*
D02*
G37*
G36*
X0081065Y0145168D02*
X0079240Y0145168D01*
X0079240Y0143344D01*
X0079668Y0143429D01*
X0080455Y0143955D01*
X0080980Y0144741D01*
X0081065Y0145168D01*
D02*
G37*
G36*
X0078240Y0145168D02*
X0076415Y0145168D01*
X0076500Y0144741D01*
X0077026Y0143955D01*
X0077812Y0143429D01*
X0078240Y0143344D01*
X0078240Y0145168D01*
D02*
G37*
G36*
X0020965Y0159942D02*
X0012106Y0159942D01*
X0012106Y0151082D01*
X0020965Y0151082D01*
X0020965Y0154308D01*
X0046547Y0154308D01*
X0056937Y0143919D01*
X0056970Y0143753D01*
X0057274Y0143298D01*
X0057730Y0142993D01*
X0058268Y0142886D01*
X0058804Y0142993D01*
X0059261Y0143298D01*
X0059566Y0143753D01*
X0059673Y0144291D01*
X0059566Y0144829D01*
X0059261Y0145285D01*
X0058804Y0145589D01*
X0058640Y0145622D01*
X0047897Y0156364D01*
X0047507Y0156625D01*
X0047046Y0156717D01*
X0047046Y0156717D01*
X0020965Y0156717D01*
X0020965Y0159942D01*
D02*
G37*
G36*
X0150393Y0149242D02*
X0149469Y0149121D01*
X0148607Y0148764D01*
X0147867Y0148196D01*
X0147299Y0147456D01*
X0146942Y0146594D01*
X0146820Y0145669D01*
X0146942Y0144744D01*
X0147299Y0143882D01*
X0147867Y0143142D01*
X0148607Y0142573D01*
X0149469Y0142217D01*
X0150393Y0142095D01*
X0151319Y0142217D01*
X0152181Y0142573D01*
X0152921Y0143142D01*
X0153489Y0143882D01*
X0153846Y0144744D01*
X0153967Y0145669D01*
X0153846Y0146594D01*
X0153489Y0147456D01*
X0152921Y0148196D01*
X0152181Y0148764D01*
X0151319Y0149121D01*
X0150393Y0149242D01*
D02*
G37*
G36*
X0083570Y0143664D02*
X0083570Y0141839D01*
X0085396Y0141839D01*
X0085311Y0142266D01*
X0084785Y0143053D01*
X0083999Y0143578D01*
X0083570Y0143664D01*
D02*
G37*
G36*
X0082571Y0143664D02*
X0082143Y0143578D01*
X0081357Y0143053D01*
X0080830Y0142266D01*
X0080746Y0141839D01*
X0082571Y0141839D01*
X0082571Y0143664D01*
D02*
G37*
G36*
X0074910Y0143664D02*
X0074910Y0141839D01*
X0076735Y0141839D01*
X0076649Y0142266D01*
X0076124Y0143053D01*
X0075337Y0143578D01*
X0074910Y0143664D01*
D02*
G37*
G36*
X0073909Y0143664D02*
X0073482Y0143578D01*
X0072695Y0143053D01*
X0072170Y0142266D01*
X0072082Y0141839D01*
X0073909Y0141839D01*
X0073909Y0143664D01*
D02*
G37*
G36*
X0103058Y0142668D02*
X0103058Y0141445D01*
X0104282Y0141445D01*
X0104243Y0141642D01*
X0103848Y0142233D01*
X0103255Y0142629D01*
X0103058Y0142668D01*
D02*
G37*
G36*
X0102059Y0142668D02*
X0101862Y0142629D01*
X0101270Y0142233D01*
X0100875Y0141642D01*
X0100835Y0141445D01*
X0102059Y0141445D01*
X0102059Y0142668D01*
D02*
G37*
G36*
X0104282Y0140445D02*
X0103058Y0140445D01*
X0103058Y0139222D01*
X0103255Y0139261D01*
X0103848Y0139656D01*
X0104243Y0140247D01*
X0104282Y0140445D01*
D02*
G37*
G36*
X0102059Y0140445D02*
X0100835Y0140445D01*
X0100875Y0140247D01*
X0101270Y0139656D01*
X0101862Y0139261D01*
X0102059Y0139222D01*
X0102059Y0140445D01*
D02*
G37*
G36*
X0085396Y0140838D02*
X0083570Y0140838D01*
X0083570Y0139013D01*
X0083999Y0139099D01*
X0084785Y0139624D01*
X0085311Y0140410D01*
X0085396Y0140838D01*
D02*
G37*
G36*
X0082571Y0140838D02*
X0080746Y0140838D01*
X0080830Y0140410D01*
X0081357Y0139624D01*
X0082143Y0139099D01*
X0082571Y0139013D01*
X0082571Y0140838D01*
D02*
G37*
G36*
X0076735Y0140838D02*
X0074910Y0140838D01*
X0074910Y0139013D01*
X0075337Y0139099D01*
X0076124Y0139624D01*
X0076649Y0140410D01*
X0076735Y0140838D01*
D02*
G37*
G36*
X0073909Y0140838D02*
X0072082Y0140838D01*
X0072170Y0140410D01*
X0072695Y0139624D01*
X0073482Y0139099D01*
X0073909Y0139013D01*
X0073909Y0140838D01*
D02*
G37*
G36*
X0017035Y0140642D02*
X0017035Y0136327D01*
X0021350Y0136327D01*
X0021249Y0137091D01*
X0020762Y0138268D01*
X0019986Y0139279D01*
X0018976Y0140054D01*
X0017798Y0140542D01*
X0017035Y0140642D01*
D02*
G37*
G36*
X0016035Y0140642D02*
X0015272Y0140542D01*
X0014095Y0140054D01*
X0013084Y0139279D01*
X0012309Y0138268D01*
X0011821Y0137091D01*
X0011720Y0136327D01*
X0016035Y0136327D01*
X0016035Y0140642D01*
D02*
G37*
G36*
X0042232Y0134006D02*
X0042232Y0132782D01*
X0043455Y0132782D01*
X0043416Y0132981D01*
X0043021Y0133572D01*
X0042430Y0133967D01*
X0042232Y0134006D01*
D02*
G37*
G36*
X0041232Y0134006D02*
X0041035Y0133967D01*
X0040444Y0133572D01*
X0040048Y0132981D01*
X0040009Y0132782D01*
X0041232Y0132782D01*
X0041232Y0134006D01*
D02*
G37*
G36*
X0021350Y0135328D02*
X0017035Y0135328D01*
X0017035Y0131013D01*
X0017798Y0131114D01*
X0018976Y0131600D01*
X0019986Y0132377D01*
X0020762Y0133387D01*
X0021249Y0134565D01*
X0021350Y0135328D01*
D02*
G37*
G36*
X0016035Y0135328D02*
X0011720Y0135328D01*
X0011821Y0134565D01*
X0012309Y0133387D01*
X0013084Y0132377D01*
X0014095Y0131600D01*
X0015272Y0131114D01*
X0016035Y0131013D01*
X0016035Y0135328D01*
D02*
G37*
G36*
X0137943Y0131783D02*
X0136721Y0131783D01*
X0136721Y0130559D01*
X0136918Y0130599D01*
X0137509Y0130995D01*
X0137904Y0131586D01*
X0137943Y0131783D01*
D02*
G37*
G36*
X0135721Y0131783D02*
X0134496Y0131783D01*
X0134536Y0131586D01*
X0134932Y0130995D01*
X0135523Y0130599D01*
X0135721Y0130559D01*
X0135721Y0131783D01*
D02*
G37*
G36*
X0043455Y0131783D02*
X0042232Y0131783D01*
X0042232Y0130559D01*
X0042430Y0130599D01*
X0043021Y0130995D01*
X0043416Y0131586D01*
X0043455Y0131783D01*
D02*
G37*
G36*
X0041232Y0131783D02*
X0040009Y0131783D01*
X0040048Y0131586D01*
X0040444Y0130995D01*
X0041035Y0130599D01*
X0041232Y0130559D01*
X0041232Y0131783D01*
D02*
G37*
G36*
X0089280Y0127904D02*
X0089280Y0126681D01*
X0090503Y0126681D01*
X0090463Y0126878D01*
X0090068Y0127470D01*
X0089477Y0127865D01*
X0089280Y0127904D01*
D02*
G37*
G36*
X0088279Y0127904D02*
X0088082Y0127865D01*
X0087490Y0127470D01*
X0087096Y0126878D01*
X0087056Y0126681D01*
X0088279Y0126681D01*
X0088279Y0127904D01*
D02*
G37*
G36*
X0090503Y0125681D02*
X0089280Y0125681D01*
X0089280Y0124458D01*
X0089477Y0124496D01*
X0090068Y0124892D01*
X0090463Y0125484D01*
X0090503Y0125681D01*
D02*
G37*
G36*
X0088279Y0125681D02*
X0087056Y0125681D01*
X0087096Y0125484D01*
X0087490Y0124892D01*
X0088082Y0124496D01*
X0088279Y0124458D01*
X0088279Y0125681D01*
D02*
G37*
G36*
X0111417Y0124239D02*
X0110880Y0124133D01*
X0110424Y0123828D01*
X0110118Y0123372D01*
X0110012Y0122834D01*
X0110118Y0122296D01*
X0109686Y0122109D01*
X0109458Y0122449D01*
X0109002Y0122754D01*
X0108464Y0122861D01*
X0107927Y0122754D01*
X0107471Y0122449D01*
X0107166Y0121994D01*
X0107060Y0121457D01*
X0107166Y0120919D01*
X0107471Y0120463D01*
X0107927Y0120159D01*
X0108092Y0120126D01*
X0109778Y0118439D01*
X0110169Y0118178D01*
X0110630Y0118087D01*
X0114856Y0118087D01*
X0124062Y0108880D01*
X0124096Y0108714D01*
X0124400Y0108258D01*
X0124855Y0107954D01*
X0125394Y0107847D01*
X0125931Y0107954D01*
X0126387Y0108258D01*
X0126692Y0108714D01*
X0126799Y0109252D01*
X0126692Y0109789D01*
X0126387Y0110245D01*
X0125931Y0110549D01*
X0125766Y0110583D01*
X0116206Y0120143D01*
X0115815Y0120404D01*
X0115354Y0120495D01*
X0115354Y0120495D01*
X0111128Y0120495D01*
X0110305Y0121319D01*
X0110623Y0121707D01*
X0110880Y0121536D01*
X0111417Y0121430D01*
X0111955Y0121536D01*
X0112094Y0121630D01*
X0116914Y0121630D01*
X0117200Y0121344D01*
X0117206Y0121313D01*
X0117510Y0120856D01*
X0117966Y0120551D01*
X0118504Y0120445D01*
X0119042Y0120551D01*
X0119497Y0120856D01*
X0119802Y0121313D01*
X0119909Y0121849D01*
X0119802Y0122388D01*
X0119497Y0122844D01*
X0119042Y0123147D01*
X0118743Y0123208D01*
X0118265Y0123686D01*
X0117873Y0123947D01*
X0117412Y0124039D01*
X0117412Y0124039D01*
X0112094Y0124039D01*
X0111955Y0124133D01*
X0111417Y0124239D01*
D02*
G37*
G36*
X0112205Y0136444D02*
X0111667Y0136336D01*
X0111211Y0136033D01*
X0110907Y0135577D01*
X0110800Y0135039D01*
X0110907Y0134502D01*
X0111211Y0134046D01*
X0111667Y0133741D01*
X0111833Y0133708D01*
X0127495Y0118046D01*
X0127495Y0118046D01*
X0127886Y0117785D01*
X0128347Y0117693D01*
X0128347Y0117693D01*
X0146850Y0117693D01*
X0146850Y0115354D01*
X0153936Y0115354D01*
X0153936Y0122441D01*
X0146850Y0122441D01*
X0146850Y0120102D01*
X0128845Y0120102D01*
X0113535Y0135411D01*
X0113503Y0135577D01*
X0113198Y0136033D01*
X0112742Y0136336D01*
X0112205Y0136444D01*
D02*
G37*
G36*
X0150894Y0112818D02*
X0150894Y0109398D01*
X0154315Y0109398D01*
X0154245Y0109929D01*
X0153846Y0110891D01*
X0153213Y0111717D01*
X0152387Y0112350D01*
X0151426Y0112749D01*
X0150894Y0112818D01*
D02*
G37*
G36*
X0149893Y0112818D02*
X0149362Y0112749D01*
X0148400Y0112350D01*
X0147575Y0111717D01*
X0146941Y0110891D01*
X0146543Y0109929D01*
X0146473Y0109398D01*
X0149893Y0109398D01*
X0149893Y0112818D01*
D02*
G37*
G36*
X0030420Y0110384D02*
X0030420Y0109161D01*
X0031644Y0109161D01*
X0031604Y0109359D01*
X0031210Y0109949D01*
X0030619Y0110345D01*
X0030420Y0110384D01*
D02*
G37*
G36*
X0029421Y0110384D02*
X0029224Y0110345D01*
X0028632Y0109949D01*
X0028238Y0109359D01*
X0028198Y0109161D01*
X0029421Y0109161D01*
X0029421Y0110384D01*
D02*
G37*
G36*
X0006102Y0115385D02*
X0005177Y0115263D01*
X0004315Y0114906D01*
X0003574Y0114338D01*
X0003007Y0113598D01*
X0002650Y0112735D01*
X0002528Y0111811D01*
X0002650Y0110886D01*
X0003007Y0110024D01*
X0003574Y0109284D01*
X0004315Y0108715D01*
X0005177Y0108359D01*
X0006102Y0108237D01*
X0007027Y0108359D01*
X0007889Y0108715D01*
X0008630Y0109284D01*
X0009197Y0110024D01*
X0009554Y0110886D01*
X0009676Y0111811D01*
X0009554Y0112735D01*
X0009197Y0113598D01*
X0008630Y0114338D01*
X0007889Y0114906D01*
X0007027Y0115263D01*
X0006102Y0115385D01*
D02*
G37*
G36*
X0031644Y0108161D02*
X0030420Y0108161D01*
X0030420Y0106938D01*
X0030619Y0106978D01*
X0031210Y0107373D01*
X0031604Y0107964D01*
X0031644Y0108161D01*
D02*
G37*
G36*
X0029421Y0108161D02*
X0028198Y0108161D01*
X0028238Y0107964D01*
X0028632Y0107373D01*
X0029224Y0106978D01*
X0029421Y0106938D01*
X0029421Y0108161D01*
D02*
G37*
G36*
X0154315Y0108398D02*
X0150894Y0108398D01*
X0150894Y0104977D01*
X0151426Y0105047D01*
X0152387Y0105445D01*
X0153213Y0106078D01*
X0153846Y0106904D01*
X0154245Y0107866D01*
X0154315Y0108398D01*
D02*
G37*
G36*
X0149893Y0108398D02*
X0146473Y0108398D01*
X0146543Y0107866D01*
X0146941Y0106904D01*
X0147575Y0106078D01*
X0148400Y0105445D01*
X0149362Y0105047D01*
X0149893Y0104977D01*
X0149893Y0108398D01*
D02*
G37*
G36*
X0009646Y0105353D02*
X0002559Y0105353D01*
X0002559Y0098268D01*
X0009646Y0098268D01*
X0009646Y0105353D01*
D02*
G37*
G36*
X0118504Y0110657D02*
X0117966Y0110549D01*
X0117510Y0110245D01*
X0117206Y0109789D01*
X0117099Y0109252D01*
X0117206Y0108714D01*
X0117300Y0108574D01*
X0117300Y0097978D01*
X0114384Y0095061D01*
X0105905Y0095061D01*
X0105905Y0097401D01*
X0098819Y0097401D01*
X0098819Y0095061D01*
X0094882Y0095061D01*
X0094882Y0097401D01*
X0087795Y0097401D01*
X0087795Y0095061D01*
X0082087Y0095061D01*
X0082087Y0097401D01*
X0074999Y0097401D01*
X0074999Y0095061D01*
X0071063Y0095061D01*
X0071063Y0097401D01*
X0063975Y0097401D01*
X0063975Y0095061D01*
X0058268Y0095061D01*
X0058268Y0097401D01*
X0051181Y0097401D01*
X0051181Y0095061D01*
X0047244Y0095061D01*
X0047244Y0097401D01*
X0040156Y0097401D01*
X0040156Y0095061D01*
X0036220Y0095061D01*
X0036220Y0097401D01*
X0029134Y0097401D01*
X0029134Y0090314D01*
X0036220Y0090314D01*
X0036220Y0092654D01*
X0040156Y0092654D01*
X0040156Y0090314D01*
X0047244Y0090314D01*
X0047244Y0092654D01*
X0051181Y0092654D01*
X0051181Y0090314D01*
X0058268Y0090314D01*
X0058268Y0092654D01*
X0063975Y0092654D01*
X0063975Y0090314D01*
X0071063Y0090314D01*
X0071063Y0092654D01*
X0074999Y0092654D01*
X0074999Y0090314D01*
X0082087Y0090314D01*
X0082087Y0092654D01*
X0087795Y0092654D01*
X0087795Y0090314D01*
X0094882Y0090314D01*
X0094882Y0092654D01*
X0098819Y0092654D01*
X0098819Y0090314D01*
X0105905Y0090314D01*
X0105905Y0092654D01*
X0114883Y0092654D01*
X0114883Y0092654D01*
X0115344Y0092746D01*
X0115735Y0093007D01*
X0119355Y0096627D01*
X0119355Y0096627D01*
X0119615Y0097018D01*
X0119707Y0097479D01*
X0119707Y0108574D01*
X0119802Y0108714D01*
X0119909Y0109252D01*
X0119802Y0109789D01*
X0119497Y0110245D01*
X0119042Y0110549D01*
X0118504Y0110657D01*
D02*
G37*
G36*
X0129724Y0087401D02*
X0122638Y0087401D01*
X0122638Y0080314D01*
X0129724Y0080314D01*
X0129724Y0087401D01*
D02*
G37*
G36*
X0118700Y0087401D02*
X0111613Y0087401D01*
X0111613Y0080314D01*
X0118700Y0080314D01*
X0118700Y0087401D01*
D02*
G37*
G36*
X0102362Y0087432D02*
X0101437Y0087310D01*
X0100574Y0086953D01*
X0099835Y0086384D01*
X0099267Y0085645D01*
X0098910Y0084783D01*
X0098788Y0083858D01*
X0098910Y0082933D01*
X0099267Y0082071D01*
X0099835Y0081331D01*
X0100574Y0080763D01*
X0101437Y0080406D01*
X0102362Y0080283D01*
X0103287Y0080406D01*
X0104149Y0080763D01*
X0104889Y0081331D01*
X0105457Y0082071D01*
X0105814Y0082933D01*
X0105936Y0083858D01*
X0105814Y0084783D01*
X0105457Y0085645D01*
X0104889Y0086384D01*
X0104149Y0086953D01*
X0103287Y0087310D01*
X0102362Y0087432D01*
D02*
G37*
G36*
X0091337Y0087432D02*
X0090414Y0087310D01*
X0089552Y0086953D01*
X0088811Y0086384D01*
X0088244Y0085645D01*
X0087887Y0084783D01*
X0087765Y0083858D01*
X0087887Y0082933D01*
X0088244Y0082071D01*
X0088811Y0081331D01*
X0089552Y0080763D01*
X0090414Y0080406D01*
X0091337Y0080283D01*
X0092264Y0080406D01*
X0093125Y0080763D01*
X0093866Y0081331D01*
X0094434Y0082071D01*
X0094791Y0082933D01*
X0094912Y0083858D01*
X0094791Y0084783D01*
X0094434Y0085645D01*
X0093866Y0086384D01*
X0093125Y0086953D01*
X0092264Y0087310D01*
X0091337Y0087432D01*
D02*
G37*
G36*
X0078543Y0087432D02*
X0077618Y0087310D01*
X0076756Y0086953D01*
X0076016Y0086384D01*
X0075448Y0085645D01*
X0075091Y0084783D01*
X0074969Y0083858D01*
X0075091Y0082933D01*
X0075448Y0082071D01*
X0076016Y0081331D01*
X0076756Y0080763D01*
X0077618Y0080406D01*
X0078543Y0080283D01*
X0079468Y0080406D01*
X0080330Y0080763D01*
X0081070Y0081331D01*
X0081637Y0082071D01*
X0081995Y0082933D01*
X0082117Y0083858D01*
X0081995Y0084783D01*
X0081637Y0085645D01*
X0081070Y0086384D01*
X0080330Y0086953D01*
X0079468Y0087310D01*
X0078543Y0087432D01*
D02*
G37*
G36*
X0067520Y0087432D02*
X0066595Y0087310D01*
X0065732Y0086953D01*
X0064993Y0086384D01*
X0064425Y0085645D01*
X0064068Y0084783D01*
X0063946Y0083858D01*
X0064068Y0082933D01*
X0064425Y0082071D01*
X0064993Y0081331D01*
X0065732Y0080763D01*
X0066595Y0080406D01*
X0067520Y0080283D01*
X0068445Y0080406D01*
X0069307Y0080763D01*
X0070046Y0081331D01*
X0070615Y0082071D01*
X0070972Y0082933D01*
X0071094Y0083858D01*
X0070972Y0084783D01*
X0070615Y0085645D01*
X0070046Y0086384D01*
X0069307Y0086953D01*
X0068445Y0087310D01*
X0067520Y0087432D01*
D02*
G37*
G36*
X0054723Y0087432D02*
X0053799Y0087310D01*
X0052937Y0086953D01*
X0052197Y0086384D01*
X0051629Y0085645D01*
X0051271Y0084783D01*
X0051151Y0083858D01*
X0051271Y0082933D01*
X0051629Y0082071D01*
X0052197Y0081331D01*
X0052937Y0080763D01*
X0053799Y0080406D01*
X0054723Y0080283D01*
X0055649Y0080406D01*
X0056511Y0080763D01*
X0057252Y0081331D01*
X0057819Y0082071D01*
X0058176Y0082933D01*
X0058298Y0083858D01*
X0058176Y0084783D01*
X0057819Y0085645D01*
X0057252Y0086384D01*
X0056511Y0086953D01*
X0055649Y0087310D01*
X0054723Y0087432D01*
D02*
G37*
G36*
X0043701Y0087432D02*
X0042776Y0087310D01*
X0041914Y0086953D01*
X0041174Y0086384D01*
X0040606Y0085645D01*
X0040249Y0084783D01*
X0040127Y0083858D01*
X0040249Y0082933D01*
X0040606Y0082071D01*
X0041174Y0081331D01*
X0041914Y0080763D01*
X0042776Y0080406D01*
X0043701Y0080283D01*
X0044626Y0080406D01*
X0045488Y0080763D01*
X0046228Y0081331D01*
X0046796Y0082071D01*
X0047153Y0082933D01*
X0047275Y0083858D01*
X0047153Y0084783D01*
X0046796Y0085645D01*
X0046228Y0086384D01*
X0045488Y0086953D01*
X0044626Y0087310D01*
X0043701Y0087432D01*
D02*
G37*
G36*
X0032677Y0087432D02*
X0031752Y0087310D01*
X0030890Y0086953D01*
X0030150Y0086384D01*
X0029582Y0085645D01*
X0029225Y0084783D01*
X0029103Y0083858D01*
X0029225Y0082933D01*
X0029582Y0082071D01*
X0030150Y0081331D01*
X0030890Y0080763D01*
X0031752Y0080406D01*
X0032677Y0080283D01*
X0033602Y0080406D01*
X0034464Y0080763D01*
X0035204Y0081331D01*
X0035772Y0082071D01*
X0036129Y0082933D01*
X0036251Y0083858D01*
X0036129Y0084783D01*
X0035772Y0085645D01*
X0035204Y0086384D01*
X0034464Y0086953D01*
X0033602Y0087310D01*
X0032677Y0087432D01*
D02*
G37*
G36*
X0091839Y0077779D02*
X0091839Y0074358D01*
X0095260Y0074358D01*
X0095190Y0074890D01*
X0094791Y0075852D01*
X0094158Y0076677D01*
X0093332Y0077311D01*
X0092370Y0077709D01*
X0091839Y0077779D01*
D02*
G37*
G36*
X0079043Y0077779D02*
X0079043Y0074358D01*
X0082464Y0074358D01*
X0082393Y0074890D01*
X0081996Y0075852D01*
X0081362Y0076677D01*
X0080537Y0077311D01*
X0079575Y0077709D01*
X0079043Y0077779D01*
D02*
G37*
G36*
X0078043Y0077779D02*
X0077511Y0077709D01*
X0076549Y0077311D01*
X0075722Y0076677D01*
X0075091Y0075852D01*
X0074692Y0074890D01*
X0074622Y0074358D01*
X0078043Y0074358D01*
X0078043Y0077779D01*
D02*
G37*
G36*
X0090839Y0077779D02*
X0090307Y0077709D01*
X0089345Y0077311D01*
X0088519Y0076677D01*
X0087886Y0075852D01*
X0087488Y0074890D01*
X0087417Y0074358D01*
X0090839Y0074358D01*
X0090839Y0077779D01*
D02*
G37*
G36*
X0068019Y0077779D02*
X0068019Y0074358D01*
X0071441Y0074358D01*
X0071371Y0074890D01*
X0070972Y0075852D01*
X0070339Y0076677D01*
X0069513Y0077311D01*
X0068552Y0077709D01*
X0068019Y0077779D01*
D02*
G37*
G36*
X0055223Y0077779D02*
X0055223Y0074358D01*
X0058645Y0074358D01*
X0058575Y0074890D01*
X0058177Y0075852D01*
X0057543Y0076677D01*
X0056718Y0077311D01*
X0055755Y0077709D01*
X0055223Y0077779D01*
D02*
G37*
G36*
X0044200Y0077779D02*
X0044200Y0074358D01*
X0047622Y0074358D01*
X0047552Y0074890D01*
X0047153Y0075852D01*
X0046520Y0076677D01*
X0045694Y0077311D01*
X0044733Y0077709D01*
X0044200Y0077779D01*
D02*
G37*
G36*
X0033176Y0077779D02*
X0033176Y0074358D01*
X0036598Y0074358D01*
X0036528Y0074890D01*
X0036130Y0075852D01*
X0035496Y0076677D01*
X0034671Y0077311D01*
X0033709Y0077709D01*
X0033176Y0077779D01*
D02*
G37*
G36*
X0126681Y0077779D02*
X0126681Y0074358D01*
X0130102Y0074358D01*
X0130030Y0074890D01*
X0129634Y0075852D01*
X0129000Y0076677D01*
X0128174Y0077311D01*
X0127213Y0077709D01*
X0126681Y0077779D01*
D02*
G37*
G36*
X0115657Y0077779D02*
X0115657Y0074358D01*
X0119079Y0074358D01*
X0119009Y0074890D01*
X0118610Y0075852D01*
X0117977Y0076677D01*
X0117151Y0077311D01*
X0116189Y0077709D01*
X0115657Y0077779D01*
D02*
G37*
G36*
X0102862Y0077779D02*
X0102862Y0074358D01*
X0106283Y0074358D01*
X0106213Y0074890D01*
X0105814Y0075852D01*
X0105180Y0076677D01*
X0104356Y0077311D01*
X0103394Y0077709D01*
X0102862Y0077779D01*
D02*
G37*
G36*
X0067020Y0077779D02*
X0066488Y0077709D01*
X0065525Y0077311D01*
X0064701Y0076677D01*
X0064066Y0075852D01*
X0063669Y0074890D01*
X0063599Y0074358D01*
X0067020Y0074358D01*
X0067020Y0077779D01*
D02*
G37*
G36*
X0054224Y0077779D02*
X0053693Y0077709D01*
X0052730Y0077311D01*
X0051905Y0076677D01*
X0051271Y0075852D01*
X0050873Y0074890D01*
X0050803Y0074358D01*
X0054224Y0074358D01*
X0054224Y0077779D01*
D02*
G37*
G36*
X0043201Y0077779D02*
X0042669Y0077709D01*
X0041707Y0077311D01*
X0040882Y0076677D01*
X0040248Y0075852D01*
X0039850Y0074890D01*
X0039780Y0074358D01*
X0043201Y0074358D01*
X0043201Y0077779D01*
D02*
G37*
G36*
X0032177Y0077779D02*
X0031645Y0077709D01*
X0030684Y0077311D01*
X0029858Y0076677D01*
X0029225Y0075852D01*
X0028826Y0074890D01*
X0028756Y0074358D01*
X0032177Y0074358D01*
X0032177Y0077779D01*
D02*
G37*
G36*
X0125681Y0077779D02*
X0125149Y0077709D01*
X0124188Y0077311D01*
X0123362Y0076677D01*
X0122727Y0075852D01*
X0122330Y0074890D01*
X0122259Y0074358D01*
X0125681Y0074358D01*
X0125681Y0077779D01*
D02*
G37*
G36*
X0114657Y0077779D02*
X0114126Y0077709D01*
X0113164Y0077311D01*
X0112338Y0076677D01*
X0111705Y0075852D01*
X0111307Y0074890D01*
X0111236Y0074358D01*
X0114657Y0074358D01*
X0114657Y0077779D01*
D02*
G37*
G36*
X0101862Y0077779D02*
X0101330Y0077709D01*
X0100369Y0077311D01*
X0099543Y0076677D01*
X0098907Y0075852D01*
X0098511Y0074890D01*
X0098441Y0074358D01*
X0101862Y0074358D01*
X0101862Y0077779D01*
D02*
G37*
G36*
X0095260Y0073358D02*
X0091839Y0073358D01*
X0091839Y0069937D01*
X0092370Y0070007D01*
X0093332Y0070405D01*
X0094158Y0071039D01*
X0094791Y0071865D01*
X0095190Y0072826D01*
X0095260Y0073358D01*
D02*
G37*
G36*
X0082464Y0073358D02*
X0079043Y0073358D01*
X0079043Y0069937D01*
X0079575Y0070007D01*
X0080537Y0070405D01*
X0081362Y0071039D01*
X0081996Y0071865D01*
X0082393Y0072826D01*
X0082464Y0073358D01*
D02*
G37*
G36*
X0058645Y0073358D02*
X0055223Y0073358D01*
X0055223Y0069937D01*
X0055755Y0070007D01*
X0056718Y0070405D01*
X0057543Y0071039D01*
X0058177Y0071865D01*
X0058575Y0072826D01*
X0058645Y0073358D01*
D02*
G37*
G36*
X0036598Y0073358D02*
X0033176Y0073358D01*
X0033176Y0069937D01*
X0033709Y0070007D01*
X0034671Y0070405D01*
X0035496Y0071039D01*
X0036130Y0071865D01*
X0036528Y0072826D01*
X0036598Y0073358D01*
D02*
G37*
G36*
X0130102Y0073358D02*
X0126681Y0073358D01*
X0126681Y0069937D01*
X0127213Y0070007D01*
X0128174Y0070405D01*
X0129000Y0071039D01*
X0129634Y0071865D01*
X0130030Y0072826D01*
X0130102Y0073358D01*
D02*
G37*
G36*
X0119079Y0073358D02*
X0115657Y0073358D01*
X0115657Y0069937D01*
X0116189Y0070007D01*
X0117151Y0070405D01*
X0117977Y0071039D01*
X0118610Y0071865D01*
X0119009Y0072826D01*
X0119079Y0073358D01*
D02*
G37*
G36*
X0106283Y0073358D02*
X0102862Y0073358D01*
X0102862Y0069937D01*
X0103394Y0070007D01*
X0104356Y0070405D01*
X0105180Y0071039D01*
X0105814Y0071865D01*
X0106213Y0072826D01*
X0106283Y0073358D01*
D02*
G37*
G36*
X0071441Y0073358D02*
X0068019Y0073358D01*
X0068019Y0069937D01*
X0068552Y0070007D01*
X0069513Y0070405D01*
X0070339Y0071039D01*
X0070972Y0071865D01*
X0071371Y0072826D01*
X0071441Y0073358D01*
D02*
G37*
G36*
X0047622Y0073358D02*
X0044200Y0073358D01*
X0044200Y0069937D01*
X0044733Y0070007D01*
X0045694Y0070405D01*
X0046520Y0071039D01*
X0047153Y0071865D01*
X0047552Y0072826D01*
X0047622Y0073358D01*
D02*
G37*
G36*
X0067020Y0073358D02*
X0063599Y0073358D01*
X0063669Y0072826D01*
X0064066Y0071865D01*
X0064701Y0071039D01*
X0065525Y0070405D01*
X0066488Y0070007D01*
X0067020Y0069937D01*
X0067020Y0073358D01*
D02*
G37*
G36*
X0043201Y0073358D02*
X0039780Y0073358D01*
X0039850Y0072826D01*
X0040248Y0071865D01*
X0040882Y0071039D01*
X0041707Y0070405D01*
X0042669Y0070007D01*
X0043201Y0069937D01*
X0043201Y0073358D01*
D02*
G37*
G36*
X0125681Y0073358D02*
X0122259Y0073358D01*
X0122330Y0072826D01*
X0122727Y0071865D01*
X0123362Y0071039D01*
X0124188Y0070405D01*
X0125149Y0070007D01*
X0125681Y0069937D01*
X0125681Y0073358D01*
D02*
G37*
G36*
X0114657Y0073358D02*
X0111236Y0073358D01*
X0111307Y0072826D01*
X0111705Y0071865D01*
X0112338Y0071039D01*
X0113164Y0070405D01*
X0114126Y0070007D01*
X0114657Y0069937D01*
X0114657Y0073358D01*
D02*
G37*
G36*
X0101862Y0073358D02*
X0098441Y0073358D01*
X0098511Y0072826D01*
X0098907Y0071865D01*
X0099543Y0071039D01*
X0100369Y0070405D01*
X0101330Y0070007D01*
X0101862Y0069937D01*
X0101862Y0073358D01*
D02*
G37*
G36*
X0054224Y0073358D02*
X0050803Y0073358D01*
X0050873Y0072826D01*
X0051271Y0071865D01*
X0051905Y0071039D01*
X0052730Y0070405D01*
X0053693Y0070007D01*
X0054224Y0069937D01*
X0054224Y0073358D01*
D02*
G37*
G36*
X0032177Y0073358D02*
X0028756Y0073358D01*
X0028826Y0072826D01*
X0029225Y0071865D01*
X0029858Y0071039D01*
X0030684Y0070405D01*
X0031645Y0070007D01*
X0032177Y0069937D01*
X0032177Y0073358D01*
D02*
G37*
G36*
X0090839Y0073358D02*
X0087417Y0073358D01*
X0087488Y0072826D01*
X0087886Y0071865D01*
X0088519Y0071039D01*
X0089345Y0070405D01*
X0090307Y0070007D01*
X0090839Y0069937D01*
X0090839Y0073358D01*
D02*
G37*
G36*
X0078043Y0073358D02*
X0074622Y0073358D01*
X0074692Y0072826D01*
X0075091Y0071865D01*
X0075722Y0071039D01*
X0076549Y0070405D01*
X0077511Y0070007D01*
X0078043Y0069937D01*
X0078043Y0073358D01*
D02*
G37*
G36*
X0145669Y0089205D02*
X0144032Y0089077D01*
X0142435Y0088693D01*
X0140918Y0088065D01*
X0139518Y0087207D01*
X0138269Y0086140D01*
X0137203Y0084891D01*
X0136345Y0083491D01*
X0135716Y0081974D01*
X0135333Y0080376D01*
X0135204Y0078740D01*
X0135333Y0077103D01*
X0135716Y0075506D01*
X0136345Y0073989D01*
X0137203Y0072589D01*
X0138269Y0071340D01*
X0139518Y0070272D01*
X0140918Y0069415D01*
X0142435Y0068787D01*
X0144032Y0068403D01*
X0145669Y0068275D01*
X0147306Y0068403D01*
X0148903Y0068787D01*
X0150420Y0069415D01*
X0151821Y0070272D01*
X0153069Y0071340D01*
X0154135Y0072589D01*
X0154994Y0073989D01*
X0155622Y0075506D01*
X0156006Y0077103D01*
X0156135Y0078740D01*
X0156006Y0080376D01*
X0155622Y0081974D01*
X0154994Y0083491D01*
X0154135Y0084891D01*
X0153069Y0086140D01*
X0151821Y0087207D01*
X0150420Y0088065D01*
X0148903Y0088693D01*
X0147306Y0089077D01*
X0145669Y0089205D01*
D02*
G37*
G36*
X0011811Y0089205D02*
X0010174Y0089077D01*
X0008577Y0088693D01*
X0007060Y0088065D01*
X0005660Y0087207D01*
X0004411Y0086140D01*
X0003343Y0084891D01*
X0002486Y0083491D01*
X0001858Y0081974D01*
X0001474Y0080376D01*
X0001346Y0078740D01*
X0001474Y0077103D01*
X0001858Y0075506D01*
X0002486Y0073989D01*
X0003343Y0072589D01*
X0004411Y0071340D01*
X0005660Y0070272D01*
X0007060Y0069415D01*
X0008577Y0068787D01*
X0010174Y0068403D01*
X0011811Y0068275D01*
X0013447Y0068403D01*
X0015045Y0068787D01*
X0016562Y0069415D01*
X0017962Y0070272D01*
X0019211Y0071340D01*
X0020278Y0072589D01*
X0021135Y0073989D01*
X0021764Y0075506D01*
X0022148Y0077103D01*
X0022276Y0078740D01*
X0022148Y0080376D01*
X0021764Y0081974D01*
X0021135Y0083491D01*
X0020278Y0084891D01*
X0019211Y0086140D01*
X0017962Y0087207D01*
X0016562Y0088065D01*
X0015045Y0088693D01*
X0013447Y0089077D01*
X0011811Y0089205D01*
D02*
G37*
%LPD*%
D69*
X0109646Y0147834D02*
X0121811Y0135669D01*
X0109646Y0147834D02*
X0109646Y0158661D01*
X0102165Y0166142D02*
X0109646Y0158661D01*
X0121811Y0135669D02*
X0150393Y0135669D01*
D70*
X0062598Y0151575D02*
X0064172Y0149999D01*
X0074409Y0149999D01*
X0102484Y0139885D02*
X0102484Y0140869D01*
X0102559Y0140945D01*
X0088779Y0126181D02*
X0102484Y0139885D01*
X0102559Y0140945D02*
X0102559Y0155512D01*
X0128347Y0118897D02*
X0150393Y0118897D01*
X0112205Y0135039D02*
X0128347Y0118897D01*
X0070276Y0155512D02*
X0086221Y0155512D01*
X0092126Y0149606D01*
X0058070Y0167716D02*
X0070276Y0155512D01*
X0016339Y0177558D02*
X0026181Y0167716D01*
X0058070Y0167716D01*
X0092521Y0167717D02*
X0092521Y0207873D01*
X0114883Y0093858D02*
X0118504Y0097479D01*
X0118504Y0109252D01*
X0102362Y0093858D02*
X0114883Y0093858D01*
X0078543Y0093858D02*
X0091337Y0093858D01*
X0067520Y0093858D02*
X0078543Y0093858D01*
X0054723Y0093858D02*
X0067520Y0093858D01*
X0043701Y0093858D02*
X0054723Y0093858D01*
X0032677Y0093858D02*
X0043701Y0093858D01*
X0091337Y0093858D02*
X0102362Y0093858D01*
X0115354Y0119290D02*
X0125394Y0109252D01*
X0110630Y0119290D02*
X0115354Y0119290D01*
X0084252Y0159449D02*
X0084252Y0159449D01*
X0092521Y0167717D01*
X0080709Y0159449D02*
X0080709Y0172441D01*
X0045276Y0207873D02*
X0080709Y0172441D01*
X0047046Y0155513D02*
X0058268Y0144291D01*
X0016535Y0155513D02*
X0047046Y0155513D01*
X0108464Y0121457D02*
X0110630Y0119290D01*
X0111417Y0122834D02*
X0117412Y0122834D01*
X0118397Y0121849D01*
X0118504Y0121849D01*
X0118897Y0150787D02*
X0150393Y0182283D01*
X0112598Y0150787D02*
X0118897Y0150787D01*
D71*
X0006102Y0101811D02*
D03*
X0054723Y0093858D02*
D03*
X0043701Y0093858D02*
D03*
X0032677Y0093858D02*
D03*
X0126181Y0083858D02*
D03*
X0078543Y0093858D02*
D03*
X0115157Y0083858D02*
D03*
X0067520Y0093858D02*
D03*
X0091337Y0093858D02*
D03*
X0102362Y0093858D02*
D03*
X0150393Y0135669D02*
D03*
X0150393Y0118897D02*
D03*
X0150393Y0182283D02*
D03*
D72*
X0006102Y0111811D02*
D03*
X0016339Y0177558D02*
D03*
X0006339Y0177558D02*
D03*
X0054723Y0083858D02*
D03*
X0054723Y0073858D02*
D03*
X0043701Y0083858D02*
D03*
X0043701Y0073858D02*
D03*
X0032677Y0083858D02*
D03*
X0032677Y0073858D02*
D03*
X0126181Y0073858D02*
D03*
X0078543Y0083858D02*
D03*
X0078543Y0073858D02*
D03*
X0115157Y0073858D02*
D03*
X0067520Y0083858D02*
D03*
X0067520Y0073858D02*
D03*
X0091337Y0083858D02*
D03*
X0091337Y0073858D02*
D03*
X0102362Y0083858D02*
D03*
X0102362Y0073858D02*
D03*
X0150393Y0155669D02*
D03*
X0150393Y0145669D02*
D03*
X0150393Y0108898D02*
D03*
X0150393Y0172283D02*
D03*
D73*
X0026339Y0177558D02*
D03*
D74*
X0016535Y0135828D02*
D03*
X0092521Y0207873D02*
D03*
X0045276Y0207873D02*
D03*
D75*
X0016535Y0155513D02*
D03*
D76*
X0112206Y0207873D02*
D03*
X0064961Y0207873D02*
D03*
D77*
X0011811Y0078740D02*
D03*
X0145669Y0212598D02*
D03*
X0011811Y0212598D02*
D03*
X0145669Y0078740D02*
D03*
D78*
X0136221Y0179528D02*
D03*
X0136221Y0132282D02*
D03*
X0124408Y0203150D02*
D03*
X0112599Y0179528D02*
D03*
X0100787Y0203150D02*
D03*
X0053542Y0203150D02*
D03*
X0041732Y0132282D02*
D03*
X0029920Y0203150D02*
D03*
X0029920Y0108661D02*
D03*
X0062598Y0151575D02*
D03*
X0088779Y0126181D02*
D03*
X0102559Y0155512D02*
D03*
X0102559Y0140945D02*
D03*
X0112205Y0135039D02*
D03*
X0092126Y0149606D02*
D03*
X0102165Y0166142D02*
D03*
X0092520Y0177558D02*
D03*
X0118504Y0109252D02*
D03*
X0125394Y0109252D02*
D03*
X0084252Y0159449D02*
D03*
X0080709Y0159449D02*
D03*
X0058268Y0144291D02*
D03*
X0118504Y0121849D02*
D03*
X0108464Y0121457D02*
D03*
X0111417Y0122834D02*
D03*
X0112598Y0150787D02*
D03*
D79*
X0083071Y0149999D02*
D03*
X0083071Y0141339D02*
D03*
X0078740Y0145669D02*
D03*
X0074409Y0149999D02*
D03*
X0074409Y0141339D02*
D03*
G04 next file*
G04*
G04 #@! TF.GenerationSoftware,Altium Limited,Altium Designer,21.7.2 (23)*
G04*
G04 Layer_Physical_Order=2*
G04 Layer_Color=16711680*
G04 skipping 70
G04*
G04 #@! TF.SameCoordinates,3D67BF19-0A55-4891-8FEB-F4BE30BF2CF6*
G04*
G04*
G04 #@! TF.FilePolarity,Positive*
G04*
G01*
G75*
G36*
X0326771Y0066929D02*
X0169291Y0066929D01*
X0169291Y0224409D01*
X0326771Y0224409D01*
X0326771Y0066929D01*
D02*
G37*
%LPC*%
G36*
X0286335Y0212712D02*
X0281996Y0212712D01*
X0281996Y0208374D01*
X0286335Y0208374D01*
X0286335Y0212712D01*
D02*
G37*
G36*
X0280996Y0212712D02*
X0276658Y0212712D01*
X0276658Y0208374D01*
X0280996Y0208374D01*
X0280996Y0212712D01*
D02*
G37*
G36*
X0239089Y0212712D02*
X0234751Y0212712D01*
X0234751Y0208374D01*
X0239089Y0208374D01*
X0239089Y0212712D01*
D02*
G37*
G36*
X0233752Y0212712D02*
X0229413Y0212712D01*
X0229413Y0208374D01*
X0233752Y0208374D01*
X0233752Y0212712D01*
D02*
G37*
G36*
X0294200Y0204872D02*
X0294200Y0203650D01*
X0295423Y0203650D01*
X0295384Y0203846D01*
X0294989Y0204438D01*
X0294398Y0204833D01*
X0294200Y0204872D01*
D02*
G37*
G36*
X0293200Y0204872D02*
X0293003Y0204833D01*
X0292412Y0204438D01*
X0292017Y0203846D01*
X0291978Y0203650D01*
X0293200Y0203650D01*
X0293200Y0204872D01*
D02*
G37*
G36*
X0270578Y0204872D02*
X0270578Y0203650D01*
X0271801Y0203650D01*
X0271762Y0203846D01*
X0271367Y0204438D01*
X0270776Y0204833D01*
X0270578Y0204872D01*
D02*
G37*
G36*
X0269578Y0204872D02*
X0269381Y0204833D01*
X0268790Y0204438D01*
X0268395Y0203846D01*
X0268355Y0203650D01*
X0269578Y0203650D01*
X0269578Y0204872D01*
D02*
G37*
G36*
X0223334Y0204872D02*
X0223334Y0203650D01*
X0224556Y0203650D01*
X0224518Y0203846D01*
X0224122Y0204438D01*
X0223532Y0204833D01*
X0223334Y0204872D01*
D02*
G37*
G36*
X0199712Y0204872D02*
X0199712Y0203650D01*
X0200935Y0203650D01*
X0200896Y0203846D01*
X0200501Y0204438D01*
X0199910Y0204833D01*
X0199712Y0204872D01*
D02*
G37*
G36*
X0198712Y0204872D02*
X0198515Y0204833D01*
X0197924Y0204438D01*
X0197529Y0203846D01*
X0197489Y0203650D01*
X0198712Y0203650D01*
X0198712Y0204872D01*
D02*
G37*
G36*
X0286335Y0207374D02*
X0281996Y0207374D01*
X0281996Y0203035D01*
X0286335Y0203035D01*
X0286335Y0207374D01*
D02*
G37*
G36*
X0280996Y0207374D02*
X0276658Y0207374D01*
X0276658Y0203035D01*
X0280996Y0203035D01*
X0280996Y0207374D01*
D02*
G37*
G36*
X0239089Y0207374D02*
X0234751Y0207374D01*
X0234751Y0203035D01*
X0239089Y0203035D01*
X0239089Y0207374D01*
D02*
G37*
G36*
X0233752Y0207374D02*
X0229413Y0207374D01*
X0229413Y0203035D01*
X0233752Y0203035D01*
X0233752Y0207374D01*
D02*
G37*
G36*
X0314960Y0223064D02*
X0313323Y0222935D01*
X0311726Y0222551D01*
X0310209Y0221923D01*
X0308809Y0221064D01*
X0307560Y0219998D01*
X0306494Y0218750D01*
X0305636Y0217349D01*
X0305007Y0215831D01*
X0304624Y0214235D01*
X0304495Y0212598D01*
X0304624Y0210961D01*
X0305007Y0209364D01*
X0305636Y0207846D01*
X0306494Y0206447D01*
X0307560Y0205198D01*
X0308809Y0204131D01*
X0310209Y0203274D01*
X0311726Y0202645D01*
X0313323Y0202262D01*
X0314960Y0202132D01*
X0316597Y0202262D01*
X0318194Y0202645D01*
X0319711Y0203274D01*
X0321112Y0204131D01*
X0322360Y0205198D01*
X0323427Y0206447D01*
X0324285Y0207846D01*
X0324913Y0209364D01*
X0325297Y0210961D01*
X0325426Y0212598D01*
X0325297Y0214235D01*
X0324913Y0215831D01*
X0324285Y0217349D01*
X0323427Y0218750D01*
X0322360Y0219998D01*
X0321112Y0221064D01*
X0319711Y0221923D01*
X0318194Y0222551D01*
X0316597Y0222935D01*
X0314960Y0223064D01*
D02*
G37*
G36*
X0181102Y0223064D02*
X0179465Y0222935D01*
X0177868Y0222551D01*
X0176351Y0221923D01*
X0174950Y0221064D01*
X0173701Y0219998D01*
X0172635Y0218750D01*
X0171777Y0217349D01*
X0171149Y0215831D01*
X0170765Y0214235D01*
X0170637Y0212598D01*
X0170765Y0210961D01*
X0171149Y0209364D01*
X0171777Y0207846D01*
X0172635Y0206447D01*
X0173701Y0205198D01*
X0174950Y0204131D01*
X0176351Y0203274D01*
X0177868Y0202645D01*
X0179465Y0202262D01*
X0181102Y0202132D01*
X0182739Y0202262D01*
X0184336Y0202645D01*
X0185852Y0203274D01*
X0187253Y0204131D01*
X0188502Y0205198D01*
X0189569Y0206447D01*
X0190427Y0207846D01*
X0191055Y0209364D01*
X0191439Y0210961D01*
X0191567Y0212598D01*
X0191439Y0214235D01*
X0191055Y0215831D01*
X0190427Y0217349D01*
X0189569Y0218750D01*
X0188502Y0219998D01*
X0187253Y0221064D01*
X0185852Y0221923D01*
X0184336Y0222551D01*
X0182739Y0222935D01*
X0181102Y0223064D01*
D02*
G37*
G36*
X0295423Y0202650D02*
X0294200Y0202650D01*
X0294200Y0201426D01*
X0294398Y0201466D01*
X0294989Y0201860D01*
X0295384Y0202452D01*
X0295423Y0202650D01*
D02*
G37*
G36*
X0293200Y0202650D02*
X0291978Y0202650D01*
X0292017Y0202452D01*
X0292412Y0201860D01*
X0293003Y0201466D01*
X0293200Y0201426D01*
X0293200Y0202650D01*
D02*
G37*
G36*
X0271801Y0202650D02*
X0270578Y0202650D01*
X0270578Y0201426D01*
X0270776Y0201466D01*
X0271367Y0201860D01*
X0271762Y0202452D01*
X0271801Y0202650D01*
D02*
G37*
G36*
X0269578Y0202650D02*
X0268355Y0202650D01*
X0268395Y0202452D01*
X0268790Y0201860D01*
X0269381Y0201466D01*
X0269578Y0201426D01*
X0269578Y0202650D01*
D02*
G37*
G36*
X0200935Y0202650D02*
X0199712Y0202650D01*
X0199712Y0201426D01*
X0199910Y0201466D01*
X0200501Y0201860D01*
X0200896Y0202452D01*
X0200935Y0202650D01*
D02*
G37*
G36*
X0198712Y0202650D02*
X0197489Y0202650D01*
X0197529Y0202452D01*
X0197924Y0201860D01*
X0198515Y0201466D01*
X0198712Y0201426D01*
X0198712Y0202650D01*
D02*
G37*
G36*
X0306012Y0181249D02*
X0306012Y0180028D01*
X0307234Y0180028D01*
X0307195Y0180224D01*
X0306800Y0180815D01*
X0306209Y0181211D01*
X0306012Y0181249D01*
D02*
G37*
G36*
X0305012Y0181249D02*
X0304814Y0181211D01*
X0304223Y0180815D01*
X0303828Y0180224D01*
X0303788Y0180028D01*
X0305012Y0180028D01*
X0305012Y0181249D01*
D02*
G37*
G36*
X0282390Y0181249D02*
X0282390Y0180028D01*
X0283612Y0180028D01*
X0283573Y0180224D01*
X0283178Y0180815D01*
X0282587Y0181211D01*
X0282390Y0181249D01*
D02*
G37*
G36*
X0281390Y0181249D02*
X0281192Y0181211D01*
X0280601Y0180815D01*
X0280205Y0180224D01*
X0280165Y0180028D01*
X0281390Y0180028D01*
X0281390Y0181249D01*
D02*
G37*
G36*
X0176130Y0181480D02*
X0176130Y0178059D01*
X0179551Y0178059D01*
X0179481Y0178591D01*
X0179082Y0179552D01*
X0178449Y0180378D01*
X0177623Y0181012D01*
X0176662Y0181410D01*
X0176130Y0181480D01*
D02*
G37*
G36*
X0175130Y0181480D02*
X0174598Y0181410D01*
X0173636Y0181012D01*
X0172810Y0180378D01*
X0172177Y0179552D01*
X0171779Y0178591D01*
X0171708Y0178059D01*
X0175130Y0178059D01*
X0175130Y0181480D01*
D02*
G37*
G36*
X0307234Y0179028D02*
X0306012Y0179028D01*
X0306012Y0177804D01*
X0306209Y0177844D01*
X0306800Y0178238D01*
X0307195Y0178829D01*
X0307234Y0179028D01*
D02*
G37*
G36*
X0305012Y0179028D02*
X0303788Y0179028D01*
X0303828Y0178829D01*
X0304223Y0178238D01*
X0304814Y0177844D01*
X0305012Y0177804D01*
X0305012Y0179028D01*
D02*
G37*
G36*
X0283612Y0179028D02*
X0282390Y0179028D01*
X0282390Y0177804D01*
X0282587Y0177844D01*
X0283178Y0178238D01*
X0283573Y0178829D01*
X0283612Y0179028D01*
D02*
G37*
G36*
X0281390Y0179028D02*
X0280165Y0179028D01*
X0280205Y0178829D01*
X0280601Y0178238D01*
X0281192Y0177844D01*
X0281390Y0177804D01*
X0281390Y0179028D01*
D02*
G37*
G36*
X0199173Y0181102D02*
X0192086Y0181102D01*
X0192086Y0174016D01*
X0199173Y0174016D01*
X0199173Y0181102D01*
D02*
G37*
G36*
X0179551Y0177059D02*
X0176130Y0177059D01*
X0176130Y0173638D01*
X0176662Y0173708D01*
X0177623Y0174106D01*
X0178449Y0174740D01*
X0179082Y0175565D01*
X0179481Y0176527D01*
X0179551Y0177059D01*
D02*
G37*
G36*
X0175130Y0177059D02*
X0171708Y0177059D01*
X0171779Y0176527D01*
X0172177Y0175565D01*
X0172810Y0174740D01*
X0173636Y0174106D01*
X0174598Y0173708D01*
X0175130Y0173638D01*
X0175130Y0177059D01*
D02*
G37*
G36*
X0320185Y0176203D02*
X0320185Y0172783D01*
X0323606Y0172783D01*
X0323535Y0173315D01*
X0323137Y0174277D01*
X0322504Y0175103D01*
X0321678Y0175736D01*
X0320717Y0176134D01*
X0320185Y0176203D01*
D02*
G37*
G36*
X0319185Y0176203D02*
X0318653Y0176134D01*
X0317691Y0175736D01*
X0316866Y0175103D01*
X0316232Y0174277D01*
X0315834Y0173315D01*
X0315764Y0172783D01*
X0319185Y0172783D01*
X0319185Y0176203D01*
D02*
G37*
G36*
X0323606Y0171783D02*
X0320185Y0171783D01*
X0320185Y0168361D01*
X0320717Y0168432D01*
X0321678Y0168830D01*
X0322504Y0169464D01*
X0323137Y0170290D01*
X0323535Y0171252D01*
X0323606Y0171783D01*
D02*
G37*
G36*
X0319185Y0171783D02*
X0315764Y0171783D01*
X0315834Y0171252D01*
X0316232Y0170290D01*
X0316866Y0169464D01*
X0317691Y0168830D01*
X0318653Y0168432D01*
X0319185Y0168361D01*
X0319185Y0171783D01*
D02*
G37*
G36*
X0261811Y0212340D02*
X0260655Y0212189D01*
X0259578Y0211743D01*
X0258653Y0211032D01*
X0257943Y0210108D01*
X0257496Y0209030D01*
X0257344Y0207873D01*
X0257496Y0206718D01*
X0257943Y0205640D01*
X0258653Y0204714D01*
X0259578Y0204005D01*
X0260607Y0203579D01*
X0260607Y0178238D01*
X0260513Y0178097D01*
X0260406Y0177558D01*
X0260513Y0177020D01*
X0260607Y0176879D01*
X0260607Y0168216D01*
X0253171Y0160780D01*
X0253005Y0160747D01*
X0252549Y0160441D01*
X0252245Y0159986D01*
X0252138Y0159449D01*
X0252245Y0158911D01*
X0252549Y0158455D01*
X0253005Y0158151D01*
X0253542Y0158044D01*
X0254081Y0158151D01*
X0254536Y0158455D01*
X0254841Y0158911D01*
X0254874Y0159076D01*
X0262663Y0166866D01*
X0262924Y0167256D01*
X0263016Y0167717D01*
X0263016Y0167717D01*
X0263016Y0176882D01*
X0263109Y0177020D01*
X0263216Y0177558D01*
X0263109Y0178097D01*
X0263016Y0178235D01*
X0263016Y0203579D01*
X0264045Y0204005D01*
X0264970Y0204714D01*
X0265681Y0205640D01*
X0266127Y0206718D01*
X0266279Y0207873D01*
X0266127Y0209030D01*
X0265681Y0210108D01*
X0264970Y0211032D01*
X0264045Y0211743D01*
X0262968Y0212189D01*
X0261811Y0212340D01*
D02*
G37*
G36*
X0214567Y0212340D02*
X0213410Y0212189D01*
X0212333Y0211743D01*
X0211408Y0211032D01*
X0210698Y0210108D01*
X0210251Y0209030D01*
X0210099Y0207873D01*
X0210251Y0206718D01*
X0210698Y0205640D01*
X0211408Y0204714D01*
X0212333Y0204005D01*
X0213410Y0203559D01*
X0214567Y0203406D01*
X0215723Y0203559D01*
X0216752Y0203985D01*
X0248795Y0171941D01*
X0248795Y0160127D01*
X0248701Y0159986D01*
X0248595Y0159449D01*
X0248701Y0158911D01*
X0249006Y0158455D01*
X0249461Y0158151D01*
X0250000Y0158044D01*
X0250537Y0158151D01*
X0250993Y0158455D01*
X0251298Y0158911D01*
X0251405Y0159449D01*
X0251298Y0159986D01*
X0251203Y0160127D01*
X0251203Y0172441D01*
X0251112Y0172902D01*
X0250850Y0173292D01*
X0223245Y0200898D01*
X0223409Y0201440D01*
X0223532Y0201466D01*
X0224122Y0201860D01*
X0224518Y0202452D01*
X0224556Y0202650D01*
X0222834Y0202650D01*
X0222834Y0203150D01*
X0222334Y0203150D01*
X0222334Y0204872D01*
X0222136Y0204833D01*
X0221546Y0204438D01*
X0221151Y0203846D01*
X0221125Y0203724D01*
X0220583Y0203560D01*
X0218455Y0205688D01*
X0218882Y0206718D01*
X0219034Y0207873D01*
X0218882Y0209030D01*
X0218436Y0210108D01*
X0217725Y0211032D01*
X0216800Y0211743D01*
X0215723Y0212189D01*
X0214567Y0212340D01*
D02*
G37*
G36*
X0272350Y0157235D02*
X0272350Y0156012D01*
X0273573Y0156012D01*
X0273534Y0156209D01*
X0273139Y0156800D01*
X0272547Y0157195D01*
X0272350Y0157235D01*
D02*
G37*
G36*
X0271349Y0157235D02*
X0271153Y0157195D01*
X0270561Y0156800D01*
X0270166Y0156209D01*
X0270127Y0156012D01*
X0271349Y0156012D01*
X0271349Y0157235D01*
D02*
G37*
G36*
X0273573Y0155012D02*
X0272350Y0155012D01*
X0272350Y0153789D01*
X0272547Y0153828D01*
X0273139Y0154223D01*
X0273534Y0154814D01*
X0273573Y0155012D01*
D02*
G37*
G36*
X0271349Y0155012D02*
X0270127Y0155012D01*
X0270166Y0154814D01*
X0270561Y0154223D01*
X0271153Y0153828D01*
X0271349Y0153789D01*
X0271349Y0155012D01*
D02*
G37*
G36*
X0319685Y0159243D02*
X0318760Y0159121D01*
X0317898Y0158764D01*
X0317158Y0158196D01*
X0316590Y0157456D01*
X0316233Y0156594D01*
X0316111Y0155669D01*
X0316233Y0154744D01*
X0316590Y0153882D01*
X0317158Y0153141D01*
X0317898Y0152574D01*
X0318760Y0152217D01*
X0319685Y0152095D01*
X0320610Y0152217D01*
X0321472Y0152574D01*
X0322212Y0153141D01*
X0322780Y0153882D01*
X0323137Y0154744D01*
X0323259Y0155669D01*
X0323137Y0156594D01*
X0322780Y0157456D01*
X0322212Y0158196D01*
X0321472Y0158764D01*
X0320610Y0159121D01*
X0319685Y0159243D01*
D02*
G37*
G36*
X0232389Y0153298D02*
X0232389Y0152075D01*
X0233612Y0152075D01*
X0233573Y0152272D01*
X0233178Y0152862D01*
X0232587Y0153258D01*
X0232389Y0153298D01*
D02*
G37*
G36*
X0231388Y0153298D02*
X0231192Y0153258D01*
X0230601Y0152862D01*
X0230206Y0152272D01*
X0230166Y0152075D01*
X0231388Y0152075D01*
X0231388Y0153298D01*
D02*
G37*
G36*
X0323228Y0185827D02*
X0316141Y0185827D01*
X0316141Y0180443D01*
X0287689Y0151991D01*
X0282567Y0151991D01*
X0282426Y0152085D01*
X0281889Y0152192D01*
X0281352Y0152085D01*
X0280896Y0151781D01*
X0280591Y0151325D01*
X0280549Y0151110D01*
X0280048Y0151159D01*
X0280048Y0158661D01*
X0280048Y0158661D01*
X0279964Y0159087D01*
X0279723Y0159447D01*
X0272820Y0166351D01*
X0272754Y0166678D01*
X0272450Y0167135D01*
X0271994Y0167440D01*
X0271455Y0167547D01*
X0270919Y0167440D01*
X0270463Y0167135D01*
X0270158Y0166678D01*
X0270051Y0166142D01*
X0270158Y0165604D01*
X0270463Y0165148D01*
X0270919Y0164844D01*
X0271247Y0164778D01*
X0277825Y0158201D01*
X0277825Y0147835D01*
X0277825Y0147834D01*
X0277909Y0147409D01*
X0278150Y0147048D01*
X0290316Y0134883D01*
X0290316Y0134883D01*
X0290676Y0134642D01*
X0291102Y0134557D01*
X0291102Y0134557D01*
X0305083Y0134557D01*
X0305260Y0134131D01*
X0305265Y0134082D01*
X0304814Y0133967D01*
X0304223Y0133572D01*
X0303828Y0132981D01*
X0303788Y0132782D01*
X0307234Y0132782D01*
X0307195Y0132981D01*
X0306800Y0133572D01*
X0306209Y0133967D01*
X0305758Y0134082D01*
X0305763Y0134131D01*
X0305940Y0134557D01*
X0316141Y0134557D01*
X0316141Y0132126D01*
X0323228Y0132126D01*
X0323228Y0139213D01*
X0316141Y0139213D01*
X0316141Y0136781D01*
X0291563Y0136781D01*
X0280048Y0148295D01*
X0280048Y0150416D01*
X0280549Y0150464D01*
X0280591Y0150250D01*
X0280896Y0149793D01*
X0281352Y0149489D01*
X0281889Y0149382D01*
X0282426Y0149489D01*
X0282567Y0149583D01*
X0288189Y0149583D01*
X0288189Y0149583D01*
X0288650Y0149675D01*
X0289040Y0149936D01*
X0317844Y0178740D01*
X0323228Y0178740D01*
X0323228Y0185827D01*
D02*
G37*
G36*
X0252861Y0152324D02*
X0252861Y0150500D01*
X0254687Y0150500D01*
X0254602Y0150927D01*
X0254076Y0151713D01*
X0253290Y0152240D01*
X0252861Y0152324D01*
D02*
G37*
G36*
X0251862Y0152324D02*
X0251433Y0152240D01*
X0250647Y0151713D01*
X0250122Y0150927D01*
X0250037Y0150500D01*
X0251862Y0150500D01*
X0251862Y0152324D01*
D02*
G37*
G36*
X0244200Y0152324D02*
X0244200Y0150500D01*
X0246026Y0150500D01*
X0245940Y0150927D01*
X0245414Y0151713D01*
X0244627Y0152240D01*
X0244200Y0152324D01*
D02*
G37*
G36*
X0243200Y0152324D02*
X0242773Y0152240D01*
X0241986Y0151713D01*
X0241461Y0150927D01*
X0241374Y0150500D01*
X0243200Y0150500D01*
X0243200Y0152324D01*
D02*
G37*
G36*
X0233612Y0151075D02*
X0232389Y0151075D01*
X0232389Y0149852D01*
X0232587Y0149891D01*
X0233178Y0150286D01*
X0233573Y0150876D01*
X0233612Y0151075D01*
D02*
G37*
G36*
X0231388Y0151075D02*
X0230166Y0151075D01*
X0230206Y0150876D01*
X0230601Y0150286D01*
X0231192Y0149891D01*
X0231388Y0149852D01*
X0231388Y0151075D01*
D02*
G37*
G36*
X0185630Y0181133D02*
X0184705Y0181011D01*
X0183843Y0180654D01*
X0183103Y0180086D01*
X0182534Y0179346D01*
X0182178Y0178484D01*
X0182055Y0177558D01*
X0182178Y0176634D01*
X0182534Y0175772D01*
X0183103Y0175032D01*
X0183843Y0174464D01*
X0184705Y0174107D01*
X0185630Y0173985D01*
X0186555Y0174107D01*
X0187137Y0174348D01*
X0194620Y0166864D01*
X0195011Y0166604D01*
X0195472Y0166512D01*
X0226863Y0166512D01*
X0238715Y0154660D01*
X0239106Y0154399D01*
X0239567Y0154307D01*
X0255012Y0154307D01*
X0260086Y0149233D01*
X0260119Y0149067D01*
X0260423Y0148613D01*
X0260879Y0148308D01*
X0261417Y0148201D01*
X0261955Y0148308D01*
X0262410Y0148613D01*
X0262715Y0149067D01*
X0262822Y0149606D01*
X0262715Y0150144D01*
X0262410Y0150600D01*
X0261955Y0150904D01*
X0261789Y0150937D01*
X0256362Y0156363D01*
X0255972Y0156624D01*
X0255512Y0156716D01*
X0255511Y0156716D01*
X0240065Y0156716D01*
X0228213Y0168568D01*
X0227823Y0168829D01*
X0227362Y0168921D01*
X0227362Y0168921D01*
X0195971Y0168921D01*
X0188840Y0176051D01*
X0189082Y0176634D01*
X0189204Y0177558D01*
X0189082Y0178484D01*
X0188725Y0179346D01*
X0188157Y0180086D01*
X0187416Y0180654D01*
X0186555Y0181011D01*
X0185630Y0181133D01*
D02*
G37*
G36*
X0254687Y0149500D02*
X0252861Y0149500D01*
X0252861Y0147675D01*
X0253290Y0147760D01*
X0254076Y0148286D01*
X0254602Y0149072D01*
X0254687Y0149500D01*
D02*
G37*
G36*
X0251862Y0149500D02*
X0250037Y0149500D01*
X0250122Y0149072D01*
X0250647Y0148286D01*
X0251433Y0147760D01*
X0251862Y0147675D01*
X0251862Y0149500D01*
D02*
G37*
G36*
X0246026Y0149500D02*
X0244200Y0149500D01*
X0244200Y0147675D01*
X0244627Y0147760D01*
X0245414Y0148286D01*
X0245940Y0149072D01*
X0246026Y0149500D01*
D02*
G37*
G36*
X0243200Y0149500D02*
X0241374Y0149500D01*
X0241461Y0149072D01*
X0241986Y0148286D01*
X0242773Y0147760D01*
X0243200Y0147675D01*
X0243200Y0149500D01*
D02*
G37*
G36*
X0248531Y0147993D02*
X0248531Y0146169D01*
X0250355Y0146169D01*
X0250271Y0146596D01*
X0249745Y0147384D01*
X0248959Y0147909D01*
X0248531Y0147993D01*
D02*
G37*
G36*
X0247531Y0147993D02*
X0247102Y0147909D01*
X0246317Y0147384D01*
X0245791Y0146596D01*
X0245705Y0146169D01*
X0247531Y0146169D01*
X0247531Y0147993D01*
D02*
G37*
G36*
X0250355Y0145168D02*
X0248531Y0145168D01*
X0248531Y0143344D01*
X0248959Y0143429D01*
X0249745Y0143955D01*
X0250271Y0144741D01*
X0250355Y0145168D01*
D02*
G37*
G36*
X0247531Y0145168D02*
X0245705Y0145168D01*
X0245791Y0144741D01*
X0246317Y0143955D01*
X0247102Y0143429D01*
X0247531Y0143344D01*
X0247531Y0145168D01*
D02*
G37*
G36*
X0190256Y0159942D02*
X0181397Y0159942D01*
X0181397Y0151082D01*
X0190256Y0151082D01*
X0190256Y0154308D01*
X0215838Y0154308D01*
X0226228Y0143919D01*
X0226261Y0143753D01*
X0226565Y0143298D01*
X0227021Y0142993D01*
X0227558Y0142886D01*
X0228096Y0142993D01*
X0228552Y0143298D01*
X0228857Y0143753D01*
X0228964Y0144291D01*
X0228857Y0144829D01*
X0228552Y0145285D01*
X0228096Y0145589D01*
X0227931Y0145622D01*
X0217189Y0156364D01*
X0216798Y0156625D01*
X0216337Y0156717D01*
X0216337Y0156717D01*
X0190256Y0156717D01*
X0190256Y0159942D01*
D02*
G37*
G36*
X0319685Y0149242D02*
X0318760Y0149121D01*
X0317898Y0148764D01*
X0317158Y0148196D01*
X0316590Y0147456D01*
X0316233Y0146594D01*
X0316111Y0145669D01*
X0316233Y0144744D01*
X0316590Y0143882D01*
X0317158Y0143142D01*
X0317898Y0142573D01*
X0318760Y0142217D01*
X0319685Y0142095D01*
X0320610Y0142217D01*
X0321472Y0142573D01*
X0322212Y0143142D01*
X0322780Y0143882D01*
X0323137Y0144744D01*
X0323259Y0145669D01*
X0323137Y0146594D01*
X0322780Y0147456D01*
X0322212Y0148196D01*
X0321472Y0148764D01*
X0320610Y0149121D01*
X0319685Y0149242D01*
D02*
G37*
G36*
X0252861Y0143664D02*
X0252861Y0141839D01*
X0254687Y0141839D01*
X0254602Y0142266D01*
X0254076Y0143053D01*
X0253290Y0143578D01*
X0252861Y0143664D01*
D02*
G37*
G36*
X0251862Y0143664D02*
X0251433Y0143578D01*
X0250647Y0143053D01*
X0250122Y0142266D01*
X0250037Y0141839D01*
X0251862Y0141839D01*
X0251862Y0143664D01*
D02*
G37*
G36*
X0244200Y0143664D02*
X0244200Y0141839D01*
X0246026Y0141839D01*
X0245940Y0142266D01*
X0245414Y0143053D01*
X0244627Y0143578D01*
X0244200Y0143664D01*
D02*
G37*
G36*
X0243200Y0143664D02*
X0242773Y0143578D01*
X0241986Y0143053D01*
X0241461Y0142266D01*
X0241374Y0141839D01*
X0243200Y0141839D01*
X0243200Y0143664D01*
D02*
G37*
G36*
X0272350Y0142668D02*
X0272350Y0141445D01*
X0273573Y0141445D01*
X0273534Y0141642D01*
X0273139Y0142233D01*
X0272547Y0142629D01*
X0272350Y0142668D01*
D02*
G37*
G36*
X0271349Y0142668D02*
X0271153Y0142629D01*
X0270561Y0142233D01*
X0270166Y0141642D01*
X0270127Y0141445D01*
X0271349Y0141445D01*
X0271349Y0142668D01*
D02*
G37*
G36*
X0273573Y0140445D02*
X0272350Y0140445D01*
X0272350Y0139222D01*
X0272547Y0139261D01*
X0273139Y0139656D01*
X0273534Y0140247D01*
X0273573Y0140445D01*
D02*
G37*
G36*
X0271349Y0140445D02*
X0270127Y0140445D01*
X0270166Y0140247D01*
X0270561Y0139656D01*
X0271153Y0139261D01*
X0271349Y0139222D01*
X0271349Y0140445D01*
D02*
G37*
G36*
X0254687Y0140838D02*
X0252861Y0140838D01*
X0252861Y0139013D01*
X0253290Y0139099D01*
X0254076Y0139624D01*
X0254602Y0140410D01*
X0254687Y0140838D01*
D02*
G37*
G36*
X0251862Y0140838D02*
X0250037Y0140838D01*
X0250122Y0140410D01*
X0250647Y0139624D01*
X0251433Y0139099D01*
X0251862Y0139013D01*
X0251862Y0140838D01*
D02*
G37*
G36*
X0246026Y0140838D02*
X0244200Y0140838D01*
X0244200Y0139013D01*
X0244627Y0139099D01*
X0245414Y0139624D01*
X0245940Y0140410D01*
X0246026Y0140838D01*
D02*
G37*
G36*
X0243200Y0140838D02*
X0241374Y0140838D01*
X0241461Y0140410D01*
X0241986Y0139624D01*
X0242773Y0139099D01*
X0243200Y0139013D01*
X0243200Y0140838D01*
D02*
G37*
G36*
X0186326Y0140642D02*
X0186326Y0136327D01*
X0190641Y0136327D01*
X0190540Y0137091D01*
X0190053Y0138268D01*
X0189277Y0139279D01*
X0188267Y0140054D01*
X0187089Y0140542D01*
X0186326Y0140642D01*
D02*
G37*
G36*
X0185326Y0140642D02*
X0184563Y0140542D01*
X0183386Y0140054D01*
X0182375Y0139279D01*
X0181600Y0138268D01*
X0181112Y0137091D01*
X0181012Y0136327D01*
X0185326Y0136327D01*
X0185326Y0140642D01*
D02*
G37*
G36*
X0211523Y0134006D02*
X0211523Y0132782D01*
X0212746Y0132782D01*
X0212706Y0132981D01*
X0212312Y0133572D01*
X0211721Y0133967D01*
X0211523Y0134006D01*
D02*
G37*
G36*
X0210523Y0134006D02*
X0210326Y0133967D01*
X0209735Y0133572D01*
X0209340Y0132981D01*
X0209300Y0132782D01*
X0210523Y0132782D01*
X0210523Y0134006D01*
D02*
G37*
G36*
X0190641Y0135328D02*
X0186326Y0135328D01*
X0186326Y0131013D01*
X0187089Y0131114D01*
X0188267Y0131600D01*
X0189277Y0132377D01*
X0190053Y0133387D01*
X0190540Y0134565D01*
X0190641Y0135328D01*
D02*
G37*
G36*
X0185326Y0135328D02*
X0181012Y0135328D01*
X0181112Y0134565D01*
X0181600Y0133387D01*
X0182375Y0132377D01*
X0183386Y0131600D01*
X0184563Y0131114D01*
X0185326Y0131013D01*
X0185326Y0135328D01*
D02*
G37*
G36*
X0307234Y0131783D02*
X0306012Y0131783D01*
X0306012Y0130559D01*
X0306209Y0130599D01*
X0306800Y0130995D01*
X0307195Y0131586D01*
X0307234Y0131783D01*
D02*
G37*
G36*
X0305012Y0131783D02*
X0303788Y0131783D01*
X0303828Y0131586D01*
X0304223Y0130995D01*
X0304814Y0130599D01*
X0305012Y0130559D01*
X0305012Y0131783D01*
D02*
G37*
G36*
X0212746Y0131783D02*
X0211523Y0131783D01*
X0211523Y0130559D01*
X0211721Y0130599D01*
X0212312Y0130995D01*
X0212706Y0131586D01*
X0212746Y0131783D01*
D02*
G37*
G36*
X0210523Y0131783D02*
X0209300Y0131783D01*
X0209340Y0131586D01*
X0209735Y0130995D01*
X0210326Y0130599D01*
X0210523Y0130559D01*
X0210523Y0131783D01*
D02*
G37*
G36*
X0258571Y0127904D02*
X0258571Y0126681D01*
X0259794Y0126681D01*
X0259754Y0126878D01*
X0259358Y0127470D01*
X0258768Y0127865D01*
X0258571Y0127904D01*
D02*
G37*
G36*
X0257570Y0127904D02*
X0257372Y0127865D01*
X0256782Y0127470D01*
X0256387Y0126878D01*
X0256348Y0126681D01*
X0257570Y0126681D01*
X0257570Y0127904D01*
D02*
G37*
G36*
X0259794Y0125681D02*
X0258571Y0125681D01*
X0258571Y0124458D01*
X0258768Y0124496D01*
X0259358Y0124892D01*
X0259754Y0125484D01*
X0259794Y0125681D01*
D02*
G37*
G36*
X0257570Y0125681D02*
X0256348Y0125681D01*
X0256387Y0125484D01*
X0256782Y0124892D01*
X0257372Y0124496D01*
X0257570Y0124458D01*
X0257570Y0125681D01*
D02*
G37*
G36*
X0280708Y0124239D02*
X0280171Y0124133D01*
X0279715Y0123828D01*
X0279410Y0123372D01*
X0279303Y0122834D01*
X0279410Y0122296D01*
X0278977Y0122109D01*
X0278749Y0122449D01*
X0278293Y0122754D01*
X0277756Y0122861D01*
X0277218Y0122754D01*
X0276762Y0122449D01*
X0276458Y0121994D01*
X0276350Y0121457D01*
X0276458Y0120919D01*
X0276762Y0120463D01*
X0277218Y0120159D01*
X0277383Y0120126D01*
X0279069Y0118439D01*
X0279460Y0118178D01*
X0279921Y0118087D01*
X0284147Y0118087D01*
X0293353Y0108880D01*
X0293387Y0108714D01*
X0293691Y0108258D01*
X0294147Y0107954D01*
X0294685Y0107847D01*
X0295221Y0107954D01*
X0295678Y0108258D01*
X0295983Y0108714D01*
X0296089Y0109252D01*
X0295983Y0109789D01*
X0295678Y0110245D01*
X0295221Y0110549D01*
X0295057Y0110583D01*
X0285497Y0120143D01*
X0285106Y0120404D01*
X0284645Y0120495D01*
X0284645Y0120495D01*
X0280420Y0120495D01*
X0279596Y0121319D01*
X0279915Y0121707D01*
X0280171Y0121536D01*
X0280708Y0121430D01*
X0281246Y0121536D01*
X0281386Y0121630D01*
X0286205Y0121630D01*
X0286491Y0121344D01*
X0286497Y0121313D01*
X0286801Y0120856D01*
X0287257Y0120551D01*
X0287795Y0120445D01*
X0288333Y0120551D01*
X0288787Y0120856D01*
X0289093Y0121313D01*
X0289199Y0121849D01*
X0289093Y0122388D01*
X0288787Y0122844D01*
X0288333Y0123147D01*
X0288034Y0123208D01*
X0287556Y0123686D01*
X0287165Y0123947D01*
X0286704Y0124039D01*
X0286704Y0124039D01*
X0281386Y0124039D01*
X0281246Y0124133D01*
X0280708Y0124239D01*
D02*
G37*
G36*
X0281496Y0136444D02*
X0280958Y0136336D01*
X0280502Y0136033D01*
X0280198Y0135577D01*
X0280091Y0135039D01*
X0280198Y0134502D01*
X0280502Y0134046D01*
X0280958Y0133741D01*
X0281124Y0133708D01*
X0296786Y0118046D01*
X0296786Y0118046D01*
X0297177Y0117785D01*
X0297638Y0117693D01*
X0297638Y0117693D01*
X0316141Y0117693D01*
X0316141Y0115354D01*
X0323228Y0115354D01*
X0323228Y0122441D01*
X0316141Y0122441D01*
X0316141Y0120102D01*
X0298135Y0120102D01*
X0282827Y0135411D01*
X0282794Y0135577D01*
X0282488Y0136033D01*
X0282032Y0136336D01*
X0281496Y0136444D01*
D02*
G37*
G36*
X0320185Y0112818D02*
X0320185Y0109398D01*
X0323606Y0109398D01*
X0323535Y0109929D01*
X0323137Y0110891D01*
X0322504Y0111717D01*
X0321678Y0112350D01*
X0320717Y0112749D01*
X0320185Y0112818D01*
D02*
G37*
G36*
X0319185Y0112818D02*
X0318653Y0112749D01*
X0317691Y0112350D01*
X0316866Y0111717D01*
X0316232Y0110891D01*
X0315834Y0109929D01*
X0315764Y0109398D01*
X0319185Y0109398D01*
X0319185Y0112818D01*
D02*
G37*
G36*
X0199712Y0110384D02*
X0199712Y0109161D01*
X0200935Y0109161D01*
X0200896Y0109359D01*
X0200501Y0109949D01*
X0199910Y0110345D01*
X0199712Y0110384D01*
D02*
G37*
G36*
X0198712Y0110384D02*
X0198515Y0110345D01*
X0197924Y0109949D01*
X0197529Y0109359D01*
X0197489Y0109161D01*
X0198712Y0109161D01*
X0198712Y0110384D01*
D02*
G37*
G36*
X0175393Y0115385D02*
X0174468Y0115263D01*
X0173606Y0114906D01*
X0172866Y0114338D01*
X0172298Y0113598D01*
X0171941Y0112735D01*
X0171819Y0111811D01*
X0171941Y0110886D01*
X0172298Y0110024D01*
X0172866Y0109284D01*
X0173606Y0108715D01*
X0174468Y0108359D01*
X0175393Y0108237D01*
X0176318Y0108359D01*
X0177180Y0108715D01*
X0177921Y0109284D01*
X0178488Y0110024D01*
X0178845Y0110886D01*
X0178967Y0111811D01*
X0178845Y0112735D01*
X0178488Y0113598D01*
X0177921Y0114338D01*
X0177180Y0114906D01*
X0176318Y0115263D01*
X0175393Y0115385D01*
D02*
G37*
G36*
X0200935Y0108161D02*
X0199712Y0108161D01*
X0199712Y0106938D01*
X0199910Y0106978D01*
X0200501Y0107373D01*
X0200896Y0107964D01*
X0200935Y0108161D01*
D02*
G37*
G36*
X0198712Y0108161D02*
X0197489Y0108161D01*
X0197529Y0107964D01*
X0197924Y0107373D01*
X0198515Y0106978D01*
X0198712Y0106938D01*
X0198712Y0108161D01*
D02*
G37*
G36*
X0323606Y0108398D02*
X0320185Y0108398D01*
X0320185Y0104977D01*
X0320717Y0105047D01*
X0321678Y0105445D01*
X0322504Y0106078D01*
X0323137Y0106904D01*
X0323535Y0107866D01*
X0323606Y0108398D01*
D02*
G37*
G36*
X0319185Y0108398D02*
X0315764Y0108398D01*
X0315834Y0107866D01*
X0316232Y0106904D01*
X0316866Y0106078D01*
X0317691Y0105445D01*
X0318653Y0105047D01*
X0319185Y0104977D01*
X0319185Y0108398D01*
D02*
G37*
G36*
X0178937Y0105353D02*
X0171850Y0105353D01*
X0171850Y0098268D01*
X0178937Y0098268D01*
X0178937Y0105353D01*
D02*
G37*
G36*
X0287795Y0110657D02*
X0287257Y0110549D01*
X0286801Y0110245D01*
X0286497Y0109789D01*
X0286390Y0109252D01*
X0286497Y0108714D01*
X0286591Y0108574D01*
X0286591Y0097978D01*
X0283675Y0095061D01*
X0275196Y0095061D01*
X0275196Y0097401D01*
X0268110Y0097401D01*
X0268110Y0095061D01*
X0264173Y0095061D01*
X0264173Y0097401D01*
X0257085Y0097401D01*
X0257085Y0095061D01*
X0251378Y0095061D01*
X0251378Y0097401D01*
X0244291Y0097401D01*
X0244291Y0095061D01*
X0240354Y0095061D01*
X0240354Y0097401D01*
X0233266Y0097401D01*
X0233266Y0095061D01*
X0227558Y0095061D01*
X0227558Y0097401D01*
X0220472Y0097401D01*
X0220472Y0095061D01*
X0216535Y0095061D01*
X0216535Y0097401D01*
X0209448Y0097401D01*
X0209448Y0095061D01*
X0205511Y0095061D01*
X0205511Y0097401D01*
X0198425Y0097401D01*
X0198425Y0090314D01*
X0205511Y0090314D01*
X0205511Y0092654D01*
X0209448Y0092654D01*
X0209448Y0090314D01*
X0216535Y0090314D01*
X0216535Y0092654D01*
X0220472Y0092654D01*
X0220472Y0090314D01*
X0227558Y0090314D01*
X0227558Y0092654D01*
X0233266Y0092654D01*
X0233266Y0090314D01*
X0240354Y0090314D01*
X0240354Y0092654D01*
X0244291Y0092654D01*
X0244291Y0090314D01*
X0251378Y0090314D01*
X0251378Y0092654D01*
X0257085Y0092654D01*
X0257085Y0090314D01*
X0264173Y0090314D01*
X0264173Y0092654D01*
X0268110Y0092654D01*
X0268110Y0090314D01*
X0275196Y0090314D01*
X0275196Y0092654D01*
X0284174Y0092654D01*
X0284174Y0092654D01*
X0284635Y0092746D01*
X0285026Y0093007D01*
X0288646Y0096627D01*
X0288646Y0096627D01*
X0288907Y0097018D01*
X0288999Y0097479D01*
X0288999Y0108574D01*
X0289093Y0108714D01*
X0289199Y0109252D01*
X0289093Y0109789D01*
X0288787Y0110245D01*
X0288333Y0110549D01*
X0287795Y0110657D01*
D02*
G37*
G36*
X0299015Y0087401D02*
X0291929Y0087401D01*
X0291929Y0080314D01*
X0299015Y0080314D01*
X0299015Y0087401D01*
D02*
G37*
G36*
X0287992Y0087401D02*
X0280905Y0087401D01*
X0280905Y0080314D01*
X0287992Y0080314D01*
X0287992Y0087401D01*
D02*
G37*
G36*
X0271652Y0087432D02*
X0270728Y0087310D01*
X0269866Y0086953D01*
X0269126Y0086384D01*
X0268558Y0085645D01*
X0268201Y0084783D01*
X0268079Y0083858D01*
X0268201Y0082933D01*
X0268558Y0082071D01*
X0269126Y0081331D01*
X0269866Y0080763D01*
X0270728Y0080406D01*
X0271652Y0080283D01*
X0272578Y0080406D01*
X0273439Y0080763D01*
X0274180Y0081331D01*
X0274748Y0082071D01*
X0275105Y0082933D01*
X0275227Y0083858D01*
X0275105Y0084783D01*
X0274748Y0085645D01*
X0274180Y0086384D01*
X0273439Y0086953D01*
X0272578Y0087310D01*
X0271652Y0087432D01*
D02*
G37*
G36*
X0260630Y0087432D02*
X0259705Y0087310D01*
X0258842Y0086953D01*
X0258102Y0086384D01*
X0257534Y0085645D01*
X0257178Y0084783D01*
X0257056Y0083858D01*
X0257178Y0082933D01*
X0257534Y0082071D01*
X0258102Y0081331D01*
X0258842Y0080763D01*
X0259705Y0080406D01*
X0260630Y0080283D01*
X0261554Y0080406D01*
X0262416Y0080763D01*
X0263157Y0081331D01*
X0263725Y0082071D01*
X0264082Y0082933D01*
X0264203Y0083858D01*
X0264082Y0084783D01*
X0263725Y0085645D01*
X0263157Y0086384D01*
X0262416Y0086953D01*
X0261554Y0087310D01*
X0260630Y0087432D01*
D02*
G37*
G36*
X0247834Y0087432D02*
X0246909Y0087310D01*
X0246047Y0086953D01*
X0245307Y0086384D01*
X0244739Y0085645D01*
X0244382Y0084783D01*
X0244260Y0083858D01*
X0244382Y0082933D01*
X0244739Y0082071D01*
X0245307Y0081331D01*
X0246047Y0080763D01*
X0246909Y0080406D01*
X0247834Y0080283D01*
X0248759Y0080406D01*
X0249621Y0080763D01*
X0250361Y0081331D01*
X0250929Y0082071D01*
X0251286Y0082933D01*
X0251408Y0083858D01*
X0251286Y0084783D01*
X0250929Y0085645D01*
X0250361Y0086384D01*
X0249621Y0086953D01*
X0248759Y0087310D01*
X0247834Y0087432D01*
D02*
G37*
G36*
X0236811Y0087432D02*
X0235886Y0087310D01*
X0235024Y0086953D01*
X0234283Y0086384D01*
X0233716Y0085645D01*
X0233359Y0084783D01*
X0233237Y0083858D01*
X0233359Y0082933D01*
X0233716Y0082071D01*
X0234283Y0081331D01*
X0235024Y0080763D01*
X0235886Y0080406D01*
X0236811Y0080283D01*
X0237736Y0080406D01*
X0238598Y0080763D01*
X0239338Y0081331D01*
X0239906Y0082071D01*
X0240262Y0082933D01*
X0240384Y0083858D01*
X0240262Y0084783D01*
X0239906Y0085645D01*
X0239338Y0086384D01*
X0238598Y0086953D01*
X0237736Y0087310D01*
X0236811Y0087432D01*
D02*
G37*
G36*
X0224015Y0087432D02*
X0223090Y0087310D01*
X0222229Y0086953D01*
X0221488Y0086384D01*
X0220920Y0085645D01*
X0220563Y0084783D01*
X0220441Y0083858D01*
X0220563Y0082933D01*
X0220920Y0082071D01*
X0221488Y0081331D01*
X0222229Y0080763D01*
X0223090Y0080406D01*
X0224015Y0080283D01*
X0224940Y0080406D01*
X0225802Y0080763D01*
X0226542Y0081331D01*
X0227110Y0082071D01*
X0227467Y0082933D01*
X0227589Y0083858D01*
X0227467Y0084783D01*
X0227110Y0085645D01*
X0226542Y0086384D01*
X0225802Y0086953D01*
X0224940Y0087310D01*
X0224015Y0087432D01*
D02*
G37*
G36*
X0212991Y0087432D02*
X0212067Y0087310D01*
X0211205Y0086953D01*
X0210465Y0086384D01*
X0209897Y0085645D01*
X0209540Y0084783D01*
X0209418Y0083858D01*
X0209540Y0082933D01*
X0209897Y0082071D01*
X0210465Y0081331D01*
X0211205Y0080763D01*
X0212067Y0080406D01*
X0212991Y0080283D01*
X0213917Y0080406D01*
X0214779Y0080763D01*
X0215519Y0081331D01*
X0216087Y0082071D01*
X0216444Y0082933D01*
X0216566Y0083858D01*
X0216444Y0084783D01*
X0216087Y0085645D01*
X0215519Y0086384D01*
X0214779Y0086953D01*
X0213917Y0087310D01*
X0212991Y0087432D01*
D02*
G37*
G36*
X0201968Y0087432D02*
X0201043Y0087310D01*
X0200181Y0086953D01*
X0199440Y0086384D01*
X0198873Y0085645D01*
X0198516Y0084783D01*
X0198394Y0083858D01*
X0198516Y0082933D01*
X0198873Y0082071D01*
X0199440Y0081331D01*
X0200181Y0080763D01*
X0201043Y0080406D01*
X0201968Y0080283D01*
X0202893Y0080406D01*
X0203755Y0080763D01*
X0204495Y0081331D01*
X0205063Y0082071D01*
X0205419Y0082933D01*
X0205541Y0083858D01*
X0205419Y0084783D01*
X0205063Y0085645D01*
X0204495Y0086384D01*
X0203755Y0086953D01*
X0202893Y0087310D01*
X0201968Y0087432D01*
D02*
G37*
G36*
X0261130Y0077779D02*
X0261130Y0074358D01*
X0264551Y0074358D01*
X0264481Y0074890D01*
X0264082Y0075852D01*
X0263449Y0076677D01*
X0262623Y0077311D01*
X0261661Y0077709D01*
X0261130Y0077779D01*
D02*
G37*
G36*
X0248334Y0077779D02*
X0248334Y0074358D01*
X0251755Y0074358D01*
X0251684Y0074890D01*
X0251287Y0075852D01*
X0250653Y0076677D01*
X0249827Y0077311D01*
X0248866Y0077709D01*
X0248334Y0077779D01*
D02*
G37*
G36*
X0247334Y0077779D02*
X0246802Y0077709D01*
X0245841Y0077311D01*
X0245014Y0076677D01*
X0244382Y0075852D01*
X0243983Y0074890D01*
X0243913Y0074358D01*
X0247334Y0074358D01*
X0247334Y0077779D01*
D02*
G37*
G36*
X0260130Y0077779D02*
X0259598Y0077709D01*
X0258636Y0077311D01*
X0257810Y0076677D01*
X0257177Y0075852D01*
X0256779Y0074890D01*
X0256709Y0074358D01*
X0260130Y0074358D01*
X0260130Y0077779D01*
D02*
G37*
G36*
X0237311Y0077779D02*
X0237311Y0074358D01*
X0240732Y0074358D01*
X0240662Y0074890D01*
X0240262Y0075852D01*
X0239630Y0076677D01*
X0238804Y0077311D01*
X0237842Y0077709D01*
X0237311Y0077779D01*
D02*
G37*
G36*
X0224515Y0077779D02*
X0224515Y0074358D01*
X0227936Y0074358D01*
X0227866Y0074890D01*
X0227468Y0075852D01*
X0226835Y0076677D01*
X0226009Y0077311D01*
X0225047Y0077709D01*
X0224515Y0077779D01*
D02*
G37*
G36*
X0213492Y0077779D02*
X0213492Y0074358D01*
X0216913Y0074358D01*
X0216843Y0074890D01*
X0216444Y0075852D01*
X0215811Y0076677D01*
X0214984Y0077311D01*
X0214024Y0077709D01*
X0213492Y0077779D01*
D02*
G37*
G36*
X0202468Y0077779D02*
X0202468Y0074358D01*
X0205889Y0074358D01*
X0205819Y0074890D01*
X0205421Y0075852D01*
X0204787Y0076677D01*
X0203962Y0077311D01*
X0202999Y0077709D01*
X0202468Y0077779D01*
D02*
G37*
G36*
X0295972Y0077779D02*
X0295972Y0074358D01*
X0299393Y0074358D01*
X0299323Y0074890D01*
X0298925Y0075852D01*
X0298291Y0076677D01*
X0297464Y0077311D01*
X0296504Y0077709D01*
X0295972Y0077779D01*
D02*
G37*
G36*
X0284948Y0077779D02*
X0284948Y0074358D01*
X0288370Y0074358D01*
X0288300Y0074890D01*
X0287901Y0075852D01*
X0287268Y0076677D01*
X0286442Y0077311D01*
X0285479Y0077709D01*
X0284948Y0077779D01*
D02*
G37*
G36*
X0272153Y0077779D02*
X0272153Y0074358D01*
X0275574Y0074358D01*
X0275504Y0074890D01*
X0275106Y0075852D01*
X0274472Y0076677D01*
X0273647Y0077311D01*
X0272685Y0077709D01*
X0272153Y0077779D01*
D02*
G37*
G36*
X0236310Y0077779D02*
X0235779Y0077709D01*
X0234817Y0077311D01*
X0233992Y0076677D01*
X0233358Y0075852D01*
X0232960Y0074890D01*
X0232890Y0074358D01*
X0236310Y0074358D01*
X0236310Y0077779D01*
D02*
G37*
G36*
X0223515Y0077779D02*
X0222983Y0077709D01*
X0222022Y0077311D01*
X0221196Y0076677D01*
X0220563Y0075852D01*
X0220163Y0074890D01*
X0220094Y0074358D01*
X0223515Y0074358D01*
X0223515Y0077779D01*
D02*
G37*
G36*
X0212492Y0077779D02*
X0211960Y0077709D01*
X0210998Y0077311D01*
X0210173Y0076677D01*
X0209539Y0075852D01*
X0209141Y0074890D01*
X0209071Y0074358D01*
X0212492Y0074358D01*
X0212492Y0077779D01*
D02*
G37*
G36*
X0201467Y0077779D02*
X0200936Y0077709D01*
X0199975Y0077311D01*
X0199149Y0076677D01*
X0198516Y0075852D01*
X0198117Y0074890D01*
X0198047Y0074358D01*
X0201467Y0074358D01*
X0201467Y0077779D01*
D02*
G37*
G36*
X0294972Y0077779D02*
X0294440Y0077709D01*
X0293479Y0077311D01*
X0292653Y0076677D01*
X0292019Y0075852D01*
X0291621Y0074890D01*
X0291551Y0074358D01*
X0294972Y0074358D01*
X0294972Y0077779D01*
D02*
G37*
G36*
X0283947Y0077779D02*
X0283417Y0077709D01*
X0282455Y0077311D01*
X0281629Y0076677D01*
X0280996Y0075852D01*
X0280598Y0074890D01*
X0280526Y0074358D01*
X0283947Y0074358D01*
X0283947Y0077779D01*
D02*
G37*
G36*
X0271153Y0077779D02*
X0270621Y0077709D01*
X0269660Y0077311D01*
X0268834Y0076677D01*
X0268200Y0075852D01*
X0267802Y0074890D01*
X0267731Y0074358D01*
X0271153Y0074358D01*
X0271153Y0077779D01*
D02*
G37*
G36*
X0264551Y0073358D02*
X0261130Y0073358D01*
X0261130Y0069937D01*
X0261661Y0070007D01*
X0262623Y0070405D01*
X0263449Y0071039D01*
X0264082Y0071865D01*
X0264481Y0072826D01*
X0264551Y0073358D01*
D02*
G37*
G36*
X0251755Y0073358D02*
X0248334Y0073358D01*
X0248334Y0069937D01*
X0248866Y0070007D01*
X0249827Y0070405D01*
X0250653Y0071039D01*
X0251287Y0071865D01*
X0251684Y0072826D01*
X0251755Y0073358D01*
D02*
G37*
G36*
X0227936Y0073358D02*
X0224515Y0073358D01*
X0224515Y0069937D01*
X0225047Y0070007D01*
X0226009Y0070405D01*
X0226835Y0071039D01*
X0227468Y0071865D01*
X0227866Y0072826D01*
X0227936Y0073358D01*
D02*
G37*
G36*
X0205889Y0073358D02*
X0202468Y0073358D01*
X0202468Y0069937D01*
X0202999Y0070007D01*
X0203962Y0070405D01*
X0204787Y0071039D01*
X0205421Y0071865D01*
X0205819Y0072826D01*
X0205889Y0073358D01*
D02*
G37*
G36*
X0299393Y0073358D02*
X0295972Y0073358D01*
X0295972Y0069937D01*
X0296504Y0070007D01*
X0297464Y0070405D01*
X0298291Y0071039D01*
X0298925Y0071865D01*
X0299323Y0072826D01*
X0299393Y0073358D01*
D02*
G37*
G36*
X0288370Y0073358D02*
X0284948Y0073358D01*
X0284948Y0069937D01*
X0285479Y0070007D01*
X0286442Y0070405D01*
X0287268Y0071039D01*
X0287901Y0071865D01*
X0288300Y0072826D01*
X0288370Y0073358D01*
D02*
G37*
G36*
X0275574Y0073358D02*
X0272153Y0073358D01*
X0272153Y0069937D01*
X0272685Y0070007D01*
X0273647Y0070405D01*
X0274472Y0071039D01*
X0275106Y0071865D01*
X0275504Y0072826D01*
X0275574Y0073358D01*
D02*
G37*
G36*
X0240732Y0073358D02*
X0237311Y0073358D01*
X0237311Y0069937D01*
X0237842Y0070007D01*
X0238804Y0070405D01*
X0239630Y0071039D01*
X0240262Y0071865D01*
X0240662Y0072826D01*
X0240732Y0073358D01*
D02*
G37*
G36*
X0216913Y0073358D02*
X0213492Y0073358D01*
X0213492Y0069937D01*
X0214024Y0070007D01*
X0214984Y0070405D01*
X0215811Y0071039D01*
X0216444Y0071865D01*
X0216843Y0072826D01*
X0216913Y0073358D01*
D02*
G37*
G36*
X0236310Y0073358D02*
X0232890Y0073358D01*
X0232960Y0072826D01*
X0233358Y0071865D01*
X0233992Y0071039D01*
X0234817Y0070405D01*
X0235779Y0070007D01*
X0236310Y0069937D01*
X0236310Y0073358D01*
D02*
G37*
G36*
X0212492Y0073358D02*
X0209071Y0073358D01*
X0209141Y0072826D01*
X0209539Y0071865D01*
X0210173Y0071039D01*
X0210998Y0070405D01*
X0211960Y0070007D01*
X0212492Y0069937D01*
X0212492Y0073358D01*
D02*
G37*
G36*
X0294972Y0073358D02*
X0291551Y0073358D01*
X0291621Y0072826D01*
X0292019Y0071865D01*
X0292653Y0071039D01*
X0293479Y0070405D01*
X0294440Y0070007D01*
X0294972Y0069937D01*
X0294972Y0073358D01*
D02*
G37*
G36*
X0283947Y0073358D02*
X0280526Y0073358D01*
X0280598Y0072826D01*
X0280996Y0071865D01*
X0281629Y0071039D01*
X0282455Y0070405D01*
X0283417Y0070007D01*
X0283947Y0069937D01*
X0283947Y0073358D01*
D02*
G37*
G36*
X0271153Y0073358D02*
X0267731Y0073358D01*
X0267802Y0072826D01*
X0268200Y0071865D01*
X0268834Y0071039D01*
X0269660Y0070405D01*
X0270621Y0070007D01*
X0271153Y0069937D01*
X0271153Y0073358D01*
D02*
G37*
G36*
X0223515Y0073358D02*
X0220094Y0073358D01*
X0220163Y0072826D01*
X0220563Y0071865D01*
X0221196Y0071039D01*
X0222022Y0070405D01*
X0222983Y0070007D01*
X0223515Y0069937D01*
X0223515Y0073358D01*
D02*
G37*
G36*
X0201467Y0073358D02*
X0198047Y0073358D01*
X0198117Y0072826D01*
X0198516Y0071865D01*
X0199149Y0071039D01*
X0199975Y0070405D01*
X0200936Y0070007D01*
X0201467Y0069937D01*
X0201467Y0073358D01*
D02*
G37*
G36*
X0260130Y0073358D02*
X0256709Y0073358D01*
X0256779Y0072826D01*
X0257177Y0071865D01*
X0257810Y0071039D01*
X0258636Y0070405D01*
X0259598Y0070007D01*
X0260130Y0069937D01*
X0260130Y0073358D01*
D02*
G37*
G36*
X0247334Y0073358D02*
X0243913Y0073358D01*
X0243983Y0072826D01*
X0244382Y0071865D01*
X0245014Y0071039D01*
X0245841Y0070405D01*
X0246802Y0070007D01*
X0247334Y0069937D01*
X0247334Y0073358D01*
D02*
G37*
G36*
X0314960Y0089205D02*
X0313323Y0089077D01*
X0311726Y0088693D01*
X0310209Y0088065D01*
X0308809Y0087207D01*
X0307560Y0086140D01*
X0306494Y0084891D01*
X0305636Y0083491D01*
X0305007Y0081974D01*
X0304624Y0080376D01*
X0304495Y0078740D01*
X0304624Y0077103D01*
X0305007Y0075506D01*
X0305636Y0073989D01*
X0306494Y0072589D01*
X0307560Y0071340D01*
X0308809Y0070272D01*
X0310209Y0069415D01*
X0311726Y0068787D01*
X0313323Y0068403D01*
X0314960Y0068275D01*
X0316597Y0068403D01*
X0318194Y0068787D01*
X0319711Y0069415D01*
X0321112Y0070272D01*
X0322360Y0071340D01*
X0323427Y0072589D01*
X0324285Y0073989D01*
X0324913Y0075506D01*
X0325297Y0077103D01*
X0325426Y0078740D01*
X0325297Y0080376D01*
X0324913Y0081974D01*
X0324285Y0083491D01*
X0323427Y0084891D01*
X0322360Y0086140D01*
X0321112Y0087207D01*
X0319711Y0088065D01*
X0318194Y0088693D01*
X0316597Y0089077D01*
X0314960Y0089205D01*
D02*
G37*
G36*
X0181102Y0089205D02*
X0179465Y0089077D01*
X0177868Y0088693D01*
X0176351Y0088065D01*
X0174950Y0087207D01*
X0173701Y0086140D01*
X0172635Y0084891D01*
X0171777Y0083491D01*
X0171149Y0081974D01*
X0170765Y0080376D01*
X0170637Y0078740D01*
X0170765Y0077103D01*
X0171149Y0075506D01*
X0171777Y0073989D01*
X0172635Y0072589D01*
X0173701Y0071340D01*
X0174950Y0070272D01*
X0176351Y0069415D01*
X0177868Y0068787D01*
X0179465Y0068403D01*
X0181102Y0068275D01*
X0182739Y0068403D01*
X0184336Y0068787D01*
X0185852Y0069415D01*
X0187253Y0070272D01*
X0188502Y0071340D01*
X0189569Y0072589D01*
X0190427Y0073989D01*
X0191055Y0075506D01*
X0191439Y0077103D01*
X0191567Y0078740D01*
X0191439Y0080376D01*
X0191055Y0081974D01*
X0190427Y0083491D01*
X0189569Y0084891D01*
X0188502Y0086140D01*
X0187253Y0087207D01*
X0185852Y0088065D01*
X0184336Y0088693D01*
X0182739Y0089077D01*
X0181102Y0089205D01*
D02*
G37*
%LPD*%
D80*
X0278937Y0147834D02*
X0291102Y0135669D01*
X0278937Y0147834D02*
X0278937Y0158661D01*
X0271455Y0166142D02*
X0278937Y0158661D01*
X0291102Y0135669D02*
X0319685Y0135669D01*
D81*
X0231889Y0151575D02*
X0233463Y0149999D01*
X0243701Y0149999D01*
X0271775Y0139885D02*
X0271775Y0140869D01*
X0271849Y0140945D01*
X0258070Y0126181D02*
X0271775Y0139885D01*
X0271849Y0140945D02*
X0271849Y0155512D01*
X0297638Y0118897D02*
X0319685Y0118897D01*
X0281496Y0135039D02*
X0297638Y0118897D01*
X0239567Y0155512D02*
X0255512Y0155512D01*
X0261417Y0149606D01*
X0227362Y0167716D02*
X0239567Y0155512D01*
X0185630Y0177558D02*
X0195472Y0167716D01*
X0227362Y0167716D01*
X0261811Y0167717D02*
X0261811Y0207873D01*
X0284174Y0093858D02*
X0287795Y0097479D01*
X0287795Y0109252D01*
X0271652Y0093858D02*
X0284174Y0093858D01*
X0247834Y0093858D02*
X0260630Y0093858D01*
X0236811Y0093858D02*
X0247834Y0093858D01*
X0224015Y0093858D02*
X0236811Y0093858D01*
X0212991Y0093858D02*
X0224015Y0093858D01*
X0201968Y0093858D02*
X0212991Y0093858D01*
X0260630Y0093858D02*
X0271652Y0093858D01*
X0284645Y0119290D02*
X0294685Y0109252D01*
X0279921Y0119290D02*
X0284645Y0119290D01*
X0253542Y0159449D02*
X0253542Y0159449D01*
X0261811Y0167717D01*
X0250000Y0159449D02*
X0250000Y0172441D01*
X0214567Y0207873D02*
X0250000Y0172441D01*
X0216337Y0155513D02*
X0227558Y0144291D01*
X0185826Y0155513D02*
X0216337Y0155513D01*
X0277756Y0121457D02*
X0279921Y0119290D01*
X0280708Y0122834D02*
X0286704Y0122834D01*
X0287688Y0121849D01*
X0287795Y0121849D01*
X0288189Y0150787D02*
X0319685Y0182283D01*
X0281889Y0150787D02*
X0288189Y0150787D01*
D82*
X0175393Y0101811D02*
D03*
X0224015Y0093858D02*
D03*
X0212991Y0093858D02*
D03*
X0201968Y0093858D02*
D03*
X0295472Y0083858D02*
D03*
X0247834Y0093858D02*
D03*
X0284448Y0083858D02*
D03*
X0236811Y0093858D02*
D03*
X0260630Y0093858D02*
D03*
X0271652Y0093858D02*
D03*
X0319685Y0135669D02*
D03*
X0319685Y0118897D02*
D03*
X0319685Y0182283D02*
D03*
D83*
X0175393Y0111811D02*
D03*
X0185630Y0177558D02*
D03*
X0175630Y0177558D02*
D03*
X0224015Y0083858D02*
D03*
X0224015Y0073858D02*
D03*
X0212991Y0083858D02*
D03*
X0212991Y0073858D02*
D03*
X0201968Y0083858D02*
D03*
X0201968Y0073858D02*
D03*
X0295472Y0073858D02*
D03*
X0247834Y0083858D02*
D03*
X0247834Y0073858D02*
D03*
X0284448Y0073858D02*
D03*
X0236811Y0083858D02*
D03*
X0236811Y0073858D02*
D03*
X0260630Y0083858D02*
D03*
X0260630Y0073858D02*
D03*
X0271652Y0083858D02*
D03*
X0271652Y0073858D02*
D03*
X0319685Y0155669D02*
D03*
X0319685Y0145669D02*
D03*
X0319685Y0108898D02*
D03*
X0319685Y0172283D02*
D03*
D84*
X0195630Y0177558D02*
D03*
D85*
X0185826Y0135828D02*
D03*
X0261811Y0207873D02*
D03*
X0214567Y0207873D02*
D03*
D86*
X0185826Y0155513D02*
D03*
D87*
X0281497Y0207873D02*
D03*
X0234252Y0207873D02*
D03*
D88*
X0181102Y0078740D02*
D03*
X0314960Y0212598D02*
D03*
X0181102Y0212598D02*
D03*
X0314960Y0078740D02*
D03*
D89*
X0305512Y0179528D02*
D03*
X0305512Y0132282D02*
D03*
X0293700Y0203150D02*
D03*
X0281890Y0179528D02*
D03*
X0270078Y0203150D02*
D03*
X0222834Y0203150D02*
D03*
X0211023Y0132282D02*
D03*
X0199212Y0203150D02*
D03*
X0199212Y0108661D02*
D03*
X0231889Y0151575D02*
D03*
X0258070Y0126181D02*
D03*
X0271849Y0155512D02*
D03*
X0271849Y0140945D02*
D03*
X0281496Y0135039D02*
D03*
X0261417Y0149606D02*
D03*
X0271455Y0166142D02*
D03*
X0261811Y0177558D02*
D03*
X0287795Y0109252D02*
D03*
X0294685Y0109252D02*
D03*
X0253542Y0159449D02*
D03*
X0250000Y0159449D02*
D03*
X0227558Y0144291D02*
D03*
X0287795Y0121849D02*
D03*
X0277756Y0121457D02*
D03*
X0280708Y0122834D02*
D03*
X0281889Y0150787D02*
D03*
D90*
X0252362Y0149999D02*
D03*
X0252362Y0141339D02*
D03*
X0248030Y0145669D02*
D03*
X0243701Y0149999D02*
D03*
X0243701Y0141339D02*
D03*
M02*