%MOIN*%
%OFA0B0*%
%FSLAX25Y25*%
%IPPOS*%
%LPD*%
%ADD11C,0.01*%
%ADD22C,0.01*%
%ADD23C,0.01*%
%ADD24C,0.01*%
G01*
G75*
D11*
X0119210Y0362342D02*
X0123208Y0362342D01*
X0123208Y0356345D01*
X0119210Y0356345D01*
X0123208Y0359344D02*
X0121210Y0359344D01*
X0117211Y0356345D02*
X0117211Y0360344D01*
X0114212Y0360344D01*
X0113212Y0359344D01*
X0113212Y0356345D01*
X0108214Y0356345D02*
X0110213Y0356345D01*
X0111213Y0357345D01*
X0111213Y0359344D01*
X0110213Y0360344D01*
X0108214Y0360344D01*
X0107214Y0359344D01*
X0107214Y0358345D01*
X0111213Y0358345D01*
X0105214Y0360344D02*
X0105214Y0356345D01*
X0105214Y0358345D01*
X0104214Y0359344D01*
X0103214Y0360344D01*
X0102216Y0360344D01*
X0097217Y0354346D02*
X0096218Y0354346D01*
X0095218Y0355346D01*
X0095218Y0360344D01*
X0098217Y0360344D01*
X0099217Y0359344D01*
X0099217Y0357345D01*
X0098217Y0356345D01*
X0095218Y0356345D01*
X0093219Y0360344D02*
X0093219Y0357345D01*
X0092219Y0356345D01*
X0089220Y0356345D01*
X0089220Y0355346D01*
X0090220Y0354346D01*
X0091219Y0354346D01*
X0089220Y0356345D02*
X0089220Y0360344D01*
X0081222Y0362342D02*
X0081222Y0356345D01*
X0081222Y0359344D01*
X0077223Y0359344D01*
X0077223Y0362342D01*
X0077223Y0356345D01*
X0074225Y0360344D02*
X0072225Y0360344D01*
X0071226Y0359344D01*
X0071226Y0356345D01*
X0074225Y0356345D01*
X0075225Y0357345D01*
X0074225Y0358345D01*
X0071226Y0358345D01*
X0069226Y0360344D02*
X0069226Y0356345D01*
X0069226Y0358345D01*
X0068227Y0359344D01*
X0067227Y0360344D01*
X0066227Y0360344D01*
X0063227Y0360344D02*
X0061229Y0356345D01*
X0059230Y0360344D01*
X0054230Y0356345D02*
X0056231Y0356345D01*
X0057230Y0357345D01*
X0057230Y0359344D01*
X0056231Y0360344D01*
X0054230Y0360344D01*
X0053232Y0359344D01*
X0053232Y0358345D01*
X0057230Y0358345D01*
X0051232Y0356345D02*
X0048233Y0356345D01*
X0047234Y0357345D01*
X0048233Y0358345D01*
X0050232Y0358345D01*
X0051232Y0359344D01*
X0050232Y0360344D01*
X0047234Y0360344D01*
X0044234Y0361344D02*
X0044234Y0360344D01*
X0045234Y0360344D01*
X0043235Y0360344D01*
X0044234Y0360344D01*
X0044234Y0357345D01*
X0043235Y0356345D01*
X0040236Y0356345D02*
X0038236Y0356345D01*
X0039236Y0356345D01*
X0039236Y0360344D01*
X0040236Y0360344D01*
X0035237Y0356345D02*
X0035237Y0360344D01*
X0032238Y0360344D01*
X0031239Y0359344D01*
X0031239Y0356345D01*
X0027239Y0354346D02*
X0026240Y0354346D01*
X0025241Y0355346D01*
X0025241Y0360344D01*
X0028240Y0360344D01*
X0029239Y0359344D01*
X0029239Y0357345D01*
X0028240Y0356345D01*
X0025241Y0356345D01*
X0123015Y0353061D02*
X0119017Y0353061D01*
X0121015Y0353061D01*
X0121015Y0347063D01*
X0113019Y0353061D02*
X0117018Y0353061D01*
X0117018Y0347063D01*
X0113019Y0347063D01*
X0117018Y0350062D02*
X0115018Y0350062D01*
X0107021Y0352061D02*
X0108020Y0353061D01*
X0110020Y0353061D01*
X0111020Y0352061D01*
X0111020Y0348062D01*
X0110020Y0347063D01*
X0108020Y0347063D01*
X0107021Y0348062D01*
X0107021Y0350062D01*
X0109020Y0350062D01*
G04 next file*
G04*
G04 #@! TF.GenerationSoftware,Altium Limited,Altium Designer,21.7.2 (23)*
G04*
G04 Layer_Color=32896*
G04 skipping 70
G04*
G04 #@! TF.SameCoordinates,3D67BF19-0A55-4891-8FEB-F4BE30BF2CF6*
G04*
G04*
G04 #@! TF.FilePolarity,Positive*
G04*
G01*
G75*
D22*
X0288501Y0362342D02*
X0292500Y0362342D01*
X0292500Y0356345D01*
X0288501Y0356345D01*
X0292500Y0359344D02*
X0290501Y0359344D01*
X0286502Y0356345D02*
X0286502Y0360344D01*
X0283503Y0360344D01*
X0282503Y0359344D01*
X0282503Y0356345D01*
X0277505Y0356345D02*
X0279504Y0356345D01*
X0280504Y0357345D01*
X0280504Y0359344D01*
X0279504Y0360344D01*
X0277505Y0360344D01*
X0276505Y0359344D01*
X0276505Y0358345D01*
X0280504Y0358345D01*
X0274506Y0360344D02*
X0274506Y0356345D01*
X0274506Y0358345D01*
X0273506Y0359344D01*
X0272506Y0360344D01*
X0271506Y0360344D01*
X0266508Y0354346D02*
X0265509Y0354346D01*
X0264509Y0355346D01*
X0264509Y0360344D01*
X0267508Y0360344D01*
X0268508Y0359344D01*
X0268508Y0357345D01*
X0267508Y0356345D01*
X0264509Y0356345D01*
X0262510Y0360344D02*
X0262510Y0357345D01*
X0261510Y0356345D01*
X0258510Y0356345D01*
X0258510Y0355346D01*
X0259510Y0354346D01*
X0260510Y0354346D01*
X0258510Y0356345D02*
X0258510Y0360344D01*
X0250513Y0362342D02*
X0250513Y0356345D01*
X0250513Y0359344D01*
X0246515Y0359344D01*
X0246515Y0362342D01*
X0246515Y0356345D01*
X0243516Y0360344D02*
X0241516Y0360344D01*
X0240517Y0359344D01*
X0240517Y0356345D01*
X0243516Y0356345D01*
X0244516Y0357345D01*
X0243516Y0358345D01*
X0240517Y0358345D01*
X0238517Y0360344D02*
X0238517Y0356345D01*
X0238517Y0358345D01*
X0237517Y0359344D01*
X0236518Y0360344D01*
X0235517Y0360344D01*
X0232519Y0360344D02*
X0230520Y0356345D01*
X0228521Y0360344D01*
X0223522Y0356345D02*
X0225522Y0356345D01*
X0226521Y0357345D01*
X0226521Y0359344D01*
X0225522Y0360344D01*
X0223522Y0360344D01*
X0222522Y0359344D01*
X0222522Y0358345D01*
X0226521Y0358345D01*
X0220522Y0356345D02*
X0217524Y0356345D01*
X0216525Y0357345D01*
X0217524Y0358345D01*
X0219523Y0358345D01*
X0220522Y0359344D01*
X0219523Y0360344D01*
X0216525Y0360344D01*
X0213525Y0361344D02*
X0213525Y0360344D01*
X0214525Y0360344D01*
X0212526Y0360344D01*
X0213525Y0360344D01*
X0213525Y0357345D01*
X0212526Y0356345D01*
X0209527Y0356345D02*
X0207527Y0356345D01*
X0208527Y0356345D01*
X0208527Y0360344D01*
X0209527Y0360344D01*
X0204528Y0356345D02*
X0204528Y0360344D01*
X0201528Y0360344D01*
X0200530Y0359344D01*
X0200530Y0356345D01*
X0196531Y0354346D02*
X0195531Y0354346D01*
X0194532Y0355346D01*
X0194532Y0360344D01*
X0197531Y0360344D01*
X0198530Y0359344D01*
X0198530Y0357345D01*
X0197531Y0356345D01*
X0194532Y0356345D01*
X0292307Y0353061D02*
X0288308Y0353061D01*
X0290307Y0353061D01*
X0290307Y0347063D01*
X0282310Y0353061D02*
X0286309Y0353061D01*
X0286309Y0347063D01*
X0282310Y0347063D01*
X0286309Y0350062D02*
X0284309Y0350062D01*
X0276312Y0352061D02*
X0277312Y0353061D01*
X0279311Y0353061D01*
X0280311Y0352061D01*
X0280311Y0348062D01*
X0279311Y0347063D01*
X0277312Y0347063D01*
X0276312Y0348062D01*
X0276312Y0350062D01*
X0278311Y0350062D01*
G04 next file*
G04*
G04 #@! TF.GenerationSoftware,Altium Limited,Altium Designer,21.7.2 (23)*
G04*
G04 Layer_Color=32896*
G04 skipping 70
G04*
G04 #@! TF.SameCoordinates,3D67BF19-0A55-4891-8FEB-F4BE30BF2CF6*
G04*
G04*
G04 #@! TF.FilePolarity,Positive*
G04*
G01*
G75*
D23*
X0119210Y0193052D02*
X0123208Y0193052D01*
X0123208Y0187054D01*
X0119210Y0187054D01*
X0123208Y0190053D02*
X0121210Y0190053D01*
X0117211Y0187054D02*
X0117211Y0191053D01*
X0114212Y0191053D01*
X0113212Y0190053D01*
X0113212Y0187054D01*
X0108214Y0187054D02*
X0110213Y0187054D01*
X0111213Y0188054D01*
X0111213Y0190053D01*
X0110213Y0191053D01*
X0108214Y0191053D01*
X0107214Y0190053D01*
X0107214Y0189054D01*
X0111213Y0189054D01*
X0105214Y0191053D02*
X0105214Y0187054D01*
X0105214Y0189054D01*
X0104214Y0190053D01*
X0103214Y0191053D01*
X0102216Y0191053D01*
X0097217Y0185055D02*
X0096218Y0185055D01*
X0095218Y0186055D01*
X0095218Y0191053D01*
X0098217Y0191053D01*
X0099217Y0190053D01*
X0099217Y0188054D01*
X0098217Y0187054D01*
X0095218Y0187054D01*
X0093219Y0191053D02*
X0093219Y0188054D01*
X0092219Y0187054D01*
X0089220Y0187054D01*
X0089220Y0186055D01*
X0090220Y0185055D01*
X0091219Y0185055D01*
X0089220Y0187054D02*
X0089220Y0191053D01*
X0081222Y0193052D02*
X0081222Y0187054D01*
X0081222Y0190053D01*
X0077223Y0190053D01*
X0077223Y0193052D01*
X0077223Y0187054D01*
X0074225Y0191053D02*
X0072225Y0191053D01*
X0071226Y0190053D01*
X0071226Y0187054D01*
X0074225Y0187054D01*
X0075225Y0188054D01*
X0074225Y0189054D01*
X0071226Y0189054D01*
X0069226Y0191053D02*
X0069226Y0187054D01*
X0069226Y0189054D01*
X0068227Y0190053D01*
X0067227Y0191053D01*
X0066227Y0191053D01*
X0063227Y0191053D02*
X0061229Y0187054D01*
X0059230Y0191053D01*
X0054230Y0187054D02*
X0056231Y0187054D01*
X0057230Y0188054D01*
X0057230Y0190053D01*
X0056231Y0191053D01*
X0054230Y0191053D01*
X0053232Y0190053D01*
X0053232Y0189054D01*
X0057230Y0189054D01*
X0051232Y0187054D02*
X0048233Y0187054D01*
X0047234Y0188054D01*
X0048233Y0189054D01*
X0050232Y0189054D01*
X0051232Y0190053D01*
X0050232Y0191053D01*
X0047234Y0191053D01*
X0044234Y0192053D02*
X0044234Y0191053D01*
X0045234Y0191053D01*
X0043235Y0191053D01*
X0044234Y0191053D01*
X0044234Y0188054D01*
X0043235Y0187054D01*
X0040236Y0187054D02*
X0038236Y0187054D01*
X0039236Y0187054D01*
X0039236Y0191053D01*
X0040236Y0191053D01*
X0035237Y0187054D02*
X0035237Y0191053D01*
X0032238Y0191053D01*
X0031239Y0190053D01*
X0031239Y0187054D01*
X0027239Y0185055D02*
X0026240Y0185055D01*
X0025241Y0186055D01*
X0025241Y0191053D01*
X0028240Y0191053D01*
X0029239Y0190053D01*
X0029239Y0188054D01*
X0028240Y0187054D01*
X0025241Y0187054D01*
X0123015Y0183770D02*
X0119017Y0183770D01*
X0121015Y0183770D01*
X0121015Y0177772D01*
X0113019Y0183770D02*
X0117018Y0183770D01*
X0117018Y0177772D01*
X0113019Y0177772D01*
X0117018Y0180771D02*
X0115018Y0180771D01*
X0107021Y0182770D02*
X0108020Y0183770D01*
X0110020Y0183770D01*
X0111020Y0182770D01*
X0111020Y0178771D01*
X0110020Y0177772D01*
X0108020Y0177772D01*
X0107021Y0178771D01*
X0107021Y0180771D01*
X0109020Y0180771D01*
G04 next file*
G04*
G04 #@! TF.GenerationSoftware,Altium Limited,Altium Designer,21.7.2 (23)*
G04*
G04 Layer_Color=32896*
G04 skipping 70
G04*
G04 #@! TF.SameCoordinates,3D67BF19-0A55-4891-8FEB-F4BE30BF2CF6*
G04*
G04*
G04 #@! TF.FilePolarity,Positive*
G04*
G01*
G75*
D24*
X0288501Y0193052D02*
X0292500Y0193052D01*
X0292500Y0187054D01*
X0288501Y0187054D01*
X0292500Y0190053D02*
X0290501Y0190053D01*
X0286502Y0187054D02*
X0286502Y0191053D01*
X0283503Y0191053D01*
X0282503Y0190053D01*
X0282503Y0187054D01*
X0277505Y0187054D02*
X0279504Y0187054D01*
X0280504Y0188054D01*
X0280504Y0190053D01*
X0279504Y0191053D01*
X0277505Y0191053D01*
X0276505Y0190053D01*
X0276505Y0189054D01*
X0280504Y0189054D01*
X0274506Y0191053D02*
X0274506Y0187054D01*
X0274506Y0189054D01*
X0273506Y0190053D01*
X0272506Y0191053D01*
X0271506Y0191053D01*
X0266508Y0185055D02*
X0265509Y0185055D01*
X0264509Y0186055D01*
X0264509Y0191053D01*
X0267508Y0191053D01*
X0268508Y0190053D01*
X0268508Y0188054D01*
X0267508Y0187054D01*
X0264509Y0187054D01*
X0262510Y0191053D02*
X0262510Y0188054D01*
X0261510Y0187054D01*
X0258510Y0187054D01*
X0258510Y0186055D01*
X0259510Y0185055D01*
X0260510Y0185055D01*
X0258510Y0187054D02*
X0258510Y0191053D01*
X0250513Y0193052D02*
X0250513Y0187054D01*
X0250513Y0190053D01*
X0246515Y0190053D01*
X0246515Y0193052D01*
X0246515Y0187054D01*
X0243516Y0191053D02*
X0241516Y0191053D01*
X0240517Y0190053D01*
X0240517Y0187054D01*
X0243516Y0187054D01*
X0244516Y0188054D01*
X0243516Y0189054D01*
X0240517Y0189054D01*
X0238517Y0191053D02*
X0238517Y0187054D01*
X0238517Y0189054D01*
X0237517Y0190053D01*
X0236518Y0191053D01*
X0235517Y0191053D01*
X0232519Y0191053D02*
X0230520Y0187054D01*
X0228521Y0191053D01*
X0223522Y0187054D02*
X0225522Y0187054D01*
X0226521Y0188054D01*
X0226521Y0190053D01*
X0225522Y0191053D01*
X0223522Y0191053D01*
X0222522Y0190053D01*
X0222522Y0189054D01*
X0226521Y0189054D01*
X0220522Y0187054D02*
X0217524Y0187054D01*
X0216525Y0188054D01*
X0217524Y0189054D01*
X0219523Y0189054D01*
X0220522Y0190053D01*
X0219523Y0191053D01*
X0216525Y0191053D01*
X0213525Y0192053D02*
X0213525Y0191053D01*
X0214525Y0191053D01*
X0212526Y0191053D01*
X0213525Y0191053D01*
X0213525Y0188054D01*
X0212526Y0187054D01*
X0209527Y0187054D02*
X0207527Y0187054D01*
X0208527Y0187054D01*
X0208527Y0191053D01*
X0209527Y0191053D01*
X0204528Y0187054D02*
X0204528Y0191053D01*
X0201528Y0191053D01*
X0200530Y0190053D01*
X0200530Y0187054D01*
X0196531Y0185055D02*
X0195531Y0185055D01*
X0194532Y0186055D01*
X0194532Y0191053D01*
X0197531Y0191053D01*
X0198530Y0190053D01*
X0198530Y0188054D01*
X0197531Y0187054D01*
X0194532Y0187054D01*
X0292307Y0183770D02*
X0288308Y0183770D01*
X0290307Y0183770D01*
X0290307Y0177772D01*
X0282310Y0183770D02*
X0286309Y0183770D01*
X0286309Y0177772D01*
X0282310Y0177772D01*
X0286309Y0180771D02*
X0284309Y0180771D01*
X0276312Y0182770D02*
X0277312Y0183770D01*
X0279311Y0183770D01*
X0280311Y0182770D01*
X0280311Y0178771D01*
X0279311Y0177772D01*
X0277312Y0177772D01*
X0276312Y0178771D01*
X0276312Y0180771D01*
X0278311Y0180771D01*
M02*