G04*
G04 #@! TF.GenerationSoftware,Altium Limited,Altium Designer,21.7.2 (23)*
G04*
G04 Layer_Color=8388736*
%FSLAX25Y25*%
%MOIN*%
G70*
G04*
G04 #@! TF.SameCoordinates,3D67BF19-0A55-4891-8FEB-F4BE30BF2CF6*
G04*
G04*
G04 #@! TF.FilePolarity,Negative*
G04*
G01*
G75*
%ADD14R,0.03961X0.04351*%
%ADD15R,0.04343X0.03556*%
%ADD16R,0.03556X0.04343*%
%ADD17R,0.13202X0.13202*%
%ADD18R,0.04068X0.01981*%
%ADD19R,0.01981X0.04068*%
%ADD20R,0.03985X0.05241*%
%ADD21R,0.03568X0.03563*%
%ADD22R,0.03379X0.03174*%
%ADD23C,0.04039*%
%ADD24R,0.06706X0.06706*%
%ADD25C,0.06706*%
%ADD26R,0.06706X0.06706*%
%ADD27C,0.08477*%
%ADD28R,0.08477X0.08477*%
%ADD29R,0.08477X0.08477*%
%ADD30C,0.20485*%
%ADD31C,0.02375*%
%ADD32C,0.03556*%
G36*
X61988Y59685D02*
X59823Y57480D01*
X48839D01*
X46673Y59685D01*
Y63189D01*
X49724D01*
X52067Y60905D01*
X56595D01*
X58937Y63189D01*
X61988D01*
Y59685D01*
D02*
G37*
G36*
Y72598D02*
Y69095D01*
X58937D01*
X56595Y71378D01*
X52067D01*
X49724Y69095D01*
X46673D01*
Y72598D01*
X48839Y74803D01*
X59823D01*
X61988Y72598D01*
D02*
G37*
D14*
X50000Y83856D02*
D03*
Y89372D02*
D03*
D15*
X118504Y45472D02*
D03*
Y51378D02*
D03*
X125394Y51378D02*
D03*
Y45472D02*
D03*
D16*
X62402Y88583D02*
D03*
X56496D02*
D03*
D17*
X78740Y78740D02*
D03*
D18*
X69055Y72835D02*
D03*
Y74803D02*
D03*
Y76772D02*
D03*
Y78740D02*
D03*
Y80709D02*
D03*
Y82677D02*
D03*
Y84646D02*
D03*
X88425D02*
D03*
Y82677D02*
D03*
Y80709D02*
D03*
Y78740D02*
D03*
Y76772D02*
D03*
Y74803D02*
D03*
Y72835D02*
D03*
D19*
X72835Y88425D02*
D03*
X74803D02*
D03*
X76772D02*
D03*
X78740D02*
D03*
X80709D02*
D03*
X82677D02*
D03*
X84646D02*
D03*
Y69055D02*
D03*
X82677D02*
D03*
X80709D02*
D03*
X78740D02*
D03*
X76772D02*
D03*
X74803D02*
D03*
X72835D02*
D03*
D20*
X108268Y73782D02*
D03*
Y67951D02*
D03*
Y89530D02*
D03*
Y83699D02*
D03*
X85433Y59608D02*
D03*
Y53777D02*
D03*
D21*
X71260Y59057D02*
D03*
Y54329D02*
D03*
D22*
X77165Y59158D02*
D03*
Y54228D02*
D03*
D23*
X58956Y59799D02*
D03*
Y72484D02*
D03*
D24*
X6102Y34882D02*
D03*
X54724Y26929D02*
D03*
X43701D02*
D03*
X32677D02*
D03*
X126181Y16929D02*
D03*
X78543Y26929D02*
D03*
X115157Y16929D02*
D03*
X67520Y26929D02*
D03*
X91339D02*
D03*
X102362D02*
D03*
X150394Y68740D02*
D03*
X150394Y51968D02*
D03*
Y115354D02*
D03*
D25*
X6102Y44882D02*
D03*
X16339Y110630D02*
D03*
X6339D02*
D03*
X54724Y16929D02*
D03*
Y6929D02*
D03*
X43701Y16929D02*
D03*
Y6929D02*
D03*
X32677Y16929D02*
D03*
Y6929D02*
D03*
X126181D02*
D03*
X78543Y16929D02*
D03*
Y6929D02*
D03*
X115157D02*
D03*
X67520Y16929D02*
D03*
Y6929D02*
D03*
X91339Y16929D02*
D03*
Y6929D02*
D03*
X102362Y16929D02*
D03*
Y6929D02*
D03*
X150394Y88740D02*
D03*
Y78740D02*
D03*
X150394Y41969D02*
D03*
Y105354D02*
D03*
D26*
X26339Y110630D02*
D03*
D27*
X16535Y68899D02*
D03*
X92521Y140945D02*
D03*
X45276Y140945D02*
D03*
D28*
X16535Y88584D02*
D03*
D29*
X112206Y140945D02*
D03*
X64961Y140945D02*
D03*
D30*
X11811Y11811D02*
D03*
X145669Y145669D02*
D03*
X11811D02*
D03*
X145669Y11811D02*
D03*
D31*
X136221Y112599D02*
D03*
Y65354D02*
D03*
X124409Y136221D02*
D03*
X112599Y112599D02*
D03*
X100787Y136221D02*
D03*
X53543D02*
D03*
X41732Y65354D02*
D03*
X29921Y136221D02*
D03*
Y41732D02*
D03*
X62598Y84646D02*
D03*
X88779Y59252D02*
D03*
X102559Y88583D02*
D03*
Y74016D02*
D03*
X112205Y68110D02*
D03*
X92126Y82677D02*
D03*
X102165Y99213D02*
D03*
X92520Y110630D02*
D03*
X118504Y42323D02*
D03*
X125394D02*
D03*
X84252Y92520D02*
D03*
X80709D02*
D03*
X58268Y77362D02*
D03*
X118504Y54921D02*
D03*
X108465Y54528D02*
D03*
X111417Y55905D02*
D03*
X112598Y83858D02*
D03*
D32*
X83071Y83071D02*
D03*
Y74410D02*
D03*
X78740Y78740D02*
D03*
X74410Y83071D02*
D03*
Y74410D02*
D03*
M02*
