G04*
G04 #@! TF.GenerationSoftware,Altium Limited,Altium Designer,21.7.2 (23)*
G04*
G04 Layer_Color=65535*
%FSLAX25Y25*%
%MOIN*%
G70*
G04*
G04 #@! TF.SameCoordinates,3D67BF19-0A55-4891-8FEB-F4BE30BF2CF6*
G04*
G04*
G04 #@! TF.FilePolarity,Positive*
G04*
G01*
G75*
%ADD10C,0.00984*%
%ADD11C,0.01000*%
%ADD12C,0.00787*%
%ADD13C,0.00394*%
D10*
X69980Y66339D02*
X69242Y66765D01*
Y65912D01*
X69980Y66339D01*
X54823Y55216D02*
X54085Y55643D01*
Y54790D01*
X54823Y55216D01*
D11*
X86221Y38189D02*
X107480D01*
X86221Y51181D02*
X107480D01*
Y38189D02*
Y51181D01*
X86221Y38189D02*
Y51181D01*
Y32283D02*
X107480D01*
X86221Y44488D02*
X107480D01*
Y32283D02*
Y44488D01*
X86221Y32283D02*
Y44488D01*
X62402Y38189D02*
X83661D01*
X62402Y51181D02*
X83661D01*
Y38189D02*
Y51181D01*
X62402Y38189D02*
Y51181D01*
Y32283D02*
X83661D01*
X62402Y44488D02*
X83661D01*
Y32283D02*
Y44488D01*
X62402Y32283D02*
Y44488D01*
X27559Y32283D02*
X59842D01*
X27559Y44488D02*
X59842D01*
Y32283D02*
Y44488D01*
X27559Y32283D02*
Y44488D01*
X110039Y27953D02*
X131299D01*
X110039Y40945D02*
X131299D01*
Y27953D02*
Y40945D01*
X110039Y27953D02*
Y40945D01*
Y22047D02*
X131299D01*
X110039Y34252D02*
X131299D01*
Y22047D02*
Y34252D01*
X110039Y22047D02*
Y34252D01*
X27559Y38189D02*
X59842D01*
X27559Y51181D02*
X59842D01*
Y38189D02*
Y51181D01*
X27559Y38189D02*
Y51181D01*
X6052Y120553D02*
X5527Y121078D01*
X4478D01*
X3953Y120553D01*
Y120028D01*
X4478Y119503D01*
X5527D01*
X6052Y118979D01*
Y118454D01*
X5527Y117929D01*
X4478D01*
X3953Y118454D01*
X7101Y121078D02*
X9200D01*
X8151D01*
Y117929D01*
X11824Y121078D02*
X10775D01*
X10250Y120553D01*
Y118454D01*
X10775Y117929D01*
X11824D01*
X12349Y118454D01*
Y120553D01*
X11824Y121078D01*
X13398Y117929D02*
Y121078D01*
X15498Y117929D01*
Y121078D01*
X16547D02*
Y117929D01*
X18121D01*
X18646Y118454D01*
Y118979D01*
X18121Y119503D01*
X16547D01*
X18121D01*
X18646Y120028D01*
Y120553D01*
X18121Y121078D01*
X16547D01*
X19696Y117929D02*
Y120028D01*
X20745Y121078D01*
X21795Y120028D01*
Y117929D01*
Y119503D01*
X19696D01*
X22844Y121078D02*
X24943D01*
X23894D01*
Y117929D01*
X25993Y121078D02*
X28092D01*
X27042D01*
Y117929D01*
X14516Y36104D02*
X13992Y36629D01*
X12942D01*
X12417Y36104D01*
Y34005D01*
X12942Y33480D01*
X13992D01*
X14516Y34005D01*
X17665Y36104D02*
X17140Y36629D01*
X16091D01*
X15566Y36104D01*
Y35579D01*
X16091Y35055D01*
X17140D01*
X17665Y34530D01*
Y34005D01*
X17140Y33480D01*
X16091D01*
X15566Y34005D01*
X18714Y36629D02*
X19764D01*
X19239D01*
Y33480D01*
X18714D01*
X19764D01*
X21338D02*
Y36629D01*
X23437Y33480D01*
Y36629D01*
X14516Y46340D02*
X13992Y46865D01*
X12942D01*
X12417Y46340D01*
Y44241D01*
X12942Y43716D01*
X13992D01*
X14516Y44241D01*
X17665Y46340D02*
X17140Y46865D01*
X16091D01*
X15566Y46340D01*
Y45816D01*
X16091Y45291D01*
X17140D01*
X17665Y44766D01*
Y44241D01*
X17140Y43716D01*
X16091D01*
X15566Y44241D01*
X20289Y46865D02*
X19239D01*
X18714Y46340D01*
Y44241D01*
X19239Y43716D01*
X20289D01*
X20814Y44241D01*
Y46340D01*
X20289Y46865D01*
X21863D02*
Y44241D01*
X22388Y43716D01*
X23437D01*
X23962Y44241D01*
Y46865D01*
X25012D02*
X27111D01*
X26061D01*
Y43716D01*
X100016Y42731D02*
Y39583D01*
X102115D01*
X103164Y42731D02*
Y40632D01*
X104214Y39583D01*
X105263Y40632D01*
Y42731D01*
X88795D02*
Y39583D01*
Y41157D01*
X90894D01*
Y42731D01*
Y39583D01*
X91944Y42731D02*
Y40632D01*
X92993Y39583D01*
X94043Y40632D01*
Y42731D01*
X96406Y49424D02*
X94307D01*
Y46276D01*
X96406D01*
X94307Y47850D02*
X95357D01*
X97456Y46276D02*
Y49424D01*
X99555Y46276D01*
Y49424D01*
X66288Y48899D02*
X65763Y49424D01*
X64714D01*
X64189Y48899D01*
Y48375D01*
X64714Y47850D01*
X65763D01*
X66288Y47325D01*
Y46800D01*
X65763Y46276D01*
X64714D01*
X64189Y46800D01*
X69437Y49424D02*
X67338D01*
Y46276D01*
X69437D01*
X67338Y47850D02*
X68387D01*
X70486Y49424D02*
Y46276D01*
X72585D01*
X73635D02*
Y49424D01*
X74684Y48375D01*
X75734Y49424D01*
Y46276D01*
X76783D02*
Y49424D01*
X78358D01*
X78882Y48899D01*
Y47850D01*
X78358Y47325D01*
X76783D01*
X79932Y46276D02*
Y49424D01*
X81506D01*
X82031Y48899D01*
Y47850D01*
X81506Y47325D01*
X79932D01*
X77969Y42206D02*
X78493Y42731D01*
X79543D01*
X80068Y42206D01*
Y40108D01*
X79543Y39583D01*
X78493D01*
X77969Y40108D01*
Y42206D01*
X66551Y39583D02*
X67601D01*
X67076D01*
Y42731D01*
X66551Y42206D01*
X43126Y39583D02*
X44175D01*
X43651D01*
Y42731D01*
X43126Y42206D01*
X33808Y39583D02*
X31709D01*
X33808Y41682D01*
Y42206D01*
X33283Y42731D01*
X32233D01*
X31709Y42206D01*
X42075Y48899D02*
X41551Y49424D01*
X40501D01*
X39976Y48899D01*
Y46800D01*
X40501Y46276D01*
X41551D01*
X42075Y46800D01*
X45224Y49424D02*
X43125D01*
Y47850D01*
X44175D01*
X43125D01*
Y46276D01*
X48373Y48899D02*
X47848Y49424D01*
X46798D01*
X46274Y48899D01*
Y46800D01*
X46798Y46276D01*
X47848D01*
X48373Y46800D01*
Y47850D01*
X47323D01*
X53756Y42206D02*
X54281Y42731D01*
X55330D01*
X55855Y42206D01*
Y40108D01*
X55330Y39583D01*
X54281D01*
X53756Y40108D01*
Y42206D01*
X114123Y38991D02*
X112024D01*
Y37417D01*
X113073D01*
X112024D01*
Y35842D01*
X115172Y38991D02*
Y35842D01*
X116746D01*
X117271Y36367D01*
Y36892D01*
X116746Y37417D01*
X115172D01*
X116746D01*
X117271Y37942D01*
Y38466D01*
X116746Y38991D01*
X115172D01*
X118321Y35842D02*
Y38991D01*
X119895D01*
X120420Y38466D01*
Y37417D01*
X119895Y36892D01*
X118321D01*
X121469Y35842D02*
Y38991D01*
X123044D01*
X123568Y38466D01*
Y37417D01*
X123044Y36892D01*
X121469D01*
X122519D02*
X123568Y35842D01*
X124618Y38991D02*
X125668D01*
X125143D01*
Y35842D01*
X124618D01*
X125668D01*
X127242D02*
Y38991D01*
X128291Y37942D01*
X129341Y38991D01*
Y35842D01*
X124622Y32495D02*
Y29871D01*
X125147Y29346D01*
X126196D01*
X126721Y29871D01*
Y32495D01*
X113795D02*
Y29346D01*
X115370D01*
X115894Y29871D01*
Y31970D01*
X115370Y32495D01*
X113795D01*
X86827Y119109D02*
Y115961D01*
X88401D01*
X88926Y116485D01*
Y117010D01*
X88401Y117535D01*
X86827D01*
X88401D01*
X88926Y118060D01*
Y118585D01*
X88401Y119109D01*
X86827D01*
X89975Y115961D02*
Y118060D01*
X91025Y119109D01*
X92074Y118060D01*
Y115961D01*
Y117535D01*
X89975D01*
X93124Y119109D02*
X95223D01*
X94174D01*
Y115961D01*
X96272Y119109D02*
X98372D01*
X97322D01*
Y115961D01*
X39189D02*
Y119109D01*
X40763D01*
X41288Y118585D01*
Y117535D01*
X40763Y117010D01*
X39189D01*
X42338Y115961D02*
Y119109D01*
X43912D01*
X44437Y118585D01*
Y117535D01*
X43912Y117010D01*
X42338D01*
X43387D02*
X44437Y115961D01*
X45486Y119109D02*
X46536D01*
X46011D01*
Y115961D01*
X45486D01*
X46536D01*
X48110D02*
Y119109D01*
X49160Y118060D01*
X50209Y119109D01*
Y115961D01*
X110184Y118585D02*
X109659Y119109D01*
X108609D01*
X108085Y118585D01*
Y116485D01*
X108609Y115961D01*
X109659D01*
X110184Y116485D01*
Y117535D01*
X109134D01*
X111233Y115961D02*
Y119109D01*
X113332Y115961D01*
Y119109D01*
X114382D02*
Y115961D01*
X115956D01*
X116481Y116485D01*
Y118585D01*
X115956Y119109D01*
X114382D01*
X64121Y118585D02*
X63596Y119109D01*
X62546D01*
X62022Y118585D01*
Y116485D01*
X62546Y115961D01*
X63596D01*
X64121Y116485D01*
Y117535D01*
X63071D01*
X65170Y115961D02*
Y119109D01*
X67269Y115961D01*
Y119109D01*
X68319D02*
Y115961D01*
X69893D01*
X70418Y116485D01*
Y118585D01*
X69893Y119109D01*
X68319D01*
X37612Y89975D02*
X38662D01*
X38137D01*
Y86827D01*
X37612D01*
X38662D01*
X40236D02*
Y89975D01*
X42335Y86827D01*
Y89975D01*
X39713Y70553D02*
X39189Y71078D01*
X38139D01*
X37614Y70553D01*
Y68454D01*
X38139Y67929D01*
X39189D01*
X39713Y68454D01*
Y69503D01*
X38664D01*
X40763Y67929D02*
Y71078D01*
X42862Y67929D01*
Y71078D01*
X43911D02*
Y67929D01*
X45486D01*
X46010Y68454D01*
Y70553D01*
X45486Y71078D01*
X43911D01*
X124755Y69766D02*
X124230Y70290D01*
X123180D01*
X122656Y69766D01*
Y69241D01*
X123180Y68716D01*
X124230D01*
X124755Y68191D01*
Y67667D01*
X124230Y67142D01*
X123180D01*
X122656Y67667D01*
X125804Y70290D02*
X127903D01*
X126854D01*
Y67142D01*
X128953D02*
Y69241D01*
X130002Y70290D01*
X131052Y69241D01*
Y67142D01*
Y68716D01*
X128953D01*
X132101Y70290D02*
X134200D01*
X133151D01*
Y67142D01*
X135250Y70290D02*
Y67667D01*
X135775Y67142D01*
X136824D01*
X137349Y67667D01*
Y70290D01*
X140498Y69766D02*
X139973Y70290D01*
X138923D01*
X138399Y69766D01*
Y69241D01*
X138923Y68716D01*
X139973D01*
X140498Y68191D01*
Y67667D01*
X139973Y67142D01*
X138923D01*
X138399Y67667D01*
X141547Y69766D02*
X142072Y70290D01*
X143121D01*
X143646Y69766D01*
Y67667D01*
X143121Y67142D01*
X142072D01*
X141547Y67667D01*
Y69766D01*
X125804Y80002D02*
X125279Y80527D01*
X124230D01*
X123705Y80002D01*
Y79477D01*
X124230Y78952D01*
X125279D01*
X125804Y78427D01*
Y77903D01*
X125279Y77378D01*
X124230D01*
X123705Y77903D01*
X126854Y80527D02*
X128953D01*
X127903D01*
Y77378D01*
X130002D02*
Y79477D01*
X131052Y80527D01*
X132101Y79477D01*
Y77378D01*
Y78952D01*
X130002D01*
X133151Y80527D02*
X135250D01*
X134200D01*
Y77378D01*
X136300Y80527D02*
Y77903D01*
X136824Y77378D01*
X137874D01*
X138399Y77903D01*
Y80527D01*
X141547Y80002D02*
X141022Y80527D01*
X139973D01*
X139448Y80002D01*
Y79477D01*
X139973Y78952D01*
X141022D01*
X141547Y78427D01*
Y77903D01*
X141022Y77378D01*
X139973D01*
X139448Y77903D01*
X142597Y77378D02*
X143646D01*
X143121D01*
Y80527D01*
X142597Y80002D01*
X124755Y90238D02*
X124230Y90763D01*
X123180D01*
X122656Y90238D01*
Y89713D01*
X123180Y89188D01*
X124230D01*
X124755Y88664D01*
Y88139D01*
X124230Y87614D01*
X123180D01*
X122656Y88139D01*
X125804Y90763D02*
X127903D01*
X126854D01*
Y87614D01*
X128953D02*
Y89713D01*
X130002Y90763D01*
X131052Y89713D01*
Y87614D01*
Y89188D01*
X128953D01*
X132101Y90763D02*
X134200D01*
X133151D01*
Y87614D01*
X135250Y90763D02*
Y88139D01*
X135775Y87614D01*
X136824D01*
X137349Y88139D01*
Y90763D01*
X140498Y90238D02*
X139973Y90763D01*
X138923D01*
X138399Y90238D01*
Y89713D01*
X138923Y89188D01*
X139973D01*
X140498Y88664D01*
Y88139D01*
X139973Y87614D01*
X138923D01*
X138399Y88139D01*
X143646Y87614D02*
X141547D01*
X143646Y89713D01*
Y90238D01*
X143121Y90763D01*
X142072D01*
X141547Y90238D01*
X128953Y53361D02*
Y50213D01*
X131052D01*
X132101Y53361D02*
Y51262D01*
X133151Y50213D01*
X134200Y51262D01*
Y53361D01*
X136824D02*
X135775D01*
X135250Y52836D01*
Y50737D01*
X135775Y50213D01*
X136824D01*
X137349Y50737D01*
Y52836D01*
X136824Y53361D01*
X138399D02*
Y50737D01*
X138923Y50213D01*
X139973D01*
X140498Y50737D01*
Y53361D01*
X141547D02*
X143646D01*
X142597D01*
Y50213D01*
X137349Y42994D02*
X136824Y43519D01*
X135775D01*
X135250Y42994D01*
Y40895D01*
X135775Y40370D01*
X136824D01*
X137349Y40895D01*
Y41944D01*
X136300D01*
X138399Y40370D02*
Y43519D01*
X140498Y40370D01*
Y43519D01*
X141547D02*
Y40370D01*
X143121D01*
X143646Y40895D01*
Y42994D01*
X143121Y43519D01*
X141547D01*
X137349Y105986D02*
X136824Y106511D01*
X135775D01*
X135250Y105986D01*
Y103887D01*
X135775Y103362D01*
X136824D01*
X137349Y103887D01*
Y104937D01*
X136300D01*
X138399Y103362D02*
Y106511D01*
X140498Y103362D01*
Y106511D01*
X141547D02*
Y103362D01*
X143121D01*
X143646Y103887D01*
Y105986D01*
X143121Y106511D01*
X141547D01*
X128953Y116353D02*
Y113205D01*
Y114779D01*
X131052D01*
Y116353D01*
Y113205D01*
X132101Y116353D02*
Y114254D01*
X133151Y113205D01*
X134200Y114254D01*
Y116353D01*
X136824D02*
X135775D01*
X135250Y115829D01*
Y113730D01*
X135775Y113205D01*
X136824D01*
X137349Y113730D01*
Y115829D01*
X136824Y116353D01*
X138399D02*
Y113730D01*
X138923Y113205D01*
X139973D01*
X140498Y113730D01*
Y116353D01*
X141547D02*
X143646D01*
X142597D01*
Y113205D01*
X33006Y109056D02*
Y112204D01*
X34580D01*
X35105Y111679D01*
Y110630D01*
X34580Y110105D01*
X33006D01*
X37729Y109056D02*
Y112204D01*
X36155Y110630D01*
X38254D01*
X4003Y51182D02*
Y54330D01*
X5578D01*
X6102Y53805D01*
Y52756D01*
X5578Y52231D01*
X4003D01*
X7152Y51182D02*
X8201D01*
X7677D01*
Y54330D01*
X7152Y53805D01*
X3609Y103937D02*
X2560D01*
X3084D01*
Y101313D01*
X2560Y100788D01*
X2035D01*
X1510Y101313D01*
X4659Y103412D02*
X5183Y103937D01*
X6233D01*
X6758Y103412D01*
Y102887D01*
X6233Y102362D01*
X5708D01*
X6233D01*
X6758Y101837D01*
Y101313D01*
X6233Y100788D01*
X5183D01*
X4659Y101313D01*
X29528Y155118D02*
X28478D01*
X29003D01*
Y152494D01*
X28478Y151969D01*
X27953D01*
X27428Y152494D01*
X30577Y151969D02*
X31627D01*
X31102D01*
Y155118D01*
X30577Y154593D01*
X127428Y155118D02*
X126379D01*
X126903D01*
Y152494D01*
X126379Y151969D01*
X125854D01*
X125329Y152494D01*
X130577Y151969D02*
X128478D01*
X130577Y154068D01*
Y154593D01*
X130052Y155118D01*
X129002D01*
X128478Y154593D01*
X64043Y68110D02*
Y65486D01*
X64567Y64961D01*
X65617D01*
X66142Y65486D01*
Y68110D01*
X67191Y64961D02*
X68241D01*
X67716D01*
Y68110D01*
X67191Y67585D01*
X122860Y54814D02*
Y57963D01*
X124434D01*
X124959Y57438D01*
Y56388D01*
X124434Y55864D01*
X122860D01*
X123909D02*
X124959Y54814D01*
X126008Y57438D02*
X126533Y57963D01*
X127583D01*
X128108Y57438D01*
Y56913D01*
X127583Y56388D01*
X127058D01*
X127583D01*
X128108Y55864D01*
Y55339D01*
X127583Y54814D01*
X126533D01*
X126008Y55339D01*
X115987Y54814D02*
Y57963D01*
X117562D01*
X118087Y57438D01*
Y56388D01*
X117562Y55864D01*
X115987D01*
X117037D02*
X118087Y54814D01*
X121235D02*
X119136D01*
X121235Y56913D01*
Y57438D01*
X120710Y57963D01*
X119661D01*
X119136Y57438D01*
X65224Y90158D02*
Y93307D01*
X66798D01*
X67323Y92782D01*
Y91732D01*
X66798Y91207D01*
X65224D01*
X66273D02*
X67323Y90158D01*
X68372D02*
X69422D01*
X68897D01*
Y93307D01*
X68372Y92782D01*
X88868Y33332D02*
Y36480D01*
X90443D01*
X90968Y35955D01*
Y34906D01*
X90443Y34381D01*
X88868D01*
X92017Y36480D02*
X94116D01*
Y35955D01*
X92017Y33856D01*
Y33332D01*
X50789D02*
Y36480D01*
X52363D01*
X52888Y35955D01*
Y34906D01*
X52363Y34381D01*
X50789D01*
X53937Y33332D02*
X54987D01*
X54462D01*
Y36480D01*
X53937Y35955D01*
X56561D02*
X57086Y36480D01*
X58135D01*
X58660Y35955D01*
Y35431D01*
X58135Y34906D01*
X57611D01*
X58135D01*
X58660Y34381D01*
Y33856D01*
X58135Y33332D01*
X57086D01*
X56561Y33856D01*
X76140Y33332D02*
Y36480D01*
X77715D01*
X78239Y35955D01*
Y34906D01*
X77715Y34381D01*
X76140D01*
X81388Y36480D02*
X80338Y35955D01*
X79289Y34906D01*
Y33856D01*
X79813Y33332D01*
X80863D01*
X81388Y33856D01*
Y34381D01*
X80863Y34906D01*
X79289D01*
X30218Y33332D02*
Y36480D01*
X31792D01*
X32317Y35955D01*
Y34906D01*
X31792Y34381D01*
X30218D01*
X35466Y36480D02*
X33367D01*
Y34906D01*
X34416Y35431D01*
X34941D01*
X35466Y34906D01*
Y33856D01*
X34941Y33332D01*
X33891D01*
X33367Y33856D01*
X147770Y94882D02*
Y98031D01*
X149344D01*
X149869Y97506D01*
Y96457D01*
X149344Y95932D01*
X147770D01*
X150918Y97506D02*
X151443Y98031D01*
X152493D01*
X153017Y97506D01*
Y96982D01*
X152493Y96457D01*
X153017Y95932D01*
Y95407D01*
X152493Y94882D01*
X151443D01*
X150918Y95407D01*
Y95932D01*
X151443Y96457D01*
X150918Y96982D01*
Y97506D01*
X151443Y96457D02*
X152493D01*
X41318Y33332D02*
Y36480D01*
X42892D01*
X43417Y35955D01*
Y34906D01*
X42892Y34381D01*
X41318D01*
X44467Y33856D02*
X44991Y33332D01*
X46041D01*
X46566Y33856D01*
Y35955D01*
X46041Y36480D01*
X44991D01*
X44467Y35955D01*
Y35431D01*
X44991Y34906D01*
X46566D01*
X147770Y58268D02*
Y61417D01*
X149344D01*
X149869Y60892D01*
Y59842D01*
X149344Y59318D01*
X147770D01*
X153017Y58268D02*
X150918D01*
X153017Y60367D01*
Y60892D01*
X152493Y61417D01*
X151443D01*
X150918Y60892D01*
X147770Y121654D02*
Y124803D01*
X149344D01*
X149869Y124278D01*
Y123228D01*
X149344Y122704D01*
X147770D01*
X150918Y124278D02*
X151443Y124803D01*
X152493D01*
X153017Y124278D01*
Y123753D01*
X152493Y123228D01*
X151968D01*
X152493D01*
X153017Y122704D01*
Y122179D01*
X152493Y121654D01*
X151443D01*
X150918Y122179D01*
X99181Y33332D02*
Y36480D01*
X100756D01*
X101280Y35955D01*
Y34906D01*
X100756Y34381D01*
X99181D01*
X102330Y33332D02*
X103379D01*
X102855D01*
Y36480D01*
X102330Y35955D01*
X104954Y33332D02*
X106003D01*
X105479D01*
Y36480D01*
X104954Y35955D01*
X111222Y23426D02*
Y26574D01*
X112796D01*
X113321Y26050D01*
Y25000D01*
X112796Y24475D01*
X111222D01*
X114370Y23426D02*
X115420D01*
X114895D01*
Y26574D01*
X114370Y26050D01*
X118569Y23426D02*
Y26574D01*
X116994Y25000D01*
X119093D01*
X63828Y33332D02*
Y36480D01*
X65403D01*
X65927Y35955D01*
Y34906D01*
X65403Y34381D01*
X63828D01*
X66977Y33332D02*
X68026D01*
X67502D01*
Y36480D01*
X66977Y35955D01*
X69601D02*
X70125Y36480D01*
X71175D01*
X71700Y35955D01*
Y33856D01*
X71175Y33332D01*
X70125D01*
X69601Y33856D01*
Y35955D01*
X122222Y23426D02*
Y26574D01*
X123796D01*
X124321Y26050D01*
Y25000D01*
X123796Y24475D01*
X122222D01*
X125371Y23426D02*
X126420D01*
X125895D01*
Y26574D01*
X125371Y26050D01*
X130094Y23426D02*
X127995D01*
X130094Y25525D01*
Y26050D01*
X129569Y26574D01*
X128519D01*
X127995Y26050D01*
X74935Y64960D02*
Y61812D01*
X77034D01*
X80183D02*
X78084D01*
X80183Y63911D01*
Y64435D01*
X79658Y64960D01*
X78609D01*
X78084Y64435D01*
X47507Y55905D02*
Y52756D01*
X49606D01*
X50656D02*
X51705D01*
X51181D01*
Y55905D01*
X50656Y55380D01*
X92389Y58136D02*
X91864Y58661D01*
X90814D01*
X90290Y58136D01*
Y56037D01*
X90814Y55512D01*
X91864D01*
X92389Y56037D01*
X95537Y58661D02*
X93438D01*
Y57087D01*
X94488Y57611D01*
X95012D01*
X95537Y57087D01*
Y56037D01*
X95012Y55512D01*
X93963D01*
X93438Y56037D01*
X49869Y98294D02*
X49344Y98818D01*
X48295D01*
X47770Y98294D01*
Y96195D01*
X48295Y95670D01*
X49344D01*
X49869Y96195D01*
X52493Y95670D02*
Y98818D01*
X50919Y97244D01*
X53017D01*
X107743Y98294D02*
X107218Y98818D01*
X106169D01*
X105644Y98294D01*
Y96195D01*
X106169Y95670D01*
X107218D01*
X107743Y96195D01*
X108792Y98294D02*
X109317Y98818D01*
X110367D01*
X110892Y98294D01*
Y97769D01*
X110367Y97244D01*
X109842D01*
X110367D01*
X110892Y96719D01*
Y96195D01*
X110367Y95670D01*
X109317D01*
X108792Y96195D01*
X107743Y61286D02*
X107218Y61810D01*
X106169D01*
X105644Y61286D01*
Y59187D01*
X106169Y58662D01*
X107218D01*
X107743Y59187D01*
X110892Y58662D02*
X108792D01*
X110892Y60761D01*
Y61286D01*
X110367Y61810D01*
X109317D01*
X108792Y61286D01*
X64567Y58136D02*
X64042Y58661D01*
X62993D01*
X62468Y58136D01*
Y56037D01*
X62993Y55512D01*
X64042D01*
X64567Y56037D01*
X65617Y55512D02*
X66666D01*
X66141D01*
Y58661D01*
X65617Y58136D01*
D12*
X53556Y81681D02*
Y91548D01*
X46444Y81681D02*
Y91548D01*
X1102Y49882D02*
X11102D01*
Y29882D02*
Y49882D01*
X1102Y29882D02*
X11102D01*
X1102D02*
Y49882D01*
X1339Y115630D02*
X31339D01*
X1339Y105630D02*
Y115630D01*
Y105630D02*
X31339D01*
Y115630D01*
X49724Y1929D02*
Y31929D01*
Y1929D02*
X59724D01*
Y31929D01*
X49724D02*
X59724D01*
X38701Y1929D02*
Y31929D01*
Y1929D02*
X48701D01*
Y31929D01*
X38701D02*
X48701D01*
X27677Y1929D02*
Y31929D01*
Y1929D02*
X37677D01*
Y31929D01*
X27677D02*
X37677D01*
X121181Y1929D02*
X131181D01*
X121181D02*
Y21929D01*
X131181D01*
Y1929D02*
Y21929D01*
X73543Y1929D02*
Y31929D01*
Y1929D02*
X83543D01*
Y31929D01*
X73543D02*
X83543D01*
X110158Y1929D02*
X120158D01*
X110158D02*
Y21929D01*
X120158D01*
Y1929D02*
Y21929D01*
X62520Y1929D02*
Y31929D01*
Y1929D02*
X72520D01*
Y31929D01*
X62520D02*
X72520D01*
X86339Y1929D02*
Y31929D01*
Y1929D02*
X96339D01*
Y31929D01*
X86339D02*
X96339D01*
X97362Y1929D02*
Y31929D01*
Y1929D02*
X107362D01*
Y31929D01*
X97362D02*
X107362D01*
X117126Y47638D02*
Y49213D01*
X119882Y47638D02*
Y49213D01*
X126772Y47638D02*
Y49213D01*
X124016Y47638D02*
Y49213D01*
X58661Y87205D02*
X60236D01*
X58661Y89961D02*
X60236D01*
X104701Y65330D02*
Y76402D01*
X111835Y65330D02*
Y76402D01*
X104701Y81078D02*
Y92150D01*
X111835Y81078D02*
Y92150D01*
X67716Y52547D02*
Y60839D01*
X74803Y52547D02*
Y60839D01*
X73721Y52641D02*
Y60745D01*
X80610Y52641D02*
Y60745D01*
X81866Y51157D02*
Y62229D01*
X89000Y51157D02*
Y62229D01*
X145394Y63740D02*
X155394D01*
X145394D02*
Y93740D01*
X155394D01*
Y63740D02*
Y93740D01*
X155394Y36968D02*
Y56968D01*
X145394D02*
X155394D01*
X145394Y36968D02*
Y56968D01*
Y36968D02*
X155394D01*
Y100354D02*
Y120354D01*
X145394D02*
X155394D01*
X145394Y100354D02*
Y120354D01*
Y100354D02*
X155394D01*
X787Y59055D02*
X29724D01*
X32480D02*
X36220D01*
Y98425D01*
X787Y59055D02*
Y98425D01*
X9252D01*
X12009D02*
X36220D01*
X8268Y100788D02*
X12992D01*
X8268D02*
X9251Y98425D01*
X12009D02*
X12992Y100788D01*
X32480Y59055D02*
X33464Y56693D01*
X28739D02*
X33464D01*
X28739D02*
X29723Y59055D01*
X82677Y127756D02*
Y156693D01*
Y121260D02*
Y125000D01*
Y121260D02*
X122047D01*
X82677Y156693D02*
X122047D01*
Y148228D02*
Y156693D01*
Y121260D02*
Y145472D01*
X124410Y144488D02*
Y149213D01*
X122047Y148229D02*
X124410Y149213D01*
X122047Y145472D02*
X124410Y144488D01*
X80315Y124017D02*
X82677Y125000D01*
X80315Y124017D02*
Y128741D01*
X82677Y127758D01*
X35432Y127756D02*
Y156693D01*
Y121260D02*
Y125000D01*
Y121260D02*
X74802D01*
X35432Y156693D02*
X74802D01*
Y148228D02*
Y156693D01*
Y121260D02*
Y145472D01*
X77165Y144488D02*
Y149213D01*
X74802Y148229D02*
X77165Y149213D01*
X74802Y145472D02*
X77165Y144488D01*
X33070Y124016D02*
X35432Y125000D01*
X33070Y124016D02*
Y128741D01*
X35432Y127758D01*
X46504Y64665D02*
Y67618D01*
X62157Y64665D02*
Y67618D01*
D13*
X88583Y68898D02*
Y70965D01*
X86516Y68898D02*
X88583D01*
Y86516D02*
Y88583D01*
X86516D02*
X88583D01*
X68898D02*
X70965D01*
X68898Y86516D02*
Y88583D01*
Y68898D02*
Y70965D01*
Y68898D02*
X70965D01*
M02*
