G04*
G04 #@! TF.GenerationSoftware,Altium Limited,Altium Designer,21.7.2 (23)*
G04*
G04 Layer_Physical_Order=2*
G04 Layer_Color=16711680*
%FSLAX25Y25*%
%MOIN*%
G70*
G04*
G04 #@! TF.SameCoordinates,3D67BF19-0A55-4891-8FEB-F4BE30BF2CF6*
G04*
G04*
G04 #@! TF.FilePolarity,Positive*
G04*
G01*
G75*
%ADD11C,0.01000*%
%ADD38C,0.01181*%
%ADD39R,0.05906X0.05906*%
%ADD40C,0.05906*%
%ADD41R,0.05906X0.05906*%
%ADD42C,0.07677*%
%ADD43R,0.07677X0.07677*%
%ADD44R,0.07677X0.07677*%
%ADD45C,0.19685*%
%ADD46C,0.01575*%
%ADD47C,0.02756*%
G36*
X157480Y0D02*
X0D01*
Y157480D01*
X157480D01*
Y0D01*
D02*
G37*
%LPC*%
G36*
X117044Y145783D02*
X112706D01*
Y141445D01*
X117044D01*
Y145783D01*
D02*
G37*
G36*
X111706D02*
X107367D01*
Y141445D01*
X111706D01*
Y145783D01*
D02*
G37*
G36*
X69799Y145783D02*
X65461D01*
Y141445D01*
X69799D01*
Y145783D01*
D02*
G37*
G36*
X64461D02*
X60122D01*
Y141445D01*
X64461D01*
Y145783D01*
D02*
G37*
G36*
X124909Y137943D02*
Y136721D01*
X126132D01*
X126093Y136918D01*
X125698Y137509D01*
X125107Y137904D01*
X124909Y137943D01*
D02*
G37*
G36*
X123909D02*
X123712Y137904D01*
X123121Y137509D01*
X122726Y136918D01*
X122687Y136721D01*
X123909D01*
Y137943D01*
D02*
G37*
G36*
X101287D02*
Y136721D01*
X102510D01*
X102471Y136918D01*
X102076Y137509D01*
X101485Y137904D01*
X101287Y137943D01*
D02*
G37*
G36*
X100287D02*
X100090Y137904D01*
X99499Y137509D01*
X99104Y136918D01*
X99064Y136721D01*
X100287D01*
Y137943D01*
D02*
G37*
G36*
X54043D02*
Y136721D01*
X55266D01*
X55227Y136918D01*
X54832Y137509D01*
X54241Y137904D01*
X54043Y137943D01*
D02*
G37*
G36*
X30421D02*
Y136721D01*
X31644D01*
X31605Y136918D01*
X31210Y137509D01*
X30619Y137904D01*
X30421Y137943D01*
D02*
G37*
G36*
X29421D02*
X29224Y137904D01*
X28633Y137509D01*
X28238Y136918D01*
X28198Y136721D01*
X29421D01*
Y137943D01*
D02*
G37*
G36*
X117044Y140445D02*
X112706D01*
Y136106D01*
X117044D01*
Y140445D01*
D02*
G37*
G36*
X111706D02*
X107367D01*
Y136106D01*
X111706D01*
Y140445D01*
D02*
G37*
G36*
X69799Y140445D02*
X65461D01*
Y136106D01*
X69799D01*
Y140445D01*
D02*
G37*
G36*
X64461D02*
X60122D01*
Y136106D01*
X64461D01*
Y140445D01*
D02*
G37*
G36*
X145669Y156135D02*
X144032Y156006D01*
X142435Y155622D01*
X140918Y154994D01*
X139518Y154136D01*
X138269Y153069D01*
X137203Y151821D01*
X136345Y150420D01*
X135716Y148903D01*
X135333Y147306D01*
X135204Y145669D01*
X135333Y144032D01*
X135716Y142435D01*
X136345Y140918D01*
X137203Y139518D01*
X138269Y138269D01*
X139518Y137203D01*
X140918Y136345D01*
X142435Y135716D01*
X144032Y135333D01*
X145669Y135204D01*
X147306Y135333D01*
X148903Y135716D01*
X150420Y136345D01*
X151821Y137203D01*
X153069Y138269D01*
X154136Y139518D01*
X154994Y140918D01*
X155622Y142435D01*
X156006Y144032D01*
X156135Y145669D01*
X156006Y147306D01*
X155622Y148903D01*
X154994Y150420D01*
X154136Y151821D01*
X153069Y153069D01*
X151821Y154136D01*
X150420Y154994D01*
X148903Y155622D01*
X147306Y156006D01*
X145669Y156135D01*
D02*
G37*
G36*
X11811D02*
X10174Y156006D01*
X8577Y155622D01*
X7060Y154994D01*
X5660Y154136D01*
X4411Y153069D01*
X3344Y151821D01*
X2486Y150420D01*
X1858Y148903D01*
X1474Y147306D01*
X1346Y145669D01*
X1474Y144032D01*
X1858Y142435D01*
X2486Y140918D01*
X3344Y139518D01*
X4411Y138269D01*
X5660Y137203D01*
X7060Y136345D01*
X8577Y135716D01*
X10174Y135333D01*
X11811Y135204D01*
X13448Y135333D01*
X15045Y135716D01*
X16562Y136345D01*
X17962Y137203D01*
X19211Y138269D01*
X20278Y139518D01*
X21136Y140918D01*
X21764Y142435D01*
X22148Y144032D01*
X22276Y145669D01*
X22148Y147306D01*
X21764Y148903D01*
X21136Y150420D01*
X20278Y151821D01*
X19211Y153069D01*
X17962Y154136D01*
X16562Y154994D01*
X15045Y155622D01*
X13448Y156006D01*
X11811Y156135D01*
D02*
G37*
G36*
X126132Y135721D02*
X124909D01*
Y134497D01*
X125107Y134537D01*
X125698Y134932D01*
X126093Y135523D01*
X126132Y135721D01*
D02*
G37*
G36*
X123909D02*
X122687D01*
X122726Y135523D01*
X123121Y134932D01*
X123712Y134537D01*
X123909Y134497D01*
Y135721D01*
D02*
G37*
G36*
X102510D02*
X101287D01*
Y134497D01*
X101485Y134537D01*
X102076Y134932D01*
X102471Y135523D01*
X102510Y135721D01*
D02*
G37*
G36*
X100287D02*
X99064D01*
X99104Y135523D01*
X99499Y134932D01*
X100090Y134537D01*
X100287Y134497D01*
Y135721D01*
D02*
G37*
G36*
X31644D02*
X30421D01*
Y134497D01*
X30619Y134537D01*
X31210Y134932D01*
X31605Y135523D01*
X31644Y135721D01*
D02*
G37*
G36*
X29421D02*
X28198D01*
X28238Y135523D01*
X28633Y134932D01*
X29224Y134537D01*
X29421Y134497D01*
Y135721D01*
D02*
G37*
G36*
X136721Y114321D02*
Y113099D01*
X137943D01*
X137904Y113296D01*
X137509Y113887D01*
X136918Y114282D01*
X136721Y114321D01*
D02*
G37*
G36*
X135721D02*
X135523Y114282D01*
X134932Y113887D01*
X134537Y113296D01*
X134497Y113099D01*
X135721D01*
Y114321D01*
D02*
G37*
G36*
X113099D02*
Y113099D01*
X114321D01*
X114282Y113296D01*
X113887Y113887D01*
X113296Y114282D01*
X113099Y114321D01*
D02*
G37*
G36*
X112099D02*
X111901Y114282D01*
X111310Y113887D01*
X110915Y113296D01*
X110875Y113099D01*
X112099D01*
Y114321D01*
D02*
G37*
G36*
X6839Y114551D02*
Y111130D01*
X10260D01*
X10190Y111662D01*
X9791Y112623D01*
X9158Y113449D01*
X8332Y114083D01*
X7371Y114481D01*
X6839Y114551D01*
D02*
G37*
G36*
X5839D02*
X5307Y114481D01*
X4345Y114083D01*
X3519Y113449D01*
X2886Y112623D01*
X2488Y111662D01*
X2417Y111130D01*
X5839D01*
Y114551D01*
D02*
G37*
G36*
X137943Y112099D02*
X136721D01*
Y110875D01*
X136918Y110915D01*
X137509Y111310D01*
X137904Y111901D01*
X137943Y112099D01*
D02*
G37*
G36*
X135721D02*
X134497D01*
X134537Y111901D01*
X134932Y111310D01*
X135523Y110915D01*
X135721Y110875D01*
Y112099D01*
D02*
G37*
G36*
X114321D02*
X113099D01*
Y110875D01*
X113296Y110915D01*
X113887Y111310D01*
X114282Y111901D01*
X114321Y112099D01*
D02*
G37*
G36*
X112099D02*
X110875D01*
X110915Y111901D01*
X111310Y111310D01*
X111901Y110915D01*
X112099Y110875D01*
Y112099D01*
D02*
G37*
G36*
X29882Y114173D02*
X22795D01*
Y107087D01*
X29882D01*
Y114173D01*
D02*
G37*
G36*
X10260Y110130D02*
X6839D01*
Y106709D01*
X7371Y106779D01*
X8332Y107177D01*
X9158Y107811D01*
X9791Y108636D01*
X10190Y109598D01*
X10260Y110130D01*
D02*
G37*
G36*
X5839D02*
X2417D01*
X2488Y109598D01*
X2886Y108636D01*
X3519Y107811D01*
X4345Y107177D01*
X5307Y106779D01*
X5839Y106709D01*
Y110130D01*
D02*
G37*
G36*
X150894Y109275D02*
Y105854D01*
X154315D01*
X154245Y106386D01*
X153846Y107348D01*
X153213Y108174D01*
X152387Y108807D01*
X151426Y109205D01*
X150894Y109275D01*
D02*
G37*
G36*
X149894D02*
X149362Y109205D01*
X148400Y108807D01*
X147575Y108174D01*
X146941Y107348D01*
X146543Y106386D01*
X146473Y105854D01*
X149894D01*
Y109275D01*
D02*
G37*
G36*
X154315Y104854D02*
X150894D01*
Y101433D01*
X151426Y101503D01*
X152387Y101902D01*
X153213Y102535D01*
X153846Y103361D01*
X154245Y104323D01*
X154315Y104854D01*
D02*
G37*
G36*
X149894D02*
X146473D01*
X146543Y104323D01*
X146941Y103361D01*
X147575Y102535D01*
X148400Y101902D01*
X149362Y101503D01*
X149894Y101433D01*
Y104854D01*
D02*
G37*
G36*
X92521Y145412D02*
X91364Y145260D01*
X90287Y144814D01*
X89362Y144104D01*
X88652Y143179D01*
X88205Y142101D01*
X88053Y140945D01*
X88205Y139789D01*
X88652Y138711D01*
X89362Y137786D01*
X90287Y137076D01*
X91316Y136650D01*
Y111309D01*
X91222Y111168D01*
X91115Y110630D01*
X91222Y110092D01*
X91316Y109950D01*
Y101287D01*
X83880Y93851D01*
X83714Y93818D01*
X83258Y93513D01*
X82954Y93057D01*
X82847Y92520D01*
X82954Y91982D01*
X83258Y91526D01*
X83714Y91222D01*
X84252Y91115D01*
X84790Y91222D01*
X85245Y91526D01*
X85550Y91982D01*
X85583Y92147D01*
X93372Y99937D01*
X93633Y100328D01*
X93725Y100788D01*
X93725Y100788D01*
Y109953D01*
X93818Y110092D01*
X93925Y110630D01*
X93818Y111168D01*
X93725Y111306D01*
Y136650D01*
X94754Y137076D01*
X95679Y137786D01*
X96390Y138711D01*
X96836Y139789D01*
X96988Y140945D01*
X96836Y142101D01*
X96390Y143179D01*
X95679Y144104D01*
X94754Y144814D01*
X93677Y145260D01*
X92521Y145412D01*
D02*
G37*
G36*
X45276Y145412D02*
X44119Y145260D01*
X43042Y144814D01*
X42117Y144104D01*
X41407Y143179D01*
X40960Y142101D01*
X40808Y140945D01*
X40960Y139789D01*
X41407Y138711D01*
X42117Y137786D01*
X43042Y137076D01*
X44119Y136630D01*
X45276Y136477D01*
X46432Y136630D01*
X47461Y137056D01*
X79504Y105013D01*
Y93198D01*
X79411Y93057D01*
X79304Y92520D01*
X79411Y91982D01*
X79715Y91526D01*
X80171Y91222D01*
X80709Y91115D01*
X81246Y91222D01*
X81702Y91526D01*
X82007Y91982D01*
X82114Y92520D01*
X82007Y93057D01*
X81913Y93198D01*
Y105512D01*
X81821Y105973D01*
X81560Y106363D01*
X53954Y133970D01*
X54118Y134512D01*
X54241Y134537D01*
X54832Y134932D01*
X55227Y135523D01*
X55266Y135721D01*
X53543D01*
Y136221D01*
X53043D01*
Y137943D01*
X52846Y137904D01*
X52255Y137509D01*
X51860Y136918D01*
X51835Y136795D01*
X51293Y136631D01*
X49164Y138759D01*
X49591Y139789D01*
X49743Y140945D01*
X49591Y142101D01*
X49145Y143179D01*
X48434Y144104D01*
X47509Y144814D01*
X46432Y145260D01*
X45276Y145412D01*
D02*
G37*
G36*
X103059Y90306D02*
Y89083D01*
X104282D01*
X104243Y89280D01*
X103848Y89871D01*
X103256Y90266D01*
X103059Y90306D01*
D02*
G37*
G36*
X102059D02*
X101862Y90266D01*
X101270Y89871D01*
X100875Y89280D01*
X100836Y89083D01*
X102059D01*
Y90306D01*
D02*
G37*
G36*
X104282Y88083D02*
X103059D01*
Y86860D01*
X103256Y86899D01*
X103848Y87294D01*
X104243Y87885D01*
X104282Y88083D01*
D02*
G37*
G36*
X102059D02*
X100836D01*
X100875Y87885D01*
X101270Y87294D01*
X101862Y86899D01*
X102059Y86860D01*
Y88083D01*
D02*
G37*
G36*
X150394Y92314D02*
X149469Y92192D01*
X148607Y91835D01*
X147867Y91267D01*
X147299Y90527D01*
X146942Y89665D01*
X146820Y88740D01*
X146942Y87815D01*
X147299Y86953D01*
X147867Y86213D01*
X148607Y85645D01*
X149469Y85288D01*
X150394Y85166D01*
X151319Y85288D01*
X152181Y85645D01*
X152921Y86213D01*
X153489Y86953D01*
X153846Y87815D01*
X153968Y88740D01*
X153846Y89665D01*
X153489Y90527D01*
X152921Y91267D01*
X152181Y91835D01*
X151319Y92192D01*
X150394Y92314D01*
D02*
G37*
G36*
X63098Y86369D02*
Y85146D01*
X64321D01*
X64282Y85343D01*
X63887Y85934D01*
X63296Y86329D01*
X63098Y86369D01*
D02*
G37*
G36*
X62098D02*
X61901Y86329D01*
X61310Y85934D01*
X60915Y85343D01*
X60875Y85146D01*
X62098D01*
Y86369D01*
D02*
G37*
G36*
X153937Y118898D02*
X146850D01*
Y113514D01*
X118399Y85062D01*
X113276D01*
X113136Y85156D01*
X112598Y85263D01*
X112061Y85156D01*
X111605Y84852D01*
X111300Y84396D01*
X111258Y84181D01*
X110758Y84230D01*
Y91732D01*
X110758Y91732D01*
X110673Y92158D01*
X110432Y92519D01*
X103529Y99422D01*
X103463Y99750D01*
X103159Y100206D01*
X102703Y100511D01*
X102165Y100618D01*
X101628Y100511D01*
X101172Y100206D01*
X100867Y99750D01*
X100760Y99213D01*
X100867Y98675D01*
X101172Y98219D01*
X101628Y97915D01*
X101956Y97849D01*
X108534Y91272D01*
Y80906D01*
X108534Y80905D01*
X108618Y80480D01*
X108859Y80119D01*
X121025Y67954D01*
X121025Y67954D01*
X121386Y67713D01*
X121811Y67628D01*
X121811Y67628D01*
X135792D01*
X135969Y67202D01*
X135974Y67154D01*
X135523Y67038D01*
X134932Y66643D01*
X134537Y66052D01*
X134497Y65854D01*
X137943D01*
X137904Y66052D01*
X137509Y66643D01*
X136918Y67038D01*
X136467Y67154D01*
X136472Y67202D01*
X136649Y67628D01*
X146850D01*
Y65197D01*
X153937D01*
Y72284D01*
X146850D01*
Y69852D01*
X122272D01*
X110758Y81366D01*
Y83487D01*
X111258Y83536D01*
X111300Y83321D01*
X111605Y82865D01*
X112061Y82560D01*
X112598Y82453D01*
X113136Y82560D01*
X113276Y82654D01*
X118898D01*
X118898Y82654D01*
X119359Y82746D01*
X119749Y83007D01*
X148553Y111811D01*
X153937D01*
Y118898D01*
D02*
G37*
G36*
X83571Y85396D02*
Y83571D01*
X85396D01*
X85311Y83999D01*
X84785Y84785D01*
X83999Y85311D01*
X83571Y85396D01*
D02*
G37*
G36*
X82571D02*
X82143Y85311D01*
X81357Y84785D01*
X80831Y83999D01*
X80746Y83571D01*
X82571D01*
Y85396D01*
D02*
G37*
G36*
X74910D02*
Y83571D01*
X76735D01*
X76649Y83999D01*
X76124Y84785D01*
X75337Y85311D01*
X74910Y85396D01*
D02*
G37*
G36*
X73909D02*
X73482Y85311D01*
X72695Y84785D01*
X72170Y83999D01*
X72084Y83571D01*
X73909D01*
Y85396D01*
D02*
G37*
G36*
X64321Y84146D02*
X63098D01*
Y82923D01*
X63296Y82962D01*
X63887Y83357D01*
X64282Y83948D01*
X64321Y84146D01*
D02*
G37*
G36*
X62098D02*
X60875D01*
X60915Y83948D01*
X61310Y83357D01*
X61901Y82962D01*
X62098Y82923D01*
Y84146D01*
D02*
G37*
G36*
X16339Y114204D02*
X15414Y114082D01*
X14552Y113725D01*
X13812Y113157D01*
X13243Y112417D01*
X12887Y111555D01*
X12765Y110630D01*
X12887Y109705D01*
X13243Y108843D01*
X13812Y108103D01*
X14552Y107535D01*
X15414Y107178D01*
X16339Y107056D01*
X17264Y107178D01*
X17846Y107419D01*
X25330Y99936D01*
X25720Y99675D01*
X26181Y99583D01*
X57572D01*
X69424Y87731D01*
X69815Y87470D01*
X70276Y87378D01*
X85722D01*
X90795Y82305D01*
X90828Y82139D01*
X91132Y81684D01*
X91588Y81379D01*
X92126Y81272D01*
X92664Y81379D01*
X93119Y81684D01*
X93424Y82139D01*
X93531Y82677D01*
X93424Y83215D01*
X93119Y83671D01*
X92664Y83975D01*
X92498Y84008D01*
X87072Y89434D01*
X86681Y89695D01*
X86221Y89787D01*
X86220Y89787D01*
X70774D01*
X58922Y101639D01*
X58532Y101900D01*
X58071Y101992D01*
X58071Y101992D01*
X26680D01*
X19549Y109122D01*
X19791Y109705D01*
X19913Y110630D01*
X19791Y111555D01*
X19434Y112417D01*
X18866Y113157D01*
X18125Y113725D01*
X17264Y114082D01*
X16339Y114204D01*
D02*
G37*
G36*
X85396Y82571D02*
X83571D01*
Y80746D01*
X83999Y80831D01*
X84785Y81357D01*
X85311Y82143D01*
X85396Y82571D01*
D02*
G37*
G36*
X82571D02*
X80746D01*
X80831Y82143D01*
X81357Y81357D01*
X82143Y80831D01*
X82571Y80746D01*
Y82571D01*
D02*
G37*
G36*
X76735D02*
X74910D01*
Y80746D01*
X75337Y80831D01*
X76124Y81357D01*
X76649Y82143D01*
X76735Y82571D01*
D02*
G37*
G36*
X73909D02*
X72084D01*
X72170Y82143D01*
X72695Y81357D01*
X73482Y80831D01*
X73909Y80746D01*
Y82571D01*
D02*
G37*
G36*
X79240Y81065D02*
Y79240D01*
X81065D01*
X80980Y79668D01*
X80455Y80455D01*
X79668Y80980D01*
X79240Y81065D01*
D02*
G37*
G36*
X78240D02*
X77812Y80980D01*
X77026Y80455D01*
X76500Y79668D01*
X76415Y79240D01*
X78240D01*
Y81065D01*
D02*
G37*
G36*
X81065Y78240D02*
X79240D01*
Y76415D01*
X79668Y76500D01*
X80455Y77026D01*
X80980Y77812D01*
X81065Y78240D01*
D02*
G37*
G36*
X78240D02*
X76415D01*
X76500Y77812D01*
X77026Y77026D01*
X77812Y76500D01*
X78240Y76415D01*
Y78240D01*
D02*
G37*
G36*
X20965Y93013D02*
X12106D01*
Y84154D01*
X20965D01*
Y87379D01*
X46547D01*
X56937Y76990D01*
X56970Y76824D01*
X57274Y76369D01*
X57730Y76064D01*
X58268Y75957D01*
X58805Y76064D01*
X59261Y76369D01*
X59566Y76824D01*
X59673Y77362D01*
X59566Y77900D01*
X59261Y78356D01*
X58805Y78660D01*
X58640Y78693D01*
X47898Y89435D01*
X47507Y89696D01*
X47046Y89788D01*
X47046Y89788D01*
X20965D01*
Y93013D01*
D02*
G37*
G36*
X150394Y82314D02*
X149469Y82192D01*
X148607Y81835D01*
X147867Y81267D01*
X147299Y80527D01*
X146942Y79665D01*
X146820Y78740D01*
X146942Y77815D01*
X147299Y76953D01*
X147867Y76213D01*
X148607Y75645D01*
X149469Y75288D01*
X150394Y75166D01*
X151319Y75288D01*
X152181Y75645D01*
X152921Y76213D01*
X153489Y76953D01*
X153846Y77815D01*
X153968Y78740D01*
X153846Y79665D01*
X153489Y80527D01*
X152921Y81267D01*
X152181Y81835D01*
X151319Y82192D01*
X150394Y82314D01*
D02*
G37*
G36*
X83571Y76735D02*
Y74910D01*
X85396D01*
X85311Y75337D01*
X84785Y76124D01*
X83999Y76649D01*
X83571Y76735D01*
D02*
G37*
G36*
X82571D02*
X82143Y76649D01*
X81357Y76124D01*
X80831Y75337D01*
X80746Y74910D01*
X82571D01*
Y76735D01*
D02*
G37*
G36*
X74910D02*
Y74910D01*
X76735D01*
X76649Y75337D01*
X76124Y76124D01*
X75337Y76649D01*
X74910Y76735D01*
D02*
G37*
G36*
X73909D02*
X73482Y76649D01*
X72695Y76124D01*
X72170Y75337D01*
X72084Y74910D01*
X73909D01*
Y76735D01*
D02*
G37*
G36*
X103059Y75739D02*
Y74516D01*
X104282D01*
X104243Y74713D01*
X103848Y75304D01*
X103256Y75700D01*
X103059Y75739D01*
D02*
G37*
G36*
X102059D02*
X101862Y75700D01*
X101270Y75304D01*
X100875Y74713D01*
X100836Y74516D01*
X102059D01*
Y75739D01*
D02*
G37*
G36*
X104282Y73516D02*
X103059D01*
Y72293D01*
X103256Y72332D01*
X103848Y72727D01*
X104243Y73318D01*
X104282Y73516D01*
D02*
G37*
G36*
X102059D02*
X100836D01*
X100875Y73318D01*
X101270Y72727D01*
X101862Y72332D01*
X102059Y72293D01*
Y73516D01*
D02*
G37*
G36*
X85396Y73909D02*
X83571D01*
Y72084D01*
X83999Y72170D01*
X84785Y72695D01*
X85311Y73482D01*
X85396Y73909D01*
D02*
G37*
G36*
X82571D02*
X80746D01*
X80831Y73482D01*
X81357Y72695D01*
X82143Y72170D01*
X82571Y72084D01*
Y73909D01*
D02*
G37*
G36*
X76735D02*
X74910D01*
Y72084D01*
X75337Y72170D01*
X76124Y72695D01*
X76649Y73482D01*
X76735Y73909D01*
D02*
G37*
G36*
X73909D02*
X72084D01*
X72170Y73482D01*
X72695Y72695D01*
X73482Y72170D01*
X73909Y72084D01*
Y73909D01*
D02*
G37*
G36*
X17035Y73713D02*
Y69399D01*
X21350D01*
X21249Y70162D01*
X20762Y71339D01*
X19986Y72350D01*
X18976Y73125D01*
X17798Y73613D01*
X17035Y73713D01*
D02*
G37*
G36*
X16035D02*
X15272Y73613D01*
X14095Y73125D01*
X13084Y72350D01*
X12309Y71339D01*
X11821Y70162D01*
X11721Y69399D01*
X16035D01*
Y73713D01*
D02*
G37*
G36*
X42232Y67077D02*
Y65854D01*
X43455D01*
X43416Y66052D01*
X43021Y66643D01*
X42430Y67038D01*
X42232Y67077D01*
D02*
G37*
G36*
X41232D02*
X41035Y67038D01*
X40444Y66643D01*
X40049Y66052D01*
X40009Y65854D01*
X41232D01*
Y67077D01*
D02*
G37*
G36*
X21350Y68399D02*
X17035D01*
Y64084D01*
X17798Y64185D01*
X18976Y64672D01*
X19986Y65448D01*
X20762Y66458D01*
X21249Y67636D01*
X21350Y68399D01*
D02*
G37*
G36*
X16035D02*
X11721D01*
X11821Y67636D01*
X12309Y66458D01*
X13084Y65448D01*
X14095Y64672D01*
X15272Y64185D01*
X16035Y64084D01*
Y68399D01*
D02*
G37*
G36*
X137943Y64854D02*
X136721D01*
Y63631D01*
X136918Y63671D01*
X137509Y64066D01*
X137904Y64657D01*
X137943Y64854D01*
D02*
G37*
G36*
X135721D02*
X134497D01*
X134537Y64657D01*
X134932Y64066D01*
X135523Y63671D01*
X135721Y63631D01*
Y64854D01*
D02*
G37*
G36*
X43455D02*
X42232D01*
Y63631D01*
X42430Y63671D01*
X43021Y64066D01*
X43416Y64657D01*
X43455Y64854D01*
D02*
G37*
G36*
X41232D02*
X40009D01*
X40049Y64657D01*
X40444Y64066D01*
X41035Y63671D01*
X41232Y63631D01*
Y64854D01*
D02*
G37*
G36*
X89280Y60975D02*
Y59752D01*
X90503D01*
X90463Y59949D01*
X90068Y60541D01*
X89477Y60936D01*
X89280Y60975D01*
D02*
G37*
G36*
X88279D02*
X88082Y60936D01*
X87491Y60541D01*
X87096Y59949D01*
X87057Y59752D01*
X88279D01*
Y60975D01*
D02*
G37*
G36*
X90503Y58752D02*
X89280D01*
Y57529D01*
X89477Y57568D01*
X90068Y57963D01*
X90463Y58555D01*
X90503Y58752D01*
D02*
G37*
G36*
X88279D02*
X87057D01*
X87096Y58555D01*
X87491Y57963D01*
X88082Y57568D01*
X88279Y57529D01*
Y58752D01*
D02*
G37*
G36*
X111417Y57310D02*
X110880Y57204D01*
X110424Y56899D01*
X110119Y56443D01*
X110012Y55905D01*
X110119Y55368D01*
X109686Y55180D01*
X109458Y55521D01*
X109002Y55826D01*
X108465Y55932D01*
X107927Y55826D01*
X107471Y55521D01*
X107167Y55065D01*
X107060Y54528D01*
X107167Y53990D01*
X107471Y53534D01*
X107927Y53230D01*
X108092Y53197D01*
X109778Y51511D01*
X110169Y51250D01*
X110630Y51158D01*
X114856D01*
X124063Y41951D01*
X124096Y41785D01*
X124400Y41329D01*
X124856Y41025D01*
X125394Y40918D01*
X125931Y41025D01*
X126387Y41329D01*
X126692Y41785D01*
X126799Y42323D01*
X126692Y42860D01*
X126387Y43316D01*
X125931Y43621D01*
X125766Y43654D01*
X116206Y53214D01*
X115815Y53475D01*
X115354Y53566D01*
X115354Y53566D01*
X111129D01*
X110305Y54390D01*
X110624Y54778D01*
X110880Y54607D01*
X111417Y54501D01*
X111955Y54607D01*
X112095Y54701D01*
X116914D01*
X117200Y54416D01*
X117206Y54384D01*
X117510Y53928D01*
X117966Y53623D01*
X118504Y53516D01*
X119042Y53623D01*
X119497Y53928D01*
X119802Y54384D01*
X119909Y54921D01*
X119802Y55459D01*
X119497Y55915D01*
X119042Y56219D01*
X118743Y56279D01*
X118265Y56757D01*
X117874Y57018D01*
X117413Y57110D01*
X117413Y57110D01*
X112095D01*
X111955Y57204D01*
X111417Y57310D01*
D02*
G37*
G36*
X112205Y69515D02*
X111667Y69408D01*
X111211Y69104D01*
X110907Y68648D01*
X110800Y68110D01*
X110907Y67573D01*
X111211Y67117D01*
X111667Y66812D01*
X111833Y66779D01*
X127495Y51117D01*
X127495Y51117D01*
X127886Y50856D01*
X128347Y50764D01*
X128347Y50764D01*
X146850D01*
Y48425D01*
X153937D01*
Y55512D01*
X146850D01*
Y53173D01*
X128845D01*
X113536Y68482D01*
X113503Y68648D01*
X113198Y69104D01*
X112742Y69408D01*
X112205Y69515D01*
D02*
G37*
G36*
X150894Y45889D02*
Y42469D01*
X154315D01*
X154245Y43000D01*
X153846Y43962D01*
X153213Y44788D01*
X152387Y45421D01*
X151426Y45820D01*
X150894Y45889D01*
D02*
G37*
G36*
X149894D02*
X149362Y45820D01*
X148400Y45421D01*
X147575Y44788D01*
X146941Y43962D01*
X146543Y43000D01*
X146473Y42469D01*
X149894D01*
Y45889D01*
D02*
G37*
G36*
X30421Y43455D02*
Y42232D01*
X31644D01*
X31605Y42430D01*
X31210Y43021D01*
X30619Y43416D01*
X30421Y43455D01*
D02*
G37*
G36*
X29421D02*
X29224Y43416D01*
X28633Y43021D01*
X28238Y42430D01*
X28198Y42232D01*
X29421D01*
Y43455D01*
D02*
G37*
G36*
X6102Y48456D02*
X5177Y48334D01*
X4315Y47977D01*
X3575Y47409D01*
X3007Y46669D01*
X2650Y45807D01*
X2528Y44882D01*
X2650Y43957D01*
X3007Y43095D01*
X3575Y42355D01*
X4315Y41787D01*
X5177Y41430D01*
X6102Y41308D01*
X7027Y41430D01*
X7889Y41787D01*
X8630Y42355D01*
X9197Y43095D01*
X9554Y43957D01*
X9676Y44882D01*
X9554Y45807D01*
X9197Y46669D01*
X8630Y47409D01*
X7889Y47977D01*
X7027Y48334D01*
X6102Y48456D01*
D02*
G37*
G36*
X31644Y41232D02*
X30421D01*
Y40009D01*
X30619Y40049D01*
X31210Y40444D01*
X31605Y41035D01*
X31644Y41232D01*
D02*
G37*
G36*
X29421D02*
X28198D01*
X28238Y41035D01*
X28633Y40444D01*
X29224Y40049D01*
X29421Y40009D01*
Y41232D01*
D02*
G37*
G36*
X154315Y41469D02*
X150894D01*
Y38048D01*
X151426Y38118D01*
X152387Y38516D01*
X153213Y39149D01*
X153846Y39975D01*
X154245Y40937D01*
X154315Y41469D01*
D02*
G37*
G36*
X149894D02*
X146473D01*
X146543Y40937D01*
X146941Y39975D01*
X147575Y39149D01*
X148400Y38516D01*
X149362Y38118D01*
X149894Y38048D01*
Y41469D01*
D02*
G37*
G36*
X9646Y38425D02*
X2559D01*
Y31339D01*
X9646D01*
Y38425D01*
D02*
G37*
G36*
X118504Y43728D02*
X117966Y43621D01*
X117510Y43316D01*
X117206Y42860D01*
X117099Y42323D01*
X117206Y41785D01*
X117300Y41645D01*
Y31049D01*
X114384Y28133D01*
X105905D01*
Y30472D01*
X98819D01*
Y28133D01*
X94882D01*
Y30472D01*
X87795D01*
Y28133D01*
X82087D01*
Y30472D01*
X75000D01*
Y28133D01*
X71063D01*
Y30472D01*
X63976D01*
Y28133D01*
X58268D01*
Y30472D01*
X51181D01*
Y28133D01*
X47244D01*
Y30472D01*
X40157D01*
Y28133D01*
X36220D01*
Y30472D01*
X29134D01*
Y23386D01*
X36220D01*
Y25725D01*
X40157D01*
Y23386D01*
X47244D01*
Y25725D01*
X51181D01*
Y23386D01*
X58268D01*
Y25725D01*
X63976D01*
Y23386D01*
X71063D01*
Y25725D01*
X75000D01*
Y23386D01*
X82087D01*
Y25725D01*
X87795D01*
Y23386D01*
X94882D01*
Y25725D01*
X98819D01*
Y23386D01*
X105905D01*
Y25725D01*
X114883D01*
X114883Y25725D01*
X115344Y25817D01*
X115735Y26078D01*
X119355Y29698D01*
X119355Y29698D01*
X119616Y30089D01*
X119708Y30550D01*
Y41645D01*
X119802Y41785D01*
X119909Y42323D01*
X119802Y42860D01*
X119497Y43316D01*
X119042Y43621D01*
X118504Y43728D01*
D02*
G37*
G36*
X129724Y20472D02*
X122638D01*
Y13386D01*
X129724D01*
Y20472D01*
D02*
G37*
G36*
X118701D02*
X111614D01*
Y13386D01*
X118701D01*
Y20472D01*
D02*
G37*
G36*
X102362Y20503D02*
X101437Y20381D01*
X100575Y20024D01*
X99835Y19456D01*
X99267Y18716D01*
X98910Y17854D01*
X98788Y16929D01*
X98910Y16004D01*
X99267Y15142D01*
X99835Y14402D01*
X100575Y13834D01*
X101437Y13477D01*
X102362Y13355D01*
X103287Y13477D01*
X104149Y13834D01*
X104889Y14402D01*
X105457Y15142D01*
X105814Y16004D01*
X105936Y16929D01*
X105814Y17854D01*
X105457Y18716D01*
X104889Y19456D01*
X104149Y20024D01*
X103287Y20381D01*
X102362Y20503D01*
D02*
G37*
G36*
X91339D02*
X90414Y20381D01*
X89552Y20024D01*
X88811Y19456D01*
X88244Y18716D01*
X87887Y17854D01*
X87765Y16929D01*
X87887Y16004D01*
X88244Y15142D01*
X88811Y14402D01*
X89552Y13834D01*
X90414Y13477D01*
X91339Y13355D01*
X92264Y13477D01*
X93125Y13834D01*
X93866Y14402D01*
X94434Y15142D01*
X94791Y16004D01*
X94912Y16929D01*
X94791Y17854D01*
X94434Y18716D01*
X93866Y19456D01*
X93125Y20024D01*
X92264Y20381D01*
X91339Y20503D01*
D02*
G37*
G36*
X78543D02*
X77618Y20381D01*
X76756Y20024D01*
X76016Y19456D01*
X75448Y18716D01*
X75091Y17854D01*
X74969Y16929D01*
X75091Y16004D01*
X75448Y15142D01*
X76016Y14402D01*
X76756Y13834D01*
X77618Y13477D01*
X78543Y13355D01*
X79468Y13477D01*
X80330Y13834D01*
X81070Y14402D01*
X81638Y15142D01*
X81995Y16004D01*
X82117Y16929D01*
X81995Y17854D01*
X81638Y18716D01*
X81070Y19456D01*
X80330Y20024D01*
X79468Y20381D01*
X78543Y20503D01*
D02*
G37*
G36*
X67520D02*
X66595Y20381D01*
X65733Y20024D01*
X64993Y19456D01*
X64425Y18716D01*
X64068Y17854D01*
X63946Y16929D01*
X64068Y16004D01*
X64425Y15142D01*
X64993Y14402D01*
X65733Y13834D01*
X66595Y13477D01*
X67520Y13355D01*
X68445Y13477D01*
X69307Y13834D01*
X70047Y14402D01*
X70615Y15142D01*
X70972Y16004D01*
X71094Y16929D01*
X70972Y17854D01*
X70615Y18716D01*
X70047Y19456D01*
X69307Y20024D01*
X68445Y20381D01*
X67520Y20503D01*
D02*
G37*
G36*
X54724D02*
X53799Y20381D01*
X52938Y20024D01*
X52197Y19456D01*
X51629Y18716D01*
X51272Y17854D01*
X51151Y16929D01*
X51272Y16004D01*
X51629Y15142D01*
X52197Y14402D01*
X52938Y13834D01*
X53799Y13477D01*
X54724Y13355D01*
X55649Y13477D01*
X56511Y13834D01*
X57252Y14402D01*
X57819Y15142D01*
X58176Y16004D01*
X58298Y16929D01*
X58176Y17854D01*
X57819Y18716D01*
X57252Y19456D01*
X56511Y20024D01*
X55649Y20381D01*
X54724Y20503D01*
D02*
G37*
G36*
X43701D02*
X42776Y20381D01*
X41914Y20024D01*
X41174Y19456D01*
X40606Y18716D01*
X40249Y17854D01*
X40127Y16929D01*
X40249Y16004D01*
X40606Y15142D01*
X41174Y14402D01*
X41914Y13834D01*
X42776Y13477D01*
X43701Y13355D01*
X44626Y13477D01*
X45488Y13834D01*
X46228Y14402D01*
X46796Y15142D01*
X47153Y16004D01*
X47275Y16929D01*
X47153Y17854D01*
X46796Y18716D01*
X46228Y19456D01*
X45488Y20024D01*
X44626Y20381D01*
X43701Y20503D01*
D02*
G37*
G36*
X32677D02*
X31752Y20381D01*
X30890Y20024D01*
X30150Y19456D01*
X29582Y18716D01*
X29225Y17854D01*
X29103Y16929D01*
X29225Y16004D01*
X29582Y15142D01*
X30150Y14402D01*
X30890Y13834D01*
X31752Y13477D01*
X32677Y13355D01*
X33602Y13477D01*
X34464Y13834D01*
X35204Y14402D01*
X35772Y15142D01*
X36129Y16004D01*
X36251Y16929D01*
X36129Y17854D01*
X35772Y18716D01*
X35204Y19456D01*
X34464Y20024D01*
X33602Y20381D01*
X32677Y20503D01*
D02*
G37*
G36*
X91839Y10850D02*
Y7429D01*
X95260D01*
X95190Y7961D01*
X94791Y8923D01*
X94158Y9748D01*
X93332Y10382D01*
X92370Y10780D01*
X91839Y10850D01*
D02*
G37*
G36*
X79043D02*
Y7429D01*
X82464D01*
X82394Y7961D01*
X81996Y8923D01*
X81362Y9748D01*
X80537Y10382D01*
X79575Y10780D01*
X79043Y10850D01*
D02*
G37*
G36*
X78043D02*
X77511Y10780D01*
X76550Y10382D01*
X75724Y9748D01*
X75091Y8923D01*
X74692Y7961D01*
X74622Y7429D01*
X78043D01*
Y10850D01*
D02*
G37*
G36*
X90839D02*
X90307Y10780D01*
X89345Y10382D01*
X88519Y9748D01*
X87886Y8923D01*
X87488Y7961D01*
X87418Y7429D01*
X90839D01*
Y10850D01*
D02*
G37*
G36*
X68020D02*
Y7429D01*
X71441D01*
X71371Y7961D01*
X70972Y8923D01*
X70339Y9748D01*
X69513Y10382D01*
X68552Y10780D01*
X68020Y10850D01*
D02*
G37*
G36*
X55224D02*
Y7429D01*
X58645D01*
X58575Y7961D01*
X58177Y8923D01*
X57544Y9748D01*
X56718Y10382D01*
X55756Y10780D01*
X55224Y10850D01*
D02*
G37*
G36*
X44201D02*
Y7429D01*
X47622D01*
X47552Y7961D01*
X47153Y8923D01*
X46520Y9748D01*
X45694Y10382D01*
X44733Y10780D01*
X44201Y10850D01*
D02*
G37*
G36*
X33177D02*
Y7429D01*
X36598D01*
X36528Y7961D01*
X36130Y8923D01*
X35496Y9748D01*
X34671Y10382D01*
X33709Y10780D01*
X33177Y10850D01*
D02*
G37*
G36*
X126681D02*
Y7429D01*
X130102D01*
X130032Y7961D01*
X129634Y8923D01*
X129000Y9748D01*
X128174Y10382D01*
X127213Y10780D01*
X126681Y10850D01*
D02*
G37*
G36*
X115657D02*
Y7429D01*
X119079D01*
X119009Y7961D01*
X118610Y8923D01*
X117977Y9748D01*
X117151Y10382D01*
X116189Y10780D01*
X115657Y10850D01*
D02*
G37*
G36*
X102862D02*
Y7429D01*
X106283D01*
X106213Y7961D01*
X105815Y8923D01*
X105181Y9748D01*
X104356Y10382D01*
X103394Y10780D01*
X102862Y10850D01*
D02*
G37*
G36*
X67020D02*
X66488Y10780D01*
X65526Y10382D01*
X64701Y9748D01*
X64067Y8923D01*
X63669Y7961D01*
X63599Y7429D01*
X67020D01*
Y10850D01*
D02*
G37*
G36*
X54224D02*
X53693Y10780D01*
X52731Y10382D01*
X51905Y9748D01*
X51272Y8923D01*
X50873Y7961D01*
X50803Y7429D01*
X54224D01*
Y10850D01*
D02*
G37*
G36*
X43201D02*
X42669Y10780D01*
X41707Y10382D01*
X40882Y9748D01*
X40248Y8923D01*
X39850Y7961D01*
X39780Y7429D01*
X43201D01*
Y10850D01*
D02*
G37*
G36*
X32177D02*
X31645Y10780D01*
X30684Y10382D01*
X29858Y9748D01*
X29225Y8923D01*
X28826Y7961D01*
X28756Y7429D01*
X32177D01*
Y10850D01*
D02*
G37*
G36*
X125681D02*
X125149Y10780D01*
X124188Y10382D01*
X123362Y9748D01*
X122728Y8923D01*
X122330Y7961D01*
X122260Y7429D01*
X125681D01*
Y10850D01*
D02*
G37*
G36*
X114657D02*
X114126Y10780D01*
X113164Y10382D01*
X112338Y9748D01*
X111705Y8923D01*
X111307Y7961D01*
X111236Y7429D01*
X114657D01*
Y10850D01*
D02*
G37*
G36*
X101862D02*
X101330Y10780D01*
X100369Y10382D01*
X99543Y9748D01*
X98909Y8923D01*
X98511Y7961D01*
X98441Y7429D01*
X101862D01*
Y10850D01*
D02*
G37*
G36*
X95260Y6429D02*
X91839D01*
Y3008D01*
X92370Y3078D01*
X93332Y3476D01*
X94158Y4110D01*
X94791Y4936D01*
X95190Y5897D01*
X95260Y6429D01*
D02*
G37*
G36*
X82464D02*
X79043D01*
Y3008D01*
X79575Y3078D01*
X80537Y3476D01*
X81362Y4110D01*
X81996Y4936D01*
X82394Y5897D01*
X82464Y6429D01*
D02*
G37*
G36*
X58645Y6429D02*
X55224D01*
Y3008D01*
X55756Y3078D01*
X56718Y3476D01*
X57544Y4110D01*
X58177Y4936D01*
X58575Y5897D01*
X58645Y6429D01*
D02*
G37*
G36*
X36598D02*
X33177D01*
Y3008D01*
X33709Y3078D01*
X34671Y3476D01*
X35496Y4110D01*
X36130Y4936D01*
X36528Y5897D01*
X36598Y6429D01*
D02*
G37*
G36*
X130102D02*
X126681D01*
Y3008D01*
X127213Y3078D01*
X128174Y3476D01*
X129000Y4110D01*
X129634Y4936D01*
X130032Y5897D01*
X130102Y6429D01*
D02*
G37*
G36*
X119079D02*
X115657D01*
Y3008D01*
X116189Y3078D01*
X117151Y3476D01*
X117977Y4110D01*
X118610Y4936D01*
X119009Y5897D01*
X119079Y6429D01*
D02*
G37*
G36*
X106283D02*
X102862D01*
Y3008D01*
X103394Y3078D01*
X104356Y3476D01*
X105181Y4110D01*
X105815Y4936D01*
X106213Y5897D01*
X106283Y6429D01*
D02*
G37*
G36*
X71441D02*
X68020D01*
Y3008D01*
X68552Y3078D01*
X69513Y3476D01*
X70339Y4110D01*
X70972Y4936D01*
X71371Y5897D01*
X71441Y6429D01*
D02*
G37*
G36*
X47622D02*
X44201D01*
Y3008D01*
X44733Y3078D01*
X45694Y3476D01*
X46520Y4110D01*
X47153Y4936D01*
X47552Y5897D01*
X47622Y6429D01*
D02*
G37*
G36*
X67020D02*
X63599D01*
X63669Y5897D01*
X64067Y4936D01*
X64701Y4110D01*
X65526Y3476D01*
X66488Y3078D01*
X67020Y3008D01*
Y6429D01*
D02*
G37*
G36*
X43201D02*
X39780D01*
X39850Y5897D01*
X40248Y4936D01*
X40882Y4110D01*
X41707Y3476D01*
X42669Y3078D01*
X43201Y3008D01*
Y6429D01*
D02*
G37*
G36*
X125681D02*
X122260D01*
X122330Y5897D01*
X122728Y4936D01*
X123362Y4110D01*
X124188Y3476D01*
X125149Y3078D01*
X125681Y3008D01*
Y6429D01*
D02*
G37*
G36*
X114657D02*
X111236D01*
X111307Y5897D01*
X111705Y4936D01*
X112338Y4110D01*
X113164Y3476D01*
X114126Y3078D01*
X114657Y3008D01*
Y6429D01*
D02*
G37*
G36*
X101862D02*
X98441D01*
X98511Y5897D01*
X98909Y4936D01*
X99543Y4110D01*
X100369Y3476D01*
X101330Y3078D01*
X101862Y3008D01*
Y6429D01*
D02*
G37*
G36*
X54224D02*
X50803D01*
X50873Y5897D01*
X51272Y4936D01*
X51905Y4110D01*
X52731Y3476D01*
X53693Y3078D01*
X54224Y3008D01*
Y6429D01*
D02*
G37*
G36*
X32177D02*
X28756D01*
X28826Y5897D01*
X29225Y4936D01*
X29858Y4110D01*
X30684Y3476D01*
X31645Y3078D01*
X32177Y3008D01*
Y6429D01*
D02*
G37*
G36*
X90839Y6429D02*
X87418D01*
X87488Y5897D01*
X87886Y4936D01*
X88519Y4110D01*
X89345Y3476D01*
X90307Y3078D01*
X90839Y3008D01*
Y6429D01*
D02*
G37*
G36*
X78043D02*
X74622D01*
X74692Y5897D01*
X75091Y4936D01*
X75724Y4110D01*
X76550Y3476D01*
X77511Y3078D01*
X78043Y3008D01*
Y6429D01*
D02*
G37*
G36*
X145669Y22276D02*
X144032Y22148D01*
X142435Y21764D01*
X140918Y21136D01*
X139518Y20278D01*
X138269Y19211D01*
X137203Y17962D01*
X136345Y16562D01*
X135716Y15045D01*
X135333Y13448D01*
X135204Y11811D01*
X135333Y10174D01*
X135716Y8577D01*
X136345Y7060D01*
X137203Y5660D01*
X138269Y4411D01*
X139518Y3344D01*
X140918Y2486D01*
X142435Y1858D01*
X144032Y1474D01*
X145669Y1346D01*
X147306Y1474D01*
X148903Y1858D01*
X150420Y2486D01*
X151821Y3344D01*
X153069Y4411D01*
X154136Y5660D01*
X154994Y7060D01*
X155622Y8577D01*
X156006Y10174D01*
X156135Y11811D01*
X156006Y13448D01*
X155622Y15045D01*
X154994Y16562D01*
X154136Y17962D01*
X153069Y19211D01*
X151821Y20278D01*
X150420Y21136D01*
X148903Y21764D01*
X147306Y22148D01*
X145669Y22276D01*
D02*
G37*
G36*
X11811D02*
X10174Y22148D01*
X8577Y21764D01*
X7060Y21136D01*
X5660Y20278D01*
X4411Y19211D01*
X3344Y17962D01*
X2486Y16562D01*
X1858Y15045D01*
X1474Y13448D01*
X1346Y11811D01*
X1474Y10174D01*
X1858Y8577D01*
X2486Y7060D01*
X3344Y5660D01*
X4411Y4411D01*
X5660Y3344D01*
X7060Y2486D01*
X8577Y1858D01*
X10174Y1474D01*
X11811Y1346D01*
X13448Y1474D01*
X15045Y1858D01*
X16562Y2486D01*
X17962Y3344D01*
X19211Y4411D01*
X20278Y5660D01*
X21136Y7060D01*
X21764Y8577D01*
X22148Y10174D01*
X22276Y11811D01*
X22148Y13448D01*
X21764Y15045D01*
X21136Y16562D01*
X20278Y17962D01*
X19211Y19211D01*
X17962Y20278D01*
X16562Y21136D01*
X15045Y21764D01*
X13448Y22148D01*
X11811Y22276D01*
D02*
G37*
%LPD*%
D11*
X109646Y80905D02*
X121811Y68740D01*
X109646Y80905D02*
Y91732D01*
X102165Y99213D02*
X109646Y91732D01*
X121811Y68740D02*
X150394D01*
D38*
X62598Y84646D02*
X64173Y83071D01*
X74410D01*
X102484Y72956D02*
Y73940D01*
X102559Y74016D01*
X88779Y59252D02*
X102484Y72956D01*
X102559Y74016D02*
Y88583D01*
X128347Y51968D02*
X150394D01*
X112205Y68110D02*
X128347Y51968D01*
X70276Y88583D02*
X86221D01*
X92126Y82677D01*
X58071Y100787D02*
X70276Y88583D01*
X16339Y110630D02*
X26181Y100787D01*
X58071D01*
X92521Y100788D02*
Y140945D01*
X114883Y26929D02*
X118504Y30550D01*
Y42323D01*
X102362Y26929D02*
X114883D01*
X78543D02*
X91339D01*
X67520D02*
X78543D01*
X54724D02*
X67520D01*
X43701D02*
X54724D01*
X32677D02*
X43701D01*
X91339D02*
X102362D01*
X115354Y52362D02*
X125394Y42323D01*
X110630Y52362D02*
X115354D01*
X84252Y92520D02*
X84252D01*
X92521Y100788D01*
X80709Y92520D02*
Y105512D01*
X45276Y140945D02*
X80709Y105512D01*
X47046Y88584D02*
X58268Y77362D01*
X16535Y88584D02*
X47046D01*
X108465Y54528D02*
X110630Y52362D01*
X111417Y55905D02*
X117413D01*
X118397Y54921D01*
X118504D01*
X118898Y83858D02*
X150394Y115354D01*
X112598Y83858D02*
X118898D01*
D39*
X6102Y34882D02*
D03*
X54724Y26929D02*
D03*
X43701D02*
D03*
X32677D02*
D03*
X126181Y16929D02*
D03*
X78543Y26929D02*
D03*
X115157Y16929D02*
D03*
X67520Y26929D02*
D03*
X91339D02*
D03*
X102362D02*
D03*
X150394Y68740D02*
D03*
X150394Y51968D02*
D03*
Y115354D02*
D03*
D40*
X6102Y44882D02*
D03*
X16339Y110630D02*
D03*
X6339D02*
D03*
X54724Y16929D02*
D03*
Y6929D02*
D03*
X43701Y16929D02*
D03*
Y6929D02*
D03*
X32677Y16929D02*
D03*
Y6929D02*
D03*
X126181D02*
D03*
X78543Y16929D02*
D03*
Y6929D02*
D03*
X115157D02*
D03*
X67520Y16929D02*
D03*
Y6929D02*
D03*
X91339Y16929D02*
D03*
Y6929D02*
D03*
X102362Y16929D02*
D03*
Y6929D02*
D03*
X150394Y88740D02*
D03*
Y78740D02*
D03*
X150394Y41969D02*
D03*
Y105354D02*
D03*
D41*
X26339Y110630D02*
D03*
D42*
X16535Y68899D02*
D03*
X92521Y140945D02*
D03*
X45276Y140945D02*
D03*
D43*
X16535Y88584D02*
D03*
D44*
X112206Y140945D02*
D03*
X64961Y140945D02*
D03*
D45*
X11811Y11811D02*
D03*
X145669Y145669D02*
D03*
X11811D02*
D03*
X145669Y11811D02*
D03*
D46*
X136221Y112599D02*
D03*
Y65354D02*
D03*
X124409Y136221D02*
D03*
X112599Y112599D02*
D03*
X100787Y136221D02*
D03*
X53543D02*
D03*
X41732Y65354D02*
D03*
X29921Y136221D02*
D03*
Y41732D02*
D03*
X62598Y84646D02*
D03*
X88779Y59252D02*
D03*
X102559Y88583D02*
D03*
Y74016D02*
D03*
X112205Y68110D02*
D03*
X92126Y82677D02*
D03*
X102165Y99213D02*
D03*
X92520Y110630D02*
D03*
X118504Y42323D02*
D03*
X125394D02*
D03*
X84252Y92520D02*
D03*
X80709D02*
D03*
X58268Y77362D02*
D03*
X118504Y54921D02*
D03*
X108465Y54528D02*
D03*
X111417Y55905D02*
D03*
X112598Y83858D02*
D03*
D47*
X83071Y83071D02*
D03*
Y74410D02*
D03*
X78740Y78740D02*
D03*
X74410Y83071D02*
D03*
Y74410D02*
D03*
M02*
