M48
;Layer_Color=9474304
;FILE_FORMAT=2:4
INCH,TZ
;TYPE=PLATED
T1F00S00C0.0079
T2F00S00C0.0118
T3F00S00C0.0354
T4F00S00C0.0512
T5F00S00C0.1181
%
T01
X2992Y4173
X11850Y4232
X12539
X11850Y5492
X11142Y5591
X10846Y5453
X11220Y6811
X10256Y7402
Y8858
X10217Y9921
X9252Y11063
X11260Y11260
X13622
X12441Y13622
X10079
X8425Y9252
X8071
X9213Y8268
X11260Y8386
X13622Y6535
X8878Y5925
X5827Y7736
X6260Y8465
X4173Y6535
X5354Y13622
X2992
T02
X7441Y7441
X8307
Y8307
X7874Y7874
X7441Y8307
T03
X3268Y693
Y1693
Y2693
X4370
Y1693
Y693
X5472
Y1693
Y2693
X610Y3488
Y4488
X6752Y2693
Y1693
Y693
X7854
Y1693
Y2693
X9134
Y1693
Y693
X10236
Y1693
Y2693
X11516Y1693
Y693
X12618
Y1693
X15039Y4197
Y5197
X15039Y6874
Y7874
Y8874
X15039Y10535
Y11535
X2634Y11063
X1634
X634
T04
X6496Y14094
X9252Y14094
X11221
X4528Y14094
X1654Y8858
Y6890
T05
X1181Y1181
X14567
Y14567
X1181
M30
