G04*
G04 #@! TF.GenerationSoftware,Altium Limited,Altium Designer,21.7.2 (23)*
G04*
G04 Layer_Physical_Order=1*
G04 Layer_Color=255*
%FSLAX25Y25*%
%MOIN*%
G70*
G04*
G04 #@! TF.SameCoordinates,3D67BF19-0A55-4891-8FEB-F4BE30BF2CF6*
G04*
G04*
G04 #@! TF.FilePolarity,Positive*
G04*
G01*
G75*
%ADD11C,0.01000*%
%ADD12C,0.00787*%
%ADD14R,0.03961X0.04351*%
%ADD20R,0.03985X0.05241*%
%ADD21R,0.03568X0.03563*%
%ADD22R,0.03379X0.03174*%
%ADD23C,0.04039*%
%ADD33R,0.03543X0.02756*%
%ADD34R,0.02756X0.03543*%
%ADD35R,0.12402X0.12402*%
%ADD36R,0.03268X0.01181*%
%ADD37R,0.01181X0.03268*%
%ADD38C,0.01181*%
%ADD39R,0.05906X0.05906*%
%ADD40C,0.05906*%
%ADD41R,0.05906X0.05906*%
%ADD42C,0.07677*%
%ADD43R,0.07677X0.07677*%
%ADD44R,0.07677X0.07677*%
%ADD45C,0.19685*%
%ADD46C,0.01575*%
%ADD47C,0.02756*%
G36*
X157480Y0D02*
X0D01*
Y157480D01*
X157480D01*
Y0D01*
D02*
G37*
%LPC*%
G36*
X117044Y145783D02*
X112706D01*
Y141445D01*
X117044D01*
Y145783D01*
D02*
G37*
G36*
X111706D02*
X107367D01*
Y141445D01*
X111706D01*
Y145783D01*
D02*
G37*
G36*
X69799Y145783D02*
X65461D01*
Y141445D01*
X69799D01*
Y145783D01*
D02*
G37*
G36*
X64461D02*
X60122D01*
Y141445D01*
X64461D01*
Y145783D01*
D02*
G37*
G36*
X124909Y137943D02*
Y136721D01*
X126132D01*
X126093Y136918D01*
X125698Y137509D01*
X125107Y137904D01*
X124909Y137943D01*
D02*
G37*
G36*
X123909D02*
X123712Y137904D01*
X123121Y137509D01*
X122726Y136918D01*
X122687Y136721D01*
X123909D01*
Y137943D01*
D02*
G37*
G36*
X101287D02*
Y136721D01*
X102510D01*
X102471Y136918D01*
X102076Y137509D01*
X101485Y137904D01*
X101287Y137943D01*
D02*
G37*
G36*
X100287D02*
X100090Y137904D01*
X99499Y137509D01*
X99104Y136918D01*
X99064Y136721D01*
X100287D01*
Y137943D01*
D02*
G37*
G36*
X54043D02*
Y136721D01*
X55266D01*
X55227Y136918D01*
X54832Y137509D01*
X54241Y137904D01*
X54043Y137943D01*
D02*
G37*
G36*
X53043D02*
X52846Y137904D01*
X52255Y137509D01*
X51860Y136918D01*
X51820Y136721D01*
X53043D01*
Y137943D01*
D02*
G37*
G36*
X30421D02*
Y136721D01*
X31644D01*
X31605Y136918D01*
X31210Y137509D01*
X30619Y137904D01*
X30421Y137943D01*
D02*
G37*
G36*
X29421D02*
X29224Y137904D01*
X28633Y137509D01*
X28238Y136918D01*
X28198Y136721D01*
X29421D01*
Y137943D01*
D02*
G37*
G36*
X92521Y145412D02*
X91364Y145260D01*
X90287Y144814D01*
X89362Y144104D01*
X88652Y143179D01*
X88205Y142101D01*
X88053Y140945D01*
X88205Y139789D01*
X88652Y138711D01*
X89362Y137786D01*
X90287Y137076D01*
X91364Y136630D01*
X92521Y136478D01*
X93677Y136630D01*
X94754Y137076D01*
X95679Y137786D01*
X96390Y138711D01*
X96836Y139789D01*
X96988Y140945D01*
X96836Y142101D01*
X96390Y143179D01*
X95679Y144104D01*
X94754Y144814D01*
X93677Y145260D01*
X92521Y145412D01*
D02*
G37*
G36*
X45276Y145412D02*
X44119Y145260D01*
X43042Y144814D01*
X42117Y144104D01*
X41407Y143179D01*
X40960Y142101D01*
X40808Y140945D01*
X40960Y139789D01*
X41407Y138711D01*
X42117Y137786D01*
X43042Y137076D01*
X44119Y136630D01*
X45276Y136477D01*
X46432Y136630D01*
X47509Y137076D01*
X48434Y137786D01*
X49145Y138711D01*
X49591Y139789D01*
X49743Y140945D01*
X49591Y142101D01*
X49145Y143179D01*
X48434Y144104D01*
X47509Y144814D01*
X46432Y145260D01*
X45276Y145412D01*
D02*
G37*
G36*
X117044Y140445D02*
X112706D01*
Y136106D01*
X117044D01*
Y140445D01*
D02*
G37*
G36*
X111706D02*
X107367D01*
Y136106D01*
X111706D01*
Y140445D01*
D02*
G37*
G36*
X69799Y140445D02*
X65461D01*
Y136106D01*
X69799D01*
Y140445D01*
D02*
G37*
G36*
X64461D02*
X60122D01*
Y136106D01*
X64461D01*
Y140445D01*
D02*
G37*
G36*
X145669Y156135D02*
X144032Y156006D01*
X142435Y155622D01*
X140918Y154994D01*
X139518Y154136D01*
X138269Y153069D01*
X137203Y151821D01*
X136345Y150420D01*
X135716Y148903D01*
X135333Y147306D01*
X135204Y145669D01*
X135333Y144032D01*
X135716Y142435D01*
X136345Y140918D01*
X137203Y139518D01*
X138269Y138269D01*
X139518Y137203D01*
X140918Y136345D01*
X142435Y135716D01*
X144032Y135333D01*
X145669Y135204D01*
X147306Y135333D01*
X148903Y135716D01*
X150420Y136345D01*
X151821Y137203D01*
X153069Y138269D01*
X154136Y139518D01*
X154994Y140918D01*
X155622Y142435D01*
X156006Y144032D01*
X156135Y145669D01*
X156006Y147306D01*
X155622Y148903D01*
X154994Y150420D01*
X154136Y151821D01*
X153069Y153069D01*
X151821Y154136D01*
X150420Y154994D01*
X148903Y155622D01*
X147306Y156006D01*
X145669Y156135D01*
D02*
G37*
G36*
X11811D02*
X10174Y156006D01*
X8577Y155622D01*
X7060Y154994D01*
X5660Y154136D01*
X4411Y153069D01*
X3344Y151821D01*
X2486Y150420D01*
X1858Y148903D01*
X1474Y147306D01*
X1346Y145669D01*
X1474Y144032D01*
X1858Y142435D01*
X2486Y140918D01*
X3344Y139518D01*
X4411Y138269D01*
X5660Y137203D01*
X7060Y136345D01*
X8577Y135716D01*
X10174Y135333D01*
X11811Y135204D01*
X13448Y135333D01*
X15045Y135716D01*
X16562Y136345D01*
X17962Y137203D01*
X19211Y138269D01*
X20278Y139518D01*
X21136Y140918D01*
X21764Y142435D01*
X22148Y144032D01*
X22276Y145669D01*
X22148Y147306D01*
X21764Y148903D01*
X21136Y150420D01*
X20278Y151821D01*
X19211Y153069D01*
X17962Y154136D01*
X16562Y154994D01*
X15045Y155622D01*
X13448Y156006D01*
X11811Y156135D01*
D02*
G37*
G36*
X126132Y135721D02*
X124909D01*
Y134497D01*
X125107Y134537D01*
X125698Y134932D01*
X126093Y135523D01*
X126132Y135721D01*
D02*
G37*
G36*
X123909D02*
X122687D01*
X122726Y135523D01*
X123121Y134932D01*
X123712Y134537D01*
X123909Y134497D01*
Y135721D01*
D02*
G37*
G36*
X102510D02*
X101287D01*
Y134497D01*
X101485Y134537D01*
X102076Y134932D01*
X102471Y135523D01*
X102510Y135721D01*
D02*
G37*
G36*
X100287D02*
X99064D01*
X99104Y135523D01*
X99499Y134932D01*
X100090Y134537D01*
X100287Y134497D01*
Y135721D01*
D02*
G37*
G36*
X55266D02*
X54043D01*
Y134497D01*
X54241Y134537D01*
X54832Y134932D01*
X55227Y135523D01*
X55266Y135721D01*
D02*
G37*
G36*
X53043D02*
X51820D01*
X51860Y135523D01*
X52255Y134932D01*
X52846Y134537D01*
X53043Y134497D01*
Y135721D01*
D02*
G37*
G36*
X31644D02*
X30421D01*
Y134497D01*
X30619Y134537D01*
X31210Y134932D01*
X31605Y135523D01*
X31644Y135721D01*
D02*
G37*
G36*
X29421D02*
X28198D01*
X28238Y135523D01*
X28633Y134932D01*
X29224Y134537D01*
X29421Y134497D01*
Y135721D01*
D02*
G37*
G36*
X136721Y114321D02*
Y113099D01*
X137943D01*
X137904Y113296D01*
X137509Y113887D01*
X136918Y114282D01*
X136721Y114321D01*
D02*
G37*
G36*
X135721D02*
X135523Y114282D01*
X134932Y113887D01*
X134537Y113296D01*
X134497Y113099D01*
X135721D01*
Y114321D01*
D02*
G37*
G36*
X113099D02*
Y113099D01*
X114321D01*
X114282Y113296D01*
X113887Y113887D01*
X113296Y114282D01*
X113099Y114321D01*
D02*
G37*
G36*
X112099D02*
X111901Y114282D01*
X111310Y113887D01*
X110915Y113296D01*
X110875Y113099D01*
X112099D01*
Y114321D01*
D02*
G37*
G36*
X153937Y118898D02*
X146850D01*
Y111811D01*
X153937D01*
Y118898D01*
D02*
G37*
G36*
X6839Y114551D02*
Y111130D01*
X10260D01*
X10190Y111662D01*
X9791Y112623D01*
X9158Y113449D01*
X8332Y114083D01*
X7371Y114481D01*
X6839Y114551D01*
D02*
G37*
G36*
X5839D02*
X5307Y114481D01*
X4345Y114083D01*
X3519Y113449D01*
X2886Y112623D01*
X2488Y111662D01*
X2417Y111130D01*
X5839D01*
Y114551D01*
D02*
G37*
G36*
X137943Y112099D02*
X136721D01*
Y110875D01*
X136918Y110915D01*
X137509Y111310D01*
X137904Y111901D01*
X137943Y112099D01*
D02*
G37*
G36*
X135721D02*
X134497D01*
X134537Y111901D01*
X134932Y111310D01*
X135523Y110915D01*
X135721Y110875D01*
Y112099D01*
D02*
G37*
G36*
X114321D02*
X113099D01*
Y110875D01*
X113296Y110915D01*
X113887Y111310D01*
X114282Y111901D01*
X114321Y112099D01*
D02*
G37*
G36*
X112099D02*
X110875D01*
X110915Y111901D01*
X111310Y111310D01*
X111901Y110915D01*
X112099Y110875D01*
Y112099D01*
D02*
G37*
G36*
X29882Y114173D02*
X22795D01*
Y107087D01*
X29882D01*
Y109426D01*
X91842D01*
X91982Y109332D01*
X92520Y109225D01*
X93057Y109332D01*
X93513Y109636D01*
X93818Y110092D01*
X93925Y110630D01*
X93818Y111168D01*
X93513Y111623D01*
X93057Y111928D01*
X92520Y112035D01*
X91982Y111928D01*
X91842Y111834D01*
X29882D01*
Y114173D01*
D02*
G37*
G36*
X16339Y114204D02*
X15414Y114082D01*
X14552Y113725D01*
X13812Y113157D01*
X13243Y112417D01*
X12887Y111555D01*
X12765Y110630D01*
X12887Y109705D01*
X13243Y108843D01*
X13812Y108103D01*
X14552Y107535D01*
X15414Y107178D01*
X16339Y107056D01*
X17264Y107178D01*
X18125Y107535D01*
X18866Y108103D01*
X19434Y108843D01*
X19791Y109705D01*
X19913Y110630D01*
X19791Y111555D01*
X19434Y112417D01*
X18866Y113157D01*
X18125Y113725D01*
X17264Y114082D01*
X16339Y114204D01*
D02*
G37*
G36*
X10260Y110130D02*
X6839D01*
Y106709D01*
X7371Y106779D01*
X8332Y107177D01*
X9158Y107811D01*
X9791Y108636D01*
X10190Y109598D01*
X10260Y110130D01*
D02*
G37*
G36*
X5839D02*
X2417D01*
X2488Y109598D01*
X2886Y108636D01*
X3519Y107811D01*
X4345Y107177D01*
X5307Y106779D01*
X5839Y106709D01*
Y110130D01*
D02*
G37*
G36*
X150894Y109275D02*
Y105854D01*
X154315D01*
X154245Y106386D01*
X153846Y107348D01*
X153213Y108174D01*
X152387Y108807D01*
X151426Y109205D01*
X150894Y109275D01*
D02*
G37*
G36*
X149894D02*
X149362Y109205D01*
X148400Y108807D01*
X147575Y108174D01*
X146941Y107348D01*
X146543Y106386D01*
X146473Y105854D01*
X149894D01*
Y109275D01*
D02*
G37*
G36*
X154315Y104854D02*
X150894D01*
Y101433D01*
X151426Y101503D01*
X152387Y101902D01*
X153213Y102535D01*
X153846Y103361D01*
X154245Y104323D01*
X154315Y104854D01*
D02*
G37*
G36*
X149894D02*
X146473D01*
X146543Y104323D01*
X146941Y103361D01*
X147575Y102535D01*
X148400Y101902D01*
X149362Y101503D01*
X149894Y101433D01*
Y104854D01*
D02*
G37*
G36*
X102165Y100618D02*
X101628Y100511D01*
X101349Y100324D01*
X78452D01*
X78452Y100324D01*
X78027Y100240D01*
X77666Y99999D01*
X77666Y99999D01*
X72048Y94381D01*
X71807Y94020D01*
X71723Y93595D01*
X71723Y93595D01*
Y90650D01*
X71653D01*
Y86201D01*
X71653D01*
X71539Y85941D01*
X71087Y85827D01*
X70613D01*
X70259Y86180D01*
Y91772D01*
X70259Y91772D01*
X70168Y92233D01*
X69907Y92623D01*
X64828Y97702D01*
X64437Y97963D01*
X63976Y98055D01*
X63976Y98055D01*
X45866D01*
X45866Y98055D01*
X45405Y97963D01*
X45015Y97702D01*
X26411Y79098D01*
X26150Y78707D01*
X26058Y78247D01*
X26058Y78247D01*
Y66541D01*
X7610Y48093D01*
X7027Y48334D01*
X6102Y48456D01*
X5177Y48334D01*
X4315Y47977D01*
X3575Y47409D01*
X3007Y46669D01*
X2650Y45807D01*
X2528Y44882D01*
X2650Y43957D01*
X3007Y43095D01*
X3575Y42355D01*
X4315Y41787D01*
X5177Y41430D01*
X6102Y41308D01*
X7027Y41430D01*
X7889Y41787D01*
X8630Y42355D01*
X9197Y43095D01*
X9554Y43957D01*
X9676Y44882D01*
X9554Y45807D01*
X9313Y46390D01*
X28114Y65190D01*
X28114Y65190D01*
X28375Y65581D01*
X28467Y66042D01*
Y77748D01*
X46365Y95646D01*
X63039D01*
X63086Y95602D01*
X62920Y95180D01*
X62833Y95102D01*
X47047D01*
X46586Y95010D01*
X46196Y94749D01*
X29463Y78017D01*
X29202Y77626D01*
X29111Y77165D01*
X29111Y77165D01*
Y59593D01*
X7943Y38425D01*
X2559D01*
Y31339D01*
X9646D01*
Y36722D01*
X31166Y58243D01*
X31166Y58243D01*
X31427Y58634D01*
X31519Y59095D01*
X31519Y59095D01*
Y76666D01*
X46557Y91705D01*
X47019Y91513D01*
Y89872D01*
X50000D01*
X52981D01*
Y92548D01*
X53420Y92693D01*
X62887D01*
X63764Y91816D01*
X63573Y91354D01*
X62902D01*
Y88583D01*
X62402D01*
Y88083D01*
X60024D01*
Y85811D01*
X60697D01*
X60906Y85419D01*
X60908Y85311D01*
X60875Y85146D01*
X62598D01*
Y84146D01*
X60875D01*
X60898Y84032D01*
X60683Y83834D01*
X60486Y83737D01*
X58329Y85894D01*
X58465Y86221D01*
X58465D01*
Y90945D01*
X54528D01*
Y86221D01*
X55196D01*
X55489Y85827D01*
X55580Y85366D01*
X55841Y84975D01*
X62379Y78438D01*
X62187Y77976D01*
X59515D01*
X59261Y78356D01*
X58805Y78660D01*
X58268Y78767D01*
X57730Y78660D01*
X57274Y78356D01*
X56970Y77900D01*
X56863Y77362D01*
X56970Y76824D01*
X57274Y76369D01*
X57730Y76064D01*
X57781Y75942D01*
X57449Y75442D01*
X55929D01*
Y78347D01*
X55837Y78807D01*
X55576Y79198D01*
X55576Y79198D01*
X52571Y82203D01*
Y86197D01*
X52981D01*
Y88872D01*
X50000D01*
X47019D01*
Y86197D01*
X47429D01*
Y81090D01*
X50278D01*
X53520Y77848D01*
Y75442D01*
X48839D01*
X48836Y75441D01*
X48833Y75442D01*
X48610Y75348D01*
X48387Y75255D01*
X48385Y75252D01*
X48382Y75251D01*
X46217Y73046D01*
X46127Y72822D01*
X46034Y72598D01*
Y69095D01*
X46221Y68642D01*
X46673Y68455D01*
X49724D01*
X49947Y68547D01*
X50171Y68637D01*
X52327Y70739D01*
X56335D01*
X58491Y68637D01*
X58714Y68547D01*
X58937Y68455D01*
X61988D01*
X62440Y68642D01*
X62627Y69095D01*
Y72598D01*
X62535Y72821D01*
X62444Y73046D01*
X62321Y73172D01*
X62602Y73599D01*
X66124D01*
X66316Y73137D01*
X63715Y70537D01*
X63454Y70146D01*
X63363Y69685D01*
X63363Y69685D01*
Y65910D01*
X61281Y63828D01*
X58937D01*
X58714Y63736D01*
X58491Y63647D01*
X56335Y61545D01*
X52327D01*
X50171Y63647D01*
X49947Y63736D01*
X49724Y63828D01*
X46673D01*
X46221Y63641D01*
X46034Y63189D01*
Y59685D01*
X46126Y59462D01*
X46217Y59237D01*
X48382Y57032D01*
X48385Y57031D01*
X48387Y57028D01*
X48610Y56936D01*
X48833Y56841D01*
X48836Y56842D01*
X48839Y56841D01*
X59823D01*
X59826Y56842D01*
X59829Y56841D01*
X60052Y56936D01*
X60275Y57028D01*
X60276Y57031D01*
X60279Y57032D01*
X62444Y59237D01*
X62535Y59461D01*
X62627Y59685D01*
Y61768D01*
X65418Y64559D01*
X65418Y64559D01*
X65680Y64950D01*
X65771Y65411D01*
X65771Y65411D01*
Y69186D01*
X68215Y71630D01*
X69055D01*
X69172Y71653D01*
X71087D01*
X71539Y71539D01*
X71653Y71280D01*
X71653D01*
Y69172D01*
X71630Y69055D01*
Y63885D01*
X70408Y62663D01*
X70147Y62272D01*
X70056Y61811D01*
X69755Y61430D01*
X68885D01*
Y57110D01*
X68476D01*
Y54829D01*
X71260D01*
Y54329D01*
X71760D01*
Y51547D01*
X72309D01*
X72500Y51085D01*
X62577Y41161D01*
X42323D01*
X41939Y41085D01*
X41613Y40867D01*
X32057Y31311D01*
X31840Y30986D01*
X31764Y30602D01*
Y30472D01*
X29134D01*
Y23386D01*
X36220D01*
Y30472D01*
X34710D01*
X34519Y30934D01*
X42739Y39154D01*
X46333D01*
X46525Y38692D01*
X37479Y29647D01*
X37262Y29321D01*
X37185Y28937D01*
Y22857D01*
X34386Y20057D01*
X33602Y20381D01*
X32677Y20503D01*
X31752Y20381D01*
X30890Y20024D01*
X30150Y19456D01*
X29582Y18716D01*
X29225Y17854D01*
X29103Y16929D01*
X29225Y16004D01*
X29582Y15142D01*
X30150Y14402D01*
X30890Y13834D01*
X31752Y13477D01*
X32677Y13355D01*
X33602Y13477D01*
X34464Y13834D01*
X35204Y14402D01*
X35772Y15142D01*
X36129Y16004D01*
X36251Y16929D01*
X36129Y17854D01*
X35805Y18638D01*
X38899Y21731D01*
X39116Y22057D01*
X39193Y22441D01*
Y28521D01*
X39696Y29024D01*
X40157Y28833D01*
Y23386D01*
X47244D01*
Y30472D01*
X41797D01*
X41605Y30934D01*
X48447Y37776D01*
X55585D01*
X55777Y37314D01*
X48306Y29844D01*
X48089Y29518D01*
X48012Y29134D01*
Y22660D01*
X45409Y20057D01*
X44626Y20381D01*
X43701Y20503D01*
X42776Y20381D01*
X41914Y20024D01*
X41174Y19456D01*
X40606Y18716D01*
X40249Y17854D01*
X40127Y16929D01*
X40249Y16004D01*
X40606Y15142D01*
X41174Y14402D01*
X41914Y13834D01*
X42776Y13477D01*
X43701Y13355D01*
X44626Y13477D01*
X45488Y13834D01*
X46228Y14402D01*
X46796Y15142D01*
X47153Y16004D01*
X47275Y16929D01*
X47153Y17854D01*
X46828Y18638D01*
X49725Y21534D01*
X49943Y21860D01*
X50019Y22244D01*
Y28718D01*
X50719Y29418D01*
X51181Y29227D01*
Y23386D01*
X58268D01*
Y30472D01*
X52427D01*
X52236Y30934D01*
X57699Y36398D01*
X67619D01*
X67810Y35936D01*
X60314Y28440D01*
X60097Y28115D01*
X60020Y27731D01*
Y23644D01*
X56433Y20057D01*
X55649Y20381D01*
X54724Y20503D01*
X53799Y20381D01*
X52938Y20024D01*
X52197Y19456D01*
X51629Y18716D01*
X51272Y17854D01*
X51151Y16929D01*
X51272Y16004D01*
X51629Y15142D01*
X52197Y14402D01*
X52938Y13834D01*
X53799Y13477D01*
X54724Y13355D01*
X55649Y13477D01*
X56511Y13834D01*
X57252Y14402D01*
X57819Y15142D01*
X58176Y16004D01*
X58298Y16929D01*
X58176Y17854D01*
X57852Y18638D01*
X61733Y22519D01*
X61951Y22844D01*
X62027Y23228D01*
Y27315D01*
X63514Y28802D01*
X63976Y28611D01*
Y23386D01*
X71063D01*
Y30472D01*
X65838D01*
X65647Y30934D01*
X69732Y35020D01*
X76648D01*
X76840Y34558D01*
X72322Y30040D01*
X72104Y29715D01*
X72028Y29331D01*
Y22857D01*
X69228Y20057D01*
X68445Y20381D01*
X67520Y20503D01*
X66595Y20381D01*
X65733Y20024D01*
X64993Y19456D01*
X64425Y18716D01*
X64068Y17854D01*
X63946Y16929D01*
X64068Y16004D01*
X64425Y15142D01*
X64993Y14402D01*
X65733Y13834D01*
X66595Y13477D01*
X67520Y13355D01*
X68445Y13477D01*
X69307Y13834D01*
X70047Y14402D01*
X70615Y15142D01*
X70972Y16004D01*
X71094Y16929D01*
X70972Y17854D01*
X70647Y18638D01*
X73741Y21731D01*
X73959Y22057D01*
X74035Y22441D01*
Y28915D01*
X74538Y29418D01*
X75000Y29227D01*
Y23386D01*
X82087D01*
Y30472D01*
X76246D01*
X76054Y30934D01*
X82983Y37863D01*
X83445Y37672D01*
Y23250D01*
X80252Y20057D01*
X79468Y20381D01*
X78543Y20503D01*
X77618Y20381D01*
X76756Y20024D01*
X76016Y19456D01*
X75448Y18716D01*
X75091Y17854D01*
X74969Y16929D01*
X75091Y16004D01*
X75448Y15142D01*
X76016Y14402D01*
X76756Y13834D01*
X77618Y13477D01*
X78543Y13355D01*
X79468Y13477D01*
X80330Y13834D01*
X81070Y14402D01*
X81638Y15142D01*
X81995Y16004D01*
X82117Y16929D01*
X81995Y17854D01*
X81671Y18638D01*
X85158Y22125D01*
X85376Y22451D01*
X85452Y22835D01*
Y38167D01*
X96773Y49487D01*
X96990Y49813D01*
X97066Y50197D01*
Y62778D01*
X96990Y63162D01*
X96773Y63487D01*
X89429Y70831D01*
Y71653D01*
X90650D01*
Y72149D01*
X91111Y72340D01*
X107185Y56266D01*
Y55093D01*
X107167Y55065D01*
X107060Y54528D01*
X107167Y53990D01*
X107471Y53534D01*
X107927Y53230D01*
X108465Y53123D01*
X109002Y53230D01*
X109458Y53534D01*
X109763Y53990D01*
X109870Y54528D01*
X109763Y55065D01*
X110196Y55253D01*
X110424Y54912D01*
X110813Y54652D01*
X111002Y54134D01*
X96141Y39272D01*
X95923Y38947D01*
X95847Y38563D01*
Y22857D01*
X93047Y20057D01*
X92264Y20381D01*
X91339Y20503D01*
X90414Y20381D01*
X89552Y20024D01*
X88811Y19456D01*
X88244Y18716D01*
X87887Y17854D01*
X87765Y16929D01*
X87887Y16004D01*
X88244Y15142D01*
X88811Y14402D01*
X89552Y13834D01*
X90414Y13477D01*
X91339Y13355D01*
X92264Y13477D01*
X93125Y13834D01*
X93866Y14402D01*
X94434Y15142D01*
X94791Y16004D01*
X94912Y16929D01*
X94791Y17854D01*
X94466Y18638D01*
X97560Y21731D01*
X97777Y22057D01*
X97854Y22441D01*
Y38147D01*
X106409Y46702D01*
X106870Y46510D01*
Y22857D01*
X104071Y20057D01*
X103287Y20381D01*
X102362Y20503D01*
X101437Y20381D01*
X100575Y20024D01*
X99835Y19456D01*
X99267Y18716D01*
X98910Y17854D01*
X98788Y16929D01*
X98910Y16004D01*
X99267Y15142D01*
X99835Y14402D01*
X100575Y13834D01*
X101437Y13477D01*
X102362Y13355D01*
X103287Y13477D01*
X104149Y13834D01*
X104889Y14402D01*
X105457Y15142D01*
X105814Y16004D01*
X105936Y16929D01*
X105814Y17854D01*
X105490Y18638D01*
X108584Y21731D01*
X108801Y22057D01*
X108878Y22441D01*
Y47222D01*
X116261Y54605D01*
X116478Y54931D01*
X116555Y55315D01*
Y89247D01*
X117017Y89438D01*
X118424Y88031D01*
X118750Y87813D01*
X119134Y87737D01*
X146974D01*
X147299Y86953D01*
X147867Y86213D01*
X148607Y85645D01*
X149469Y85288D01*
X150394Y85166D01*
X151319Y85288D01*
X152181Y85645D01*
X152921Y86213D01*
X153418Y86861D01*
X153799Y86791D01*
X153918Y86729D01*
Y83683D01*
X152102Y81868D01*
X151319Y82192D01*
X150394Y82314D01*
X149469Y82192D01*
X148607Y81835D01*
X147867Y81267D01*
X147299Y80527D01*
X146942Y79665D01*
X146820Y78740D01*
X146942Y77815D01*
X147299Y76953D01*
X147867Y76213D01*
X148607Y75645D01*
X149469Y75288D01*
X150394Y75166D01*
X151319Y75288D01*
X152181Y75645D01*
X152921Y76213D01*
X153489Y76953D01*
X153846Y77815D01*
X153968Y78740D01*
X153846Y79665D01*
X153521Y80449D01*
X155631Y82558D01*
X155848Y82884D01*
X155925Y83268D01*
Y91929D01*
X155848Y92313D01*
X155631Y92639D01*
X150119Y98150D01*
X149794Y98368D01*
X149409Y98444D01*
X103865D01*
X103517Y98944D01*
X103570Y99213D01*
X103463Y99750D01*
X103159Y100206D01*
X102703Y100511D01*
X102165Y100618D01*
D02*
G37*
G36*
X61902Y91354D02*
X60024D01*
Y89083D01*
X61902D01*
Y91354D01*
D02*
G37*
G36*
X20965Y93013D02*
X12106D01*
Y84154D01*
X20965D01*
Y93013D01*
D02*
G37*
G36*
X17035Y73713D02*
Y69399D01*
X21350D01*
X21249Y70162D01*
X20762Y71339D01*
X19986Y72350D01*
X18976Y73125D01*
X17798Y73613D01*
X17035Y73713D01*
D02*
G37*
G36*
X16035D02*
X15272Y73613D01*
X14095Y73125D01*
X13084Y72350D01*
X12309Y71339D01*
X11821Y70162D01*
X11721Y69399D01*
X16035D01*
Y73713D01*
D02*
G37*
G36*
X136721Y67077D02*
Y65854D01*
X137943D01*
X137904Y66052D01*
X137509Y66643D01*
X136918Y67038D01*
X136721Y67077D01*
D02*
G37*
G36*
X135721D02*
X135523Y67038D01*
X134932Y66643D01*
X134537Y66052D01*
X134497Y65854D01*
X135721D01*
Y67077D01*
D02*
G37*
G36*
X42232D02*
Y65854D01*
X43455D01*
X43416Y66052D01*
X43021Y66643D01*
X42430Y67038D01*
X42232Y67077D01*
D02*
G37*
G36*
X41232D02*
X41035Y67038D01*
X40444Y66643D01*
X40049Y66052D01*
X40009Y65854D01*
X41232D01*
Y67077D01*
D02*
G37*
G36*
X153937Y72284D02*
X146850D01*
Y65197D01*
X153937D01*
Y72284D01*
D02*
G37*
G36*
X21350Y68399D02*
X17035D01*
Y64084D01*
X17798Y64185D01*
X18976Y64672D01*
X19986Y65448D01*
X20762Y66458D01*
X21249Y67636D01*
X21350Y68399D01*
D02*
G37*
G36*
X16035D02*
X11721D01*
X11821Y67636D01*
X12309Y66458D01*
X13084Y65448D01*
X14095Y64672D01*
X15272Y64185D01*
X16035Y64084D01*
Y68399D01*
D02*
G37*
G36*
X137943Y64854D02*
X136721D01*
Y63631D01*
X136918Y63671D01*
X137509Y64066D01*
X137904Y64657D01*
X137943Y64854D01*
D02*
G37*
G36*
X135721D02*
X134497D01*
X134537Y64657D01*
X134932Y64066D01*
X135523Y63671D01*
X135721Y63631D01*
Y64854D01*
D02*
G37*
G36*
X43455D02*
X42232D01*
Y63631D01*
X42430Y63671D01*
X43021Y64066D01*
X43416Y64657D01*
X43455Y64854D01*
D02*
G37*
G36*
X41232D02*
X40009D01*
X40049Y64657D01*
X40444Y64066D01*
X41035Y63671D01*
X41232Y63631D01*
Y64854D01*
D02*
G37*
G36*
X70760Y53829D02*
X68476D01*
Y51547D01*
X70760D01*
Y53829D01*
D02*
G37*
G36*
X153937Y55512D02*
X146850D01*
Y48425D01*
X153937D01*
Y55512D01*
D02*
G37*
G36*
X150894Y45889D02*
Y42469D01*
X154315D01*
X154245Y43000D01*
X153846Y43962D01*
X153213Y44788D01*
X152387Y45421D01*
X151426Y45820D01*
X150894Y45889D01*
D02*
G37*
G36*
X149894D02*
X149362Y45820D01*
X148400Y45421D01*
X147575Y44788D01*
X146941Y43962D01*
X146543Y43000D01*
X146473Y42469D01*
X149894D01*
Y45889D01*
D02*
G37*
G36*
X30421Y43455D02*
Y42232D01*
X31644D01*
X31605Y42430D01*
X31210Y43021D01*
X30619Y43416D01*
X30421Y43455D01*
D02*
G37*
G36*
X29421D02*
X29224Y43416D01*
X28633Y43021D01*
X28238Y42430D01*
X28198Y42232D01*
X29421D01*
Y43455D01*
D02*
G37*
G36*
X120866Y47441D02*
X116142D01*
Y43504D01*
X117300D01*
Y43001D01*
X117206Y42860D01*
X117099Y42323D01*
X117206Y41785D01*
X117510Y41329D01*
X117966Y41025D01*
X118504Y40918D01*
X119042Y41025D01*
X119497Y41329D01*
X119802Y41785D01*
X119909Y42323D01*
X119802Y42860D01*
X119708Y43001D01*
Y43504D01*
X120866D01*
Y47441D01*
D02*
G37*
G36*
X31644Y41232D02*
X30421D01*
Y40009D01*
X30619Y40049D01*
X31210Y40444D01*
X31605Y41035D01*
X31644Y41232D01*
D02*
G37*
G36*
X29421D02*
X28198D01*
X28238Y41035D01*
X28633Y40444D01*
X29224Y40049D01*
X29421Y40009D01*
Y41232D01*
D02*
G37*
G36*
X154315Y41469D02*
X150894D01*
Y38048D01*
X151426Y38118D01*
X152387Y38516D01*
X153213Y39149D01*
X153846Y39975D01*
X154245Y40937D01*
X154315Y41469D01*
D02*
G37*
G36*
X149894D02*
X146473D01*
X146543Y40937D01*
X146941Y39975D01*
X147575Y39149D01*
X148400Y38516D01*
X149362Y38118D01*
X149894Y38048D01*
Y41469D01*
D02*
G37*
G36*
X105905Y30472D02*
X98819D01*
Y23386D01*
X105905D01*
Y30472D01*
D02*
G37*
G36*
X94882D02*
X87795D01*
Y23386D01*
X94882D01*
Y30472D01*
D02*
G37*
G36*
X118504Y56326D02*
X117966Y56219D01*
X117510Y55915D01*
X117206Y55459D01*
X117099Y54921D01*
X117206Y54384D01*
X117300Y54243D01*
Y53347D01*
X116142D01*
Y49409D01*
X120866D01*
Y50174D01*
X123031D01*
Y49409D01*
X126053D01*
X127521Y47941D01*
X127314Y47441D01*
X123031D01*
Y43504D01*
X124189D01*
Y43001D01*
X124096Y42860D01*
X123989Y42323D01*
X124096Y41785D01*
X124189Y41645D01*
Y27664D01*
X116998Y20472D01*
X111614D01*
Y13386D01*
X118701D01*
Y18769D01*
X126245Y26314D01*
X126245Y26314D01*
X126506Y26704D01*
X126598Y27165D01*
X126598Y27165D01*
Y41645D01*
X126692Y41785D01*
X126799Y42323D01*
X126692Y42860D01*
X126598Y43001D01*
Y43150D01*
X126952Y43504D01*
X127756Y43504D01*
X127930Y43076D01*
Y24121D01*
X125622Y21813D01*
X125361Y21422D01*
X125269Y20962D01*
X125269Y20962D01*
Y20472D01*
X122638D01*
Y13386D01*
X129724D01*
Y20472D01*
X128341D01*
X128149Y20934D01*
X129985Y22771D01*
X129985Y22771D01*
X130246Y23161D01*
X130338Y23622D01*
X130338Y23622D01*
Y48031D01*
X130338Y48031D01*
X130246Y48492D01*
X129985Y48883D01*
X127756Y51113D01*
Y53347D01*
X123031D01*
Y52582D01*
X120866D01*
Y53347D01*
X119708D01*
Y54243D01*
X119802Y54384D01*
X119909Y54921D01*
X119802Y55459D01*
X119497Y55915D01*
X119042Y56219D01*
X118504Y56326D01*
D02*
G37*
G36*
X91839Y10850D02*
Y7429D01*
X95260D01*
X95190Y7961D01*
X94791Y8923D01*
X94158Y9748D01*
X93332Y10382D01*
X92370Y10780D01*
X91839Y10850D01*
D02*
G37*
G36*
X79043D02*
Y7429D01*
X82464D01*
X82394Y7961D01*
X81996Y8923D01*
X81362Y9748D01*
X80537Y10382D01*
X79575Y10780D01*
X79043Y10850D01*
D02*
G37*
G36*
X90839D02*
X90307Y10780D01*
X89345Y10382D01*
X88519Y9748D01*
X87886Y8923D01*
X87488Y7961D01*
X87418Y7429D01*
X90839D01*
Y10850D01*
D02*
G37*
G36*
X78043D02*
X77511Y10780D01*
X76550Y10382D01*
X75724Y9748D01*
X75091Y8923D01*
X74692Y7961D01*
X74622Y7429D01*
X78043D01*
Y10850D01*
D02*
G37*
G36*
X68020D02*
Y7429D01*
X71441D01*
X71371Y7961D01*
X70972Y8923D01*
X70339Y9748D01*
X69513Y10382D01*
X68552Y10780D01*
X68020Y10850D01*
D02*
G37*
G36*
X55224D02*
Y7429D01*
X58645D01*
X58575Y7961D01*
X58177Y8923D01*
X57544Y9748D01*
X56718Y10382D01*
X55756Y10780D01*
X55224Y10850D01*
D02*
G37*
G36*
X44201D02*
Y7429D01*
X47622D01*
X47552Y7961D01*
X47153Y8923D01*
X46520Y9748D01*
X45694Y10382D01*
X44733Y10780D01*
X44201Y10850D01*
D02*
G37*
G36*
X33177D02*
Y7429D01*
X36598D01*
X36528Y7961D01*
X36130Y8923D01*
X35496Y9748D01*
X34671Y10382D01*
X33709Y10780D01*
X33177Y10850D01*
D02*
G37*
G36*
X126681D02*
Y7429D01*
X130102D01*
X130032Y7961D01*
X129634Y8923D01*
X129000Y9748D01*
X128174Y10382D01*
X127213Y10780D01*
X126681Y10850D01*
D02*
G37*
G36*
X115657D02*
Y7429D01*
X119079D01*
X119009Y7961D01*
X118610Y8923D01*
X117977Y9748D01*
X117151Y10382D01*
X116189Y10780D01*
X115657Y10850D01*
D02*
G37*
G36*
X102862D02*
Y7429D01*
X106283D01*
X106213Y7961D01*
X105815Y8923D01*
X105181Y9748D01*
X104356Y10382D01*
X103394Y10780D01*
X102862Y10850D01*
D02*
G37*
G36*
X125681D02*
X125149Y10780D01*
X124188Y10382D01*
X123362Y9748D01*
X122728Y8923D01*
X122330Y7961D01*
X122260Y7429D01*
X125681D01*
Y10850D01*
D02*
G37*
G36*
X114657D02*
X114126Y10780D01*
X113164Y10382D01*
X112338Y9748D01*
X111705Y8923D01*
X111307Y7961D01*
X111236Y7429D01*
X114657D01*
Y10850D01*
D02*
G37*
G36*
X101862D02*
X101330Y10780D01*
X100369Y10382D01*
X99543Y9748D01*
X98909Y8923D01*
X98511Y7961D01*
X98441Y7429D01*
X101862D01*
Y10850D01*
D02*
G37*
G36*
X67020D02*
X66488Y10780D01*
X65526Y10382D01*
X64701Y9748D01*
X64067Y8923D01*
X63669Y7961D01*
X63599Y7429D01*
X67020D01*
Y10850D01*
D02*
G37*
G36*
X54224D02*
X53693Y10780D01*
X52731Y10382D01*
X51905Y9748D01*
X51272Y8923D01*
X50873Y7961D01*
X50803Y7429D01*
X54224D01*
Y10850D01*
D02*
G37*
G36*
X43201D02*
X42669Y10780D01*
X41707Y10382D01*
X40882Y9748D01*
X40248Y8923D01*
X39850Y7961D01*
X39780Y7429D01*
X43201D01*
Y10850D01*
D02*
G37*
G36*
X32177D02*
X31645Y10780D01*
X30684Y10382D01*
X29858Y9748D01*
X29225Y8923D01*
X28826Y7961D01*
X28756Y7429D01*
X32177D01*
Y10850D01*
D02*
G37*
G36*
X95260Y6429D02*
X91839D01*
Y3008D01*
X92370Y3078D01*
X93332Y3476D01*
X94158Y4110D01*
X94791Y4936D01*
X95190Y5897D01*
X95260Y6429D01*
D02*
G37*
G36*
X82464D02*
X79043D01*
Y3008D01*
X79575Y3078D01*
X80537Y3476D01*
X81362Y4110D01*
X81996Y4936D01*
X82394Y5897D01*
X82464Y6429D01*
D02*
G37*
G36*
X130102Y6429D02*
X126681D01*
Y3008D01*
X127213Y3078D01*
X128174Y3476D01*
X129000Y4110D01*
X129634Y4936D01*
X130032Y5897D01*
X130102Y6429D01*
D02*
G37*
G36*
X119079D02*
X115657D01*
Y3008D01*
X116189Y3078D01*
X117151Y3476D01*
X117977Y4110D01*
X118610Y4936D01*
X119009Y5897D01*
X119079Y6429D01*
D02*
G37*
G36*
X106283D02*
X102862D01*
Y3008D01*
X103394Y3078D01*
X104356Y3476D01*
X105181Y4110D01*
X105815Y4936D01*
X106213Y5897D01*
X106283Y6429D01*
D02*
G37*
G36*
X71441D02*
X68020D01*
Y3008D01*
X68552Y3078D01*
X69513Y3476D01*
X70339Y4110D01*
X70972Y4936D01*
X71371Y5897D01*
X71441Y6429D01*
D02*
G37*
G36*
X58645D02*
X55224D01*
Y3008D01*
X55756Y3078D01*
X56718Y3476D01*
X57544Y4110D01*
X58177Y4936D01*
X58575Y5897D01*
X58645Y6429D01*
D02*
G37*
G36*
X36598D02*
X33177D01*
Y3008D01*
X33709Y3078D01*
X34671Y3476D01*
X35496Y4110D01*
X36130Y4936D01*
X36528Y5897D01*
X36598Y6429D01*
D02*
G37*
G36*
X47622D02*
X44201D01*
Y3008D01*
X44733Y3078D01*
X45694Y3476D01*
X46520Y4110D01*
X47153Y4936D01*
X47552Y5897D01*
X47622Y6429D01*
D02*
G37*
G36*
X125681D02*
X122260D01*
X122330Y5897D01*
X122728Y4936D01*
X123362Y4110D01*
X124188Y3476D01*
X125149Y3078D01*
X125681Y3008D01*
Y6429D01*
D02*
G37*
G36*
X114657D02*
X111236D01*
X111307Y5897D01*
X111705Y4936D01*
X112338Y4110D01*
X113164Y3476D01*
X114126Y3078D01*
X114657Y3008D01*
Y6429D01*
D02*
G37*
G36*
X101862D02*
X98441D01*
X98511Y5897D01*
X98909Y4936D01*
X99543Y4110D01*
X100369Y3476D01*
X101330Y3078D01*
X101862Y3008D01*
Y6429D01*
D02*
G37*
G36*
X67020D02*
X63599D01*
X63669Y5897D01*
X64067Y4936D01*
X64701Y4110D01*
X65526Y3476D01*
X66488Y3078D01*
X67020Y3008D01*
Y6429D01*
D02*
G37*
G36*
X54224D02*
X50803D01*
X50873Y5897D01*
X51272Y4936D01*
X51905Y4110D01*
X52731Y3476D01*
X53693Y3078D01*
X54224Y3008D01*
Y6429D01*
D02*
G37*
G36*
X43201D02*
X39780D01*
X39850Y5897D01*
X40248Y4936D01*
X40882Y4110D01*
X41707Y3476D01*
X42669Y3078D01*
X43201Y3008D01*
Y6429D01*
D02*
G37*
G36*
X32177D02*
X28756D01*
X28826Y5897D01*
X29225Y4936D01*
X29858Y4110D01*
X30684Y3476D01*
X31645Y3078D01*
X32177Y3008D01*
Y6429D01*
D02*
G37*
G36*
X90839Y6429D02*
X87418D01*
X87488Y5897D01*
X87886Y4936D01*
X88519Y4110D01*
X89345Y3476D01*
X90307Y3078D01*
X90839Y3008D01*
Y6429D01*
D02*
G37*
G36*
X78043D02*
X74622D01*
X74692Y5897D01*
X75091Y4936D01*
X75724Y4110D01*
X76550Y3476D01*
X77511Y3078D01*
X78043Y3008D01*
Y6429D01*
D02*
G37*
G36*
X145669Y22276D02*
X144032Y22148D01*
X142435Y21764D01*
X140918Y21136D01*
X139518Y20278D01*
X138269Y19211D01*
X137203Y17962D01*
X136345Y16562D01*
X135716Y15045D01*
X135333Y13448D01*
X135204Y11811D01*
X135333Y10174D01*
X135716Y8577D01*
X136345Y7060D01*
X137203Y5660D01*
X138269Y4411D01*
X139518Y3344D01*
X140918Y2486D01*
X142435Y1858D01*
X144032Y1474D01*
X145669Y1346D01*
X147306Y1474D01*
X148903Y1858D01*
X150420Y2486D01*
X151821Y3344D01*
X153069Y4411D01*
X154136Y5660D01*
X154994Y7060D01*
X155622Y8577D01*
X156006Y10174D01*
X156135Y11811D01*
X156006Y13448D01*
X155622Y15045D01*
X154994Y16562D01*
X154136Y17962D01*
X153069Y19211D01*
X151821Y20278D01*
X150420Y21136D01*
X148903Y21764D01*
X147306Y22148D01*
X145669Y22276D01*
D02*
G37*
G36*
X11811D02*
X10174Y22148D01*
X8577Y21764D01*
X7060Y21136D01*
X5660Y20278D01*
X4411Y19211D01*
X3344Y17962D01*
X2486Y16562D01*
X1858Y15045D01*
X1474Y13448D01*
X1346Y11811D01*
X1474Y10174D01*
X1858Y8577D01*
X2486Y7060D01*
X3344Y5660D01*
X4411Y4411D01*
X5660Y3344D01*
X7060Y2486D01*
X8577Y1858D01*
X10174Y1474D01*
X11811Y1346D01*
X13448Y1474D01*
X15045Y1858D01*
X16562Y2486D01*
X17962Y3344D01*
X19211Y4411D01*
X20278Y5660D01*
X21136Y7060D01*
X21764Y8577D01*
X22148Y10174D01*
X22276Y11811D01*
X22148Y13448D01*
X21764Y15045D01*
X21136Y16562D01*
X20278Y17962D01*
X19211Y19211D01*
X17962Y20278D01*
X16562Y21136D01*
X15045Y21764D01*
X13448Y22148D01*
X11811Y22276D01*
D02*
G37*
%LPD*%
G36*
X153918Y91514D02*
Y90751D01*
X153799Y90689D01*
X153418Y90620D01*
X152921Y91267D01*
X152181Y91835D01*
X151319Y92192D01*
X150394Y92314D01*
X149469Y92192D01*
X148607Y91835D01*
X147867Y91267D01*
X147299Y90527D01*
X146974Y89744D01*
X119550D01*
X113318Y95976D01*
X113509Y96437D01*
X148994D01*
X153918Y91514D01*
D02*
G37*
G36*
X110329Y93650D02*
X110062Y93150D01*
X108768D01*
Y90030D01*
X111260D01*
Y92519D01*
X111760Y92726D01*
X114548Y89939D01*
Y78863D01*
X114086Y78672D01*
X113702Y79056D01*
X113376Y79274D01*
X112992Y79350D01*
X94462D01*
X92864Y80948D01*
X92949Y81570D01*
X93119Y81684D01*
X93424Y82139D01*
X93531Y82677D01*
X93478Y82941D01*
X93828Y83441D01*
X105685D01*
Y80488D01*
X110851D01*
Y82494D01*
X112332D01*
X112332Y82494D01*
X112362Y82500D01*
X112598Y82453D01*
X113136Y82560D01*
X113592Y82865D01*
X113896Y83321D01*
X114003Y83858D01*
X113896Y84396D01*
X113592Y84852D01*
X113136Y85156D01*
X112598Y85263D01*
X112061Y85156D01*
X111682Y84903D01*
X110851D01*
Y85909D01*
X111260D01*
Y89030D01*
X108268D01*
X105275D01*
Y85909D01*
X104800Y85850D01*
X88425D01*
X88309Y85827D01*
X86236D01*
Y87925D01*
X84646D01*
Y88925D01*
X86236D01*
Y91059D01*
X85446D01*
X85305Y91387D01*
X85267Y91559D01*
X85550Y91982D01*
X85657Y92520D01*
X85550Y93057D01*
X85467Y93182D01*
X85734Y93682D01*
X110308D01*
X110329Y93650D01*
D02*
G37*
G36*
X105275Y74282D02*
X108268D01*
Y73282D01*
X105275D01*
Y70161D01*
X105685D01*
Y69155D01*
X102714D01*
X94988Y76881D01*
X95179Y77343D01*
X105275D01*
Y74282D01*
D02*
G37*
G36*
X61988Y72598D02*
Y69095D01*
X58937D01*
X56595Y71378D01*
X52067D01*
X49724Y69095D01*
X46673D01*
Y72598D01*
X48839Y74803D01*
X59823D01*
X61988Y72598D01*
D02*
G37*
G36*
X113098Y66622D02*
X113170Y66584D01*
Y56595D01*
X112945Y56520D01*
X112670Y56511D01*
X112411Y56899D01*
X112345Y56943D01*
X112194Y57170D01*
X103079Y66285D01*
X103270Y66746D01*
X105685D01*
Y64740D01*
X110851D01*
Y66746D01*
X111939D01*
X111939Y66746D01*
X111968Y66752D01*
X112205Y66705D01*
X112670Y66798D01*
X113098Y66622D01*
D02*
G37*
G36*
X61988Y59685D02*
X59823Y57480D01*
X48839D01*
X46673Y59685D01*
Y63189D01*
X49724D01*
X52067Y60905D01*
X56595D01*
X58937Y63189D01*
X61988D01*
Y59685D01*
D02*
G37*
G36*
X81787Y54887D02*
X81787Y54887D01*
X82178Y54626D01*
X82639Y54535D01*
X82850Y54120D01*
Y50567D01*
X86154D01*
X86346Y50105D01*
X76024Y39783D01*
X64690D01*
X64499Y40245D01*
X76305Y52051D01*
X79445D01*
Y54702D01*
X80709Y55966D01*
X81787Y54887D01*
D02*
G37*
%LPC*%
G36*
X107768Y93150D02*
X105275D01*
Y90030D01*
X107768D01*
Y93150D01*
D02*
G37*
G36*
X103059Y90306D02*
Y89083D01*
X104282D01*
X104243Y89280D01*
X103848Y89871D01*
X103256Y90266D01*
X103059Y90306D01*
D02*
G37*
G36*
X102059D02*
X101862Y90266D01*
X101270Y89871D01*
X100875Y89280D01*
X100836Y89083D01*
X102059D01*
Y90306D01*
D02*
G37*
G36*
X104282Y88083D02*
X103059D01*
Y86860D01*
X103256Y86899D01*
X103848Y87294D01*
X104243Y87885D01*
X104282Y88083D01*
D02*
G37*
G36*
X102059D02*
X100836D01*
X100875Y87885D01*
X101270Y87294D01*
X101862Y86899D01*
X102059Y86860D01*
Y88083D01*
D02*
G37*
G36*
X103059Y75739D02*
Y74516D01*
X104282D01*
X104243Y74713D01*
X103848Y75304D01*
X103256Y75700D01*
X103059Y75739D01*
D02*
G37*
G36*
X102059D02*
X101862Y75700D01*
X101270Y75304D01*
X100875Y74713D01*
X100836Y74516D01*
X102059D01*
Y75739D01*
D02*
G37*
G36*
X104282Y73516D02*
X103059D01*
Y72293D01*
X103256Y72332D01*
X103848Y72727D01*
X104243Y73318D01*
X104282Y73516D01*
D02*
G37*
G36*
X102059D02*
X100836D01*
X100875Y73318D01*
X101270Y72727D01*
X101862Y72332D01*
X102059Y72293D01*
Y73516D01*
D02*
G37*
%LPD*%
D11*
X78452Y99213D02*
X102165D01*
X72835Y93595D02*
X78452Y99213D01*
X72835Y88425D02*
Y93595D01*
D12*
X112992Y78347D02*
X114173Y77165D01*
X94046Y78347D02*
X112992D01*
X91684Y80709D02*
X94046Y78347D01*
X88425Y80709D02*
X91684D01*
X115551Y55315D02*
Y90354D01*
X114173Y55886D02*
Y77165D01*
X96850Y38563D02*
X114173Y55886D01*
X111221Y94685D02*
X115551Y90354D01*
X107874Y47638D02*
X115551Y55315D01*
X78780Y97441D02*
X149409D01*
X74803Y93464D02*
X78780Y97441D01*
X149409D02*
X154921Y91929D01*
X76772Y93484D02*
X79351Y96063D01*
X76772Y88425D02*
Y93484D01*
X74803Y88425D02*
Y93464D01*
X79351Y96063D02*
X111811D01*
X32677Y26929D02*
X32767Y27019D01*
Y30602D01*
X42323Y40157D02*
X62992D01*
X32767Y30602D02*
X42323Y40157D01*
X48031Y38780D02*
X76440D01*
X38189Y28937D02*
X48031Y38780D01*
X38189Y22441D02*
Y28937D01*
X61024Y27731D02*
X69317Y36024D01*
X61024Y23228D02*
Y27731D01*
X69317Y36024D02*
X77581D01*
X49016Y22244D02*
Y29134D01*
X57284Y37402D02*
X77011D01*
X49016Y29134D02*
X57284Y37402D01*
X73032Y29331D02*
X94685Y50984D01*
X73032Y22441D02*
Y29331D01*
X78543Y16929D02*
X84449Y22835D01*
Y38583D02*
X96063Y50197D01*
X84449Y22835D02*
Y38583D01*
X96063Y50197D02*
Y62778D01*
X67520Y16929D02*
X73032Y22441D01*
X54724Y16929D02*
X61024Y23228D01*
X43701Y16929D02*
X49016Y22244D01*
X32677Y16929D02*
X38189Y22441D01*
X91339Y16929D02*
X96850Y22441D01*
X102362Y16929D02*
X107874Y22441D01*
X96850Y22441D02*
Y38563D01*
X107874Y22441D02*
Y47638D01*
X77011Y37402D02*
X91929Y52320D01*
X77581Y36024D02*
X93307Y51749D01*
X76440Y38780D02*
X90551Y52891D01*
X78740Y90093D02*
Y93504D01*
X111811Y96063D02*
X119134Y88740D01*
X79921Y94685D02*
X111221D01*
X78740Y93504D02*
X79921Y94685D01*
X154921Y83268D02*
Y91929D01*
X150394Y78740D02*
X154921Y83268D01*
X68980Y80784D02*
X69055Y80709D01*
X91929Y52320D02*
Y61066D01*
X93307Y51749D02*
Y61636D01*
X88425Y70416D02*
X96063Y62778D01*
X87660Y63386D02*
X90551Y60495D01*
X87837Y69055D02*
X94685Y62207D01*
Y50984D02*
Y62207D01*
X90551Y52891D02*
Y60495D01*
X88231Y64764D02*
X91929Y61066D01*
X88802Y66142D02*
X93307Y61636D01*
X62992Y40157D02*
X77063Y54228D01*
X78740Y66142D02*
X81496Y63386D01*
X78740Y66142D02*
Y69055D01*
X80709Y66535D02*
Y69055D01*
Y66535D02*
X82480Y64764D01*
X82677Y66929D02*
Y69055D01*
Y66929D02*
X83465Y66142D01*
X88802D01*
X77063Y54228D02*
X77165D01*
X119134Y88740D02*
X150394D01*
X81496Y63386D02*
X87660D01*
X78740Y69055D02*
X78837Y68958D01*
X84646Y69055D02*
X87837D01*
X88425Y70416D02*
Y72835D01*
X82480Y64764D02*
X88231D01*
D14*
X50000Y83856D02*
D03*
Y89372D02*
D03*
D20*
X108268Y73782D02*
D03*
Y67951D02*
D03*
Y89530D02*
D03*
Y83699D02*
D03*
X85433Y59608D02*
D03*
Y53777D02*
D03*
D21*
X71260Y59057D02*
D03*
Y54329D02*
D03*
D22*
X77165Y59158D02*
D03*
Y54228D02*
D03*
D23*
X58956Y59799D02*
D03*
Y72484D02*
D03*
D33*
X118504Y45472D02*
D03*
Y51378D02*
D03*
X125394Y51378D02*
D03*
Y45472D02*
D03*
D34*
X62402Y88583D02*
D03*
X56496D02*
D03*
D35*
X78740Y78740D02*
D03*
D36*
X69055Y72835D02*
D03*
Y74803D02*
D03*
Y76772D02*
D03*
Y78740D02*
D03*
Y80709D02*
D03*
Y82677D02*
D03*
Y84646D02*
D03*
X88425D02*
D03*
Y82677D02*
D03*
Y80709D02*
D03*
Y78740D02*
D03*
Y76772D02*
D03*
Y74803D02*
D03*
Y72835D02*
D03*
D37*
X72835Y88425D02*
D03*
X74803D02*
D03*
X76772D02*
D03*
X78740D02*
D03*
X80709D02*
D03*
X82677D02*
D03*
X84646D02*
D03*
Y69055D02*
D03*
X82677D02*
D03*
X80709D02*
D03*
X78740D02*
D03*
X76772D02*
D03*
X74803D02*
D03*
X72835D02*
D03*
D38*
X62402Y88583D02*
Y88976D01*
X59842Y91535D02*
X62402Y88976D01*
X51402Y91535D02*
X59842D01*
X50000Y90134D02*
X51402Y91535D01*
X50000Y89530D02*
Y90134D01*
X62402Y84949D02*
X62598Y84752D01*
X62402Y84949D02*
Y88583D01*
X62598Y84646D02*
Y84752D01*
X85790Y59252D02*
X88779D01*
X85433Y59608D02*
X85790Y59252D01*
X84646Y88425D02*
X107163D01*
X102793Y73782D02*
X108268D01*
X102559Y74016D02*
X102793Y73782D01*
X112098Y68110D02*
X112205D01*
X111939Y67951D02*
X112098Y68110D01*
X108268Y67951D02*
X111939D01*
X107163Y88425D02*
X108268Y89530D01*
X88425Y82677D02*
X92126D01*
X26339Y110630D02*
X26339Y110630D01*
X92520D01*
X6102Y34882D02*
X30315Y59095D01*
Y77165D02*
X47047Y93898D01*
X30315Y59095D02*
Y77165D01*
X47047Y93898D02*
X63386D01*
X45866Y96850D02*
X63976D01*
X27262Y66042D02*
Y78247D01*
X45866Y96850D01*
X63386Y93898D02*
X65699Y91585D01*
Y82139D02*
Y91585D01*
X69055Y84646D02*
Y91772D01*
X63976Y96850D02*
X69055Y91772D01*
X67129Y80709D02*
X69055D01*
X65699Y82139D02*
X67129Y80709D01*
X6102Y44882D02*
X27262Y66042D01*
X118504Y51378D02*
X125787D01*
X126473Y20962D02*
X129134Y23622D01*
X125394Y27165D02*
Y45472D01*
X115157Y16929D02*
X125394Y27165D01*
X126181Y16929D02*
X126473Y17221D01*
Y20962D01*
X129134Y23622D02*
Y48031D01*
X118504Y51378D02*
X118504Y51378D01*
Y42323D02*
Y45472D01*
X118504Y45472D02*
X118504Y45472D01*
X125787Y51378D02*
X129134Y48031D01*
X107321Y84646D02*
X108268Y83699D01*
X88425Y84646D02*
X107321D01*
X82677Y90838D02*
X84252Y92413D01*
Y92520D01*
X80709Y88425D02*
Y92520D01*
X82677Y88425D02*
Y90838D01*
X58374Y77362D02*
X58965Y76772D01*
X58268Y77362D02*
X58374D01*
X58965Y76772D02*
X69055D01*
X56496Y88583D02*
X56693Y88386D01*
Y85827D02*
Y88386D01*
Y85827D02*
X63779Y78740D01*
X69055D01*
X84646Y84646D02*
Y88425D01*
X83071Y83071D02*
X84646Y84646D01*
X118504Y51378D02*
Y54921D01*
X108389Y54603D02*
Y56765D01*
X90888Y76772D02*
X111342Y56318D01*
X108389Y54603D02*
X108465Y54528D01*
X90351Y74803D02*
X108389Y56765D01*
X111342Y55981D02*
X111417Y55905D01*
X111342Y55981D02*
Y56318D01*
X102215Y67951D02*
X108268D01*
X88425Y76772D02*
X90888D01*
X88425Y78740D02*
X91425D01*
X102215Y67951D01*
X88425Y74803D02*
X90351D01*
X71150Y58947D02*
X71260Y59057D01*
X112492Y83858D02*
X112598D01*
X108268Y83699D02*
X112332D01*
X112492Y83858D01*
X64567Y69685D02*
X67716Y72835D01*
X69055D01*
X64567Y65411D02*
Y69685D01*
X58956Y59799D02*
X64567Y65411D01*
X54724Y73527D02*
X55220Y73031D01*
X50000Y83071D02*
X54724Y78347D01*
Y73527D02*
Y78347D01*
X50000Y83071D02*
Y83699D01*
X58956Y72484D02*
X59679D01*
X61998Y74803D01*
X69055D01*
X82639Y55739D02*
X84031D01*
X85433Y54337D01*
X80709Y57669D02*
X82639Y55739D01*
X85433Y53777D02*
Y54337D01*
X77268Y54228D02*
X80709Y57669D01*
X77165Y54228D02*
X77268D01*
X80709Y57669D02*
Y61024D01*
X76772Y64961D02*
X80709Y61024D01*
X76772Y64961D02*
Y69055D01*
X77165Y59158D02*
Y61024D01*
X74803Y63386D02*
X77165Y61024D01*
X74803Y63386D02*
Y69055D01*
X71260Y59057D02*
Y61811D01*
X72835Y63386D02*
Y69055D01*
X71260Y61811D02*
X72835Y63386D01*
X55220Y73031D02*
X58409D01*
X58956Y72484D01*
D39*
X6102Y34882D02*
D03*
X54724Y26929D02*
D03*
X43701D02*
D03*
X32677D02*
D03*
X126181Y16929D02*
D03*
X78543Y26929D02*
D03*
X115157Y16929D02*
D03*
X67520Y26929D02*
D03*
X91339D02*
D03*
X102362D02*
D03*
X150394Y68740D02*
D03*
X150394Y51968D02*
D03*
Y115354D02*
D03*
D40*
X6102Y44882D02*
D03*
X16339Y110630D02*
D03*
X6339D02*
D03*
X54724Y16929D02*
D03*
Y6929D02*
D03*
X43701Y16929D02*
D03*
Y6929D02*
D03*
X32677Y16929D02*
D03*
Y6929D02*
D03*
X126181D02*
D03*
X78543Y16929D02*
D03*
Y6929D02*
D03*
X115157D02*
D03*
X67520Y16929D02*
D03*
Y6929D02*
D03*
X91339Y16929D02*
D03*
Y6929D02*
D03*
X102362Y16929D02*
D03*
Y6929D02*
D03*
X150394Y88740D02*
D03*
Y78740D02*
D03*
X150394Y41969D02*
D03*
Y105354D02*
D03*
D41*
X26339Y110630D02*
D03*
D42*
X16535Y68899D02*
D03*
X92521Y140945D02*
D03*
X45276Y140945D02*
D03*
D43*
X16535Y88584D02*
D03*
D44*
X112206Y140945D02*
D03*
X64961Y140945D02*
D03*
D45*
X11811Y11811D02*
D03*
X145669Y145669D02*
D03*
X11811D02*
D03*
X145669Y11811D02*
D03*
D46*
X136221Y112599D02*
D03*
Y65354D02*
D03*
X124409Y136221D02*
D03*
X112599Y112599D02*
D03*
X100787Y136221D02*
D03*
X53543D02*
D03*
X41732Y65354D02*
D03*
X29921Y136221D02*
D03*
Y41732D02*
D03*
X62598Y84646D02*
D03*
X88779Y59252D02*
D03*
X102559Y88583D02*
D03*
Y74016D02*
D03*
X112205Y68110D02*
D03*
X92126Y82677D02*
D03*
X102165Y99213D02*
D03*
X92520Y110630D02*
D03*
X118504Y42323D02*
D03*
X125394D02*
D03*
X84252Y92520D02*
D03*
X80709D02*
D03*
X58268Y77362D02*
D03*
X118504Y54921D02*
D03*
X108465Y54528D02*
D03*
X111417Y55905D02*
D03*
X112598Y83858D02*
D03*
D47*
X83071Y83071D02*
D03*
Y74410D02*
D03*
X78740Y78740D02*
D03*
X74410Y83071D02*
D03*
Y74410D02*
D03*
M02*
