G04*
G04 #@! TF.GenerationSoftware,Altium Limited,Altium Designer,21.7.2 (23)*
G04*
G04 Layer_Color=32896*
%FSLAX25Y25*%
%MOIN*%
G70*
G04*
G04 #@! TF.SameCoordinates,3D67BF19-0A55-4891-8FEB-F4BE30BF2CF6*
G04*
G04*
G04 #@! TF.FilePolarity,Positive*
G04*
G01*
G75*
%ADD11C,0.01000*%
D11*
X119210Y126123D02*
X123209D01*
Y120125D01*
X119210D01*
X123209Y123124D02*
X121210D01*
X117211Y120125D02*
Y124124D01*
X114212D01*
X113212Y123124D01*
Y120125D01*
X108214D02*
X110213D01*
X111213Y121125D01*
Y123124D01*
X110213Y124124D01*
X108214D01*
X107214Y123124D01*
Y122125D01*
X111213D01*
X105215Y124124D02*
Y120125D01*
Y122125D01*
X104215Y123124D01*
X103215Y124124D01*
X102216D01*
X97217Y118126D02*
X96218D01*
X95218Y119126D01*
Y124124D01*
X98217D01*
X99217Y123124D01*
Y121125D01*
X98217Y120125D01*
X95218D01*
X93219Y124124D02*
Y121125D01*
X92219Y120125D01*
X89220D01*
Y119126D01*
X90220Y118126D01*
X91219D01*
X89220Y120125D02*
Y124124D01*
X81222Y126123D02*
Y120125D01*
Y123124D01*
X77224D01*
Y126123D01*
Y120125D01*
X74225Y124124D02*
X72225D01*
X71226Y123124D01*
Y120125D01*
X74225D01*
X75225Y121125D01*
X74225Y122125D01*
X71226D01*
X69226Y124124D02*
Y120125D01*
Y122125D01*
X68227Y123124D01*
X67227Y124124D01*
X66227D01*
X63228D02*
X61229Y120125D01*
X59230Y124124D01*
X54231Y120125D02*
X56231D01*
X57230Y121125D01*
Y123124D01*
X56231Y124124D01*
X54231D01*
X53232Y123124D01*
Y122125D01*
X57230D01*
X51232Y120125D02*
X48233D01*
X47234Y121125D01*
X48233Y122125D01*
X50232D01*
X51232Y123124D01*
X50232Y124124D01*
X47234D01*
X44234Y125124D02*
Y124124D01*
X45234D01*
X43235D01*
X44234D01*
Y121125D01*
X43235Y120125D01*
X40236D02*
X38236D01*
X39236D01*
Y124124D01*
X40236D01*
X35237Y120125D02*
Y124124D01*
X32238D01*
X31239Y123124D01*
Y120125D01*
X27240Y118126D02*
X26240D01*
X25241Y119126D01*
Y124124D01*
X28240D01*
X29239Y123124D01*
Y121125D01*
X28240Y120125D01*
X25241D01*
X123016Y116841D02*
X119017D01*
X121016D01*
Y110843D01*
X113019Y116841D02*
X117018D01*
Y110843D01*
X113019D01*
X117018Y113842D02*
X115018D01*
X107021Y115841D02*
X108021Y116841D01*
X110020D01*
X111020Y115841D01*
Y111842D01*
X110020Y110843D01*
X108021D01*
X107021Y111842D01*
Y113842D01*
X109020D01*
M02*
